<?xml version="1.0" encoding="UTF-8"?>
<svg xmlns="http://www.w3.org/2000/svg" xmlns:xlink="http://www.w3.org/1999/xlink" width="311.6500" height="155.0000" viewBox="-7.0000 -14.0000 311.6500 155.0000">
<g id="fig">
   <line id="10" x1="166.000000" y1="6.000000" x2="174.000000" y2="10.000000" stroke="blue" stroke-width="2" stroke-opacity="1.000000"/>
   <line id="11" x1="21.000000" y1="42.000000" x2="23.000000" y2="76.000000" stroke="blue" stroke-width="2" stroke-opacity="1.000000"/>
   <line id="12" x1="66.000000" y1="42.000000" x2="64.000000" y2="79.000000" stroke="blue" stroke-width="2" stroke-opacity="1.000000"/>
   <line id="13" x1="21.000000" y1="83.000000" x2="63.000000" y2="83.000000" stroke="blue" stroke-width="2" stroke-opacity="1.000000"/>
   <line id="14" x1="24.000000" y1="38.000000" x2="60.000000" y2="39.000000" stroke="blue" stroke-width="2" stroke-opacity="1.000000"/>
   <line id="15" x1="22.000000" y1="37.000000" x2="40.000000" y2="28.000000" stroke="blue" stroke-width="2" stroke-opacity="1.000000"/>
   <line id="16" x1="43.000000" y1="27.000000" x2="82.000000" y2="27.000000" stroke="blue" stroke-width="2" stroke-opacity="1.000000"/>
   <line id="17" x1="242.650000" y1="60.250000" x2="243.650000" y2="101.250000" stroke="#501644" stroke-width="2" stroke-opacity="1.000000"/>
   <line id="18" x1="65.000000" y1="38.000000" x2="83.000000" y2="27.000000" stroke="blue" stroke-width="2" stroke-opacity="1.000000"/>
   <line id="19" x1="65.000000" y1="82.000000" x2="81.000000" y2="72.000000" stroke="blue" stroke-width="2" stroke-opacity="1.000000"/>
   <line id="20" x1="42.000000" y1="27.000000" x2="41.000000" y2="72.000000" stroke="blue" stroke-width="2" stroke-opacity="1.000000"/>
   <line id="21" x1="41.000000" y1="71.000000" x2="83.000000" y2="72.000000" stroke="blue" stroke-width="2" stroke-opacity="1.000000"/>
   <line id="22" x1="26.000000" y1="46.000000" x2="26.000000" y2="57.000000" stroke="blue" stroke-width="2" stroke-opacity="1.000000"/>
   <line id="23" x1="27.000000" y1="56.000000" x2="37.000000" y2="57.000000" stroke="blue" stroke-width="2" stroke-opacity="1.000000"/>
   <line id="24" x1="37.000000" y1="46.000000" x2="37.000000" y2="55.000000" stroke="blue" stroke-width="2" stroke-opacity="1.000000"/>
   <line id="25" x1="25.000000" y1="45.000000" x2="37.000000" y2="45.000000" stroke="blue" stroke-width="2" stroke-opacity="1.000000"/>
   <line id="26" x1="45.000000" y1="58.000000" x2="45.000000" y2="80.000000" stroke="blue" stroke-width="2" stroke-opacity="1.000000"/>
   <line id="27" x1="45.000000" y1="55.000000" x2="57.000000" y2="55.000000" stroke="blue" stroke-width="2" stroke-opacity="1.000000"/>
   <line id="28" x1="57.000000" y1="58.000000" x2="57.000000" y2="80.000000" stroke="blue" stroke-width="2" stroke-opacity="1.000000"/>
   <line id="29" x1="144.000000" y1="71.000000" x2="166.000000" y2="82.000000" stroke="blue" stroke-width="2" stroke-opacity="1.000000"/>
   <line id="30" x1="161.000000" y1="74.000000" x2="174.000000" y2="105.000000" stroke="blue" stroke-width="2" stroke-opacity="1.000000"/>
   <line id="31" x1="172.000000" y1="92.000000" x2="158.000000" y2="118.000000" stroke="blue" stroke-width="2" stroke-opacity="1.000000"/>
   <line id="32" x1="169.000000" y1="113.000000" x2="127.000000" y2="116.000000" stroke="blue" stroke-width="2" stroke-opacity="1.000000"/>
   <line id="33" x1="107.000000" y1="91.000000" x2="127.000000" y2="123.000000" stroke="blue" stroke-width="2" stroke-opacity="1.000000"/>
   <line id="34" x1="104.000000" y1="104.000000" x2="135.000000" y2="69.000000" stroke="blue" stroke-width="2" stroke-opacity="1.000000"/>
   <line id="35" x1="276.650000" y1="68.250000" x2="276.650000" y2="101.250000" stroke="#501644" stroke-width="2" stroke-opacity="1.000000"/>
   <line id="36" x1="119.000000" y1="35.000000" x2="137.000000" y2="22.000000" stroke="blue" stroke-width="2" stroke-opacity="1.000000"/>
   <line id="37" x1="276.650000" y1="47.250000" x2="277.650000" y2="66.250000" stroke="#501644" stroke-width="2" stroke-opacity="1.000000"/>
   <line id="38" x1="261.650000" y1="55.250000" x2="274.650000" y2="66.250000" stroke="#501644" stroke-width="2" stroke-opacity="1.000000"/>
   <line id="39" x1="265.650000" y1="48.250000" x2="277.650000" y2="56.250000" stroke="#501644" stroke-width="2" stroke-opacity="1.000000"/>
   <line id="40" x1="281.650000" y1="57.250000" x2="288.650000" y2="49.250000" stroke="#501644" stroke-width="2" stroke-opacity="1.000000"/>
   <line id="41" x1="281.650000" y1="49.250000" x2="289.650000" y2="38.250000" stroke="#501644" stroke-width="2" stroke-opacity="1.000000"/>
   <line id="42" x1="176.000000" y1="30.000000" x2="176.000000" y2="64.000000" stroke="blue" stroke-width="2" stroke-opacity="1.000000"/>
   <line id="43" x1="179.000000" y1="28.000000" x2="197.000000" y2="16.000000" stroke="blue" stroke-width="2" stroke-opacity="1.000000"/>
   <line id="44" x1="176.000000" y1="29.000000" x2="179.000000" y2="9.000000" stroke="blue" stroke-width="2" stroke-opacity="1.000000"/>
   <line id="45" x1="161.000000" y1="17.000000" x2="173.000000" y2="28.000000" stroke="blue" stroke-width="2" stroke-opacity="1.000000"/>
   <line id="46" x1="165.000000" y1="10.000000" x2="177.000000" y2="19.000000" stroke="blue" stroke-width="2" stroke-opacity="1.000000"/>
   <line id="47" x1="180.000000" y1="12.000000" x2="187.000000" y2="5.000000" stroke="blue" stroke-width="2" stroke-opacity="1.000000"/>
   <line id="48" x1="44.000000" y1="85.000000" x2="29.000000" y2="96.000000" stroke="blue" stroke-width="2" stroke-opacity="1.000000"/>
   <line id="49" x1="26.000000" y1="96.000000" x2="8.000000" y2="124.000000" stroke="blue" stroke-width="2" stroke-opacity="1.000000"/>
   <line id="50" x1="57.000000" y1="86.000000" x2="41.000000" y2="98.000000" stroke="blue" stroke-width="2" stroke-opacity="1.000000"/>
   <line id="51" x1="39.000000" y1="98.000000" x2="21.000000" y2="126.000000" stroke="blue" stroke-width="2" stroke-opacity="1.000000"/>
   <line id="52" x1="23.000000" y1="81.000000" x2="39.000000" y2="72.000000" stroke="blue" stroke-width="2" stroke-opacity="1.000000"/>
   <line id="53" x1="182.000000" y1="18.000000" x2="190.000000" y2="7.000000" stroke="blue" stroke-width="2" stroke-opacity="1.000000"/>
   <line id="54" x1="21.000000" y1="38.000000" x2="40.000000" y2="13.000000" stroke="blue" stroke-width="2" stroke-opacity="1.000000"/>
   <line id="55" x1="38.000000" y1="10.000000" x2="73.000000" y2="45.000000" stroke="blue" stroke-width="2" stroke-opacity="1.000000"/>
   <line id="56" x1="70.000000" y1="6.000000" x2="33.000000" y2="13.000000" stroke="blue" stroke-width="2" stroke-opacity="1.000000"/>
   <line id="57" x1="59.000000" y1="1.000000" x2="87.000000" y2="28.000000" stroke="blue" stroke-width="2" stroke-opacity="1.000000"/>
   <!-- sel -->
   <rect x="71.0000" y="1.0000" width="63.0000" height="106.2500" stroke="red" fill="transparent" stroke-dasharray="5,3" stroke-width="1.5"/>
   <circle cx="82.0000" cy="29.0000" r="6.0" stroke="red" fill="none" stroke-width="2.0"/>
   <circle cx="116.0000" cy="37.0000" r="6.0" stroke="red" fill="none" stroke-width="2.0"/>
   <circle cx="116.0000" cy="16.0000" r="6.0" stroke="red" fill="none" stroke-width="2.0"/>
   <circle cx="101.0000" cy="24.0000" r="6.0" stroke="red" fill="none" stroke-width="2.0"/>
   <circle cx="105.0000" cy="17.0000" r="6.0" stroke="red" fill="none" stroke-width="2.0"/>
   <circle cx="121.0000" cy="26.0000" r="6.0" stroke="red" fill="none" stroke-width="2.0"/>
   <circle cx="121.0000" cy="18.0000" r="6.0" stroke="red" fill="none" stroke-width="2.0"/>
</g>
</svg>
