<?xml version="1.0" encoding="UTF-8"?>
<svg xmlns="http://www.w3.org/2000/svg" xmlns:xlink="http://www.w3.org/1999/xlink" width="137.3081" height="137.3081" viewBox="-7.3081 -10.0000 137.3081 137.3081">
<g id="fig">
   <text x="115.000000" y="60.000000" id="10" text-anchor="middle" fill="#916f6f" stroke="None" font-family="sans-serif" font-size="9pt" font-weight="lighter">Sao teus guias brasileiros</text>
   <text x="102.797543" y="73.905765" id="11" text-anchor="middle" fill="#916f6f" stroke="None" font-family="sans-serif" font-size="9pt" font-weight="lighter">Que te amam eternamente</text>
   <text x="96.405765" y="86.450336" id="12" text-anchor="middle" fill="#916f6f" stroke="None" font-family="sans-serif" font-size="9pt" font-weight="lighter">De Sao Paulo tens o nome</text>
   <text x="92.328189" y="104.495935" id="13" text-anchor="middle" fill="#916f6f" stroke="None" font-family="sans-serif" font-size="9pt" font-weight="lighter">Que ostentas dignamente</text>
   <text x="73.905765" y="102.797543" id="14" text-anchor="middle" fill="#916f6f" stroke="None" font-family="sans-serif" font-size="9pt" font-weight="lighter">De Sao Paulo tens o nome</text>
   <text x="60.000000" y="105.000000" id="15" text-anchor="middle" fill="#916f6f" stroke="None" font-family="sans-serif" font-size="9pt" font-weight="lighter">Que ostentas dignamente</text>
   <text x="43.004065" y="112.308108" id="16" text-anchor="middle" fill="#916f6f" stroke="None" font-family="sans-serif" font-size="9pt" font-weight="lighter">Salve o tricolor paulista</text>
   <text x="33.549664" y="96.405765" id="17" text-anchor="middle" fill="#916f6f" stroke="None" font-family="sans-serif" font-size="9pt" font-weight="lighter">Amado clube brasileiro</text>
   <text x="23.594235" y="86.450336" id="18" text-anchor="middle" fill="#916f6f" stroke="None" font-family="sans-serif" font-size="9pt" font-weight="lighter">Tu es forte, tu es grande</text>
   <text x="7.691892" y="76.995935" id="19" text-anchor="middle" fill="#916f6f" stroke="None" font-family="sans-serif" font-size="9pt" font-weight="lighter">Dentre os grandes es o primeiro</text>
   <text x="15.000000" y="60.000000" id="20" text-anchor="middle" fill="#916f6f" stroke="None" font-family="sans-serif" font-size="9pt" font-weight="lighter">Tu es forte, tu es grande</text>
   <text x="17.202457" y="46.094235" id="21" text-anchor="middle" fill="#916f6f" stroke="None" font-family="sans-serif" font-size="9pt" font-weight="lighter">Dentre os grandes es o primeiro</text>
   <text x="15.504065" y="27.671811" id="22" text-anchor="middle" fill="#916f6f" stroke="None" font-family="sans-serif" font-size="9pt" font-weight="lighter">Oh, Tricolor</text>
   <text x="33.549664" y="23.594235" id="23" text-anchor="middle" fill="#916f6f" stroke="None" font-family="sans-serif" font-size="9pt" font-weight="lighter">Clube bem amado</text>
   <text x="46.094235" y="17.202457" id="24" text-anchor="middle" fill="#916f6f" stroke="None" font-family="sans-serif" font-size="9pt" font-weight="lighter">As tuas gloriasVem do passado</text>
   <text x="60.000000" y="5.000000" id="25" text-anchor="middle" fill="#916f6f" stroke="None" font-family="sans-serif" font-size="9pt" font-weight="lighter">Sao teus guias brasileiros</text>
   <text x="73.905765" y="17.202457" id="26" text-anchor="middle" fill="#916f6f" stroke="None" font-family="sans-serif" font-size="9pt" font-weight="lighter">Que te amam eternamente</text>
   <text x="86.450336" y="23.594235" id="27" text-anchor="middle" fill="#916f6f" stroke="None" font-family="sans-serif" font-size="9pt" font-weight="lighter">De Sao Paulo tens o nome</text>
   <text x="104.495935" y="27.671811" id="28" text-anchor="middle" fill="#916f6f" stroke="None" font-family="sans-serif" font-size="9pt" font-weight="lighter">Que ostentas dignamente</text>
   <text x="102.797543" y="46.094235" id="29" text-anchor="middle" fill="#916f6f" stroke="None" font-family="sans-serif" font-size="9pt" font-weight="lighter">De Sao Paulo tens o nome</text>
   <line id="39" x1="115.000000" y1="60.000000" x2="102.797543" y2="73.905765" stroke="#5f5dd3" stroke-width="2" stroke-opacity="1.000000"/>
   <line id="40" x1="102.797543" y1="73.905765" x2="96.405765" y2="86.450336" stroke="#5f5dd3" stroke-width="2" stroke-opacity="1.000000"/>
   <line id="41" x1="96.405765" y1="86.450336" x2="92.328189" y2="104.495935" stroke="#5f5dd3" stroke-width="2" stroke-opacity="1.000000"/>
   <line id="42" x1="92.328189" y1="104.495935" x2="73.905765" y2="102.797543" stroke="#5f5dd3" stroke-width="2" stroke-opacity="1.000000"/>
   <line id="43" x1="73.905765" y1="102.797543" x2="60.000000" y2="105.000000" stroke="#5f5dd3" stroke-width="2" stroke-opacity="1.000000"/>
   <line id="44" x1="60.000000" y1="105.000000" x2="43.004065" y2="112.308108" stroke="#5f5dd3" stroke-width="2" stroke-opacity="1.000000"/>
   <line id="45" x1="43.004065" y1="112.308108" x2="33.549664" y2="96.405765" stroke="#5f5dd3" stroke-width="2" stroke-opacity="1.000000"/>
   <line id="46" x1="33.549664" y1="96.405765" x2="23.594235" y2="86.450336" stroke="#5f5dd3" stroke-width="2" stroke-opacity="1.000000"/>
   <line id="47" x1="23.594235" y1="86.450336" x2="7.691892" y2="76.995935" stroke="#5f5dd3" stroke-width="2" stroke-opacity="1.000000"/>
   <line id="48" x1="7.691892" y1="76.995935" x2="15.000000" y2="60.000000" stroke="#5f5dd3" stroke-width="2" stroke-opacity="1.000000"/>
   <line id="49" x1="15.000000" y1="60.000000" x2="17.202457" y2="46.094235" stroke="#5f5dd3" stroke-width="2" stroke-opacity="1.000000"/>
   <line id="50" x1="17.202457" y1="46.094235" x2="15.504065" y2="27.671811" stroke="#5f5dd3" stroke-width="2" stroke-opacity="1.000000"/>
   <line id="51" x1="15.504065" y1="27.671811" x2="33.549664" y2="23.594235" stroke="#5f5dd3" stroke-width="2" stroke-opacity="1.000000"/>
   <line id="52" x1="33.549664" y1="23.594235" x2="46.094235" y2="17.202457" stroke="#5f5dd3" stroke-width="2" stroke-opacity="1.000000"/>
   <line id="53" x1="46.094235" y1="17.202457" x2="60.000000" y2="5.000000" stroke="#5f5dd3" stroke-width="2" stroke-opacity="1.000000"/>
   <line id="54" x1="60.000000" y1="5.000000" x2="73.905765" y2="17.202457" stroke="#5f5dd3" stroke-width="2" stroke-opacity="1.000000"/>
   <line id="55" x1="73.905765" y1="17.202457" x2="86.450336" y2="23.594235" stroke="#5f5dd3" stroke-width="2" stroke-opacity="1.000000"/>
   <line id="56" x1="86.450336" y1="23.594235" x2="104.495935" y2="27.671811" stroke="#5f5dd3" stroke-width="2" stroke-opacity="1.000000"/>
   <line id="57" x1="104.495935" y1="27.671811" x2="102.797543" y2="46.094235" stroke="#5f5dd3" stroke-width="2" stroke-opacity="1.000000"/>
   <line id="58" x1="102.797543" y1="46.094235" x2="115.000000" y2="60.000000" stroke="#5f5dd3" stroke-width="2" stroke-opacity="1.000000"/>
   <line id="59" x1="59.145310" y1="5.750000" x2="60.854690" y2="5.750000" stroke="#5fd3bc" stroke-width="2" stroke-opacity="1.000000"/>
   <line id="60" x1="58.290619" y1="6.500000" x2="61.709381" y2="6.500000" stroke="#5fd3bc" stroke-width="2" stroke-opacity="1.000000"/>
   <line id="61" x1="57.435929" y1="7.250000" x2="62.564071" y2="7.250000" stroke="#5fd3bc" stroke-width="2" stroke-opacity="1.000000"/>
   <line id="62" x1="56.581238" y1="8.000000" x2="63.418762" y2="8.000000" stroke="#5fd3bc" stroke-width="2" stroke-opacity="1.000000"/>
   <line id="63" x1="55.726548" y1="8.750000" x2="64.273452" y2="8.750000" stroke="#5fd3bc" stroke-width="2" stroke-opacity="1.000000"/>
   <line id="64" x1="54.871857" y1="9.500000" x2="65.128143" y2="9.500000" stroke="#5fd3bc" stroke-width="2" stroke-opacity="1.000000"/>
   <line id="65" x1="54.017167" y1="10.250000" x2="65.982833" y2="10.250000" stroke="#5fd3bc" stroke-width="2" stroke-opacity="1.000000"/>
   <line id="66" x1="53.162476" y1="11.000000" x2="66.837524" y2="11.000000" stroke="#5fd3bc" stroke-width="2" stroke-opacity="1.000000"/>
   <line id="67" x1="52.307786" y1="11.750000" x2="67.692214" y2="11.750000" stroke="#5fd3bc" stroke-width="2" stroke-opacity="1.000000"/>
   <line id="68" x1="51.453095" y1="12.500000" x2="68.546905" y2="12.500000" stroke="#5fd3bc" stroke-width="2" stroke-opacity="1.000000"/>
   <line id="69" x1="50.598405" y1="13.250000" x2="69.401595" y2="13.250000" stroke="#5fd3bc" stroke-width="2" stroke-opacity="1.000000"/>
   <line id="70" x1="49.743714" y1="14.000000" x2="70.256286" y2="14.000000" stroke="#5fd3bc" stroke-width="2" stroke-opacity="1.000000"/>
   <line id="71" x1="48.889024" y1="14.750000" x2="71.110976" y2="14.750000" stroke="#5fd3bc" stroke-width="2" stroke-opacity="1.000000"/>
   <line id="72" x1="48.034333" y1="15.500000" x2="71.965667" y2="15.500000" stroke="#5fd3bc" stroke-width="2" stroke-opacity="1.000000"/>
   <line id="73" x1="47.179643" y1="16.250000" x2="72.820357" y2="16.250000" stroke="#5fd3bc" stroke-width="2" stroke-opacity="1.000000"/>
   <line id="74" x1="46.324952" y1="17.000000" x2="73.675048" y2="17.000000" stroke="#5fd3bc" stroke-width="2" stroke-opacity="1.000000"/>
   <line id="75" x1="45.019621" y1="17.750000" x2="74.980379" y2="17.750000" stroke="#5fd3bc" stroke-width="2" stroke-opacity="1.000000"/>
   <line id="76" x1="43.547663" y1="18.500000" x2="76.452337" y2="18.500000" stroke="#5fd3bc" stroke-width="2" stroke-opacity="1.000000"/>
   <line id="77" x1="42.075705" y1="19.250000" x2="77.924295" y2="19.250000" stroke="#5fd3bc" stroke-width="2" stroke-opacity="1.000000"/>
   <line id="78" x1="40.603748" y1="20.000000" x2="79.396252" y2="20.000000" stroke="#5fd3bc" stroke-width="2" stroke-opacity="1.000000"/>
   <line id="79" x1="39.131790" y1="20.750000" x2="80.868210" y2="20.750000" stroke="#5fd3bc" stroke-width="2" stroke-opacity="1.000000"/>
   <line id="80" x1="37.659832" y1="21.500000" x2="82.340168" y2="21.500000" stroke="#5fd3bc" stroke-width="2" stroke-opacity="1.000000"/>
   <line id="81" x1="36.187874" y1="22.250000" x2="83.812126" y2="22.250000" stroke="#5fd3bc" stroke-width="2" stroke-opacity="1.000000"/>
   <line id="82" x1="34.715916" y1="23.000000" x2="85.284084" y2="23.000000" stroke="#5fd3bc" stroke-width="2" stroke-opacity="1.000000"/>
   <line id="83" x1="32.860315" y1="23.750000" x2="87.139685" y2="23.750000" stroke="#5fd3bc" stroke-width="2" stroke-opacity="1.000000"/>
   <line id="84" x1="29.541137" y1="24.500000" x2="90.458863" y2="24.500000" stroke="#5fd3bc" stroke-width="2" stroke-opacity="1.000000"/>
   <line id="85" x1="26.221960" y1="25.250000" x2="93.778040" y2="25.250000" stroke="#5fd3bc" stroke-width="2" stroke-opacity="1.000000"/>
   <line id="86" x1="22.902782" y1="26.000000" x2="97.097218" y2="26.000000" stroke="#5fd3bc" stroke-width="2" stroke-opacity="1.000000"/>
   <line id="87" x1="19.583604" y1="26.750000" x2="100.416396" y2="26.750000" stroke="#5fd3bc" stroke-width="2" stroke-opacity="1.000000"/>
   <line id="88" x1="16.264427" y1="27.500000" x2="103.735573" y2="27.500000" stroke="#5fd3bc" stroke-width="2" stroke-opacity="1.000000"/>
   <line id="89" x1="15.557369" y1="28.250000" x2="104.442631" y2="28.250000" stroke="#5fd3bc" stroke-width="2" stroke-opacity="1.000000"/>
   <line id="90" x1="15.626513" y1="29.000000" x2="104.373487" y2="29.000000" stroke="#5fd3bc" stroke-width="2" stroke-opacity="1.000000"/>
   <line id="91" x1="15.695656" y1="29.750000" x2="104.304344" y2="29.750000" stroke="#5fd3bc" stroke-width="2" stroke-opacity="1.000000"/>
   <line id="92" x1="15.764800" y1="30.500000" x2="104.235200" y2="30.500000" stroke="#5fd3bc" stroke-width="2" stroke-opacity="1.000000"/>
   <line id="93" x1="15.833944" y1="31.250000" x2="104.166056" y2="31.250000" stroke="#5fd3bc" stroke-width="2" stroke-opacity="1.000000"/>
   <line id="94" x1="15.903087" y1="32.000000" x2="104.096913" y2="32.000000" stroke="#5fd3bc" stroke-width="2" stroke-opacity="1.000000"/>
   <line id="95" x1="15.972231" y1="32.750000" x2="104.027769" y2="32.750000" stroke="#5fd3bc" stroke-width="2" stroke-opacity="1.000000"/>
   <line id="96" x1="16.041375" y1="33.500000" x2="103.958625" y2="33.500000" stroke="#5fd3bc" stroke-width="2" stroke-opacity="1.000000"/>
   <line id="97" x1="16.110519" y1="34.250000" x2="103.889481" y2="34.250000" stroke="#5fd3bc" stroke-width="2" stroke-opacity="1.000000"/>
   <line id="98" x1="16.179662" y1="35.000000" x2="103.820338" y2="35.000000" stroke="#5fd3bc" stroke-width="2" stroke-opacity="1.000000"/>
   <line id="99" x1="16.248806" y1="35.750000" x2="103.751194" y2="35.750000" stroke="#5fd3bc" stroke-width="2" stroke-opacity="1.000000"/>
   <line id="100" x1="16.317950" y1="36.500000" x2="103.682050" y2="36.500000" stroke="#5fd3bc" stroke-width="2" stroke-opacity="1.000000"/>
   <line id="101" x1="16.387093" y1="37.250000" x2="103.612907" y2="37.250000" stroke="#5fd3bc" stroke-width="2" stroke-opacity="1.000000"/>
   <line id="102" x1="16.456237" y1="38.000000" x2="103.543763" y2="38.000000" stroke="#5fd3bc" stroke-width="2" stroke-opacity="1.000000"/>
   <line id="103" x1="16.525381" y1="38.750000" x2="103.474619" y2="38.750000" stroke="#5fd3bc" stroke-width="2" stroke-opacity="1.000000"/>
   <line id="104" x1="16.594524" y1="39.500000" x2="103.405476" y2="39.500000" stroke="#5fd3bc" stroke-width="2" stroke-opacity="1.000000"/>
   <line id="105" x1="16.663668" y1="40.250000" x2="103.336332" y2="40.250000" stroke="#5fd3bc" stroke-width="2" stroke-opacity="1.000000"/>
   <line id="106" x1="16.732812" y1="41.000000" x2="103.267188" y2="41.000000" stroke="#5fd3bc" stroke-width="2" stroke-opacity="1.000000"/>
   <line id="107" x1="16.801955" y1="41.750000" x2="103.198045" y2="41.750000" stroke="#5fd3bc" stroke-width="2" stroke-opacity="1.000000"/>
   <line id="108" x1="16.871099" y1="42.500000" x2="103.128901" y2="42.500000" stroke="#5fd3bc" stroke-width="2" stroke-opacity="1.000000"/>
   <line id="109" x1="16.940243" y1="43.250000" x2="103.059757" y2="43.250000" stroke="#5fd3bc" stroke-width="2" stroke-opacity="1.000000"/>
   <line id="110" x1="17.009386" y1="44.000000" x2="102.990614" y2="44.000000" stroke="#5fd3bc" stroke-width="2" stroke-opacity="1.000000"/>
   <line id="111" x1="17.078530" y1="44.750000" x2="102.921470" y2="44.750000" stroke="#5fd3bc" stroke-width="2" stroke-opacity="1.000000"/>
   <line id="112" x1="17.147674" y1="45.500000" x2="102.852326" y2="45.500000" stroke="#5fd3bc" stroke-width="2" stroke-opacity="1.000000"/>
   <line id="113" x1="17.177786" y1="46.250000" x2="102.934228" y2="46.250000" stroke="#5fd3bc" stroke-width="2" stroke-opacity="1.000000"/>
   <line id="114" x1="17.058998" y1="47.000000" x2="103.592361" y2="47.000000" stroke="#5fd3bc" stroke-width="2" stroke-opacity="1.000000"/>
   <line id="115" x1="16.940210" y1="47.750000" x2="104.250494" y2="47.750000" stroke="#5fd3bc" stroke-width="2" stroke-opacity="1.000000"/>
   <line id="116" x1="16.821421" y1="48.500000" x2="104.908627" y2="48.500000" stroke="#5fd3bc" stroke-width="2" stroke-opacity="1.000000"/>
   <line id="117" x1="16.702633" y1="49.250000" x2="105.566760" y2="49.250000" stroke="#5fd3bc" stroke-width="2" stroke-opacity="1.000000"/>
   <line id="118" x1="16.583845" y1="50.000000" x2="106.224893" y2="50.000000" stroke="#5fd3bc" stroke-width="2" stroke-opacity="1.000000"/>
   <line id="119" x1="16.465056" y1="50.750000" x2="106.883026" y2="50.750000" stroke="#5fd3bc" stroke-width="2" stroke-opacity="1.000000"/>
   <line id="120" x1="16.346268" y1="51.500000" x2="107.541159" y2="51.500000" stroke="#5fd3bc" stroke-width="2" stroke-opacity="1.000000"/>
   <line id="121" x1="16.227480" y1="52.250000" x2="108.199292" y2="52.250000" stroke="#5fd3bc" stroke-width="2" stroke-opacity="1.000000"/>
   <line id="122" x1="16.108691" y1="53.000000" x2="108.857425" y2="53.000000" stroke="#5fd3bc" stroke-width="2" stroke-opacity="1.000000"/>
   <line id="123" x1="15.989903" y1="53.750000" x2="109.515558" y2="53.750000" stroke="#5fd3bc" stroke-width="2" stroke-opacity="1.000000"/>
   <line id="124" x1="15.871114" y1="54.500000" x2="110.173691" y2="54.500000" stroke="#5fd3bc" stroke-width="2" stroke-opacity="1.000000"/>
   <line id="125" x1="15.752326" y1="55.250000" x2="110.831824" y2="55.250000" stroke="#5fd3bc" stroke-width="2" stroke-opacity="1.000000"/>
   <line id="126" x1="15.633538" y1="56.000000" x2="111.489957" y2="56.000000" stroke="#5fd3bc" stroke-width="2" stroke-opacity="1.000000"/>
   <line id="127" x1="15.514749" y1="56.750000" x2="112.148090" y2="56.750000" stroke="#5fd3bc" stroke-width="2" stroke-opacity="1.000000"/>
   <line id="128" x1="15.395961" y1="57.500000" x2="112.806223" y2="57.500000" stroke="#5fd3bc" stroke-width="2" stroke-opacity="1.000000"/>
   <line id="129" x1="15.277173" y1="58.250000" x2="113.464356" y2="58.250000" stroke="#5fd3bc" stroke-width="2" stroke-opacity="1.000000"/>
   <line id="130" x1="15.158384" y1="59.000000" x2="114.122489" y2="59.000000" stroke="#5fd3bc" stroke-width="2" stroke-opacity="1.000000"/>
   <line id="131" x1="15.039596" y1="59.750000" x2="114.780622" y2="59.750000" stroke="#5fd3bc" stroke-width="2" stroke-opacity="1.000000"/>
   <line id="132" x1="14.785004" y1="60.500000" x2="114.561245" y2="60.500000" stroke="#5fd3bc" stroke-width="2" stroke-opacity="1.000000"/>
   <line id="133" x1="14.462511" y1="61.250000" x2="113.903112" y2="61.250000" stroke="#5fd3bc" stroke-width="2" stroke-opacity="1.000000"/>
   <line id="134" x1="14.140017" y1="62.000000" x2="113.244979" y2="62.000000" stroke="#5fd3bc" stroke-width="2" stroke-opacity="1.000000"/>
   <line id="135" x1="13.817523" y1="62.750000" x2="112.586846" y2="62.750000" stroke="#5fd3bc" stroke-width="2" stroke-opacity="1.000000"/>
   <line id="136" x1="13.495030" y1="63.500000" x2="111.928713" y2="63.500000" stroke="#5fd3bc" stroke-width="2" stroke-opacity="1.000000"/>
   <line id="137" x1="13.172536" y1="64.250000" x2="111.270580" y2="64.250000" stroke="#5fd3bc" stroke-width="2" stroke-opacity="1.000000"/>
   <line id="138" x1="12.850042" y1="65.000000" x2="110.612447" y2="65.000000" stroke="#5fd3bc" stroke-width="2" stroke-opacity="1.000000"/>
   <line id="139" x1="12.527549" y1="65.750000" x2="109.954314" y2="65.750000" stroke="#5fd3bc" stroke-width="2" stroke-opacity="1.000000"/>
   <line id="140" x1="12.205055" y1="66.500000" x2="109.296181" y2="66.500000" stroke="#5fd3bc" stroke-width="2" stroke-opacity="1.000000"/>
   <line id="141" x1="11.882561" y1="67.250000" x2="108.638048" y2="67.250000" stroke="#5fd3bc" stroke-width="2" stroke-opacity="1.000000"/>
   <line id="142" x1="11.560068" y1="68.000000" x2="107.979915" y2="68.000000" stroke="#5fd3bc" stroke-width="2" stroke-opacity="1.000000"/>
   <line id="143" x1="11.237574" y1="68.750000" x2="107.321782" y2="68.750000" stroke="#5fd3bc" stroke-width="2" stroke-opacity="1.000000"/>
   <line id="144" x1="10.915081" y1="69.500000" x2="106.663649" y2="69.500000" stroke="#5fd3bc" stroke-width="2" stroke-opacity="1.000000"/>
   <line id="145" x1="10.592587" y1="70.250000" x2="106.005516" y2="70.250000" stroke="#5fd3bc" stroke-width="2" stroke-opacity="1.000000"/>
   <line id="146" x1="10.270093" y1="71.000000" x2="105.347383" y2="71.000000" stroke="#5fd3bc" stroke-width="2" stroke-opacity="1.000000"/>
   <line id="147" x1="9.947600" y1="71.750000" x2="104.689250" y2="71.750000" stroke="#5fd3bc" stroke-width="2" stroke-opacity="1.000000"/>
   <line id="148" x1="9.625106" y1="72.500000" x2="104.031117" y2="72.500000" stroke="#5fd3bc" stroke-width="2" stroke-opacity="1.000000"/>
   <line id="149" x1="9.302612" y1="73.250000" x2="103.372984" y2="73.250000" stroke="#5fd3bc" stroke-width="2" stroke-opacity="1.000000"/>
   <line id="150" x1="8.980119" y1="74.000000" x2="102.749528" y2="74.000000" stroke="#5fd3bc" stroke-width="2" stroke-opacity="1.000000"/>
   <line id="151" x1="8.657625" y1="74.750000" x2="102.367384" y2="74.750000" stroke="#5fd3bc" stroke-width="2" stroke-opacity="1.000000"/>
   <line id="152" x1="8.335131" y1="75.500000" x2="101.985240" y2="75.500000" stroke="#5fd3bc" stroke-width="2" stroke-opacity="1.000000"/>
   <line id="153" x1="8.012638" y1="76.250000" x2="101.603096" y2="76.250000" stroke="#5fd3bc" stroke-width="2" stroke-opacity="1.000000"/>
   <line id="154" x1="7.698729" y1="77.000000" x2="101.220952" y2="77.000000" stroke="#5fd3bc" stroke-width="2" stroke-opacity="1.000000"/>
   <line id="155" x1="8.960233" y1="77.750000" x2="100.838807" y2="77.750000" stroke="#5fd3bc" stroke-width="2" stroke-opacity="1.000000"/>
   <line id="156" x1="10.221736" y1="78.500000" x2="100.456663" y2="78.500000" stroke="#5fd3bc" stroke-width="2" stroke-opacity="1.000000"/>
   <line id="157" x1="11.483239" y1="79.250000" x2="100.074519" y2="79.250000" stroke="#5fd3bc" stroke-width="2" stroke-opacity="1.000000"/>
   <line id="158" x1="12.744742" y1="80.000000" x2="99.692375" y2="80.000000" stroke="#5fd3bc" stroke-width="2" stroke-opacity="1.000000"/>
   <line id="159" x1="14.006245" y1="80.750000" x2="99.310231" y2="80.750000" stroke="#5fd3bc" stroke-width="2" stroke-opacity="1.000000"/>
   <line id="160" x1="15.267749" y1="81.500000" x2="98.928087" y2="81.500000" stroke="#5fd3bc" stroke-width="2" stroke-opacity="1.000000"/>
   <line id="161" x1="16.529252" y1="82.250000" x2="98.545943" y2="82.250000" stroke="#5fd3bc" stroke-width="2" stroke-opacity="1.000000"/>
   <line id="162" x1="17.790755" y1="83.000000" x2="98.163799" y2="83.000000" stroke="#5fd3bc" stroke-width="2" stroke-opacity="1.000000"/>
   <line id="163" x1="19.052258" y1="83.750000" x2="97.781655" y2="83.750000" stroke="#5fd3bc" stroke-width="2" stroke-opacity="1.000000"/>
   <line id="164" x1="20.313761" y1="84.500000" x2="97.399511" y2="84.500000" stroke="#5fd3bc" stroke-width="2" stroke-opacity="1.000000"/>
   <line id="165" x1="21.575265" y1="85.250000" x2="97.017367" y2="85.250000" stroke="#5fd3bc" stroke-width="2" stroke-opacity="1.000000"/>
   <line id="166" x1="22.836768" y1="86.000000" x2="96.635223" y2="86.000000" stroke="#5fd3bc" stroke-width="2" stroke-opacity="1.000000"/>
   <line id="167" x1="23.893899" y1="86.750000" x2="96.338053" y2="86.750000" stroke="#5fd3bc" stroke-width="2" stroke-opacity="1.000000"/>
   <line id="168" x1="24.643899" y1="87.500000" x2="96.168583" y2="87.500000" stroke="#5fd3bc" stroke-width="2" stroke-opacity="1.000000"/>
   <line id="169" x1="25.393899" y1="88.250000" x2="95.999114" y2="88.250000" stroke="#5fd3bc" stroke-width="2" stroke-opacity="1.000000"/>
   <line id="170" x1="26.143899" y1="89.000000" x2="95.829644" y2="89.000000" stroke="#5fd3bc" stroke-width="2" stroke-opacity="1.000000"/>
   <line id="171" x1="26.893899" y1="89.750000" x2="95.660174" y2="89.750000" stroke="#5fd3bc" stroke-width="2" stroke-opacity="1.000000"/>
   <line id="172" x1="27.643899" y1="90.500000" x2="95.490705" y2="90.500000" stroke="#5fd3bc" stroke-width="2" stroke-opacity="1.000000"/>
   <line id="173" x1="28.393899" y1="91.250000" x2="95.321235" y2="91.250000" stroke="#5fd3bc" stroke-width="2" stroke-opacity="1.000000"/>
   <line id="174" x1="29.143899" y1="92.000000" x2="95.151765" y2="92.000000" stroke="#5fd3bc" stroke-width="2" stroke-opacity="1.000000"/>
   <line id="175" x1="29.893899" y1="92.750000" x2="94.982296" y2="92.750000" stroke="#5fd3bc" stroke-width="2" stroke-opacity="1.000000"/>
   <line id="176" x1="30.643899" y1="93.500000" x2="94.812826" y2="93.500000" stroke="#5fd3bc" stroke-width="2" stroke-opacity="1.000000"/>
   <line id="177" x1="31.393899" y1="94.250000" x2="94.643356" y2="94.250000" stroke="#5fd3bc" stroke-width="2" stroke-opacity="1.000000"/>
   <line id="178" x1="32.143899" y1="95.000000" x2="94.473886" y2="95.000000" stroke="#5fd3bc" stroke-width="2" stroke-opacity="1.000000"/>
   <line id="179" x1="32.893899" y1="95.750000" x2="94.304417" y2="95.750000" stroke="#5fd3bc" stroke-width="2" stroke-opacity="1.000000"/>
   <line id="180" x1="33.605689" y1="96.500000" x2="94.134947" y2="96.500000" stroke="#5fd3bc" stroke-width="2" stroke-opacity="1.000000"/>
   <line id="181" x1="34.051586" y1="97.250000" x2="93.965477" y2="97.250000" stroke="#5fd3bc" stroke-width="2" stroke-opacity="1.000000"/>
   <line id="182" x1="34.497483" y1="98.000000" x2="93.796008" y2="98.000000" stroke="#5fd3bc" stroke-width="2" stroke-opacity="1.000000"/>
   <line id="183" x1="34.943379" y1="98.750000" x2="93.626538" y2="98.750000" stroke="#5fd3bc" stroke-width="2" stroke-opacity="1.000000"/>
   <line id="184" x1="35.389276" y1="99.500000" x2="93.457068" y2="99.500000" stroke="#5fd3bc" stroke-width="2" stroke-opacity="1.000000"/>
   <line id="185" x1="35.835172" y1="100.250000" x2="93.287599" y2="100.250000" stroke="#5fd3bc" stroke-width="2" stroke-opacity="1.000000"/>
   <line id="186" x1="36.281069" y1="101.000000" x2="93.118129" y2="101.000000" stroke="#5fd3bc" stroke-width="2" stroke-opacity="1.000000"/>
   <line id="187" x1="36.726966" y1="101.750000" x2="92.948659" y2="101.750000" stroke="#5fd3bc" stroke-width="2" stroke-opacity="1.000000"/>
   <line id="188" x1="37.172862" y1="102.500000" x2="92.779190" y2="102.500000" stroke="#5fd3bc" stroke-width="2" stroke-opacity="1.000000"/>
   <line id="189" x1="37.618759" y1="103.250000" x2="71.049064" y2="103.250000" stroke="#5fd3bc" stroke-width="2" stroke-opacity="1.000000"/>
   <line id="190" x1="78.813557" y1="103.250000" x2="92.609720" y2="103.250000" stroke="#5fd3bc" stroke-width="2" stroke-opacity="1.000000"/>
   <line id="191" x1="38.064655" y1="104.000000" x2="66.313751" y2="104.000000" stroke="#5fd3bc" stroke-width="2" stroke-opacity="1.000000"/>
   <line id="192" x1="86.948792" y1="104.000000" x2="92.440250" y2="104.000000" stroke="#5fd3bc" stroke-width="2" stroke-opacity="1.000000"/>
   <line id="193" x1="38.510552" y1="104.750000" x2="61.578438" y2="104.750000" stroke="#5fd3bc" stroke-width="2" stroke-opacity="1.000000"/>
   <line id="194" x1="38.956449" y1="105.500000" x2="58.837186" y2="105.500000" stroke="#5fd3bc" stroke-width="2" stroke-opacity="1.000000"/>
   <line id="195" x1="39.402345" y1="106.250000" x2="57.092966" y2="106.250000" stroke="#5fd3bc" stroke-width="2" stroke-opacity="1.000000"/>
   <line id="196" x1="39.848242" y1="107.000000" x2="55.348746" y2="107.000000" stroke="#5fd3bc" stroke-width="2" stroke-opacity="1.000000"/>
   <line id="197" x1="40.294138" y1="107.750000" x2="53.604525" y2="107.750000" stroke="#5fd3bc" stroke-width="2" stroke-opacity="1.000000"/>
   <line id="198" x1="40.740035" y1="108.500000" x2="51.860305" y2="108.500000" stroke="#5fd3bc" stroke-width="2" stroke-opacity="1.000000"/>
   <line id="199" x1="41.185932" y1="109.250000" x2="50.116084" y2="109.250000" stroke="#5fd3bc" stroke-width="2" stroke-opacity="1.000000"/>
   <line id="200" x1="41.631828" y1="110.000000" x2="48.371864" y2="110.000000" stroke="#5fd3bc" stroke-width="2" stroke-opacity="1.000000"/>
   <line id="201" x1="42.077725" y1="110.750000" x2="46.627643" y2="110.750000" stroke="#5fd3bc" stroke-width="2" stroke-opacity="1.000000"/>
   <line id="202" x1="42.523622" y1="111.500000" x2="44.883423" y2="111.500000" stroke="#5fd3bc" stroke-width="2" stroke-opacity="1.000000"/>
   <line id="203" x1="42.969518" y1="112.250000" x2="43.139203" y2="112.250000" stroke="#5fd3bc" stroke-width="2" stroke-opacity="1.000000"/>
   <!-- sel -->
   <rect x="7.1900" y="4.5000" width="108.3100" height="81.2300" stroke="red" fill="transparent" stroke-dasharray="5,3" stroke-width="1.5"/>
   <circle cx="115.0000" cy="60.0000" r="6.0" stroke="red" fill="none" stroke-width="2.0"/>
   <circle cx="102.7975" cy="73.9058" r="6.0" stroke="red" fill="none" stroke-width="2.0"/>
   <circle cx="7.6919" cy="76.9959" r="6.0" stroke="red" fill="none" stroke-width="2.0"/>
   <circle cx="15.0000" cy="60.0000" r="6.0" stroke="red" fill="none" stroke-width="2.0"/>
   <circle cx="17.2025" cy="46.0942" r="6.0" stroke="red" fill="none" stroke-width="2.0"/>
   <circle cx="15.5041" cy="27.6718" r="6.0" stroke="red" fill="none" stroke-width="2.0"/>
   <circle cx="33.5497" cy="23.5942" r="6.0" stroke="red" fill="none" stroke-width="2.0"/>
   <circle cx="46.0942" cy="17.2025" r="6.0" stroke="red" fill="none" stroke-width="2.0"/>
   <circle cx="60.0000" cy="5.0000" r="6.0" stroke="red" fill="none" stroke-width="2.0"/>
   <circle cx="73.9058" cy="17.2025" r="6.0" stroke="red" fill="none" stroke-width="2.0"/>
   <circle cx="86.4503" cy="23.5942" r="6.0" stroke="red" fill="none" stroke-width="2.0"/>
   <circle cx="104.4959" cy="27.6718" r="6.0" stroke="red" fill="none" stroke-width="2.0"/>
   <circle cx="102.7975" cy="46.0942" r="6.0" stroke="red" fill="none" stroke-width="2.0"/>
   <circle cx="102.7975" cy="73.9058" r="6.0" stroke="red" fill="none" stroke-width="2.0"/>
   <circle cx="7.6919" cy="76.9959" r="6.0" stroke="red" fill="none" stroke-width="2.0"/>
   <circle cx="15.0000" cy="60.0000" r="6.0" stroke="red" fill="none" stroke-width="2.0"/>
   <circle cx="15.5041" cy="27.6718" r="6.0" stroke="red" fill="none" stroke-width="2.0"/>
   <circle cx="15.5041" cy="27.6718" r="6.0" stroke="red" fill="none" stroke-width="2.0"/>
   <circle cx="33.5497" cy="23.5942" r="6.0" stroke="red" fill="none" stroke-width="2.0"/>
   <circle cx="46.0942" cy="17.2025" r="6.0" stroke="red" fill="none" stroke-width="2.0"/>
   <circle cx="60.0000" cy="5.0000" r="6.0" stroke="red" fill="none" stroke-width="2.0"/>
   <circle cx="73.9058" cy="17.2025" r="6.0" stroke="red" fill="none" stroke-width="2.0"/>
   <circle cx="86.4503" cy="23.5942" r="6.0" stroke="red" fill="none" stroke-width="2.0"/>
   <circle cx="102.7975" cy="46.0942" r="6.0" stroke="red" fill="none" stroke-width="2.0"/>
   <circle cx="102.7975" cy="46.0942" r="6.0" stroke="red" fill="none" stroke-width="2.0"/>
   <circle cx="59.1453" cy="5.7500" r="6.0" stroke="red" fill="none" stroke-width="2.0"/>
   <circle cx="58.2906" cy="6.5000" r="6.0" stroke="red" fill="none" stroke-width="2.0"/>
   <circle cx="57.4359" cy="7.2500" r="6.0" stroke="red" fill="none" stroke-width="2.0"/>
   <circle cx="56.5812" cy="8.0000" r="6.0" stroke="red" fill="none" stroke-width="2.0"/>
   <circle cx="55.7265" cy="8.7500" r="6.0" stroke="red" fill="none" stroke-width="2.0"/>
   <circle cx="54.8719" cy="9.5000" r="6.0" stroke="red" fill="none" stroke-width="2.0"/>
   <circle cx="54.0172" cy="10.2500" r="6.0" stroke="red" fill="none" stroke-width="2.0"/>
   <circle cx="53.1625" cy="11.0000" r="6.0" stroke="red" fill="none" stroke-width="2.0"/>
   <circle cx="52.3078" cy="11.7500" r="6.0" stroke="red" fill="none" stroke-width="2.0"/>
   <circle cx="51.4531" cy="12.5000" r="6.0" stroke="red" fill="none" stroke-width="2.0"/>
   <circle cx="50.5984" cy="13.2500" r="6.0" stroke="red" fill="none" stroke-width="2.0"/>
   <circle cx="49.7437" cy="14.0000" r="6.0" stroke="red" fill="none" stroke-width="2.0"/>
   <circle cx="48.8890" cy="14.7500" r="6.0" stroke="red" fill="none" stroke-width="2.0"/>
   <circle cx="48.0343" cy="15.5000" r="6.0" stroke="red" fill="none" stroke-width="2.0"/>
   <circle cx="47.1796" cy="16.2500" r="6.0" stroke="red" fill="none" stroke-width="2.0"/>
   <circle cx="46.3250" cy="17.0000" r="6.0" stroke="red" fill="none" stroke-width="2.0"/>
   <circle cx="45.0196" cy="17.7500" r="6.0" stroke="red" fill="none" stroke-width="2.0"/>
   <circle cx="43.5477" cy="18.5000" r="6.0" stroke="red" fill="none" stroke-width="2.0"/>
   <circle cx="42.0757" cy="19.2500" r="6.0" stroke="red" fill="none" stroke-width="2.0"/>
   <circle cx="40.6037" cy="20.0000" r="6.0" stroke="red" fill="none" stroke-width="2.0"/>
   <circle cx="39.1318" cy="20.7500" r="6.0" stroke="red" fill="none" stroke-width="2.0"/>
   <circle cx="37.6598" cy="21.5000" r="6.0" stroke="red" fill="none" stroke-width="2.0"/>
   <circle cx="36.1879" cy="22.2500" r="6.0" stroke="red" fill="none" stroke-width="2.0"/>
   <circle cx="34.7159" cy="23.0000" r="6.0" stroke="red" fill="none" stroke-width="2.0"/>
   <circle cx="32.8603" cy="23.7500" r="6.0" stroke="red" fill="none" stroke-width="2.0"/>
   <circle cx="29.5411" cy="24.5000" r="6.0" stroke="red" fill="none" stroke-width="2.0"/>
   <circle cx="26.2220" cy="25.2500" r="6.0" stroke="red" fill="none" stroke-width="2.0"/>
   <circle cx="22.9028" cy="26.0000" r="6.0" stroke="red" fill="none" stroke-width="2.0"/>
   <circle cx="19.5836" cy="26.7500" r="6.0" stroke="red" fill="none" stroke-width="2.0"/>
   <circle cx="16.2644" cy="27.5000" r="6.0" stroke="red" fill="none" stroke-width="2.0"/>
   <circle cx="15.5574" cy="28.2500" r="6.0" stroke="red" fill="none" stroke-width="2.0"/>
   <circle cx="15.6265" cy="29.0000" r="6.0" stroke="red" fill="none" stroke-width="2.0"/>
   <circle cx="15.6957" cy="29.7500" r="6.0" stroke="red" fill="none" stroke-width="2.0"/>
   <circle cx="15.7648" cy="30.5000" r="6.0" stroke="red" fill="none" stroke-width="2.0"/>
   <circle cx="15.8339" cy="31.2500" r="6.0" stroke="red" fill="none" stroke-width="2.0"/>
   <circle cx="15.9031" cy="32.0000" r="6.0" stroke="red" fill="none" stroke-width="2.0"/>
   <circle cx="15.9722" cy="32.7500" r="6.0" stroke="red" fill="none" stroke-width="2.0"/>
   <circle cx="16.0414" cy="33.5000" r="6.0" stroke="red" fill="none" stroke-width="2.0"/>
   <circle cx="16.1105" cy="34.2500" r="6.0" stroke="red" fill="none" stroke-width="2.0"/>
   <circle cx="16.1797" cy="35.0000" r="6.0" stroke="red" fill="none" stroke-width="2.0"/>
   <circle cx="16.2488" cy="35.7500" r="6.0" stroke="red" fill="none" stroke-width="2.0"/>
   <circle cx="16.3179" cy="36.5000" r="6.0" stroke="red" fill="none" stroke-width="2.0"/>
   <circle cx="16.3871" cy="37.2500" r="6.0" stroke="red" fill="none" stroke-width="2.0"/>
   <circle cx="16.4562" cy="38.0000" r="6.0" stroke="red" fill="none" stroke-width="2.0"/>
   <circle cx="16.5254" cy="38.7500" r="6.0" stroke="red" fill="none" stroke-width="2.0"/>
   <circle cx="16.5945" cy="39.5000" r="6.0" stroke="red" fill="none" stroke-width="2.0"/>
   <circle cx="16.6637" cy="40.2500" r="6.0" stroke="red" fill="none" stroke-width="2.0"/>
   <circle cx="16.7328" cy="41.0000" r="6.0" stroke="red" fill="none" stroke-width="2.0"/>
   <circle cx="16.8020" cy="41.7500" r="6.0" stroke="red" fill="none" stroke-width="2.0"/>
   <circle cx="16.8711" cy="42.5000" r="6.0" stroke="red" fill="none" stroke-width="2.0"/>
   <circle cx="16.9402" cy="43.2500" r="6.0" stroke="red" fill="none" stroke-width="2.0"/>
   <circle cx="17.0094" cy="44.0000" r="6.0" stroke="red" fill="none" stroke-width="2.0"/>
   <circle cx="17.0785" cy="44.7500" r="6.0" stroke="red" fill="none" stroke-width="2.0"/>
   <circle cx="17.1477" cy="45.5000" r="6.0" stroke="red" fill="none" stroke-width="2.0"/>
   <circle cx="17.1778" cy="46.2500" r="6.0" stroke="red" fill="none" stroke-width="2.0"/>
   <circle cx="17.0590" cy="47.0000" r="6.0" stroke="red" fill="none" stroke-width="2.0"/>
   <circle cx="16.9402" cy="47.7500" r="6.0" stroke="red" fill="none" stroke-width="2.0"/>
   <circle cx="16.8214" cy="48.5000" r="6.0" stroke="red" fill="none" stroke-width="2.0"/>
   <circle cx="16.7026" cy="49.2500" r="6.0" stroke="red" fill="none" stroke-width="2.0"/>
   <circle cx="16.5838" cy="50.0000" r="6.0" stroke="red" fill="none" stroke-width="2.0"/>
   <circle cx="16.4651" cy="50.7500" r="6.0" stroke="red" fill="none" stroke-width="2.0"/>
   <circle cx="16.3463" cy="51.5000" r="6.0" stroke="red" fill="none" stroke-width="2.0"/>
   <circle cx="16.2275" cy="52.2500" r="6.0" stroke="red" fill="none" stroke-width="2.0"/>
   <circle cx="16.1087" cy="53.0000" r="6.0" stroke="red" fill="none" stroke-width="2.0"/>
   <circle cx="15.9899" cy="53.7500" r="6.0" stroke="red" fill="none" stroke-width="2.0"/>
   <circle cx="15.8711" cy="54.5000" r="6.0" stroke="red" fill="none" stroke-width="2.0"/>
   <circle cx="15.7523" cy="55.2500" r="6.0" stroke="red" fill="none" stroke-width="2.0"/>
   <circle cx="15.6335" cy="56.0000" r="6.0" stroke="red" fill="none" stroke-width="2.0"/>
   <circle cx="15.5147" cy="56.7500" r="6.0" stroke="red" fill="none" stroke-width="2.0"/>
   <circle cx="15.3960" cy="57.5000" r="6.0" stroke="red" fill="none" stroke-width="2.0"/>
   <circle cx="15.2772" cy="58.2500" r="6.0" stroke="red" fill="none" stroke-width="2.0"/>
   <circle cx="15.1584" cy="59.0000" r="6.0" stroke="red" fill="none" stroke-width="2.0"/>
   <circle cx="15.0396" cy="59.7500" r="6.0" stroke="red" fill="none" stroke-width="2.0"/>
   <circle cx="14.7850" cy="60.5000" r="6.0" stroke="red" fill="none" stroke-width="2.0"/>
   <circle cx="14.4625" cy="61.2500" r="6.0" stroke="red" fill="none" stroke-width="2.0"/>
   <circle cx="14.1400" cy="62.0000" r="6.0" stroke="red" fill="none" stroke-width="2.0"/>
   <circle cx="13.8175" cy="62.7500" r="6.0" stroke="red" fill="none" stroke-width="2.0"/>
   <circle cx="13.4950" cy="63.5000" r="6.0" stroke="red" fill="none" stroke-width="2.0"/>
   <circle cx="13.1725" cy="64.2500" r="6.0" stroke="red" fill="none" stroke-width="2.0"/>
   <circle cx="12.8500" cy="65.0000" r="6.0" stroke="red" fill="none" stroke-width="2.0"/>
   <circle cx="12.5275" cy="65.7500" r="6.0" stroke="red" fill="none" stroke-width="2.0"/>
   <circle cx="12.2051" cy="66.5000" r="6.0" stroke="red" fill="none" stroke-width="2.0"/>
   <circle cx="11.8826" cy="67.2500" r="6.0" stroke="red" fill="none" stroke-width="2.0"/>
   <circle cx="11.5601" cy="68.0000" r="6.0" stroke="red" fill="none" stroke-width="2.0"/>
   <circle cx="11.2376" cy="68.7500" r="6.0" stroke="red" fill="none" stroke-width="2.0"/>
   <circle cx="10.9151" cy="69.5000" r="6.0" stroke="red" fill="none" stroke-width="2.0"/>
   <circle cx="10.5926" cy="70.2500" r="6.0" stroke="red" fill="none" stroke-width="2.0"/>
   <circle cx="10.2701" cy="71.0000" r="6.0" stroke="red" fill="none" stroke-width="2.0"/>
   <circle cx="9.9476" cy="71.7500" r="6.0" stroke="red" fill="none" stroke-width="2.0"/>
   <circle cx="9.6251" cy="72.5000" r="6.0" stroke="red" fill="none" stroke-width="2.0"/>
   <circle cx="9.3026" cy="73.2500" r="6.0" stroke="red" fill="none" stroke-width="2.0"/>
   <circle cx="8.9801" cy="74.0000" r="6.0" stroke="red" fill="none" stroke-width="2.0"/>
   <circle cx="8.6576" cy="74.7500" r="6.0" stroke="red" fill="none" stroke-width="2.0"/>
   <circle cx="8.3351" cy="75.5000" r="6.0" stroke="red" fill="none" stroke-width="2.0"/>
   <circle cx="8.0126" cy="76.2500" r="6.0" stroke="red" fill="none" stroke-width="2.0"/>
   <circle cx="7.6987" cy="77.0000" r="6.0" stroke="red" fill="none" stroke-width="2.0"/>
   <circle cx="8.9602" cy="77.7500" r="6.0" stroke="red" fill="none" stroke-width="2.0"/>
   <circle cx="10.2217" cy="78.5000" r="6.0" stroke="red" fill="none" stroke-width="2.0"/>
   <circle cx="11.4832" cy="79.2500" r="6.0" stroke="red" fill="none" stroke-width="2.0"/>
   <circle cx="12.7447" cy="80.0000" r="6.0" stroke="red" fill="none" stroke-width="2.0"/>
   <circle cx="14.0062" cy="80.7500" r="6.0" stroke="red" fill="none" stroke-width="2.0"/>
   <circle cx="15.2677" cy="81.5000" r="6.0" stroke="red" fill="none" stroke-width="2.0"/>
   <circle cx="16.5293" cy="82.2500" r="6.0" stroke="red" fill="none" stroke-width="2.0"/>
   <circle cx="17.7908" cy="83.0000" r="6.0" stroke="red" fill="none" stroke-width="2.0"/>
   <circle cx="19.0523" cy="83.7500" r="6.0" stroke="red" fill="none" stroke-width="2.0"/>
   <circle cx="20.3138" cy="84.5000" r="6.0" stroke="red" fill="none" stroke-width="2.0"/>
   <circle cx="21.5753" cy="85.2500" r="6.0" stroke="red" fill="none" stroke-width="2.0"/>
</g>
</svg>
