<?xml version="1.0" encoding="UTF-8"?>
<svg xmlns="http://www.w3.org/2000/svg" xmlns:xlink="http://www.w3.org/1999/xlink" width="258.0281" height="110.4781" viewBox="-7.3081 16.8300 258.0281 110.4781">
<g id="fig">
   <text x="235.720000" y="86.830000" id="10" text-anchor="middle" fill="#de87cd" stroke="#501644" font-family="sans-serif" font-size="9pt" font-weight="lighter">Sao teus guias brasileiros</text>
   <text x="223.517543" y="100.735765" id="11" text-anchor="middle" fill="#de87cd" stroke="#501644" font-family="sans-serif" font-size="9pt" font-weight="lighter">Que te amam eternamente</text>
   <text x="96.405765" y="86.450336" id="12" text-anchor="middle" fill="#916f6f" stroke="None" font-family="sans-serif" font-size="9pt" font-weight="lighter">De Sao Paulo tens o nome</text>
   <text x="92.328189" y="104.495935" id="13" text-anchor="middle" fill="#916f6f" stroke="None" font-family="sans-serif" font-size="9pt" font-weight="lighter">Que ostentas dignamente</text>
   <text x="73.905765" y="102.797543" id="14" text-anchor="middle" fill="#916f6f" stroke="None" font-family="sans-serif" font-size="9pt" font-weight="lighter">De Sao Paulo tens o nome</text>
   <text x="60.000000" y="105.000000" id="15" text-anchor="middle" fill="#916f6f" stroke="None" font-family="sans-serif" font-size="9pt" font-weight="lighter">Que ostentas dignamente</text>
   <text x="43.004065" y="112.308108" id="16" text-anchor="middle" fill="#916f6f" stroke="None" font-family="sans-serif" font-size="9pt" font-weight="lighter">Salve o tricolor paulista</text>
   <text x="33.549664" y="96.405765" id="17" text-anchor="middle" fill="#916f6f" stroke="None" font-family="sans-serif" font-size="9pt" font-weight="lighter">Amado clube brasileiro</text>
   <text x="23.594235" y="86.450336" id="18" text-anchor="middle" fill="#916f6f" stroke="None" font-family="sans-serif" font-size="9pt" font-weight="lighter">Tu es forte, tu es grande</text>
   <text x="128.411892" y="103.825935" id="19" text-anchor="middle" fill="#de87cd" stroke="#501644" font-family="sans-serif" font-size="9pt" font-weight="lighter">Dentre os grandes es o primeiro</text>
   <text x="135.720000" y="86.830000" id="20" text-anchor="middle" fill="#de87cd" stroke="#501644" font-family="sans-serif" font-size="9pt" font-weight="lighter">Tu es forte, tu es grande</text>
   <text x="137.922457" y="72.924235" id="21" text-anchor="middle" fill="#de87cd" stroke="#501644" font-family="sans-serif" font-size="9pt" font-weight="lighter">Dentre os grandes es o primeiro</text>
   <text x="136.224065" y="54.501811" id="22" text-anchor="middle" fill="#de87cd" stroke="#501644" font-family="sans-serif" font-size="9pt" font-weight="lighter">Oh, Tricolor</text>
   <text x="154.269664" y="50.424235" id="23" text-anchor="middle" fill="#de87cd" stroke="#501644" font-family="sans-serif" font-size="9pt" font-weight="lighter">Clube bem amado</text>
   <text x="166.814235" y="44.032457" id="24" text-anchor="middle" fill="#de87cd" stroke="#501644" font-family="sans-serif" font-size="9pt" font-weight="lighter">As tuas gloriasVem do passado</text>
   <text x="180.720000" y="31.830000" id="25" text-anchor="middle" fill="#de87cd" stroke="#501644" font-family="sans-serif" font-size="9pt" font-weight="lighter">Sao teus guias brasileiros</text>
   <text x="194.625765" y="44.032457" id="26" text-anchor="middle" fill="#de87cd" stroke="#501644" font-family="sans-serif" font-size="9pt" font-weight="lighter">Que te amam eternamente</text>
   <text x="207.170336" y="50.424235" id="27" text-anchor="middle" fill="#de87cd" stroke="#501644" font-family="sans-serif" font-size="9pt" font-weight="lighter">De Sao Paulo tens o nome</text>
   <text x="225.215935" y="54.501811" id="28" text-anchor="middle" fill="#de87cd" stroke="#501644" font-family="sans-serif" font-size="9pt" font-weight="lighter">Que ostentas dignamente</text>
   <text x="223.517543" y="72.924235" id="29" text-anchor="middle" fill="#de87cd" stroke="#501644" font-family="sans-serif" font-size="9pt" font-weight="lighter">De Sao Paulo tens o nome</text>
   <line id="39" x1="235.720000" y1="86.830000" x2="223.517543" y2="100.735765" stroke="#501644" stroke-width="0.3750" stroke-opacity="1.000000"/>
   <line id="40" x1="102.797543" y1="73.905765" x2="96.405765" y2="86.450336" stroke="#5f5dd3" stroke-width="0.3750" stroke-opacity="1.000000"/>
   <line id="41" x1="96.405765" y1="86.450336" x2="92.328189" y2="104.495935" stroke="#5f5dd3" stroke-width="0.3750" stroke-opacity="1.000000"/>
   <line id="42" x1="92.328189" y1="104.495935" x2="73.905765" y2="102.797543" stroke="#5f5dd3" stroke-width="0.3750" stroke-opacity="1.000000"/>
   <line id="43" x1="73.905765" y1="102.797543" x2="60.000000" y2="105.000000" stroke="#5f5dd3" stroke-width="0.3750" stroke-opacity="1.000000"/>
   <line id="44" x1="60.000000" y1="105.000000" x2="43.004065" y2="112.308108" stroke="#5f5dd3" stroke-width="0.3750" stroke-opacity="1.000000"/>
   <line id="45" x1="43.004065" y1="112.308108" x2="33.549664" y2="96.405765" stroke="#5f5dd3" stroke-width="0.3750" stroke-opacity="1.000000"/>
   <line id="46" x1="33.549664" y1="96.405765" x2="23.594235" y2="86.450336" stroke="#5f5dd3" stroke-width="0.3750" stroke-opacity="1.000000"/>
   <line id="47" x1="23.594235" y1="86.450336" x2="7.691892" y2="76.995935" stroke="#5f5dd3" stroke-width="0.3750" stroke-opacity="1.000000"/>
   <line id="48" x1="128.411892" y1="103.825935" x2="135.720000" y2="86.830000" stroke="#501644" stroke-width="0.3750" stroke-opacity="1.000000"/>
   <line id="49" x1="135.720000" y1="86.830000" x2="137.922457" y2="72.924235" stroke="#501644" stroke-width="0.3750" stroke-opacity="1.000000"/>
   <line id="50" x1="137.922457" y1="72.924235" x2="136.224065" y2="54.501811" stroke="#501644" stroke-width="0.3750" stroke-opacity="1.000000"/>
   <line id="51" x1="136.224065" y1="54.501811" x2="154.269664" y2="50.424235" stroke="#501644" stroke-width="0.3750" stroke-opacity="1.000000"/>
   <line id="52" x1="154.269664" y1="50.424235" x2="166.814235" y2="44.032457" stroke="#501644" stroke-width="0.3750" stroke-opacity="1.000000"/>
   <line id="53" x1="166.814235" y1="44.032457" x2="180.720000" y2="31.830000" stroke="#501644" stroke-width="0.3750" stroke-opacity="1.000000"/>
   <line id="54" x1="180.720000" y1="31.830000" x2="194.625765" y2="44.032457" stroke="#501644" stroke-width="0.3750" stroke-opacity="1.000000"/>
   <line id="55" x1="194.625765" y1="44.032457" x2="207.170336" y2="50.424235" stroke="#501644" stroke-width="0.3750" stroke-opacity="1.000000"/>
   <line id="56" x1="207.170336" y1="50.424235" x2="225.215935" y2="54.501811" stroke="#501644" stroke-width="0.3750" stroke-opacity="1.000000"/>
   <line id="57" x1="225.215935" y1="54.501811" x2="223.517543" y2="72.924235" stroke="#501644" stroke-width="0.3750" stroke-opacity="1.000000"/>
   <line id="58" x1="223.517543" y1="72.924235" x2="235.720000" y2="86.830000" stroke="#501644" stroke-width="0.3750" stroke-opacity="1.000000"/>
   <line id="59" x1="179.865310" y1="32.580000" x2="181.574690" y2="32.580000" stroke="#501644" stroke-width="0.1875" stroke-opacity="1.000000"/>
   <line id="60" x1="179.010619" y1="33.330000" x2="182.429381" y2="33.330000" stroke="#501644" stroke-width="0.1875" stroke-opacity="1.000000"/>
   <line id="61" x1="178.155929" y1="34.080000" x2="183.284071" y2="34.080000" stroke="#501644" stroke-width="0.1875" stroke-opacity="1.000000"/>
   <line id="62" x1="177.301238" y1="34.830000" x2="184.138762" y2="34.830000" stroke="#501644" stroke-width="0.1875" stroke-opacity="1.000000"/>
   <line id="63" x1="176.446548" y1="35.580000" x2="184.993452" y2="35.580000" stroke="#501644" stroke-width="0.1875" stroke-opacity="1.000000"/>
   <line id="64" x1="175.591857" y1="36.330000" x2="185.848143" y2="36.330000" stroke="#501644" stroke-width="0.1875" stroke-opacity="1.000000"/>
   <line id="65" x1="174.737167" y1="37.080000" x2="186.702833" y2="37.080000" stroke="#501644" stroke-width="0.1875" stroke-opacity="1.000000"/>
   <line id="66" x1="173.882476" y1="37.830000" x2="187.557524" y2="37.830000" stroke="#501644" stroke-width="0.1875" stroke-opacity="1.000000"/>
   <line id="67" x1="173.027786" y1="38.580000" x2="188.412214" y2="38.580000" stroke="#501644" stroke-width="0.1875" stroke-opacity="1.000000"/>
   <line id="68" x1="172.173095" y1="39.330000" x2="189.266905" y2="39.330000" stroke="#501644" stroke-width="0.1875" stroke-opacity="1.000000"/>
   <line id="69" x1="171.318405" y1="40.080000" x2="190.121595" y2="40.080000" stroke="#501644" stroke-width="0.1875" stroke-opacity="1.000000"/>
   <line id="70" x1="170.463714" y1="40.830000" x2="190.976286" y2="40.830000" stroke="#501644" stroke-width="0.1875" stroke-opacity="1.000000"/>
   <line id="71" x1="169.609024" y1="41.580000" x2="191.830976" y2="41.580000" stroke="#501644" stroke-width="0.1875" stroke-opacity="1.000000"/>
   <line id="72" x1="168.754333" y1="42.330000" x2="192.685667" y2="42.330000" stroke="#501644" stroke-width="0.1875" stroke-opacity="1.000000"/>
   <line id="73" x1="167.899643" y1="43.080000" x2="193.540357" y2="43.080000" stroke="#501644" stroke-width="0.1875" stroke-opacity="1.000000"/>
   <line id="74" x1="167.044952" y1="43.830000" x2="194.395048" y2="43.830000" stroke="#501644" stroke-width="0.1875" stroke-opacity="1.000000"/>
   <line id="75" x1="165.739621" y1="44.580000" x2="195.700379" y2="44.580000" stroke="#501644" stroke-width="0.1875" stroke-opacity="1.000000"/>
   <line id="76" x1="164.267663" y1="45.330000" x2="197.172337" y2="45.330000" stroke="#501644" stroke-width="0.1875" stroke-opacity="1.000000"/>
   <line id="77" x1="162.795705" y1="46.080000" x2="198.644295" y2="46.080000" stroke="#501644" stroke-width="0.1875" stroke-opacity="1.000000"/>
   <line id="78" x1="161.323748" y1="46.830000" x2="200.116252" y2="46.830000" stroke="#501644" stroke-width="0.1875" stroke-opacity="1.000000"/>
   <line id="79" x1="159.851790" y1="47.580000" x2="201.588210" y2="47.580000" stroke="#501644" stroke-width="0.1875" stroke-opacity="1.000000"/>
   <line id="80" x1="158.379832" y1="48.330000" x2="203.060168" y2="48.330000" stroke="#501644" stroke-width="0.1875" stroke-opacity="1.000000"/>
   <line id="81" x1="156.907874" y1="49.080000" x2="204.532126" y2="49.080000" stroke="#501644" stroke-width="0.1875" stroke-opacity="1.000000"/>
   <line id="82" x1="155.435916" y1="49.830000" x2="206.004084" y2="49.830000" stroke="#501644" stroke-width="0.1875" stroke-opacity="1.000000"/>
   <line id="83" x1="153.580315" y1="50.580000" x2="207.859685" y2="50.580000" stroke="#501644" stroke-width="0.1875" stroke-opacity="1.000000"/>
   <line id="84" x1="150.261137" y1="51.330000" x2="211.178863" y2="51.330000" stroke="#501644" stroke-width="0.1875" stroke-opacity="1.000000"/>
   <line id="85" x1="146.941960" y1="52.080000" x2="214.498040" y2="52.080000" stroke="#501644" stroke-width="0.1875" stroke-opacity="1.000000"/>
   <line id="86" x1="143.622782" y1="52.830000" x2="217.817218" y2="52.830000" stroke="#501644" stroke-width="0.1875" stroke-opacity="1.000000"/>
   <line id="87" x1="140.303604" y1="53.580000" x2="221.136396" y2="53.580000" stroke="#501644" stroke-width="0.1875" stroke-opacity="1.000000"/>
   <line id="88" x1="136.984427" y1="54.330000" x2="224.455573" y2="54.330000" stroke="#501644" stroke-width="0.1875" stroke-opacity="1.000000"/>
   <line id="89" x1="136.277369" y1="55.080000" x2="225.162631" y2="55.080000" stroke="#501644" stroke-width="0.1875" stroke-opacity="1.000000"/>
   <line id="90" x1="136.346513" y1="55.830000" x2="225.093487" y2="55.830000" stroke="#501644" stroke-width="0.1875" stroke-opacity="1.000000"/>
   <line id="91" x1="136.415656" y1="56.580000" x2="225.024344" y2="56.580000" stroke="#501644" stroke-width="0.1875" stroke-opacity="1.000000"/>
   <line id="92" x1="136.484800" y1="57.330000" x2="224.955200" y2="57.330000" stroke="#501644" stroke-width="0.1875" stroke-opacity="1.000000"/>
   <line id="93" x1="136.553944" y1="58.080000" x2="224.886056" y2="58.080000" stroke="#501644" stroke-width="0.1875" stroke-opacity="1.000000"/>
   <line id="94" x1="136.623087" y1="58.830000" x2="224.816913" y2="58.830000" stroke="#501644" stroke-width="0.1875" stroke-opacity="1.000000"/>
   <line id="95" x1="136.692231" y1="59.580000" x2="224.747769" y2="59.580000" stroke="#501644" stroke-width="0.1875" stroke-opacity="1.000000"/>
   <line id="96" x1="136.761375" y1="60.330000" x2="224.678625" y2="60.330000" stroke="#501644" stroke-width="0.1875" stroke-opacity="1.000000"/>
   <line id="97" x1="136.830519" y1="61.080000" x2="224.609481" y2="61.080000" stroke="#501644" stroke-width="0.1875" stroke-opacity="1.000000"/>
   <line id="98" x1="136.899662" y1="61.830000" x2="224.540338" y2="61.830000" stroke="#501644" stroke-width="0.1875" stroke-opacity="1.000000"/>
   <line id="99" x1="136.968806" y1="62.580000" x2="224.471194" y2="62.580000" stroke="#501644" stroke-width="0.1875" stroke-opacity="1.000000"/>
   <line id="100" x1="137.037950" y1="63.330000" x2="224.402050" y2="63.330000" stroke="#501644" stroke-width="0.1875" stroke-opacity="1.000000"/>
   <line id="101" x1="137.107093" y1="64.080000" x2="224.332907" y2="64.080000" stroke="#501644" stroke-width="0.1875" stroke-opacity="1.000000"/>
   <line id="102" x1="137.176237" y1="64.830000" x2="224.263763" y2="64.830000" stroke="#501644" stroke-width="0.1875" stroke-opacity="1.000000"/>
   <line id="103" x1="137.245381" y1="65.580000" x2="224.194619" y2="65.580000" stroke="#501644" stroke-width="0.1875" stroke-opacity="1.000000"/>
   <line id="104" x1="137.314524" y1="66.330000" x2="224.125476" y2="66.330000" stroke="#501644" stroke-width="0.1875" stroke-opacity="1.000000"/>
   <line id="105" x1="137.383668" y1="67.080000" x2="224.056332" y2="67.080000" stroke="#501644" stroke-width="0.1875" stroke-opacity="1.000000"/>
   <line id="106" x1="137.452812" y1="67.830000" x2="223.987188" y2="67.830000" stroke="#501644" stroke-width="0.1875" stroke-opacity="1.000000"/>
   <line id="107" x1="137.521955" y1="68.580000" x2="223.918045" y2="68.580000" stroke="#501644" stroke-width="0.1875" stroke-opacity="1.000000"/>
   <line id="108" x1="137.591099" y1="69.330000" x2="223.848901" y2="69.330000" stroke="#501644" stroke-width="0.1875" stroke-opacity="1.000000"/>
   <line id="109" x1="137.660243" y1="70.080000" x2="223.779757" y2="70.080000" stroke="#501644" stroke-width="0.1875" stroke-opacity="1.000000"/>
   <line id="110" x1="137.729386" y1="70.830000" x2="223.710614" y2="70.830000" stroke="#501644" stroke-width="0.1875" stroke-opacity="1.000000"/>
   <line id="111" x1="137.798530" y1="71.580000" x2="223.641470" y2="71.580000" stroke="#501644" stroke-width="0.1875" stroke-opacity="1.000000"/>
   <line id="112" x1="137.867674" y1="72.330000" x2="223.572326" y2="72.330000" stroke="#501644" stroke-width="0.1875" stroke-opacity="1.000000"/>
   <line id="113" x1="137.897786" y1="73.080000" x2="223.654228" y2="73.080000" stroke="#501644" stroke-width="0.1875" stroke-opacity="1.000000"/>
   <line id="114" x1="137.778998" y1="73.830000" x2="224.312361" y2="73.830000" stroke="#501644" stroke-width="0.1875" stroke-opacity="1.000000"/>
   <line id="115" x1="137.660210" y1="74.580000" x2="224.970494" y2="74.580000" stroke="#501644" stroke-width="0.1875" stroke-opacity="1.000000"/>
   <line id="116" x1="137.541421" y1="75.330000" x2="225.628627" y2="75.330000" stroke="#501644" stroke-width="0.1875" stroke-opacity="1.000000"/>
   <line id="117" x1="137.422633" y1="76.080000" x2="226.286760" y2="76.080000" stroke="#501644" stroke-width="0.1875" stroke-opacity="1.000000"/>
   <line id="118" x1="137.303845" y1="76.830000" x2="226.944893" y2="76.830000" stroke="#501644" stroke-width="0.1875" stroke-opacity="1.000000"/>
   <line id="119" x1="137.185056" y1="77.580000" x2="227.603026" y2="77.580000" stroke="#501644" stroke-width="0.1875" stroke-opacity="1.000000"/>
   <line id="120" x1="137.066268" y1="78.330000" x2="228.261159" y2="78.330000" stroke="#501644" stroke-width="0.1875" stroke-opacity="1.000000"/>
   <line id="121" x1="136.947480" y1="79.080000" x2="228.919292" y2="79.080000" stroke="#501644" stroke-width="0.1875" stroke-opacity="1.000000"/>
   <line id="122" x1="136.828691" y1="79.830000" x2="229.577425" y2="79.830000" stroke="#501644" stroke-width="0.1875" stroke-opacity="1.000000"/>
   <line id="123" x1="136.709903" y1="80.580000" x2="230.235558" y2="80.580000" stroke="#501644" stroke-width="0.1875" stroke-opacity="1.000000"/>
   <line id="124" x1="136.591114" y1="81.330000" x2="230.893691" y2="81.330000" stroke="#501644" stroke-width="0.1875" stroke-opacity="1.000000"/>
   <line id="125" x1="136.472326" y1="82.080000" x2="231.551824" y2="82.080000" stroke="#501644" stroke-width="0.1875" stroke-opacity="1.000000"/>
   <line id="126" x1="136.353538" y1="82.830000" x2="232.209957" y2="82.830000" stroke="#501644" stroke-width="0.1875" stroke-opacity="1.000000"/>
   <line id="127" x1="136.234749" y1="83.580000" x2="232.868090" y2="83.580000" stroke="#501644" stroke-width="0.1875" stroke-opacity="1.000000"/>
   <line id="128" x1="136.115961" y1="84.330000" x2="233.526223" y2="84.330000" stroke="#501644" stroke-width="0.1875" stroke-opacity="1.000000"/>
   <line id="129" x1="135.997173" y1="85.080000" x2="234.184356" y2="85.080000" stroke="#501644" stroke-width="0.1875" stroke-opacity="1.000000"/>
   <line id="130" x1="135.878384" y1="85.830000" x2="234.842489" y2="85.830000" stroke="#501644" stroke-width="0.1875" stroke-opacity="1.000000"/>
   <line id="131" x1="135.759596" y1="86.580000" x2="235.500622" y2="86.580000" stroke="#501644" stroke-width="0.1875" stroke-opacity="1.000000"/>
   <line id="132" x1="135.505004" y1="87.330000" x2="235.281245" y2="87.330000" stroke="#501644" stroke-width="0.1875" stroke-opacity="1.000000"/>
   <line id="133" x1="135.182511" y1="88.080000" x2="234.623112" y2="88.080000" stroke="#501644" stroke-width="0.1875" stroke-opacity="1.000000"/>
   <line id="134" x1="134.860017" y1="88.830000" x2="233.964979" y2="88.830000" stroke="#501644" stroke-width="0.1875" stroke-opacity="1.000000"/>
   <line id="135" x1="134.537523" y1="89.580000" x2="233.306846" y2="89.580000" stroke="#501644" stroke-width="0.1875" stroke-opacity="1.000000"/>
   <line id="136" x1="134.215030" y1="90.330000" x2="232.648713" y2="90.330000" stroke="#501644" stroke-width="0.1875" stroke-opacity="1.000000"/>
   <line id="137" x1="133.892536" y1="91.080000" x2="231.990580" y2="91.080000" stroke="#501644" stroke-width="0.1875" stroke-opacity="1.000000"/>
   <line id="138" x1="133.570042" y1="91.830000" x2="231.332447" y2="91.830000" stroke="#501644" stroke-width="0.1875" stroke-opacity="1.000000"/>
   <line id="139" x1="133.247549" y1="92.580000" x2="230.674314" y2="92.580000" stroke="#501644" stroke-width="0.1875" stroke-opacity="1.000000"/>
   <line id="140" x1="132.925055" y1="93.330000" x2="230.016181" y2="93.330000" stroke="#501644" stroke-width="0.1875" stroke-opacity="1.000000"/>
   <line id="141" x1="132.602561" y1="94.080000" x2="229.358048" y2="94.080000" stroke="#501644" stroke-width="0.1875" stroke-opacity="1.000000"/>
   <line id="142" x1="132.280068" y1="94.830000" x2="228.699915" y2="94.830000" stroke="#501644" stroke-width="0.1875" stroke-opacity="1.000000"/>
   <line id="143" x1="131.957574" y1="95.580000" x2="228.041782" y2="95.580000" stroke="#501644" stroke-width="0.1875" stroke-opacity="1.000000"/>
   <line id="144" x1="131.635081" y1="96.330000" x2="227.383649" y2="96.330000" stroke="#501644" stroke-width="0.1875" stroke-opacity="1.000000"/>
   <line id="145" x1="131.312587" y1="97.080000" x2="226.725516" y2="97.080000" stroke="#501644" stroke-width="0.1875" stroke-opacity="1.000000"/>
   <line id="146" x1="130.990093" y1="97.830000" x2="226.067383" y2="97.830000" stroke="#501644" stroke-width="0.1875" stroke-opacity="1.000000"/>
   <line id="147" x1="130.667600" y1="98.580000" x2="225.409250" y2="98.580000" stroke="#501644" stroke-width="0.1875" stroke-opacity="1.000000"/>
   <line id="148" x1="130.345106" y1="99.330000" x2="224.751117" y2="99.330000" stroke="#501644" stroke-width="0.1875" stroke-opacity="1.000000"/>
   <line id="149" x1="130.022612" y1="100.080000" x2="224.092984" y2="100.080000" stroke="#501644" stroke-width="0.1875" stroke-opacity="1.000000"/>
   <line id="150" x1="129.700119" y1="100.830000" x2="223.469528" y2="100.830000" stroke="#501644" stroke-width="0.1875" stroke-opacity="1.000000"/>
   <line id="151" x1="129.377625" y1="101.580000" x2="223.087384" y2="101.580000" stroke="#501644" stroke-width="0.1875" stroke-opacity="1.000000"/>
   <line id="152" x1="129.055131" y1="102.330000" x2="222.705240" y2="102.330000" stroke="#501644" stroke-width="0.1875" stroke-opacity="1.000000"/>
   <line id="153" x1="128.732638" y1="103.080000" x2="222.323096" y2="103.080000" stroke="#501644" stroke-width="0.1875" stroke-opacity="1.000000"/>
   <line id="154" x1="128.418729" y1="103.830000" x2="221.940952" y2="103.830000" stroke="#501644" stroke-width="0.1875" stroke-opacity="1.000000"/>
   <line id="155" x1="129.680233" y1="104.580000" x2="221.558807" y2="104.580000" stroke="#501644" stroke-width="0.1875" stroke-opacity="1.000000"/>
   <line id="156" x1="130.941736" y1="105.330000" x2="221.176663" y2="105.330000" stroke="#501644" stroke-width="0.1875" stroke-opacity="1.000000"/>
   <line id="157" x1="132.203239" y1="106.080000" x2="220.794519" y2="106.080000" stroke="#501644" stroke-width="0.1875" stroke-opacity="1.000000"/>
   <line id="158" x1="133.464742" y1="106.830000" x2="220.412375" y2="106.830000" stroke="#501644" stroke-width="0.1875" stroke-opacity="1.000000"/>
   <line id="159" x1="134.726245" y1="107.580000" x2="220.030231" y2="107.580000" stroke="#501644" stroke-width="0.1875" stroke-opacity="1.000000"/>
   <line id="160" x1="135.987749" y1="108.330000" x2="219.648087" y2="108.330000" stroke="#501644" stroke-width="0.1875" stroke-opacity="1.000000"/>
   <line id="161" x1="137.249252" y1="109.080000" x2="219.265943" y2="109.080000" stroke="#501644" stroke-width="0.1875" stroke-opacity="1.000000"/>
   <line id="162" x1="138.510755" y1="109.830000" x2="218.883799" y2="109.830000" stroke="#501644" stroke-width="0.1875" stroke-opacity="1.000000"/>
   <line id="163" x1="139.772258" y1="110.580000" x2="218.501655" y2="110.580000" stroke="#501644" stroke-width="0.1875" stroke-opacity="1.000000"/>
   <line id="164" x1="141.033761" y1="111.330000" x2="218.119511" y2="111.330000" stroke="#501644" stroke-width="0.1875" stroke-opacity="1.000000"/>
   <line id="165" x1="142.295265" y1="112.080000" x2="217.737367" y2="112.080000" stroke="#501644" stroke-width="0.1875" stroke-opacity="1.000000"/>
   <line id="166" x1="22.836768" y1="86.000000" x2="96.635223" y2="86.000000" stroke="#5fd3bc" stroke-width="0.1875" stroke-opacity="1.000000"/>
   <line id="167" x1="23.893899" y1="86.750000" x2="96.338053" y2="86.750000" stroke="#5fd3bc" stroke-width="0.1875" stroke-opacity="1.000000"/>
   <line id="168" x1="24.643899" y1="87.500000" x2="96.168583" y2="87.500000" stroke="#5fd3bc" stroke-width="0.1875" stroke-opacity="1.000000"/>
   <line id="169" x1="25.393899" y1="88.250000" x2="95.999114" y2="88.250000" stroke="#5fd3bc" stroke-width="0.1875" stroke-opacity="1.000000"/>
   <line id="170" x1="26.143899" y1="89.000000" x2="95.829644" y2="89.000000" stroke="#5fd3bc" stroke-width="0.1875" stroke-opacity="1.000000"/>
   <line id="171" x1="26.893899" y1="89.750000" x2="95.660174" y2="89.750000" stroke="#5fd3bc" stroke-width="0.1875" stroke-opacity="1.000000"/>
   <line id="172" x1="27.643899" y1="90.500000" x2="95.490705" y2="90.500000" stroke="#5fd3bc" stroke-width="0.1875" stroke-opacity="1.000000"/>
   <line id="173" x1="28.393899" y1="91.250000" x2="95.321235" y2="91.250000" stroke="#5fd3bc" stroke-width="0.1875" stroke-opacity="1.000000"/>
   <line id="174" x1="29.143899" y1="92.000000" x2="95.151765" y2="92.000000" stroke="#5fd3bc" stroke-width="0.1875" stroke-opacity="1.000000"/>
   <line id="175" x1="29.893899" y1="92.750000" x2="94.982296" y2="92.750000" stroke="#5fd3bc" stroke-width="0.1875" stroke-opacity="1.000000"/>
   <line id="176" x1="30.643899" y1="93.500000" x2="94.812826" y2="93.500000" stroke="#5fd3bc" stroke-width="0.1875" stroke-opacity="1.000000"/>
   <line id="177" x1="31.393899" y1="94.250000" x2="94.643356" y2="94.250000" stroke="#5fd3bc" stroke-width="0.1875" stroke-opacity="1.000000"/>
   <line id="178" x1="32.143899" y1="95.000000" x2="94.473886" y2="95.000000" stroke="#5fd3bc" stroke-width="0.1875" stroke-opacity="1.000000"/>
   <line id="179" x1="32.893899" y1="95.750000" x2="94.304417" y2="95.750000" stroke="#5fd3bc" stroke-width="0.1875" stroke-opacity="1.000000"/>
   <line id="180" x1="33.605689" y1="96.500000" x2="94.134947" y2="96.500000" stroke="#5fd3bc" stroke-width="0.1875" stroke-opacity="1.000000"/>
   <line id="181" x1="34.051586" y1="97.250000" x2="93.965477" y2="97.250000" stroke="#5fd3bc" stroke-width="0.1875" stroke-opacity="1.000000"/>
   <line id="182" x1="34.497483" y1="98.000000" x2="93.796008" y2="98.000000" stroke="#5fd3bc" stroke-width="0.1875" stroke-opacity="1.000000"/>
   <line id="183" x1="34.943379" y1="98.750000" x2="93.626538" y2="98.750000" stroke="#5fd3bc" stroke-width="0.1875" stroke-opacity="1.000000"/>
   <line id="184" x1="35.389276" y1="99.500000" x2="93.457068" y2="99.500000" stroke="#5fd3bc" stroke-width="0.1875" stroke-opacity="1.000000"/>
   <line id="185" x1="35.835172" y1="100.250000" x2="93.287599" y2="100.250000" stroke="#5fd3bc" stroke-width="0.1875" stroke-opacity="1.000000"/>
   <line id="186" x1="36.281069" y1="101.000000" x2="93.118129" y2="101.000000" stroke="#5fd3bc" stroke-width="0.1875" stroke-opacity="1.000000"/>
   <line id="187" x1="36.726966" y1="101.750000" x2="92.948659" y2="101.750000" stroke="#5fd3bc" stroke-width="0.1875" stroke-opacity="1.000000"/>
   <line id="188" x1="37.172862" y1="102.500000" x2="92.779190" y2="102.500000" stroke="#5fd3bc" stroke-width="0.1875" stroke-opacity="1.000000"/>
   <line id="189" x1="37.618759" y1="103.250000" x2="71.049064" y2="103.250000" stroke="#5fd3bc" stroke-width="0.1875" stroke-opacity="1.000000"/>
   <line id="190" x1="78.813557" y1="103.250000" x2="92.609720" y2="103.250000" stroke="#5fd3bc" stroke-width="0.1875" stroke-opacity="1.000000"/>
   <line id="191" x1="38.064655" y1="104.000000" x2="66.313751" y2="104.000000" stroke="#5fd3bc" stroke-width="0.1875" stroke-opacity="1.000000"/>
   <line id="192" x1="86.948792" y1="104.000000" x2="92.440250" y2="104.000000" stroke="#5fd3bc" stroke-width="0.1875" stroke-opacity="1.000000"/>
   <line id="193" x1="38.510552" y1="104.750000" x2="61.578438" y2="104.750000" stroke="#5fd3bc" stroke-width="0.1875" stroke-opacity="1.000000"/>
   <line id="194" x1="38.956449" y1="105.500000" x2="58.837186" y2="105.500000" stroke="#5fd3bc" stroke-width="0.1875" stroke-opacity="1.000000"/>
   <line id="195" x1="39.402345" y1="106.250000" x2="57.092966" y2="106.250000" stroke="#5fd3bc" stroke-width="0.1875" stroke-opacity="1.000000"/>
   <line id="196" x1="39.848242" y1="107.000000" x2="55.348746" y2="107.000000" stroke="#5fd3bc" stroke-width="0.1875" stroke-opacity="1.000000"/>
   <line id="197" x1="40.294138" y1="107.750000" x2="53.604525" y2="107.750000" stroke="#5fd3bc" stroke-width="0.1875" stroke-opacity="1.000000"/>
   <line id="198" x1="40.740035" y1="108.500000" x2="51.860305" y2="108.500000" stroke="#5fd3bc" stroke-width="0.1875" stroke-opacity="1.000000"/>
   <line id="199" x1="41.185932" y1="109.250000" x2="50.116084" y2="109.250000" stroke="#5fd3bc" stroke-width="0.1875" stroke-opacity="1.000000"/>
   <line id="200" x1="41.631828" y1="110.000000" x2="48.371864" y2="110.000000" stroke="#5fd3bc" stroke-width="0.1875" stroke-opacity="1.000000"/>
   <line id="201" x1="42.077725" y1="110.750000" x2="46.627643" y2="110.750000" stroke="#5fd3bc" stroke-width="0.1875" stroke-opacity="1.000000"/>
   <line id="202" x1="42.523622" y1="111.500000" x2="44.883423" y2="111.500000" stroke="#5fd3bc" stroke-width="0.1875" stroke-opacity="1.000000"/>
   <line id="203" x1="42.969518" y1="112.250000" x2="43.139203" y2="112.250000" stroke="#5fd3bc" stroke-width="0.1875" stroke-opacity="1.000000"/>
   <!-- sel -->
   <rect x="7.1900" y="4.5000" width="108.3100" height="81.2300" stroke="red" fill="transparent" stroke-dasharray="5,3" stroke-width="1.5"/>
   <circle cx="115.0000" cy="60.0000" r="6.0" stroke="red" fill="none" stroke-width="2.0"/>
   <circle cx="102.7975" cy="73.9058" r="6.0" stroke="red" fill="none" stroke-width="2.0"/>
   <circle cx="7.6919" cy="76.9959" r="6.0" stroke="red" fill="none" stroke-width="2.0"/>
   <circle cx="15.0000" cy="60.0000" r="6.0" stroke="red" fill="none" stroke-width="2.0"/>
   <circle cx="17.2025" cy="46.0942" r="6.0" stroke="red" fill="none" stroke-width="2.0"/>
   <circle cx="15.5041" cy="27.6718" r="6.0" stroke="red" fill="none" stroke-width="2.0"/>
   <circle cx="33.5497" cy="23.5942" r="6.0" stroke="red" fill="none" stroke-width="2.0"/>
   <circle cx="46.0942" cy="17.2025" r="6.0" stroke="red" fill="none" stroke-width="2.0"/>
   <circle cx="60.0000" cy="5.0000" r="6.0" stroke="red" fill="none" stroke-width="2.0"/>
   <circle cx="73.9058" cy="17.2025" r="6.0" stroke="red" fill="none" stroke-width="2.0"/>
   <circle cx="86.4503" cy="23.5942" r="6.0" stroke="red" fill="none" stroke-width="2.0"/>
   <circle cx="104.4959" cy="27.6718" r="6.0" stroke="red" fill="none" stroke-width="2.0"/>
   <circle cx="102.7975" cy="46.0942" r="6.0" stroke="red" fill="none" stroke-width="2.0"/>
   <circle cx="102.7975" cy="73.9058" r="6.0" stroke="red" fill="none" stroke-width="2.0"/>
   <circle cx="7.6919" cy="76.9959" r="6.0" stroke="red" fill="none" stroke-width="2.0"/>
   <circle cx="15.0000" cy="60.0000" r="6.0" stroke="red" fill="none" stroke-width="2.0"/>
   <circle cx="15.5041" cy="27.6718" r="6.0" stroke="red" fill="none" stroke-width="2.0"/>
   <circle cx="15.5041" cy="27.6718" r="6.0" stroke="red" fill="none" stroke-width="2.0"/>
   <circle cx="33.5497" cy="23.5942" r="6.0" stroke="red" fill="none" stroke-width="2.0"/>
   <circle cx="46.0942" cy="17.2025" r="6.0" stroke="red" fill="none" stroke-width="2.0"/>
   <circle cx="60.0000" cy="5.0000" r="6.0" stroke="red" fill="none" stroke-width="2.0"/>
   <circle cx="73.9058" cy="17.2025" r="6.0" stroke="red" fill="none" stroke-width="2.0"/>
   <circle cx="86.4503" cy="23.5942" r="6.0" stroke="red" fill="none" stroke-width="2.0"/>
   <circle cx="102.7975" cy="46.0942" r="6.0" stroke="red" fill="none" stroke-width="2.0"/>
   <circle cx="102.7975" cy="46.0942" r="6.0" stroke="red" fill="none" stroke-width="2.0"/>
   <circle cx="59.1453" cy="5.7500" r="6.0" stroke="red" fill="none" stroke-width="2.0"/>
   <circle cx="58.2906" cy="6.5000" r="6.0" stroke="red" fill="none" stroke-width="2.0"/>
   <circle cx="57.4359" cy="7.2500" r="6.0" stroke="red" fill="none" stroke-width="2.0"/>
   <circle cx="56.5812" cy="8.0000" r="6.0" stroke="red" fill="none" stroke-width="2.0"/>
   <circle cx="55.7265" cy="8.7500" r="6.0" stroke="red" fill="none" stroke-width="2.0"/>
   <circle cx="54.8719" cy="9.5000" r="6.0" stroke="red" fill="none" stroke-width="2.0"/>
   <circle cx="54.0172" cy="10.2500" r="6.0" stroke="red" fill="none" stroke-width="2.0"/>
   <circle cx="53.1625" cy="11.0000" r="6.0" stroke="red" fill="none" stroke-width="2.0"/>
   <circle cx="52.3078" cy="11.7500" r="6.0" stroke="red" fill="none" stroke-width="2.0"/>
   <circle cx="51.4531" cy="12.5000" r="6.0" stroke="red" fill="none" stroke-width="2.0"/>
   <circle cx="50.5984" cy="13.2500" r="6.0" stroke="red" fill="none" stroke-width="2.0"/>
   <circle cx="49.7437" cy="14.0000" r="6.0" stroke="red" fill="none" stroke-width="2.0"/>
   <circle cx="48.8890" cy="14.7500" r="6.0" stroke="red" fill="none" stroke-width="2.0"/>
   <circle cx="48.0343" cy="15.5000" r="6.0" stroke="red" fill="none" stroke-width="2.0"/>
   <circle cx="47.1796" cy="16.2500" r="6.0" stroke="red" fill="none" stroke-width="2.0"/>
   <circle cx="46.3250" cy="17.0000" r="6.0" stroke="red" fill="none" stroke-width="2.0"/>
   <circle cx="45.0196" cy="17.7500" r="6.0" stroke="red" fill="none" stroke-width="2.0"/>
   <circle cx="43.5477" cy="18.5000" r="6.0" stroke="red" fill="none" stroke-width="2.0"/>
   <circle cx="42.0757" cy="19.2500" r="6.0" stroke="red" fill="none" stroke-width="2.0"/>
   <circle cx="40.6037" cy="20.0000" r="6.0" stroke="red" fill="none" stroke-width="2.0"/>
   <circle cx="39.1318" cy="20.7500" r="6.0" stroke="red" fill="none" stroke-width="2.0"/>
   <circle cx="37.6598" cy="21.5000" r="6.0" stroke="red" fill="none" stroke-width="2.0"/>
   <circle cx="36.1879" cy="22.2500" r="6.0" stroke="red" fill="none" stroke-width="2.0"/>
   <circle cx="34.7159" cy="23.0000" r="6.0" stroke="red" fill="none" stroke-width="2.0"/>
   <circle cx="32.8603" cy="23.7500" r="6.0" stroke="red" fill="none" stroke-width="2.0"/>
   <circle cx="29.5411" cy="24.5000" r="6.0" stroke="red" fill="none" stroke-width="2.0"/>
   <circle cx="26.2220" cy="25.2500" r="6.0" stroke="red" fill="none" stroke-width="2.0"/>
   <circle cx="22.9028" cy="26.0000" r="6.0" stroke="red" fill="none" stroke-width="2.0"/>
   <circle cx="19.5836" cy="26.7500" r="6.0" stroke="red" fill="none" stroke-width="2.0"/>
   <circle cx="16.2644" cy="27.5000" r="6.0" stroke="red" fill="none" stroke-width="2.0"/>
   <circle cx="15.5574" cy="28.2500" r="6.0" stroke="red" fill="none" stroke-width="2.0"/>
   <circle cx="15.6265" cy="29.0000" r="6.0" stroke="red" fill="none" stroke-width="2.0"/>
   <circle cx="15.6957" cy="29.7500" r="6.0" stroke="red" fill="none" stroke-width="2.0"/>
   <circle cx="15.7648" cy="30.5000" r="6.0" stroke="red" fill="none" stroke-width="2.0"/>
   <circle cx="15.8339" cy="31.2500" r="6.0" stroke="red" fill="none" stroke-width="2.0"/>
   <circle cx="15.9031" cy="32.0000" r="6.0" stroke="red" fill="none" stroke-width="2.0"/>
   <circle cx="15.9722" cy="32.7500" r="6.0" stroke="red" fill="none" stroke-width="2.0"/>
   <circle cx="16.0414" cy="33.5000" r="6.0" stroke="red" fill="none" stroke-width="2.0"/>
   <circle cx="16.1105" cy="34.2500" r="6.0" stroke="red" fill="none" stroke-width="2.0"/>
   <circle cx="16.1797" cy="35.0000" r="6.0" stroke="red" fill="none" stroke-width="2.0"/>
   <circle cx="16.2488" cy="35.7500" r="6.0" stroke="red" fill="none" stroke-width="2.0"/>
   <circle cx="16.3179" cy="36.5000" r="6.0" stroke="red" fill="none" stroke-width="2.0"/>
   <circle cx="16.3871" cy="37.2500" r="6.0" stroke="red" fill="none" stroke-width="2.0"/>
   <circle cx="16.4562" cy="38.0000" r="6.0" stroke="red" fill="none" stroke-width="2.0"/>
   <circle cx="16.5254" cy="38.7500" r="6.0" stroke="red" fill="none" stroke-width="2.0"/>
   <circle cx="16.5945" cy="39.5000" r="6.0" stroke="red" fill="none" stroke-width="2.0"/>
   <circle cx="16.6637" cy="40.2500" r="6.0" stroke="red" fill="none" stroke-width="2.0"/>
   <circle cx="16.7328" cy="41.0000" r="6.0" stroke="red" fill="none" stroke-width="2.0"/>
   <circle cx="16.8020" cy="41.7500" r="6.0" stroke="red" fill="none" stroke-width="2.0"/>
   <circle cx="16.8711" cy="42.5000" r="6.0" stroke="red" fill="none" stroke-width="2.0"/>
   <circle cx="16.9402" cy="43.2500" r="6.0" stroke="red" fill="none" stroke-width="2.0"/>
   <circle cx="17.0094" cy="44.0000" r="6.0" stroke="red" fill="none" stroke-width="2.0"/>
   <circle cx="17.0785" cy="44.7500" r="6.0" stroke="red" fill="none" stroke-width="2.0"/>
   <circle cx="17.1477" cy="45.5000" r="6.0" stroke="red" fill="none" stroke-width="2.0"/>
   <circle cx="17.1778" cy="46.2500" r="6.0" stroke="red" fill="none" stroke-width="2.0"/>
   <circle cx="17.0590" cy="47.0000" r="6.0" stroke="red" fill="none" stroke-width="2.0"/>
   <circle cx="16.9402" cy="47.7500" r="6.0" stroke="red" fill="none" stroke-width="2.0"/>
   <circle cx="16.8214" cy="48.5000" r="6.0" stroke="red" fill="none" stroke-width="2.0"/>
   <circle cx="16.7026" cy="49.2500" r="6.0" stroke="red" fill="none" stroke-width="2.0"/>
   <circle cx="16.5838" cy="50.0000" r="6.0" stroke="red" fill="none" stroke-width="2.0"/>
   <circle cx="16.4651" cy="50.7500" r="6.0" stroke="red" fill="none" stroke-width="2.0"/>
   <circle cx="16.3463" cy="51.5000" r="6.0" stroke="red" fill="none" stroke-width="2.0"/>
   <circle cx="16.2275" cy="52.2500" r="6.0" stroke="red" fill="none" stroke-width="2.0"/>
   <circle cx="16.1087" cy="53.0000" r="6.0" stroke="red" fill="none" stroke-width="2.0"/>
   <circle cx="15.9899" cy="53.7500" r="6.0" stroke="red" fill="none" stroke-width="2.0"/>
   <circle cx="15.8711" cy="54.5000" r="6.0" stroke="red" fill="none" stroke-width="2.0"/>
   <circle cx="15.7523" cy="55.2500" r="6.0" stroke="red" fill="none" stroke-width="2.0"/>
   <circle cx="15.6335" cy="56.0000" r="6.0" stroke="red" fill="none" stroke-width="2.0"/>
   <circle cx="15.5147" cy="56.7500" r="6.0" stroke="red" fill="none" stroke-width="2.0"/>
   <circle cx="15.3960" cy="57.5000" r="6.0" stroke="red" fill="none" stroke-width="2.0"/>
   <circle cx="15.2772" cy="58.2500" r="6.0" stroke="red" fill="none" stroke-width="2.0"/>
   <circle cx="15.1584" cy="59.0000" r="6.0" stroke="red" fill="none" stroke-width="2.0"/>
   <circle cx="15.0396" cy="59.7500" r="6.0" stroke="red" fill="none" stroke-width="2.0"/>
   <circle cx="14.7850" cy="60.5000" r="6.0" stroke="red" fill="none" stroke-width="2.0"/>
   <circle cx="14.4625" cy="61.2500" r="6.0" stroke="red" fill="none" stroke-width="2.0"/>
   <circle cx="14.1400" cy="62.0000" r="6.0" stroke="red" fill="none" stroke-width="2.0"/>
   <circle cx="13.8175" cy="62.7500" r="6.0" stroke="red" fill="none" stroke-width="2.0"/>
   <circle cx="13.4950" cy="63.5000" r="6.0" stroke="red" fill="none" stroke-width="2.0"/>
   <circle cx="13.1725" cy="64.2500" r="6.0" stroke="red" fill="none" stroke-width="2.0"/>
   <circle cx="12.8500" cy="65.0000" r="6.0" stroke="red" fill="none" stroke-width="2.0"/>
   <circle cx="12.5275" cy="65.7500" r="6.0" stroke="red" fill="none" stroke-width="2.0"/>
   <circle cx="12.2051" cy="66.5000" r="6.0" stroke="red" fill="none" stroke-width="2.0"/>
   <circle cx="11.8826" cy="67.2500" r="6.0" stroke="red" fill="none" stroke-width="2.0"/>
   <circle cx="11.5601" cy="68.0000" r="6.0" stroke="red" fill="none" stroke-width="2.0"/>
   <circle cx="11.2376" cy="68.7500" r="6.0" stroke="red" fill="none" stroke-width="2.0"/>
   <circle cx="10.9151" cy="69.5000" r="6.0" stroke="red" fill="none" stroke-width="2.0"/>
   <circle cx="10.5926" cy="70.2500" r="6.0" stroke="red" fill="none" stroke-width="2.0"/>
   <circle cx="10.2701" cy="71.0000" r="6.0" stroke="red" fill="none" stroke-width="2.0"/>
   <circle cx="9.9476" cy="71.7500" r="6.0" stroke="red" fill="none" stroke-width="2.0"/>
   <circle cx="9.6251" cy="72.5000" r="6.0" stroke="red" fill="none" stroke-width="2.0"/>
   <circle cx="9.3026" cy="73.2500" r="6.0" stroke="red" fill="none" stroke-width="2.0"/>
   <circle cx="8.9801" cy="74.0000" r="6.0" stroke="red" fill="none" stroke-width="2.0"/>
   <circle cx="8.6576" cy="74.7500" r="6.0" stroke="red" fill="none" stroke-width="2.0"/>
   <circle cx="8.3351" cy="75.5000" r="6.0" stroke="red" fill="none" stroke-width="2.0"/>
   <circle cx="8.0126" cy="76.2500" r="6.0" stroke="red" fill="none" stroke-width="2.0"/>
   <circle cx="7.6987" cy="77.0000" r="6.0" stroke="red" fill="none" stroke-width="2.0"/>
   <circle cx="8.9602" cy="77.7500" r="6.0" stroke="red" fill="none" stroke-width="2.0"/>
   <circle cx="10.2217" cy="78.5000" r="6.0" stroke="red" fill="none" stroke-width="2.0"/>
   <circle cx="11.4832" cy="79.2500" r="6.0" stroke="red" fill="none" stroke-width="2.0"/>
   <circle cx="12.7447" cy="80.0000" r="6.0" stroke="red" fill="none" stroke-width="2.0"/>
   <circle cx="14.0062" cy="80.7500" r="6.0" stroke="red" fill="none" stroke-width="2.0"/>
   <circle cx="15.2677" cy="81.5000" r="6.0" stroke="red" fill="none" stroke-width="2.0"/>
   <circle cx="16.5293" cy="82.2500" r="6.0" stroke="red" fill="none" stroke-width="2.0"/>
   <circle cx="17.7908" cy="83.0000" r="6.0" stroke="red" fill="none" stroke-width="2.0"/>
   <circle cx="19.0523" cy="83.7500" r="6.0" stroke="red" fill="none" stroke-width="2.0"/>
   <circle cx="20.3138" cy="84.5000" r="6.0" stroke="red" fill="none" stroke-width="2.0"/>
   <circle cx="21.5753" cy="85.2500" r="6.0" stroke="red" fill="none" stroke-width="2.0"/>
</g>
</svg>
