<?xml version="1.0" encoding="UTF-8"?>
<svg xmlns="http://www.w3.org/2000/svg" xmlns:xlink="http://www.w3.org/1999/xlink" width="145.1276" height="125.9925" viewBox="14.8724 15.5403 145.1276 125.9925">
<g id="fig">
   <rect id="10" x="140.000000" y="65.000000" width="5.000000" height="6.000000" fill="white" stroke="blue" fill-opacity="0.5" stroke-width="1.0px"/>
   <rect id="11" x="130.309230" y="93.181460" width="5.000000" height="6.000000" fill="white" stroke="blue" fill-opacity="0.5" stroke-width="1.0px"/>
   <rect id="12" x="109.767498" y="112.853355" width="5.000000" height="6.000000" fill="white" stroke="blue" fill-opacity="0.5" stroke-width="1.0px"/>
   <rect id="13" x="83.795528" y="120.532777" width="5.000000" height="6.000000" fill="white" stroke="blue" fill-opacity="0.5" stroke-width="1.0px"/>
   <rect id="14" x="58.529394" y="115.691312" width="5.000000" height="6.000000" fill="white" stroke="blue" fill-opacity="0.5" stroke-width="1.0px"/>
   <rect id="15" x="39.379496" y="100.620504" width="5.000000" height="6.000000" fill="white" stroke="blue" fill-opacity="0.5" stroke-width="1.0px"/>
   <rect id="16" x="29.872368" y="79.662856" width="5.000000" height="6.000000" fill="white" stroke="blue" fill-opacity="0.5" stroke-width="1.0px"/>
   <rect id="17" x="31.023177" y="58.034755" width="5.000000" height="6.000000" fill="white" stroke="blue" fill-opacity="0.5" stroke-width="1.0px"/>
   <rect id="18" x="41.344893" y="40.548134" width="5.000000" height="6.000000" fill="white" stroke="blue" fill-opacity="0.5" stroke-width="1.0px"/>
   <rect id="19" x="57.441917" y="30.540323" width="5.000000" height="6.000000" fill="white" stroke="blue" fill-opacity="0.5" stroke-width="1.0px"/>
   <rect id="20" x="60.392856" y="36.331865" width="5.000000" height="6.000000" fill="white" stroke="blue" fill-opacity="0.5" stroke-width="1.0px"/>
   <rect id="21" x="46.603503" y="44.368738" width="5.000000" height="6.000000" fill="white" stroke="blue" fill-opacity="0.5" stroke-width="1.0px"/>
   <rect id="22" x="37.443151" y="59.051579" width="5.000000" height="6.000000" fill="white" stroke="blue" fill-opacity="0.5" stroke-width="1.0px"/>
   <rect id="23" x="36.054236" y="77.654246" width="5.000000" height="6.000000" fill="white" stroke="blue" fill-opacity="0.5" stroke-width="1.0px"/>
   <rect id="24" x="43.975690" y="96.024310" width="5.000000" height="6.000000" fill="white" stroke="blue" fill-opacity="0.5" stroke-width="1.0px"/>
   <rect id="25" x="60.538005" y="109.509445" width="5.000000" height="6.000000" fill="white" stroke="blue" fill-opacity="0.5" stroke-width="1.0px"/>
   <rect id="26" x="82.778704" y="114.112803" width="5.000000" height="6.000000" fill="white" stroke="blue" fill-opacity="0.5" stroke-width="1.0px"/>
   <rect id="27" x="105.946894" y="107.594745" width="5.000000" height="6.000000" fill="white" stroke="blue" fill-opacity="0.5" stroke-width="1.0px"/>
   <rect id="28" x="124.517688" y="90.230522" width="5.000000" height="6.000000" fill="white" stroke="blue" fill-opacity="0.5" stroke-width="1.0px"/>
   <rect id="29" x="133.500000" y="65.000000" width="5.000000" height="6.000000" fill="white" stroke="blue" fill-opacity="0.5" stroke-width="1.0px"/>
   <line id="39" x1="140.000000" y1="65.000000" x2="130.309230" y2="93.181460" stroke="#5f5dd3" stroke-width="0.3" stroke-opacity="1.000000"/>
   <line id="40" x1="130.309230" y1="93.181460" x2="109.767498" y2="112.853355" stroke="#5f5dd3" stroke-width="0.3" stroke-opacity="1.000000"/>
   <line id="41" x1="109.767498" y1="112.853355" x2="83.795528" y2="120.532777" stroke="#5f5dd3" stroke-width="0.3" stroke-opacity="1.000000"/>
   <line id="42" x1="83.795528" y1="120.532777" x2="58.529394" y2="115.691312" stroke="#5f5dd3" stroke-width="0.3" stroke-opacity="1.000000"/>
   <line id="43" x1="58.529394" y1="115.691312" x2="39.379496" y2="100.620504" stroke="#5f5dd3" stroke-width="0.3" stroke-opacity="1.000000"/>
   <line id="44" x1="39.379496" y1="100.620504" x2="29.872368" y2="79.662856" stroke="#5f5dd3" stroke-width="0.3" stroke-opacity="1.000000"/>
   <line id="45" x1="29.872368" y1="79.662856" x2="31.023177" y2="58.034755" stroke="#5f5dd3" stroke-width="0.3" stroke-opacity="1.000000"/>
   <line id="46" x1="31.023177" y1="58.034755" x2="41.344893" y2="40.548134" stroke="#5f5dd3" stroke-width="0.3" stroke-opacity="1.000000"/>
   <line id="47" x1="41.344893" y1="40.548134" x2="57.441917" y2="30.540323" stroke="#5f5dd3" stroke-width="0.3" stroke-opacity="1.000000"/>
   <line id="48" x1="57.441917" y1="30.540323" x2="60.392856" y2="36.331865" stroke="#5f5dd3" stroke-width="0.3" stroke-opacity="1.000000"/>
   <line id="49" x1="60.392856" y1="36.331865" x2="46.603503" y2="44.368738" stroke="#5f5dd3" stroke-width="0.3" stroke-opacity="1.000000"/>
   <line id="50" x1="46.603503" y1="44.368738" x2="37.443151" y2="59.051579" stroke="#5f5dd3" stroke-width="0.3" stroke-opacity="1.000000"/>
   <line id="51" x1="37.443151" y1="59.051579" x2="36.054236" y2="77.654246" stroke="#5f5dd3" stroke-width="0.3" stroke-opacity="1.000000"/>
   <line id="52" x1="36.054236" y1="77.654246" x2="43.975690" y2="96.024310" stroke="#5f5dd3" stroke-width="0.3" stroke-opacity="1.000000"/>
   <line id="53" x1="43.975690" y1="96.024310" x2="60.538005" y2="109.509445" stroke="#5f5dd3" stroke-width="0.3" stroke-opacity="1.000000"/>
   <line id="54" x1="60.538005" y1="109.509445" x2="82.778704" y2="114.112803" stroke="#5f5dd3" stroke-width="0.3" stroke-opacity="1.000000"/>
   <line id="55" x1="82.778704" y1="114.112803" x2="105.946894" y2="107.594745" stroke="#5f5dd3" stroke-width="0.3" stroke-opacity="1.000000"/>
   <line id="56" x1="105.946894" y1="107.594745" x2="124.517688" y2="90.230522" stroke="#5f5dd3" stroke-width="0.3" stroke-opacity="1.000000"/>
   <line id="57" x1="124.517688" y1="90.230522" x2="133.500000" y2="65.000000" stroke="#5f5dd3" stroke-width="0.3" stroke-opacity="1.000000"/>
   <line id="58" x1="133.500000" y1="65.000000" x2="140.000000" y2="65.000000" stroke="#5f5dd3" stroke-width="0.3" stroke-opacity="1.000000"/>
   <line id="59" x1="56.235582" y1="31.290323" x2="57.824061" y2="31.290323" stroke="#5fd3bc" stroke-width="0.3" stroke-opacity="1.000000"/>
   <line id="60" x1="55.029248" y1="32.040323" x2="58.206205" y2="32.040323" stroke="#5fd3bc" stroke-width="0.3" stroke-opacity="1.000000"/>
   <line id="61" x1="53.822913" y1="32.790323" x2="58.588350" y2="32.790323" stroke="#5fd3bc" stroke-width="0.3" stroke-opacity="1.000000"/>
   <line id="62" x1="52.616579" y1="33.540323" x2="58.970494" y2="33.540323" stroke="#5fd3bc" stroke-width="0.3" stroke-opacity="1.000000"/>
   <line id="63" x1="51.410244" y1="34.290323" x2="59.352638" y2="34.290323" stroke="#5fd3bc" stroke-width="0.3" stroke-opacity="1.000000"/>
   <line id="64" x1="50.203910" y1="35.040323" x2="59.734782" y2="35.040323" stroke="#5fd3bc" stroke-width="0.3" stroke-opacity="1.000000"/>
   <line id="65" x1="48.997575" y1="35.790323" x2="60.116926" y2="35.790323" stroke="#5fd3bc" stroke-width="0.3" stroke-opacity="1.000000"/>
   <line id="66" x1="47.791241" y1="36.540323" x2="60.035192" y2="36.540323" stroke="#5fd3bc" stroke-width="0.3" stroke-opacity="1.000000"/>
   <line id="67" x1="46.584906" y1="37.290323" x2="58.748371" y2="37.290323" stroke="#5fd3bc" stroke-width="0.3" stroke-opacity="1.000000"/>
   <line id="68" x1="45.378572" y1="38.040323" x2="57.461550" y2="38.040323" stroke="#5fd3bc" stroke-width="0.3" stroke-opacity="1.000000"/>
   <line id="69" x1="44.172237" y1="38.790323" x2="56.174730" y2="38.790323" stroke="#5fd3bc" stroke-width="0.3" stroke-opacity="1.000000"/>
   <line id="70" x1="42.965903" y1="39.540323" x2="54.887909" y2="39.540323" stroke="#5fd3bc" stroke-width="0.3" stroke-opacity="1.000000"/>
   <line id="71" x1="41.759568" y1="40.290323" x2="53.601088" y2="40.290323" stroke="#5fd3bc" stroke-width="0.3" stroke-opacity="1.000000"/>
   <line id="72" x1="41.054372" y1="41.040323" x2="52.314268" y2="41.040323" stroke="#5fd3bc" stroke-width="0.3" stroke-opacity="1.000000"/>
   <line id="73" x1="40.611674" y1="41.790323" x2="51.027447" y2="41.790323" stroke="#5fd3bc" stroke-width="0.3" stroke-opacity="1.000000"/>
   <line id="74" x1="40.168976" y1="42.540323" x2="49.740626" y2="42.540323" stroke="#5fd3bc" stroke-width="0.3" stroke-opacity="1.000000"/>
   <line id="75" x1="39.726279" y1="43.290323" x2="48.453805" y2="43.290323" stroke="#5fd3bc" stroke-width="0.3" stroke-opacity="1.000000"/>
   <line id="76" x1="39.283581" y1="44.040323" x2="47.166985" y2="44.040323" stroke="#5fd3bc" stroke-width="0.3" stroke-opacity="1.000000"/>
   <line id="77" x1="38.840883" y1="44.790323" x2="46.340484" y2="44.790323" stroke="#5fd3bc" stroke-width="0.3" stroke-opacity="1.000000"/>
   <line id="78" x1="38.398186" y1="45.540323" x2="45.872573" y2="45.540323" stroke="#5fd3bc" stroke-width="0.3" stroke-opacity="1.000000"/>
   <line id="79" x1="37.955488" y1="46.290323" x2="45.404662" y2="46.290323" stroke="#5fd3bc" stroke-width="0.3" stroke-opacity="1.000000"/>
   <line id="80" x1="37.512790" y1="47.040323" x2="44.936751" y2="47.040323" stroke="#5fd3bc" stroke-width="0.3" stroke-opacity="1.000000"/>
   <line id="81" x1="37.070092" y1="47.790323" x2="44.468840" y2="47.790323" stroke="#5fd3bc" stroke-width="0.3" stroke-opacity="1.000000"/>
   <line id="82" x1="36.627395" y1="48.540323" x2="44.000929" y2="48.540323" stroke="#5fd3bc" stroke-width="0.3" stroke-opacity="1.000000"/>
   <line id="83" x1="36.184697" y1="49.290323" x2="43.533017" y2="49.290323" stroke="#5fd3bc" stroke-width="0.3" stroke-opacity="1.000000"/>
   <line id="84" x1="35.741999" y1="50.040323" x2="43.065106" y2="50.040323" stroke="#5fd3bc" stroke-width="0.3" stroke-opacity="1.000000"/>
   <line id="85" x1="35.299302" y1="50.790323" x2="42.597195" y2="50.790323" stroke="#5fd3bc" stroke-width="0.3" stroke-opacity="1.000000"/>
   <line id="86" x1="34.856604" y1="51.540323" x2="42.129284" y2="51.540323" stroke="#5fd3bc" stroke-width="0.3" stroke-opacity="1.000000"/>
   <line id="87" x1="34.413906" y1="52.290323" x2="41.661373" y2="52.290323" stroke="#5fd3bc" stroke-width="0.3" stroke-opacity="1.000000"/>
   <line id="88" x1="33.971208" y1="53.040323" x2="41.193462" y2="53.040323" stroke="#5fd3bc" stroke-width="0.3" stroke-opacity="1.000000"/>
   <line id="89" x1="33.528511" y1="53.790323" x2="40.725551" y2="53.790323" stroke="#5fd3bc" stroke-width="0.3" stroke-opacity="1.000000"/>
   <line id="90" x1="33.085813" y1="54.540323" x2="40.257640" y2="54.540323" stroke="#5fd3bc" stroke-width="0.3" stroke-opacity="1.000000"/>
   <line id="91" x1="32.643115" y1="55.290323" x2="39.789729" y2="55.290323" stroke="#5fd3bc" stroke-width="0.3" stroke-opacity="1.000000"/>
   <line id="92" x1="32.200418" y1="56.040323" x2="39.321818" y2="56.040323" stroke="#5fd3bc" stroke-width="0.3" stroke-opacity="1.000000"/>
   <line id="93" x1="31.757720" y1="56.790323" x2="38.853907" y2="56.790323" stroke="#5fd3bc" stroke-width="0.3" stroke-opacity="1.000000"/>
   <line id="94" x1="31.315022" y1="57.540323" x2="38.385996" y2="57.540323" stroke="#5fd3bc" stroke-width="0.3" stroke-opacity="1.000000"/>
   <line id="95" x1="31.009578" y1="58.290323" x2="37.918084" y2="58.290323" stroke="#5fd3bc" stroke-width="0.3" stroke-opacity="1.000000"/>
   <line id="96" x1="30.969672" y1="59.040323" x2="37.450173" y2="59.040323" stroke="#5fd3bc" stroke-width="0.3" stroke-opacity="1.000000"/>
   <line id="97" x1="30.929765" y1="59.790323" x2="37.387995" y2="59.790323" stroke="#5fd3bc" stroke-width="0.3" stroke-opacity="1.000000"/>
   <line id="98" x1="30.889858" y1="60.540323" x2="37.331998" y2="60.540323" stroke="#5fd3bc" stroke-width="0.3" stroke-opacity="1.000000"/>
   <line id="99" x1="30.849952" y1="61.290323" x2="37.276002" y2="61.290323" stroke="#5fd3bc" stroke-width="0.3" stroke-opacity="1.000000"/>
   <line id="100" x1="30.810045" y1="62.040323" x2="37.220005" y2="62.040323" stroke="#5fd3bc" stroke-width="0.3" stroke-opacity="1.000000"/>
   <line id="101" x1="30.770138" y1="62.790323" x2="37.164008" y2="62.790323" stroke="#5fd3bc" stroke-width="0.3" stroke-opacity="1.000000"/>
   <line id="102" x1="30.730231" y1="63.540323" x2="37.108012" y2="63.540323" stroke="#5fd3bc" stroke-width="0.3" stroke-opacity="1.000000"/>
   <line id="103" x1="30.690325" y1="64.290323" x2="37.052015" y2="64.290323" stroke="#5fd3bc" stroke-width="0.3" stroke-opacity="1.000000"/>
   <line id="104" x1="30.650418" y1="65.040323" x2="36.996019" y2="65.040323" stroke="#5fd3bc" stroke-width="0.3" stroke-opacity="1.000000"/>
   <line id="105" x1="133.485645" y1="65.040323" x2="139.986134" y2="65.040323" stroke="#5fd3bc" stroke-width="0.3" stroke-opacity="1.000000"/>
   <line id="106" x1="30.610511" y1="65.790323" x2="36.940022" y2="65.790323" stroke="#5fd3bc" stroke-width="0.3" stroke-opacity="1.000000"/>
   <line id="107" x1="133.218637" y1="65.790323" x2="139.728231" y2="65.790323" stroke="#5fd3bc" stroke-width="0.3" stroke-opacity="1.000000"/>
   <line id="108" x1="30.570604" y1="66.540323" x2="36.884025" y2="66.540323" stroke="#5fd3bc" stroke-width="0.3" stroke-opacity="1.000000"/>
   <line id="109" x1="132.951630" y1="66.540323" x2="139.470329" y2="66.540323" stroke="#5fd3bc" stroke-width="0.3" stroke-opacity="1.000000"/>
   <line id="110" x1="30.530698" y1="67.290323" x2="36.828029" y2="67.290323" stroke="#5fd3bc" stroke-width="0.3" stroke-opacity="1.000000"/>
   <line id="111" x1="132.684623" y1="67.290323" x2="139.212426" y2="67.290323" stroke="#5fd3bc" stroke-width="0.3" stroke-opacity="1.000000"/>
   <line id="112" x1="30.490791" y1="68.040323" x2="36.772032" y2="68.040323" stroke="#5fd3bc" stroke-width="0.3" stroke-opacity="1.000000"/>
   <line id="113" x1="132.417615" y1="68.040323" x2="138.954523" y2="68.040323" stroke="#5fd3bc" stroke-width="0.3" stroke-opacity="1.000000"/>
   <line id="114" x1="30.450884" y1="68.790323" x2="36.716035" y2="68.790323" stroke="#5fd3bc" stroke-width="0.3" stroke-opacity="1.000000"/>
   <line id="115" x1="132.150608" y1="68.790323" x2="138.696620" y2="68.790323" stroke="#5fd3bc" stroke-width="0.3" stroke-opacity="1.000000"/>
   <line id="116" x1="30.410978" y1="69.540323" x2="36.660039" y2="69.540323" stroke="#5fd3bc" stroke-width="0.3" stroke-opacity="1.000000"/>
   <line id="117" x1="131.883601" y1="69.540323" x2="138.438717" y2="69.540323" stroke="#5fd3bc" stroke-width="0.3" stroke-opacity="1.000000"/>
   <line id="118" x1="30.371071" y1="70.290323" x2="36.604042" y2="70.290323" stroke="#5fd3bc" stroke-width="0.3" stroke-opacity="1.000000"/>
   <line id="119" x1="131.616593" y1="70.290323" x2="138.180814" y2="70.290323" stroke="#5fd3bc" stroke-width="0.3" stroke-opacity="1.000000"/>
   <line id="120" x1="30.331164" y1="71.040323" x2="36.548046" y2="71.040323" stroke="#5fd3bc" stroke-width="0.3" stroke-opacity="1.000000"/>
   <line id="121" x1="131.349586" y1="71.040323" x2="137.922912" y2="71.040323" stroke="#5fd3bc" stroke-width="0.3" stroke-opacity="1.000000"/>
   <line id="122" x1="30.291257" y1="71.790323" x2="36.492049" y2="71.790323" stroke="#5fd3bc" stroke-width="0.3" stroke-opacity="1.000000"/>
   <line id="123" x1="131.082579" y1="71.790323" x2="137.665009" y2="71.790323" stroke="#5fd3bc" stroke-width="0.3" stroke-opacity="1.000000"/>
   <line id="124" x1="30.251351" y1="72.540323" x2="36.436052" y2="72.540323" stroke="#5fd3bc" stroke-width="0.3" stroke-opacity="1.000000"/>
   <line id="125" x1="130.815571" y1="72.540323" x2="137.407106" y2="72.540323" stroke="#5fd3bc" stroke-width="0.3" stroke-opacity="1.000000"/>
   <line id="126" x1="30.211444" y1="73.290323" x2="36.380056" y2="73.290323" stroke="#5fd3bc" stroke-width="0.3" stroke-opacity="1.000000"/>
   <line id="127" x1="130.548564" y1="73.290323" x2="137.149203" y2="73.290323" stroke="#5fd3bc" stroke-width="0.3" stroke-opacity="1.000000"/>
   <line id="128" x1="30.171537" y1="74.040323" x2="36.324059" y2="74.040323" stroke="#5fd3bc" stroke-width="0.3" stroke-opacity="1.000000"/>
   <line id="129" x1="130.281557" y1="74.040323" x2="136.891300" y2="74.040323" stroke="#5fd3bc" stroke-width="0.3" stroke-opacity="1.000000"/>
   <line id="130" x1="30.131630" y1="74.790323" x2="36.268063" y2="74.790323" stroke="#5fd3bc" stroke-width="0.3" stroke-opacity="1.000000"/>
   <line id="131" x1="130.014549" y1="74.790323" x2="136.633398" y2="74.790323" stroke="#5fd3bc" stroke-width="0.3" stroke-opacity="1.000000"/>
   <line id="132" x1="30.091724" y1="75.540323" x2="36.212066" y2="75.540323" stroke="#5fd3bc" stroke-width="0.3" stroke-opacity="1.000000"/>
   <line id="133" x1="129.747542" y1="75.540323" x2="136.375495" y2="75.540323" stroke="#5fd3bc" stroke-width="0.3" stroke-opacity="1.000000"/>
   <line id="134" x1="30.051817" y1="76.290323" x2="36.156069" y2="76.290323" stroke="#5fd3bc" stroke-width="0.3" stroke-opacity="1.000000"/>
   <line id="135" x1="129.480535" y1="76.290323" x2="136.117592" y2="76.290323" stroke="#5fd3bc" stroke-width="0.3" stroke-opacity="1.000000"/>
   <line id="136" x1="30.011910" y1="77.040323" x2="36.100073" y2="77.040323" stroke="#5fd3bc" stroke-width="0.3" stroke-opacity="1.000000"/>
   <line id="137" x1="129.213528" y1="77.040323" x2="135.859689" y2="77.040323" stroke="#5fd3bc" stroke-width="0.3" stroke-opacity="1.000000"/>
   <line id="138" x1="29.972004" y1="77.790323" x2="36.112914" y2="77.790323" stroke="#5fd3bc" stroke-width="0.3" stroke-opacity="1.000000"/>
   <line id="139" x1="128.946520" y1="77.790323" x2="135.601786" y2="77.790323" stroke="#5fd3bc" stroke-width="0.3" stroke-opacity="1.000000"/>
   <line id="140" x1="29.932097" y1="78.540323" x2="36.436326" y2="78.540323" stroke="#5fd3bc" stroke-width="0.3" stroke-opacity="1.000000"/>
   <line id="141" x1="128.679513" y1="78.540323" x2="135.343884" y2="78.540323" stroke="#5fd3bc" stroke-width="0.3" stroke-opacity="1.000000"/>
   <line id="142" x1="29.892190" y1="79.290323" x2="36.759738" y2="79.290323" stroke="#5fd3bc" stroke-width="0.3" stroke-opacity="1.000000"/>
   <line id="143" x1="128.412506" y1="79.290323" x2="135.085981" y2="79.290323" stroke="#5fd3bc" stroke-width="0.3" stroke-opacity="1.000000"/>
   <line id="144" x1="30.043600" y1="80.040323" x2="37.083149" y2="80.040323" stroke="#5fd3bc" stroke-width="0.3" stroke-opacity="1.000000"/>
   <line id="145" x1="128.145498" y1="80.040323" x2="134.828078" y2="80.040323" stroke="#5fd3bc" stroke-width="0.3" stroke-opacity="1.000000"/>
   <line id="146" x1="30.383827" y1="80.790323" x2="37.406561" y2="80.790323" stroke="#5fd3bc" stroke-width="0.3" stroke-opacity="1.000000"/>
   <line id="147" x1="127.878491" y1="80.790323" x2="134.570175" y2="80.790323" stroke="#5fd3bc" stroke-width="0.3" stroke-opacity="1.000000"/>
   <line id="148" x1="30.724053" y1="81.540323" x2="37.729972" y2="81.540323" stroke="#5fd3bc" stroke-width="0.3" stroke-opacity="1.000000"/>
   <line id="149" x1="127.611484" y1="81.540323" x2="134.312272" y2="81.540323" stroke="#5fd3bc" stroke-width="0.3" stroke-opacity="1.000000"/>
   <line id="150" x1="31.064280" y1="82.290323" x2="38.053384" y2="82.290323" stroke="#5fd3bc" stroke-width="0.3" stroke-opacity="1.000000"/>
   <line id="151" x1="127.344476" y1="82.290323" x2="134.054370" y2="82.290323" stroke="#5fd3bc" stroke-width="0.3" stroke-opacity="1.000000"/>
   <line id="152" x1="31.404506" y1="83.040323" x2="38.376795" y2="83.040323" stroke="#5fd3bc" stroke-width="0.3" stroke-opacity="1.000000"/>
   <line id="153" x1="127.077469" y1="83.040323" x2="133.796467" y2="83.040323" stroke="#5fd3bc" stroke-width="0.3" stroke-opacity="1.000000"/>
   <line id="154" x1="31.744733" y1="83.790323" x2="38.700207" y2="83.790323" stroke="#5fd3bc" stroke-width="0.3" stroke-opacity="1.000000"/>
   <line id="155" x1="126.810462" y1="83.790323" x2="133.538564" y2="83.790323" stroke="#5fd3bc" stroke-width="0.3" stroke-opacity="1.000000"/>
   <line id="156" x1="32.084959" y1="84.540323" x2="39.023618" y2="84.540323" stroke="#5fd3bc" stroke-width="0.3" stroke-opacity="1.000000"/>
   <line id="157" x1="126.543454" y1="84.540323" x2="133.280661" y2="84.540323" stroke="#5fd3bc" stroke-width="0.3" stroke-opacity="1.000000"/>
   <line id="158" x1="32.425185" y1="85.290323" x2="39.347030" y2="85.290323" stroke="#5fd3bc" stroke-width="0.3" stroke-opacity="1.000000"/>
   <line id="159" x1="126.276447" y1="85.290323" x2="133.022758" y2="85.290323" stroke="#5fd3bc" stroke-width="0.3" stroke-opacity="1.000000"/>
   <line id="160" x1="32.765412" y1="86.040323" x2="39.670441" y2="86.040323" stroke="#5fd3bc" stroke-width="0.3" stroke-opacity="1.000000"/>
   <line id="161" x1="126.009440" y1="86.040323" x2="132.764856" y2="86.040323" stroke="#5fd3bc" stroke-width="0.3" stroke-opacity="1.000000"/>
   <line id="162" x1="33.105638" y1="86.790323" x2="39.993853" y2="86.790323" stroke="#5fd3bc" stroke-width="0.3" stroke-opacity="1.000000"/>
   <line id="163" x1="125.742432" y1="86.790323" x2="132.506953" y2="86.790323" stroke="#5fd3bc" stroke-width="0.3" stroke-opacity="1.000000"/>
   <line id="164" x1="33.445865" y1="87.540323" x2="40.317264" y2="87.540323" stroke="#5fd3bc" stroke-width="0.3" stroke-opacity="1.000000"/>
   <line id="165" x1="125.475425" y1="87.540323" x2="132.249050" y2="87.540323" stroke="#5fd3bc" stroke-width="0.3" stroke-opacity="1.000000"/>
   <line id="166" x1="33.786091" y1="88.290323" x2="40.640676" y2="88.290323" stroke="#5fd3bc" stroke-width="0.3" stroke-opacity="1.000000"/>
   <line id="167" x1="125.208418" y1="88.290323" x2="131.991147" y2="88.290323" stroke="#5fd3bc" stroke-width="0.3" stroke-opacity="1.000000"/>
   <line id="168" x1="34.126318" y1="89.040323" x2="40.964087" y2="89.040323" stroke="#5fd3bc" stroke-width="0.3" stroke-opacity="1.000000"/>
   <line id="169" x1="124.941410" y1="89.040323" x2="131.733244" y2="89.040323" stroke="#5fd3bc" stroke-width="0.3" stroke-opacity="1.000000"/>
   <line id="170" x1="34.466544" y1="89.790323" x2="41.287499" y2="89.790323" stroke="#5fd3bc" stroke-width="0.3" stroke-opacity="1.000000"/>
   <line id="171" x1="124.674403" y1="89.790323" x2="131.475342" y2="89.790323" stroke="#5fd3bc" stroke-width="0.3" stroke-opacity="1.000000"/>
   <line id="172" x1="34.806771" y1="90.540323" x2="41.610911" y2="90.540323" stroke="#5fd3bc" stroke-width="0.3" stroke-opacity="1.000000"/>
   <line id="173" x1="124.186360" y1="90.540323" x2="131.217439" y2="90.540323" stroke="#5fd3bc" stroke-width="0.3" stroke-opacity="1.000000"/>
   <line id="174" x1="35.146997" y1="91.290323" x2="41.934322" y2="91.290323" stroke="#5fd3bc" stroke-width="0.3" stroke-opacity="1.000000"/>
   <line id="175" x1="123.384246" y1="91.290323" x2="130.959536" y2="91.290323" stroke="#5fd3bc" stroke-width="0.3" stroke-opacity="1.000000"/>
   <line id="176" x1="35.487223" y1="92.040323" x2="42.257734" y2="92.040323" stroke="#5fd3bc" stroke-width="0.3" stroke-opacity="1.000000"/>
   <line id="177" x1="122.582131" y1="92.040323" x2="130.701633" y2="92.040323" stroke="#5fd3bc" stroke-width="0.3" stroke-opacity="1.000000"/>
   <line id="178" x1="35.827450" y1="92.790323" x2="42.581145" y2="92.790323" stroke="#5fd3bc" stroke-width="0.3" stroke-opacity="1.000000"/>
   <line id="179" x1="121.780017" y1="92.790323" x2="130.443730" y2="92.790323" stroke="#5fd3bc" stroke-width="0.3" stroke-opacity="1.000000"/>
   <line id="180" x1="36.167676" y1="93.540323" x2="42.904557" y2="93.540323" stroke="#5fd3bc" stroke-width="0.3" stroke-opacity="1.000000"/>
   <line id="181" x1="120.977902" y1="93.540323" x2="129.934499" y2="93.540323" stroke="#5fd3bc" stroke-width="0.3" stroke-opacity="1.000000"/>
   <line id="182" x1="36.507903" y1="94.290323" x2="43.227968" y2="94.290323" stroke="#5fd3bc" stroke-width="0.3" stroke-opacity="1.000000"/>
   <line id="183" x1="120.175788" y1="94.290323" x2="129.151336" y2="94.290323" stroke="#5fd3bc" stroke-width="0.3" stroke-opacity="1.000000"/>
   <line id="184" x1="36.848129" y1="95.040323" x2="43.551380" y2="95.040323" stroke="#5fd3bc" stroke-width="0.3" stroke-opacity="1.000000"/>
   <line id="185" x1="119.373673" y1="95.040323" x2="128.368173" y2="95.040323" stroke="#5fd3bc" stroke-width="0.3" stroke-opacity="1.000000"/>
   <line id="186" x1="37.188356" y1="95.790323" x2="43.874791" y2="95.790323" stroke="#5fd3bc" stroke-width="0.3" stroke-opacity="1.000000"/>
   <line id="187" x1="118.571558" y1="95.790323" x2="127.585010" y2="95.790323" stroke="#5fd3bc" stroke-width="0.3" stroke-opacity="1.000000"/>
   <line id="188" x1="37.528582" y1="96.540323" x2="44.609452" y2="96.540323" stroke="#5fd3bc" stroke-width="0.3" stroke-opacity="1.000000"/>
   <line id="189" x1="117.769444" y1="96.540323" x2="126.801847" y2="96.540323" stroke="#5fd3bc" stroke-width="0.3" stroke-opacity="1.000000"/>
   <line id="190" x1="37.868808" y1="97.290323" x2="45.530595" y2="97.290323" stroke="#5fd3bc" stroke-width="0.3" stroke-opacity="1.000000"/>
   <line id="191" x1="116.967329" y1="97.290323" x2="126.018684" y2="97.290323" stroke="#5fd3bc" stroke-width="0.3" stroke-opacity="1.000000"/>
   <line id="192" x1="38.209035" y1="98.040323" x2="46.451738" y2="98.040323" stroke="#5fd3bc" stroke-width="0.3" stroke-opacity="1.000000"/>
   <line id="193" x1="116.165215" y1="98.040323" x2="125.235521" y2="98.040323" stroke="#5fd3bc" stroke-width="0.3" stroke-opacity="1.000000"/>
   <line id="194" x1="38.549261" y1="98.790323" x2="47.372881" y2="98.790323" stroke="#5fd3bc" stroke-width="0.3" stroke-opacity="1.000000"/>
   <line id="195" x1="115.363100" y1="98.790323" x2="124.452359" y2="98.790323" stroke="#5fd3bc" stroke-width="0.3" stroke-opacity="1.000000"/>
   <line id="196" x1="38.889488" y1="99.540323" x2="48.294024" y2="99.540323" stroke="#5fd3bc" stroke-width="0.3" stroke-opacity="1.000000"/>
   <line id="197" x1="114.560986" y1="99.540323" x2="123.669196" y2="99.540323" stroke="#5fd3bc" stroke-width="0.3" stroke-opacity="1.000000"/>
   <line id="198" x1="39.229714" y1="100.290323" x2="49.215167" y2="100.290323" stroke="#5fd3bc" stroke-width="0.3" stroke-opacity="1.000000"/>
   <line id="199" x1="113.758871" y1="100.290323" x2="122.886033" y2="100.290323" stroke="#5fd3bc" stroke-width="0.3" stroke-opacity="1.000000"/>
   <line id="200" x1="39.912944" y1="101.040323" x2="50.136310" y2="101.040323" stroke="#5fd3bc" stroke-width="0.3" stroke-opacity="1.000000"/>
   <line id="201" x1="112.956757" y1="101.040323" x2="122.102870" y2="101.040323" stroke="#5fd3bc" stroke-width="0.3" stroke-opacity="1.000000"/>
   <line id="202" x1="40.865940" y1="101.790323" x2="51.057453" y2="101.790323" stroke="#5fd3bc" stroke-width="0.3" stroke-opacity="1.000000"/>
   <line id="203" x1="112.154642" y1="101.790323" x2="121.319707" y2="101.790323" stroke="#5fd3bc" stroke-width="0.3" stroke-opacity="1.000000"/>
   <line id="204" x1="41.818936" y1="102.540323" x2="51.978595" y2="102.540323" stroke="#5fd3bc" stroke-width="0.3" stroke-opacity="1.000000"/>
   <line id="205" x1="111.352528" y1="102.540323" x2="120.536544" y2="102.540323" stroke="#5fd3bc" stroke-width="0.3" stroke-opacity="1.000000"/>
   <line id="206" x1="42.771933" y1="103.290323" x2="52.899738" y2="103.290323" stroke="#5fd3bc" stroke-width="0.3" stroke-opacity="1.000000"/>
   <line id="207" x1="110.550413" y1="103.290323" x2="119.753381" y2="103.290323" stroke="#5fd3bc" stroke-width="0.3" stroke-opacity="1.000000"/>
   <line id="208" x1="43.724929" y1="104.040323" x2="53.820881" y2="104.040323" stroke="#5fd3bc" stroke-width="0.3" stroke-opacity="1.000000"/>
   <line id="209" x1="109.748299" y1="104.040323" x2="118.970218" y2="104.040323" stroke="#5fd3bc" stroke-width="0.3" stroke-opacity="1.000000"/>
   <line id="210" x1="44.677925" y1="104.790323" x2="54.742024" y2="104.790323" stroke="#5fd3bc" stroke-width="0.3" stroke-opacity="1.000000"/>
   <line id="211" x1="108.946184" y1="104.790323" x2="118.187055" y2="104.790323" stroke="#5fd3bc" stroke-width="0.3" stroke-opacity="1.000000"/>
   <line id="212" x1="45.630921" y1="105.540323" x2="55.663167" y2="105.540323" stroke="#5fd3bc" stroke-width="0.3" stroke-opacity="1.000000"/>
   <line id="213" x1="108.144070" y1="105.540323" x2="117.403892" y2="105.540323" stroke="#5fd3bc" stroke-width="0.3" stroke-opacity="1.000000"/>
   <line id="214" x1="46.583918" y1="106.290323" x2="56.584310" y2="106.290323" stroke="#5fd3bc" stroke-width="0.3" stroke-opacity="1.000000"/>
   <line id="215" x1="107.341955" y1="106.290323" x2="116.620729" y2="106.290323" stroke="#5fd3bc" stroke-width="0.3" stroke-opacity="1.000000"/>
   <line id="216" x1="47.536914" y1="107.040323" x2="57.505453" y2="107.040323" stroke="#5fd3bc" stroke-width="0.3" stroke-opacity="1.000000"/>
   <line id="217" x1="106.539841" y1="107.040323" x2="115.837566" y2="107.040323" stroke="#5fd3bc" stroke-width="0.3" stroke-opacity="1.000000"/>
   <line id="218" x1="48.489910" y1="107.790323" x2="58.426596" y2="107.790323" stroke="#5fd3bc" stroke-width="0.3" stroke-opacity="1.000000"/>
   <line id="219" x1="105.251719" y1="107.790323" x2="115.054403" y2="107.790323" stroke="#5fd3bc" stroke-width="0.3" stroke-opacity="1.000000"/>
   <line id="220" x1="49.442906" y1="108.540323" x2="59.347739" y2="108.540323" stroke="#5fd3bc" stroke-width="0.3" stroke-opacity="1.000000"/>
   <line id="221" x1="102.585873" y1="108.540323" x2="114.271240" y2="108.540323" stroke="#5fd3bc" stroke-width="0.3" stroke-opacity="1.000000"/>
   <line id="222" x1="50.395903" y1="109.290323" x2="60.268881" y2="109.290323" stroke="#5fd3bc" stroke-width="0.3" stroke-opacity="1.000000"/>
   <line id="223" x1="99.920026" y1="109.290323" x2="113.488077" y2="109.290323" stroke="#5fd3bc" stroke-width="0.3" stroke-opacity="1.000000"/>
   <line id="224" x1="51.348899" y1="110.040323" x2="63.102893" y2="110.040323" stroke="#5fd3bc" stroke-width="0.3" stroke-opacity="1.000000"/>
   <line id="225" x1="97.254180" y1="110.040323" x2="112.704915" y2="110.040323" stroke="#5fd3bc" stroke-width="0.3" stroke-opacity="1.000000"/>
   <line id="226" x1="52.301895" y1="110.790323" x2="66.726449" y2="110.790323" stroke="#5fd3bc" stroke-width="0.3" stroke-opacity="1.000000"/>
   <line id="227" x1="94.588333" y1="110.790323" x2="111.921752" y2="110.790323" stroke="#5fd3bc" stroke-width="0.3" stroke-opacity="1.000000"/>
   <line id="228" x1="53.254891" y1="111.540323" x2="70.350004" y2="111.540323" stroke="#5fd3bc" stroke-width="0.3" stroke-opacity="1.000000"/>
   <line id="229" x1="91.922487" y1="111.540323" x2="111.138589" y2="111.540323" stroke="#5fd3bc" stroke-width="0.3" stroke-opacity="1.000000"/>
   <line id="230" x1="54.207888" y1="112.290323" x2="73.973560" y2="112.290323" stroke="#5fd3bc" stroke-width="0.3" stroke-opacity="1.000000"/>
   <line id="231" x1="89.256640" y1="112.290323" x2="110.355426" y2="112.290323" stroke="#5fd3bc" stroke-width="0.3" stroke-opacity="1.000000"/>
   <line id="232" x1="55.160884" y1="113.040323" x2="77.597116" y2="113.040323" stroke="#5fd3bc" stroke-width="0.3" stroke-opacity="1.000000"/>
   <line id="233" x1="86.590793" y1="113.040323" x2="109.135168" y2="113.040323" stroke="#5fd3bc" stroke-width="0.3" stroke-opacity="1.000000"/>
   <line id="234" x1="56.113880" y1="113.790323" x2="81.220672" y2="113.790323" stroke="#5fd3bc" stroke-width="0.3" stroke-opacity="1.000000"/>
   <line id="235" x1="83.924947" y1="113.790323" x2="106.598652" y2="113.790323" stroke="#5fd3bc" stroke-width="0.3" stroke-opacity="1.000000"/>
   <line id="236" x1="57.066876" y1="114.540323" x2="104.062136" y2="114.540323" stroke="#5fd3bc" stroke-width="0.3" stroke-opacity="1.000000"/>
   <line id="237" x1="58.019873" y1="115.290323" x2="101.525620" y2="115.290323" stroke="#5fd3bc" stroke-width="0.3" stroke-opacity="1.000000"/>
   <line id="238" x1="60.350776" y1="116.040323" x2="98.989104" y2="116.040323" stroke="#5fd3bc" stroke-width="0.3" stroke-opacity="1.000000"/>
   <line id="239" x1="64.264798" y1="116.790323" x2="96.452588" y2="116.790323" stroke="#5fd3bc" stroke-width="0.3" stroke-opacity="1.000000"/>
   <line id="240" x1="68.178820" y1="117.540323" x2="93.916072" y2="117.540323" stroke="#5fd3bc" stroke-width="0.3" stroke-opacity="1.000000"/>
   <line id="241" x1="72.092842" y1="118.290323" x2="91.379556" y2="118.290323" stroke="#5fd3bc" stroke-width="0.3" stroke-opacity="1.000000"/>
   <line id="242" x1="76.006864" y1="119.040323" x2="88.843039" y2="119.040323" stroke="#5fd3bc" stroke-width="0.3" stroke-opacity="1.000000"/>
   <line id="243" x1="79.920886" y1="119.790323" x2="86.306523" y2="119.790323" stroke="#5fd3bc" stroke-width="0.3" stroke-opacity="1.000000"/>
</g>
</svg>
