<?xml version="1.0" encoding="UTF-8"?>
<svg xmlns="http://www.w3.org/2000/svg" xmlns:xlink="http://www.w3.org/1999/xlink" width="145.1276" height="125.9925" viewBox="14.8724 15.5403 145.1276 125.9925">
<g id="fig">
   <rect id="10" x="140.000000" y="65.000000" width="5.000000" height="6.000000" fill="white" stroke="blue" fill-opacity="0.5" stroke-width="1.0px"/>
   <rect id="11" x="130.309230" y="93.181460" width="5.000000" height="6.000000" fill="white" stroke="blue" fill-opacity="0.5" stroke-width="1.0px"/>
   <rect id="12" x="109.767498" y="112.853355" width="5.000000" height="6.000000" fill="white" stroke="blue" fill-opacity="0.5" stroke-width="1.0px"/>
   <rect id="13" x="83.795528" y="120.532777" width="5.000000" height="6.000000" fill="white" stroke="blue" fill-opacity="0.5" stroke-width="1.0px"/>
   <rect id="14" x="58.529394" y="115.691312" width="5.000000" height="6.000000" fill="white" stroke="blue" fill-opacity="0.5" stroke-width="1.0px"/>
   <rect id="15" x="39.379496" y="100.620504" width="5.000000" height="6.000000" fill="white" stroke="blue" fill-opacity="0.5" stroke-width="1.0px"/>
   <rect id="16" x="29.872368" y="79.662856" width="5.000000" height="6.000000" fill="white" stroke="blue" fill-opacity="0.5" stroke-width="1.0px"/>
   <rect id="17" x="31.023177" y="58.034755" width="5.000000" height="6.000000" fill="white" stroke="blue" fill-opacity="0.5" stroke-width="1.0px"/>
   <rect id="18" x="41.344893" y="40.548134" width="5.000000" height="6.000000" fill="white" stroke="blue" fill-opacity="0.5" stroke-width="1.0px"/>
   <rect id="19" x="57.441917" y="30.540323" width="5.000000" height="6.000000" fill="white" stroke="blue" fill-opacity="0.5" stroke-width="1.0px"/>
   <rect id="20" x="60.392856" y="36.331865" width="5.000000" height="6.000000" fill="white" stroke="blue" fill-opacity="0.5" stroke-width="1.0px"/>
   <rect id="21" x="46.603503" y="44.368738" width="5.000000" height="6.000000" fill="white" stroke="blue" fill-opacity="0.5" stroke-width="1.0px"/>
   <rect id="22" x="37.443151" y="59.051579" width="5.000000" height="6.000000" fill="white" stroke="blue" fill-opacity="0.5" stroke-width="1.0px"/>
   <rect id="23" x="36.054236" y="77.654246" width="5.000000" height="6.000000" fill="white" stroke="blue" fill-opacity="0.5" stroke-width="1.0px"/>
   <rect id="24" x="43.975690" y="96.024310" width="5.000000" height="6.000000" fill="white" stroke="blue" fill-opacity="0.5" stroke-width="1.0px"/>
   <rect id="25" x="60.538005" y="109.509445" width="5.000000" height="6.000000" fill="white" stroke="blue" fill-opacity="0.5" stroke-width="1.0px"/>
   <rect id="26" x="82.778704" y="114.112803" width="5.000000" height="6.000000" fill="white" stroke="blue" fill-opacity="0.5" stroke-width="1.0px"/>
   <rect id="27" x="105.946894" y="107.594745" width="5.000000" height="6.000000" fill="white" stroke="blue" fill-opacity="0.5" stroke-width="1.0px"/>
   <rect id="28" x="124.517688" y="90.230522" width="5.000000" height="6.000000" fill="white" stroke="blue" fill-opacity="0.5" stroke-width="1.0px"/>
   <rect id="29" x="133.500000" y="65.000000" width="5.000000" height="6.000000" fill="white" stroke="blue" fill-opacity="0.5" stroke-width="1.0px"/>
</g>
</svg>
