<?xml version="1.0" encoding="UTF-8"?>
<svg xmlns="http://www.w3.org/2000/svg" xmlns:xlink="http://www.w3.org/1999/xlink" width="264.0176" height="97.5000" viewBox="14.8724 38.0403 264.0176 97.5000">
<g id="fig">
   <text x="263.890000" y="87.500000" id="10" text-anchor="middle" fill="#de87cd" stroke="#501644" font-family="sans-serif" font-size="9pt" font-weight="lighter">Salve o tricolor paulista</text>
   <text x="254.199230" y="115.681460" id="11" text-anchor="middle" fill="#de87cd" stroke="#501644" font-family="sans-serif" font-size="9pt" font-weight="lighter">Amado clube brasileiro</text>
   <text x="109.767498" y="112.853355" id="12" text-anchor="middle" fill="#916f6f" stroke="None" font-family="sans-serif" font-size="9pt" font-weight="lighter">Tu es forte, tu es grande</text>
   <text x="83.795528" y="120.532777" id="13" text-anchor="middle" fill="#916f6f" stroke="None" font-family="sans-serif" font-size="9pt" font-weight="lighter">Dentre os grandes es o primeiro</text>
   <text x="58.529394" y="115.691312" id="14" text-anchor="middle" fill="#916f6f" stroke="None" font-family="sans-serif" font-size="9pt" font-weight="lighter">Tu es forte, tu es grande</text>
   <text x="39.379496" y="100.620504" id="15" text-anchor="middle" fill="#916f6f" stroke="None" font-family="sans-serif" font-size="9pt" font-weight="lighter">Dentre os grandes es o primeiro</text>
   <text x="153.762368" y="102.162856" id="16" text-anchor="middle" fill="#de87cd" stroke="#501644" font-family="sans-serif" font-size="9pt" font-weight="lighter">Oh, Tricolor</text>
   <text x="154.913177" y="80.534755" id="17" text-anchor="middle" fill="#de87cd" stroke="#501644" font-family="sans-serif" font-size="9pt" font-weight="lighter">Clube bem amado</text>
   <text x="165.234893" y="63.048134" id="18" text-anchor="middle" fill="#de87cd" stroke="#501644" font-family="sans-serif" font-size="9pt" font-weight="lighter">As tuas gloriasVem do passado</text>
   <text x="181.331917" y="53.040323" id="19" text-anchor="middle" fill="#de87cd" stroke="#501644" font-family="sans-serif" font-size="9pt" font-weight="lighter">Sao teus guias brasileiros</text>
   <text x="184.282856" y="58.831865" id="20" text-anchor="middle" fill="#de87cd" stroke="#501644" font-family="sans-serif" font-size="9pt" font-weight="lighter">Que te amam eternamente</text>
   <text x="170.493503" y="66.868738" id="21" text-anchor="middle" fill="#de87cd" stroke="#501644" font-family="sans-serif" font-size="9pt" font-weight="lighter">De Sao Paulo tens o nome</text>
   <text x="161.333151" y="81.551579" id="22" text-anchor="middle" fill="#de87cd" stroke="#501644" font-family="sans-serif" font-size="9pt" font-weight="lighter">Que ostentas dignamente</text>
   <text x="159.944236" y="100.154246" id="23" text-anchor="middle" fill="#de87cd" stroke="#501644" font-family="sans-serif" font-size="9pt" font-weight="lighter">De Sao Paulo tens o nome</text>
   <text x="167.865690" y="118.524310" id="24" text-anchor="middle" fill="#de87cd" stroke="#501644" font-family="sans-serif" font-size="9pt" font-weight="lighter">Que ostentas dignamente</text>
   <text x="60.538005" y="109.509445" id="25" text-anchor="middle" fill="#916f6f" stroke="None" font-family="sans-serif" font-size="9pt" font-weight="lighter">Salve o tricolor paulista</text>
   <text x="82.778704" y="114.112803" id="26" text-anchor="middle" fill="#916f6f" stroke="None" font-family="sans-serif" font-size="9pt" font-weight="lighter">Amado clube brasileiro</text>
   <text x="105.946894" y="107.594745" id="27" text-anchor="middle" fill="#916f6f" stroke="None" font-family="sans-serif" font-size="9pt" font-weight="lighter">Tu es forte, tu es grande</text>
   <text x="248.407688" y="112.730522" id="28" text-anchor="middle" fill="#de87cd" stroke="#501644" font-family="sans-serif" font-size="9pt" font-weight="lighter">Dentre os grandes es o primeiro</text>
   <text x="257.390000" y="87.500000" id="29" text-anchor="middle" fill="#de87cd" stroke="#501644" font-family="sans-serif" font-size="9pt" font-weight="lighter">Tu es forte, tu es grande</text>
   <line id="39" x1="263.890000" y1="87.500000" x2="254.199230" y2="115.681460" stroke="#501644" stroke-width="0.3750" stroke-opacity="1.000000"/>
   <line id="40" x1="130.309230" y1="93.181460" x2="109.767498" y2="112.853355" stroke="#5f5dd3" stroke-width="0.3750" stroke-opacity="1.000000"/>
   <line id="41" x1="109.767498" y1="112.853355" x2="83.795528" y2="120.532777" stroke="#5f5dd3" stroke-width="0.3750" stroke-opacity="1.000000"/>
   <line id="42" x1="83.795528" y1="120.532777" x2="58.529394" y2="115.691312" stroke="#5f5dd3" stroke-width="0.3750" stroke-opacity="1.000000"/>
   <line id="43" x1="58.529394" y1="115.691312" x2="39.379496" y2="100.620504" stroke="#5f5dd3" stroke-width="0.3750" stroke-opacity="1.000000"/>
   <line id="44" x1="39.379496" y1="100.620504" x2="29.872368" y2="79.662856" stroke="#5f5dd3" stroke-width="0.3750" stroke-opacity="1.000000"/>
   <line id="45" x1="153.762368" y1="102.162856" x2="154.913177" y2="80.534755" stroke="#501644" stroke-width="0.3750" stroke-opacity="1.000000"/>
   <line id="46" x1="154.913177" y1="80.534755" x2="165.234893" y2="63.048134" stroke="#501644" stroke-width="0.3750" stroke-opacity="1.000000"/>
   <line id="47" x1="165.234893" y1="63.048134" x2="181.331917" y2="53.040323" stroke="#501644" stroke-width="0.3750" stroke-opacity="1.000000"/>
   <line id="48" x1="181.331917" y1="53.040323" x2="184.282856" y2="58.831865" stroke="#501644" stroke-width="0.3750" stroke-opacity="1.000000"/>
   <line id="49" x1="184.282856" y1="58.831865" x2="170.493503" y2="66.868738" stroke="#501644" stroke-width="0.3750" stroke-opacity="1.000000"/>
   <line id="50" x1="170.493503" y1="66.868738" x2="161.333151" y2="81.551579" stroke="#501644" stroke-width="0.3750" stroke-opacity="1.000000"/>
   <line id="51" x1="161.333151" y1="81.551579" x2="159.944236" y2="100.154246" stroke="#501644" stroke-width="0.3750" stroke-opacity="1.000000"/>
   <line id="52" x1="159.944236" y1="100.154246" x2="167.865690" y2="118.524310" stroke="#501644" stroke-width="0.3750" stroke-opacity="1.000000"/>
   <line id="53" x1="43.975690" y1="96.024310" x2="60.538005" y2="109.509445" stroke="#5f5dd3" stroke-width="0.3750" stroke-opacity="1.000000"/>
   <line id="54" x1="60.538005" y1="109.509445" x2="82.778704" y2="114.112803" stroke="#5f5dd3" stroke-width="0.3750" stroke-opacity="1.000000"/>
   <line id="55" x1="82.778704" y1="114.112803" x2="105.946894" y2="107.594745" stroke="#5f5dd3" stroke-width="0.3750" stroke-opacity="1.000000"/>
   <line id="56" x1="105.946894" y1="107.594745" x2="124.517688" y2="90.230522" stroke="#5f5dd3" stroke-width="0.3750" stroke-opacity="1.000000"/>
   <line id="57" x1="248.407688" y1="112.730522" x2="257.390000" y2="87.500000" stroke="#501644" stroke-width="0.3750" stroke-opacity="1.000000"/>
   <line id="58" x1="257.390000" y1="87.500000" x2="263.890000" y2="87.500000" stroke="#501644" stroke-width="0.3750" stroke-opacity="1.000000"/>
   <line id="59" x1="180.125582" y1="53.790323" x2="181.714061" y2="53.790323" stroke="#501644" stroke-width="0.1875" stroke-opacity="1.000000"/>
   <line id="60" x1="178.919248" y1="54.540323" x2="182.096205" y2="54.540323" stroke="#501644" stroke-width="0.1875" stroke-opacity="1.000000"/>
   <line id="61" x1="177.712913" y1="55.290323" x2="182.478350" y2="55.290323" stroke="#501644" stroke-width="0.1875" stroke-opacity="1.000000"/>
   <line id="62" x1="176.506579" y1="56.040323" x2="182.860494" y2="56.040323" stroke="#501644" stroke-width="0.1875" stroke-opacity="1.000000"/>
   <line id="63" x1="175.300244" y1="56.790323" x2="183.242638" y2="56.790323" stroke="#501644" stroke-width="0.1875" stroke-opacity="1.000000"/>
   <line id="64" x1="174.093910" y1="57.540323" x2="183.624782" y2="57.540323" stroke="#501644" stroke-width="0.1875" stroke-opacity="1.000000"/>
   <line id="65" x1="172.887575" y1="58.290323" x2="184.006926" y2="58.290323" stroke="#501644" stroke-width="0.1875" stroke-opacity="1.000000"/>
   <line id="66" x1="171.681241" y1="59.040323" x2="183.925192" y2="59.040323" stroke="#501644" stroke-width="0.1875" stroke-opacity="1.000000"/>
   <line id="67" x1="170.474906" y1="59.790323" x2="182.638371" y2="59.790323" stroke="#501644" stroke-width="0.1875" stroke-opacity="1.000000"/>
   <line id="68" x1="169.268572" y1="60.540323" x2="181.351550" y2="60.540323" stroke="#501644" stroke-width="0.1875" stroke-opacity="1.000000"/>
   <line id="69" x1="168.062237" y1="61.290323" x2="180.064730" y2="61.290323" stroke="#501644" stroke-width="0.1875" stroke-opacity="1.000000"/>
   <line id="70" x1="166.855903" y1="62.040323" x2="178.777909" y2="62.040323" stroke="#501644" stroke-width="0.1875" stroke-opacity="1.000000"/>
   <line id="71" x1="165.649568" y1="62.790323" x2="177.491088" y2="62.790323" stroke="#501644" stroke-width="0.1875" stroke-opacity="1.000000"/>
   <line id="72" x1="164.944372" y1="63.540323" x2="176.204268" y2="63.540323" stroke="#501644" stroke-width="0.1875" stroke-opacity="1.000000"/>
   <line id="73" x1="164.501674" y1="64.290323" x2="174.917447" y2="64.290323" stroke="#501644" stroke-width="0.1875" stroke-opacity="1.000000"/>
   <line id="74" x1="164.058976" y1="65.040323" x2="173.630626" y2="65.040323" stroke="#501644" stroke-width="0.1875" stroke-opacity="1.000000"/>
   <line id="75" x1="163.616279" y1="65.790323" x2="172.343805" y2="65.790323" stroke="#501644" stroke-width="0.1875" stroke-opacity="1.000000"/>
   <line id="76" x1="163.173581" y1="66.540323" x2="171.056985" y2="66.540323" stroke="#501644" stroke-width="0.1875" stroke-opacity="1.000000"/>
   <line id="77" x1="162.730883" y1="67.290323" x2="170.230484" y2="67.290323" stroke="#501644" stroke-width="0.1875" stroke-opacity="1.000000"/>
   <line id="78" x1="162.288186" y1="68.040323" x2="169.762573" y2="68.040323" stroke="#501644" stroke-width="0.1875" stroke-opacity="1.000000"/>
   <line id="79" x1="161.845488" y1="68.790323" x2="169.294662" y2="68.790323" stroke="#501644" stroke-width="0.1875" stroke-opacity="1.000000"/>
   <line id="80" x1="161.402790" y1="69.540323" x2="168.826751" y2="69.540323" stroke="#501644" stroke-width="0.1875" stroke-opacity="1.000000"/>
   <line id="81" x1="160.960092" y1="70.290323" x2="168.358840" y2="70.290323" stroke="#501644" stroke-width="0.1875" stroke-opacity="1.000000"/>
   <line id="82" x1="160.517395" y1="71.040323" x2="167.890929" y2="71.040323" stroke="#501644" stroke-width="0.1875" stroke-opacity="1.000000"/>
   <line id="83" x1="160.074697" y1="71.790323" x2="167.423017" y2="71.790323" stroke="#501644" stroke-width="0.1875" stroke-opacity="1.000000"/>
   <line id="84" x1="159.631999" y1="72.540323" x2="166.955106" y2="72.540323" stroke="#501644" stroke-width="0.1875" stroke-opacity="1.000000"/>
   <line id="85" x1="159.189302" y1="73.290323" x2="166.487195" y2="73.290323" stroke="#501644" stroke-width="0.1875" stroke-opacity="1.000000"/>
   <line id="86" x1="158.746604" y1="74.040323" x2="166.019284" y2="74.040323" stroke="#501644" stroke-width="0.1875" stroke-opacity="1.000000"/>
   <line id="87" x1="158.303906" y1="74.790323" x2="165.551373" y2="74.790323" stroke="#501644" stroke-width="0.1875" stroke-opacity="1.000000"/>
   <line id="88" x1="157.861208" y1="75.540323" x2="165.083462" y2="75.540323" stroke="#501644" stroke-width="0.1875" stroke-opacity="1.000000"/>
   <line id="89" x1="157.418511" y1="76.290323" x2="164.615551" y2="76.290323" stroke="#501644" stroke-width="0.1875" stroke-opacity="1.000000"/>
   <line id="90" x1="156.975813" y1="77.040323" x2="164.147640" y2="77.040323" stroke="#501644" stroke-width="0.1875" stroke-opacity="1.000000"/>
   <line id="91" x1="156.533115" y1="77.790323" x2="163.679729" y2="77.790323" stroke="#501644" stroke-width="0.1875" stroke-opacity="1.000000"/>
   <line id="92" x1="156.090418" y1="78.540323" x2="163.211818" y2="78.540323" stroke="#501644" stroke-width="0.1875" stroke-opacity="1.000000"/>
   <line id="93" x1="155.647720" y1="79.290323" x2="162.743907" y2="79.290323" stroke="#501644" stroke-width="0.1875" stroke-opacity="1.000000"/>
   <line id="94" x1="155.205022" y1="80.040323" x2="162.275996" y2="80.040323" stroke="#501644" stroke-width="0.1875" stroke-opacity="1.000000"/>
   <line id="95" x1="154.899578" y1="80.790323" x2="161.808084" y2="80.790323" stroke="#501644" stroke-width="0.1875" stroke-opacity="1.000000"/>
   <line id="96" x1="154.859672" y1="81.540323" x2="161.340173" y2="81.540323" stroke="#501644" stroke-width="0.1875" stroke-opacity="1.000000"/>
   <line id="97" x1="154.819765" y1="82.290323" x2="161.277995" y2="82.290323" stroke="#501644" stroke-width="0.1875" stroke-opacity="1.000000"/>
   <line id="98" x1="154.779858" y1="83.040323" x2="161.221998" y2="83.040323" stroke="#501644" stroke-width="0.1875" stroke-opacity="1.000000"/>
   <line id="99" x1="154.739952" y1="83.790323" x2="161.166002" y2="83.790323" stroke="#501644" stroke-width="0.1875" stroke-opacity="1.000000"/>
   <line id="100" x1="154.700045" y1="84.540323" x2="161.110005" y2="84.540323" stroke="#501644" stroke-width="0.1875" stroke-opacity="1.000000"/>
   <line id="101" x1="154.660138" y1="85.290323" x2="161.054008" y2="85.290323" stroke="#501644" stroke-width="0.1875" stroke-opacity="1.000000"/>
   <line id="102" x1="154.620231" y1="86.040323" x2="160.998012" y2="86.040323" stroke="#501644" stroke-width="0.1875" stroke-opacity="1.000000"/>
   <line id="103" x1="154.580325" y1="86.790323" x2="160.942015" y2="86.790323" stroke="#501644" stroke-width="0.1875" stroke-opacity="1.000000"/>
   <line id="104" x1="154.540418" y1="87.540323" x2="160.886019" y2="87.540323" stroke="#501644" stroke-width="0.1875" stroke-opacity="1.000000"/>
   <line id="105" x1="257.375645" y1="87.540323" x2="263.876134" y2="87.540323" stroke="#501644" stroke-width="0.1875" stroke-opacity="1.000000"/>
   <line id="106" x1="154.500511" y1="88.290323" x2="160.830022" y2="88.290323" stroke="#501644" stroke-width="0.1875" stroke-opacity="1.000000"/>
   <line id="107" x1="257.108637" y1="88.290323" x2="263.618231" y2="88.290323" stroke="#501644" stroke-width="0.1875" stroke-opacity="1.000000"/>
   <line id="108" x1="154.460604" y1="89.040323" x2="160.774025" y2="89.040323" stroke="#501644" stroke-width="0.1875" stroke-opacity="1.000000"/>
   <line id="109" x1="256.841630" y1="89.040323" x2="263.360329" y2="89.040323" stroke="#501644" stroke-width="0.1875" stroke-opacity="1.000000"/>
   <line id="110" x1="154.420698" y1="89.790323" x2="160.718029" y2="89.790323" stroke="#501644" stroke-width="0.1875" stroke-opacity="1.000000"/>
   <line id="111" x1="256.574623" y1="89.790323" x2="263.102426" y2="89.790323" stroke="#501644" stroke-width="0.1875" stroke-opacity="1.000000"/>
   <line id="112" x1="154.380791" y1="90.540323" x2="160.662032" y2="90.540323" stroke="#501644" stroke-width="0.1875" stroke-opacity="1.000000"/>
   <line id="113" x1="256.307615" y1="90.540323" x2="262.844523" y2="90.540323" stroke="#501644" stroke-width="0.1875" stroke-opacity="1.000000"/>
   <line id="114" x1="154.340884" y1="91.290323" x2="160.606035" y2="91.290323" stroke="#501644" stroke-width="0.1875" stroke-opacity="1.000000"/>
   <line id="115" x1="256.040608" y1="91.290323" x2="262.586620" y2="91.290323" stroke="#501644" stroke-width="0.1875" stroke-opacity="1.000000"/>
   <line id="116" x1="154.300978" y1="92.040323" x2="160.550039" y2="92.040323" stroke="#501644" stroke-width="0.1875" stroke-opacity="1.000000"/>
   <line id="117" x1="255.773601" y1="92.040323" x2="262.328717" y2="92.040323" stroke="#501644" stroke-width="0.1875" stroke-opacity="1.000000"/>
   <line id="118" x1="154.261071" y1="92.790323" x2="160.494042" y2="92.790323" stroke="#501644" stroke-width="0.1875" stroke-opacity="1.000000"/>
   <line id="119" x1="255.506593" y1="92.790323" x2="262.070814" y2="92.790323" stroke="#501644" stroke-width="0.1875" stroke-opacity="1.000000"/>
   <line id="120" x1="154.221164" y1="93.540323" x2="160.438046" y2="93.540323" stroke="#501644" stroke-width="0.1875" stroke-opacity="1.000000"/>
   <line id="121" x1="255.239586" y1="93.540323" x2="261.812912" y2="93.540323" stroke="#501644" stroke-width="0.1875" stroke-opacity="1.000000"/>
   <line id="122" x1="154.181257" y1="94.290323" x2="160.382049" y2="94.290323" stroke="#501644" stroke-width="0.1875" stroke-opacity="1.000000"/>
   <line id="123" x1="254.972579" y1="94.290323" x2="261.555009" y2="94.290323" stroke="#501644" stroke-width="0.1875" stroke-opacity="1.000000"/>
   <line id="124" x1="154.141351" y1="95.040323" x2="160.326052" y2="95.040323" stroke="#501644" stroke-width="0.1875" stroke-opacity="1.000000"/>
   <line id="125" x1="254.705571" y1="95.040323" x2="261.297106" y2="95.040323" stroke="#501644" stroke-width="0.1875" stroke-opacity="1.000000"/>
   <line id="126" x1="154.101444" y1="95.790323" x2="160.270056" y2="95.790323" stroke="#501644" stroke-width="0.1875" stroke-opacity="1.000000"/>
   <line id="127" x1="254.438564" y1="95.790323" x2="261.039203" y2="95.790323" stroke="#501644" stroke-width="0.1875" stroke-opacity="1.000000"/>
   <line id="128" x1="154.061537" y1="96.540323" x2="160.214059" y2="96.540323" stroke="#501644" stroke-width="0.1875" stroke-opacity="1.000000"/>
   <line id="129" x1="254.171557" y1="96.540323" x2="260.781300" y2="96.540323" stroke="#501644" stroke-width="0.1875" stroke-opacity="1.000000"/>
   <line id="130" x1="154.021630" y1="97.290323" x2="160.158063" y2="97.290323" stroke="#501644" stroke-width="0.1875" stroke-opacity="1.000000"/>
   <line id="131" x1="253.904549" y1="97.290323" x2="260.523398" y2="97.290323" stroke="#501644" stroke-width="0.1875" stroke-opacity="1.000000"/>
   <line id="132" x1="153.981724" y1="98.040323" x2="160.102066" y2="98.040323" stroke="#501644" stroke-width="0.1875" stroke-opacity="1.000000"/>
   <line id="133" x1="253.637542" y1="98.040323" x2="260.265495" y2="98.040323" stroke="#501644" stroke-width="0.1875" stroke-opacity="1.000000"/>
   <line id="134" x1="153.941817" y1="98.790323" x2="160.046069" y2="98.790323" stroke="#501644" stroke-width="0.1875" stroke-opacity="1.000000"/>
   <line id="135" x1="253.370535" y1="98.790323" x2="260.007592" y2="98.790323" stroke="#501644" stroke-width="0.1875" stroke-opacity="1.000000"/>
   <line id="136" x1="153.901910" y1="99.540323" x2="159.990073" y2="99.540323" stroke="#501644" stroke-width="0.1875" stroke-opacity="1.000000"/>
   <line id="137" x1="253.103528" y1="99.540323" x2="259.749689" y2="99.540323" stroke="#501644" stroke-width="0.1875" stroke-opacity="1.000000"/>
   <line id="138" x1="153.862004" y1="100.290323" x2="160.002914" y2="100.290323" stroke="#501644" stroke-width="0.1875" stroke-opacity="1.000000"/>
   <line id="139" x1="252.836520" y1="100.290323" x2="259.491786" y2="100.290323" stroke="#501644" stroke-width="0.1875" stroke-opacity="1.000000"/>
   <line id="140" x1="153.822097" y1="101.040323" x2="160.326326" y2="101.040323" stroke="#501644" stroke-width="0.1875" stroke-opacity="1.000000"/>
   <line id="141" x1="252.569513" y1="101.040323" x2="259.233884" y2="101.040323" stroke="#501644" stroke-width="0.1875" stroke-opacity="1.000000"/>
   <line id="142" x1="153.782190" y1="101.790323" x2="160.649738" y2="101.790323" stroke="#501644" stroke-width="0.1875" stroke-opacity="1.000000"/>
   <line id="143" x1="252.302506" y1="101.790323" x2="258.975981" y2="101.790323" stroke="#501644" stroke-width="0.1875" stroke-opacity="1.000000"/>
   <line id="144" x1="153.933600" y1="102.540323" x2="160.973149" y2="102.540323" stroke="#501644" stroke-width="0.1875" stroke-opacity="1.000000"/>
   <line id="145" x1="252.035498" y1="102.540323" x2="258.718078" y2="102.540323" stroke="#501644" stroke-width="0.1875" stroke-opacity="1.000000"/>
   <line id="146" x1="154.273827" y1="103.290323" x2="161.296561" y2="103.290323" stroke="#501644" stroke-width="0.1875" stroke-opacity="1.000000"/>
   <line id="147" x1="251.768491" y1="103.290323" x2="258.460175" y2="103.290323" stroke="#501644" stroke-width="0.1875" stroke-opacity="1.000000"/>
   <line id="148" x1="154.614053" y1="104.040323" x2="161.619972" y2="104.040323" stroke="#501644" stroke-width="0.1875" stroke-opacity="1.000000"/>
   <line id="149" x1="251.501484" y1="104.040323" x2="258.202272" y2="104.040323" stroke="#501644" stroke-width="0.1875" stroke-opacity="1.000000"/>
   <line id="150" x1="154.954280" y1="104.790323" x2="161.943384" y2="104.790323" stroke="#501644" stroke-width="0.1875" stroke-opacity="1.000000"/>
   <line id="151" x1="251.234476" y1="104.790323" x2="257.944370" y2="104.790323" stroke="#501644" stroke-width="0.1875" stroke-opacity="1.000000"/>
   <line id="152" x1="155.294506" y1="105.540323" x2="162.266795" y2="105.540323" stroke="#501644" stroke-width="0.1875" stroke-opacity="1.000000"/>
   <line id="153" x1="250.967469" y1="105.540323" x2="257.686467" y2="105.540323" stroke="#501644" stroke-width="0.1875" stroke-opacity="1.000000"/>
   <line id="154" x1="155.634733" y1="106.290323" x2="162.590207" y2="106.290323" stroke="#501644" stroke-width="0.1875" stroke-opacity="1.000000"/>
   <line id="155" x1="250.700462" y1="106.290323" x2="257.428564" y2="106.290323" stroke="#501644" stroke-width="0.1875" stroke-opacity="1.000000"/>
   <line id="156" x1="155.974959" y1="107.040323" x2="162.913618" y2="107.040323" stroke="#501644" stroke-width="0.1875" stroke-opacity="1.000000"/>
   <line id="157" x1="250.433454" y1="107.040323" x2="257.170661" y2="107.040323" stroke="#501644" stroke-width="0.1875" stroke-opacity="1.000000"/>
   <line id="158" x1="156.315185" y1="107.790323" x2="163.237030" y2="107.790323" stroke="#501644" stroke-width="0.1875" stroke-opacity="1.000000"/>
   <line id="159" x1="250.166447" y1="107.790323" x2="256.912758" y2="107.790323" stroke="#501644" stroke-width="0.1875" stroke-opacity="1.000000"/>
   <line id="160" x1="156.655412" y1="108.540323" x2="163.560441" y2="108.540323" stroke="#501644" stroke-width="0.1875" stroke-opacity="1.000000"/>
   <line id="161" x1="249.899440" y1="108.540323" x2="256.654856" y2="108.540323" stroke="#501644" stroke-width="0.1875" stroke-opacity="1.000000"/>
   <line id="162" x1="156.995638" y1="109.290323" x2="163.883853" y2="109.290323" stroke="#501644" stroke-width="0.1875" stroke-opacity="1.000000"/>
   <line id="163" x1="249.632432" y1="109.290323" x2="256.396953" y2="109.290323" stroke="#501644" stroke-width="0.1875" stroke-opacity="1.000000"/>
   <line id="164" x1="157.335865" y1="110.040323" x2="164.207264" y2="110.040323" stroke="#501644" stroke-width="0.1875" stroke-opacity="1.000000"/>
   <line id="165" x1="249.365425" y1="110.040323" x2="256.139050" y2="110.040323" stroke="#501644" stroke-width="0.1875" stroke-opacity="1.000000"/>
   <line id="166" x1="157.676091" y1="110.790323" x2="164.530676" y2="110.790323" stroke="#501644" stroke-width="0.1875" stroke-opacity="1.000000"/>
   <line id="167" x1="249.098418" y1="110.790323" x2="255.881147" y2="110.790323" stroke="#501644" stroke-width="0.1875" stroke-opacity="1.000000"/>
   <line id="168" x1="158.016318" y1="111.540323" x2="164.854087" y2="111.540323" stroke="#501644" stroke-width="0.1875" stroke-opacity="1.000000"/>
   <line id="169" x1="248.831410" y1="111.540323" x2="255.623244" y2="111.540323" stroke="#501644" stroke-width="0.1875" stroke-opacity="1.000000"/>
   <line id="170" x1="158.356544" y1="112.290323" x2="165.177499" y2="112.290323" stroke="#501644" stroke-width="0.1875" stroke-opacity="1.000000"/>
   <line id="171" x1="248.564403" y1="112.290323" x2="255.365342" y2="112.290323" stroke="#501644" stroke-width="0.1875" stroke-opacity="1.000000"/>
   <line id="172" x1="158.696771" y1="113.040323" x2="165.500911" y2="113.040323" stroke="#501644" stroke-width="0.1875" stroke-opacity="1.000000"/>
   <line id="173" x1="248.076360" y1="113.040323" x2="255.107439" y2="113.040323" stroke="#501644" stroke-width="0.1875" stroke-opacity="1.000000"/>
   <line id="174" x1="159.036997" y1="113.790323" x2="165.824322" y2="113.790323" stroke="#501644" stroke-width="0.1875" stroke-opacity="1.000000"/>
   <line id="175" x1="247.274246" y1="113.790323" x2="254.849536" y2="113.790323" stroke="#501644" stroke-width="0.1875" stroke-opacity="1.000000"/>
   <line id="176" x1="159.377223" y1="114.540323" x2="166.147734" y2="114.540323" stroke="#501644" stroke-width="0.1875" stroke-opacity="1.000000"/>
   <line id="177" x1="246.472131" y1="114.540323" x2="254.591633" y2="114.540323" stroke="#501644" stroke-width="0.1875" stroke-opacity="1.000000"/>
   <line id="178" x1="159.717450" y1="115.290323" x2="166.471145" y2="115.290323" stroke="#501644" stroke-width="0.1875" stroke-opacity="1.000000"/>
   <line id="179" x1="245.670017" y1="115.290323" x2="254.333730" y2="115.290323" stroke="#501644" stroke-width="0.1875" stroke-opacity="1.000000"/>
   <line id="180" x1="160.057676" y1="116.040323" x2="166.794557" y2="116.040323" stroke="#501644" stroke-width="0.1875" stroke-opacity="1.000000"/>
   <line id="181" x1="244.867902" y1="116.040323" x2="253.824499" y2="116.040323" stroke="#501644" stroke-width="0.1875" stroke-opacity="1.000000"/>
   <line id="182" x1="160.397903" y1="116.790323" x2="167.117968" y2="116.790323" stroke="#501644" stroke-width="0.1875" stroke-opacity="1.000000"/>
   <line id="183" x1="244.065788" y1="116.790323" x2="253.041336" y2="116.790323" stroke="#501644" stroke-width="0.1875" stroke-opacity="1.000000"/>
   <line id="184" x1="160.738129" y1="117.540323" x2="167.441380" y2="117.540323" stroke="#501644" stroke-width="0.1875" stroke-opacity="1.000000"/>
   <line id="185" x1="243.263673" y1="117.540323" x2="252.258173" y2="117.540323" stroke="#501644" stroke-width="0.1875" stroke-opacity="1.000000"/>
   <line id="186" x1="161.078356" y1="118.290323" x2="167.764791" y2="118.290323" stroke="#501644" stroke-width="0.1875" stroke-opacity="1.000000"/>
   <line id="187" x1="242.461558" y1="118.290323" x2="251.475010" y2="118.290323" stroke="#501644" stroke-width="0.1875" stroke-opacity="1.000000"/>
   <line id="188" x1="161.418582" y1="119.040323" x2="168.499452" y2="119.040323" stroke="#501644" stroke-width="0.1875" stroke-opacity="1.000000"/>
   <line id="189" x1="241.659444" y1="119.040323" x2="250.691847" y2="119.040323" stroke="#501644" stroke-width="0.1875" stroke-opacity="1.000000"/>
   <line id="190" x1="161.758808" y1="119.790323" x2="169.420595" y2="119.790323" stroke="#501644" stroke-width="0.1875" stroke-opacity="1.000000"/>
   <line id="191" x1="240.857329" y1="119.790323" x2="249.908684" y2="119.790323" stroke="#501644" stroke-width="0.1875" stroke-opacity="1.000000"/>
   <line id="192" x1="162.099035" y1="120.540323" x2="170.341738" y2="120.540323" stroke="#501644" stroke-width="0.1875" stroke-opacity="1.000000"/>
   <line id="193" x1="240.055215" y1="120.540323" x2="249.125521" y2="120.540323" stroke="#501644" stroke-width="0.1875" stroke-opacity="1.000000"/>
   <line id="194" x1="38.549261" y1="98.790323" x2="47.372881" y2="98.790323" stroke="#5fd3bc" stroke-width="0.1875" stroke-opacity="1.000000"/>
   <line id="195" x1="115.363100" y1="98.790323" x2="124.452359" y2="98.790323" stroke="#5fd3bc" stroke-width="0.1875" stroke-opacity="1.000000"/>
   <line id="196" x1="38.889488" y1="99.540323" x2="48.294024" y2="99.540323" stroke="#5fd3bc" stroke-width="0.1875" stroke-opacity="1.000000"/>
   <line id="197" x1="114.560986" y1="99.540323" x2="123.669196" y2="99.540323" stroke="#5fd3bc" stroke-width="0.1875" stroke-opacity="1.000000"/>
   <line id="198" x1="39.229714" y1="100.290323" x2="49.215167" y2="100.290323" stroke="#5fd3bc" stroke-width="0.1875" stroke-opacity="1.000000"/>
   <line id="199" x1="113.758871" y1="100.290323" x2="122.886033" y2="100.290323" stroke="#5fd3bc" stroke-width="0.1875" stroke-opacity="1.000000"/>
   <line id="200" x1="39.912944" y1="101.040323" x2="50.136310" y2="101.040323" stroke="#5fd3bc" stroke-width="0.1875" stroke-opacity="1.000000"/>
   <line id="201" x1="112.956757" y1="101.040323" x2="122.102870" y2="101.040323" stroke="#5fd3bc" stroke-width="0.1875" stroke-opacity="1.000000"/>
   <line id="202" x1="40.865940" y1="101.790323" x2="51.057453" y2="101.790323" stroke="#5fd3bc" stroke-width="0.1875" stroke-opacity="1.000000"/>
   <line id="203" x1="112.154642" y1="101.790323" x2="121.319707" y2="101.790323" stroke="#5fd3bc" stroke-width="0.1875" stroke-opacity="1.000000"/>
   <line id="204" x1="41.818936" y1="102.540323" x2="51.978595" y2="102.540323" stroke="#5fd3bc" stroke-width="0.1875" stroke-opacity="1.000000"/>
   <line id="205" x1="111.352528" y1="102.540323" x2="120.536544" y2="102.540323" stroke="#5fd3bc" stroke-width="0.1875" stroke-opacity="1.000000"/>
   <line id="206" x1="42.771933" y1="103.290323" x2="52.899738" y2="103.290323" stroke="#5fd3bc" stroke-width="0.1875" stroke-opacity="1.000000"/>
   <line id="207" x1="110.550413" y1="103.290323" x2="119.753381" y2="103.290323" stroke="#5fd3bc" stroke-width="0.1875" stroke-opacity="1.000000"/>
   <line id="208" x1="43.724929" y1="104.040323" x2="53.820881" y2="104.040323" stroke="#5fd3bc" stroke-width="0.1875" stroke-opacity="1.000000"/>
   <line id="209" x1="109.748299" y1="104.040323" x2="118.970218" y2="104.040323" stroke="#5fd3bc" stroke-width="0.1875" stroke-opacity="1.000000"/>
   <line id="210" x1="44.677925" y1="104.790323" x2="54.742024" y2="104.790323" stroke="#5fd3bc" stroke-width="0.1875" stroke-opacity="1.000000"/>
   <line id="211" x1="108.946184" y1="104.790323" x2="118.187055" y2="104.790323" stroke="#5fd3bc" stroke-width="0.1875" stroke-opacity="1.000000"/>
   <line id="212" x1="45.630921" y1="105.540323" x2="55.663167" y2="105.540323" stroke="#5fd3bc" stroke-width="0.1875" stroke-opacity="1.000000"/>
   <line id="213" x1="108.144070" y1="105.540323" x2="117.403892" y2="105.540323" stroke="#5fd3bc" stroke-width="0.1875" stroke-opacity="1.000000"/>
   <line id="214" x1="46.583918" y1="106.290323" x2="56.584310" y2="106.290323" stroke="#5fd3bc" stroke-width="0.1875" stroke-opacity="1.000000"/>
   <line id="215" x1="107.341955" y1="106.290323" x2="116.620729" y2="106.290323" stroke="#5fd3bc" stroke-width="0.1875" stroke-opacity="1.000000"/>
   <line id="216" x1="47.536914" y1="107.040323" x2="57.505453" y2="107.040323" stroke="#5fd3bc" stroke-width="0.1875" stroke-opacity="1.000000"/>
   <line id="217" x1="106.539841" y1="107.040323" x2="115.837566" y2="107.040323" stroke="#5fd3bc" stroke-width="0.1875" stroke-opacity="1.000000"/>
   <line id="218" x1="48.489910" y1="107.790323" x2="58.426596" y2="107.790323" stroke="#5fd3bc" stroke-width="0.1875" stroke-opacity="1.000000"/>
   <line id="219" x1="105.251719" y1="107.790323" x2="115.054403" y2="107.790323" stroke="#5fd3bc" stroke-width="0.1875" stroke-opacity="1.000000"/>
   <line id="220" x1="49.442906" y1="108.540323" x2="59.347739" y2="108.540323" stroke="#5fd3bc" stroke-width="0.1875" stroke-opacity="1.000000"/>
   <line id="221" x1="102.585873" y1="108.540323" x2="114.271240" y2="108.540323" stroke="#5fd3bc" stroke-width="0.1875" stroke-opacity="1.000000"/>
   <line id="222" x1="50.395903" y1="109.290323" x2="60.268881" y2="109.290323" stroke="#5fd3bc" stroke-width="0.1875" stroke-opacity="1.000000"/>
   <line id="223" x1="99.920026" y1="109.290323" x2="113.488077" y2="109.290323" stroke="#5fd3bc" stroke-width="0.1875" stroke-opacity="1.000000"/>
   <line id="224" x1="51.348899" y1="110.040323" x2="63.102893" y2="110.040323" stroke="#5fd3bc" stroke-width="0.1875" stroke-opacity="1.000000"/>
   <line id="225" x1="97.254180" y1="110.040323" x2="112.704915" y2="110.040323" stroke="#5fd3bc" stroke-width="0.1875" stroke-opacity="1.000000"/>
   <line id="226" x1="52.301895" y1="110.790323" x2="66.726449" y2="110.790323" stroke="#5fd3bc" stroke-width="0.1875" stroke-opacity="1.000000"/>
   <line id="227" x1="94.588333" y1="110.790323" x2="111.921752" y2="110.790323" stroke="#5fd3bc" stroke-width="0.1875" stroke-opacity="1.000000"/>
   <line id="228" x1="53.254891" y1="111.540323" x2="70.350004" y2="111.540323" stroke="#5fd3bc" stroke-width="0.1875" stroke-opacity="1.000000"/>
   <line id="229" x1="91.922487" y1="111.540323" x2="111.138589" y2="111.540323" stroke="#5fd3bc" stroke-width="0.1875" stroke-opacity="1.000000"/>
   <line id="230" x1="54.207888" y1="112.290323" x2="73.973560" y2="112.290323" stroke="#5fd3bc" stroke-width="0.1875" stroke-opacity="1.000000"/>
   <line id="231" x1="89.256640" y1="112.290323" x2="110.355426" y2="112.290323" stroke="#5fd3bc" stroke-width="0.1875" stroke-opacity="1.000000"/>
   <line id="232" x1="55.160884" y1="113.040323" x2="77.597116" y2="113.040323" stroke="#5fd3bc" stroke-width="0.1875" stroke-opacity="1.000000"/>
   <line id="233" x1="86.590793" y1="113.040323" x2="109.135168" y2="113.040323" stroke="#5fd3bc" stroke-width="0.1875" stroke-opacity="1.000000"/>
   <line id="234" x1="56.113880" y1="113.790323" x2="81.220672" y2="113.790323" stroke="#5fd3bc" stroke-width="0.1875" stroke-opacity="1.000000"/>
   <line id="235" x1="83.924947" y1="113.790323" x2="106.598652" y2="113.790323" stroke="#5fd3bc" stroke-width="0.1875" stroke-opacity="1.000000"/>
   <line id="236" x1="57.066876" y1="114.540323" x2="104.062136" y2="114.540323" stroke="#5fd3bc" stroke-width="0.1875" stroke-opacity="1.000000"/>
   <line id="237" x1="58.019873" y1="115.290323" x2="101.525620" y2="115.290323" stroke="#5fd3bc" stroke-width="0.1875" stroke-opacity="1.000000"/>
   <line id="238" x1="60.350776" y1="116.040323" x2="98.989104" y2="116.040323" stroke="#5fd3bc" stroke-width="0.1875" stroke-opacity="1.000000"/>
   <line id="239" x1="64.264798" y1="116.790323" x2="96.452588" y2="116.790323" stroke="#5fd3bc" stroke-width="0.1875" stroke-opacity="1.000000"/>
   <line id="240" x1="68.178820" y1="117.540323" x2="93.916072" y2="117.540323" stroke="#5fd3bc" stroke-width="0.1875" stroke-opacity="1.000000"/>
   <line id="241" x1="72.092842" y1="118.290323" x2="91.379556" y2="118.290323" stroke="#5fd3bc" stroke-width="0.1875" stroke-opacity="1.000000"/>
   <line id="242" x1="76.006864" y1="119.040323" x2="88.843039" y2="119.040323" stroke="#5fd3bc" stroke-width="0.1875" stroke-opacity="1.000000"/>
   <line id="243" x1="79.920886" y1="119.790323" x2="86.306523" y2="119.790323" stroke="#5fd3bc" stroke-width="0.1875" stroke-opacity="1.000000"/>
   <!-- sel -->
   <rect x="29.3700" y="30.0400" width="111.1300" height="68.2400" stroke="red" fill="transparent" stroke-dasharray="5,3" stroke-width="1.5"/>
   <circle cx="140.0000" cy="65.0000" r="6.0" stroke="red" fill="none" stroke-width="2.0"/>
   <circle cx="130.3092" cy="93.1815" r="6.0" stroke="red" fill="none" stroke-width="2.0"/>
   <circle cx="29.8724" cy="79.6629" r="6.0" stroke="red" fill="none" stroke-width="2.0"/>
   <circle cx="31.0232" cy="58.0348" r="6.0" stroke="red" fill="none" stroke-width="2.0"/>
   <circle cx="41.3449" cy="40.5481" r="6.0" stroke="red" fill="none" stroke-width="2.0"/>
   <circle cx="57.4419" cy="30.5403" r="6.0" stroke="red" fill="none" stroke-width="2.0"/>
   <circle cx="60.3929" cy="36.3319" r="6.0" stroke="red" fill="none" stroke-width="2.0"/>
   <circle cx="46.6035" cy="44.3687" r="6.0" stroke="red" fill="none" stroke-width="2.0"/>
   <circle cx="37.4432" cy="59.0516" r="6.0" stroke="red" fill="none" stroke-width="2.0"/>
   <circle cx="36.0542" cy="77.6542" r="6.0" stroke="red" fill="none" stroke-width="2.0"/>
   <circle cx="43.9757" cy="96.0243" r="6.0" stroke="red" fill="none" stroke-width="2.0"/>
   <circle cx="124.5177" cy="90.2305" r="6.0" stroke="red" fill="none" stroke-width="2.0"/>
   <circle cx="133.5000" cy="65.0000" r="6.0" stroke="red" fill="none" stroke-width="2.0"/>
   <circle cx="130.3092" cy="93.1815" r="6.0" stroke="red" fill="none" stroke-width="2.0"/>
   <circle cx="29.8724" cy="79.6629" r="6.0" stroke="red" fill="none" stroke-width="2.0"/>
   <circle cx="31.0232" cy="58.0348" r="6.0" stroke="red" fill="none" stroke-width="2.0"/>
   <circle cx="41.3449" cy="40.5481" r="6.0" stroke="red" fill="none" stroke-width="2.0"/>
   <circle cx="57.4419" cy="30.5403" r="6.0" stroke="red" fill="none" stroke-width="2.0"/>
   <circle cx="46.6035" cy="44.3687" r="6.0" stroke="red" fill="none" stroke-width="2.0"/>
   <circle cx="37.4432" cy="59.0516" r="6.0" stroke="red" fill="none" stroke-width="2.0"/>
   <circle cx="36.0542" cy="77.6542" r="6.0" stroke="red" fill="none" stroke-width="2.0"/>
   <circle cx="36.0542" cy="77.6542" r="6.0" stroke="red" fill="none" stroke-width="2.0"/>
   <circle cx="124.5177" cy="90.2305" r="6.0" stroke="red" fill="none" stroke-width="2.0"/>
   <circle cx="133.5000" cy="65.0000" r="6.0" stroke="red" fill="none" stroke-width="2.0"/>
   <circle cx="56.2356" cy="31.2903" r="6.0" stroke="red" fill="none" stroke-width="2.0"/>
   <circle cx="55.0292" cy="32.0403" r="6.0" stroke="red" fill="none" stroke-width="2.0"/>
   <circle cx="53.8229" cy="32.7903" r="6.0" stroke="red" fill="none" stroke-width="2.0"/>
   <circle cx="52.6166" cy="33.5403" r="6.0" stroke="red" fill="none" stroke-width="2.0"/>
   <circle cx="51.4102" cy="34.2903" r="6.0" stroke="red" fill="none" stroke-width="2.0"/>
   <circle cx="50.2039" cy="35.0403" r="6.0" stroke="red" fill="none" stroke-width="2.0"/>
   <circle cx="48.9976" cy="35.7903" r="6.0" stroke="red" fill="none" stroke-width="2.0"/>
   <circle cx="47.7912" cy="36.5403" r="6.0" stroke="red" fill="none" stroke-width="2.0"/>
   <circle cx="46.5849" cy="37.2903" r="6.0" stroke="red" fill="none" stroke-width="2.0"/>
   <circle cx="45.3786" cy="38.0403" r="6.0" stroke="red" fill="none" stroke-width="2.0"/>
   <circle cx="44.1722" cy="38.7903" r="6.0" stroke="red" fill="none" stroke-width="2.0"/>
   <circle cx="42.9659" cy="39.5403" r="6.0" stroke="red" fill="none" stroke-width="2.0"/>
   <circle cx="41.7596" cy="40.2903" r="6.0" stroke="red" fill="none" stroke-width="2.0"/>
   <circle cx="41.0544" cy="41.0403" r="6.0" stroke="red" fill="none" stroke-width="2.0"/>
   <circle cx="40.6117" cy="41.7903" r="6.0" stroke="red" fill="none" stroke-width="2.0"/>
   <circle cx="40.1690" cy="42.5403" r="6.0" stroke="red" fill="none" stroke-width="2.0"/>
   <circle cx="39.7263" cy="43.2903" r="6.0" stroke="red" fill="none" stroke-width="2.0"/>
   <circle cx="39.2836" cy="44.0403" r="6.0" stroke="red" fill="none" stroke-width="2.0"/>
   <circle cx="38.8409" cy="44.7903" r="6.0" stroke="red" fill="none" stroke-width="2.0"/>
   <circle cx="38.3982" cy="45.5403" r="6.0" stroke="red" fill="none" stroke-width="2.0"/>
   <circle cx="37.9555" cy="46.2903" r="6.0" stroke="red" fill="none" stroke-width="2.0"/>
   <circle cx="37.5128" cy="47.0403" r="6.0" stroke="red" fill="none" stroke-width="2.0"/>
   <circle cx="37.0701" cy="47.7903" r="6.0" stroke="red" fill="none" stroke-width="2.0"/>
   <circle cx="36.6274" cy="48.5403" r="6.0" stroke="red" fill="none" stroke-width="2.0"/>
   <circle cx="36.1847" cy="49.2903" r="6.0" stroke="red" fill="none" stroke-width="2.0"/>
   <circle cx="35.7420" cy="50.0403" r="6.0" stroke="red" fill="none" stroke-width="2.0"/>
   <circle cx="35.2993" cy="50.7903" r="6.0" stroke="red" fill="none" stroke-width="2.0"/>
   <circle cx="34.8566" cy="51.5403" r="6.0" stroke="red" fill="none" stroke-width="2.0"/>
   <circle cx="34.4139" cy="52.2903" r="6.0" stroke="red" fill="none" stroke-width="2.0"/>
   <circle cx="33.9712" cy="53.0403" r="6.0" stroke="red" fill="none" stroke-width="2.0"/>
   <circle cx="33.5285" cy="53.7903" r="6.0" stroke="red" fill="none" stroke-width="2.0"/>
   <circle cx="33.0858" cy="54.5403" r="6.0" stroke="red" fill="none" stroke-width="2.0"/>
   <circle cx="32.6431" cy="55.2903" r="6.0" stroke="red" fill="none" stroke-width="2.0"/>
   <circle cx="32.2004" cy="56.0403" r="6.0" stroke="red" fill="none" stroke-width="2.0"/>
   <circle cx="31.7577" cy="56.7903" r="6.0" stroke="red" fill="none" stroke-width="2.0"/>
   <circle cx="31.3150" cy="57.5403" r="6.0" stroke="red" fill="none" stroke-width="2.0"/>
   <circle cx="31.0096" cy="58.2903" r="6.0" stroke="red" fill="none" stroke-width="2.0"/>
   <circle cx="30.9697" cy="59.0403" r="6.0" stroke="red" fill="none" stroke-width="2.0"/>
   <circle cx="30.9298" cy="59.7903" r="6.0" stroke="red" fill="none" stroke-width="2.0"/>
   <circle cx="30.8899" cy="60.5403" r="6.0" stroke="red" fill="none" stroke-width="2.0"/>
   <circle cx="30.8500" cy="61.2903" r="6.0" stroke="red" fill="none" stroke-width="2.0"/>
   <circle cx="30.8100" cy="62.0403" r="6.0" stroke="red" fill="none" stroke-width="2.0"/>
   <circle cx="30.7701" cy="62.7903" r="6.0" stroke="red" fill="none" stroke-width="2.0"/>
   <circle cx="30.7302" cy="63.5403" r="6.0" stroke="red" fill="none" stroke-width="2.0"/>
   <circle cx="30.6903" cy="64.2903" r="6.0" stroke="red" fill="none" stroke-width="2.0"/>
   <circle cx="30.6504" cy="65.0403" r="6.0" stroke="red" fill="none" stroke-width="2.0"/>
   <circle cx="133.4856" cy="65.0403" r="6.0" stroke="red" fill="none" stroke-width="2.0"/>
   <circle cx="30.6105" cy="65.7903" r="6.0" stroke="red" fill="none" stroke-width="2.0"/>
   <circle cx="133.2186" cy="65.7903" r="6.0" stroke="red" fill="none" stroke-width="2.0"/>
   <circle cx="30.5706" cy="66.5403" r="6.0" stroke="red" fill="none" stroke-width="2.0"/>
   <circle cx="132.9516" cy="66.5403" r="6.0" stroke="red" fill="none" stroke-width="2.0"/>
   <circle cx="30.5307" cy="67.2903" r="6.0" stroke="red" fill="none" stroke-width="2.0"/>
   <circle cx="132.6846" cy="67.2903" r="6.0" stroke="red" fill="none" stroke-width="2.0"/>
   <circle cx="30.4908" cy="68.0403" r="6.0" stroke="red" fill="none" stroke-width="2.0"/>
   <circle cx="132.4176" cy="68.0403" r="6.0" stroke="red" fill="none" stroke-width="2.0"/>
   <circle cx="30.4509" cy="68.7903" r="6.0" stroke="red" fill="none" stroke-width="2.0"/>
   <circle cx="132.1506" cy="68.7903" r="6.0" stroke="red" fill="none" stroke-width="2.0"/>
   <circle cx="30.4110" cy="69.5403" r="6.0" stroke="red" fill="none" stroke-width="2.0"/>
   <circle cx="131.8836" cy="69.5403" r="6.0" stroke="red" fill="none" stroke-width="2.0"/>
   <circle cx="30.3711" cy="70.2903" r="6.0" stroke="red" fill="none" stroke-width="2.0"/>
   <circle cx="131.6166" cy="70.2903" r="6.0" stroke="red" fill="none" stroke-width="2.0"/>
   <circle cx="30.3312" cy="71.0403" r="6.0" stroke="red" fill="none" stroke-width="2.0"/>
   <circle cx="131.3496" cy="71.0403" r="6.0" stroke="red" fill="none" stroke-width="2.0"/>
   <circle cx="30.2913" cy="71.7903" r="6.0" stroke="red" fill="none" stroke-width="2.0"/>
   <circle cx="131.0826" cy="71.7903" r="6.0" stroke="red" fill="none" stroke-width="2.0"/>
   <circle cx="30.2514" cy="72.5403" r="6.0" stroke="red" fill="none" stroke-width="2.0"/>
   <circle cx="130.8156" cy="72.5403" r="6.0" stroke="red" fill="none" stroke-width="2.0"/>
   <circle cx="30.2114" cy="73.2903" r="6.0" stroke="red" fill="none" stroke-width="2.0"/>
   <circle cx="130.5486" cy="73.2903" r="6.0" stroke="red" fill="none" stroke-width="2.0"/>
   <circle cx="30.1715" cy="74.0403" r="6.0" stroke="red" fill="none" stroke-width="2.0"/>
   <circle cx="130.2816" cy="74.0403" r="6.0" stroke="red" fill="none" stroke-width="2.0"/>
   <circle cx="30.1316" cy="74.7903" r="6.0" stroke="red" fill="none" stroke-width="2.0"/>
   <circle cx="130.0145" cy="74.7903" r="6.0" stroke="red" fill="none" stroke-width="2.0"/>
   <circle cx="30.0917" cy="75.5403" r="6.0" stroke="red" fill="none" stroke-width="2.0"/>
   <circle cx="129.7475" cy="75.5403" r="6.0" stroke="red" fill="none" stroke-width="2.0"/>
   <circle cx="30.0518" cy="76.2903" r="6.0" stroke="red" fill="none" stroke-width="2.0"/>
   <circle cx="129.4805" cy="76.2903" r="6.0" stroke="red" fill="none" stroke-width="2.0"/>
   <circle cx="30.0119" cy="77.0403" r="6.0" stroke="red" fill="none" stroke-width="2.0"/>
   <circle cx="129.2135" cy="77.0403" r="6.0" stroke="red" fill="none" stroke-width="2.0"/>
   <circle cx="29.9720" cy="77.7903" r="6.0" stroke="red" fill="none" stroke-width="2.0"/>
   <circle cx="128.9465" cy="77.7903" r="6.0" stroke="red" fill="none" stroke-width="2.0"/>
   <circle cx="29.9321" cy="78.5403" r="6.0" stroke="red" fill="none" stroke-width="2.0"/>
   <circle cx="128.6795" cy="78.5403" r="6.0" stroke="red" fill="none" stroke-width="2.0"/>
   <circle cx="29.8922" cy="79.2903" r="6.0" stroke="red" fill="none" stroke-width="2.0"/>
   <circle cx="128.4125" cy="79.2903" r="6.0" stroke="red" fill="none" stroke-width="2.0"/>
   <circle cx="30.0436" cy="80.0403" r="6.0" stroke="red" fill="none" stroke-width="2.0"/>
   <circle cx="128.1455" cy="80.0403" r="6.0" stroke="red" fill="none" stroke-width="2.0"/>
   <circle cx="30.3838" cy="80.7903" r="6.0" stroke="red" fill="none" stroke-width="2.0"/>
   <circle cx="127.8785" cy="80.7903" r="6.0" stroke="red" fill="none" stroke-width="2.0"/>
   <circle cx="30.7241" cy="81.5403" r="6.0" stroke="red" fill="none" stroke-width="2.0"/>
   <circle cx="127.6115" cy="81.5403" r="6.0" stroke="red" fill="none" stroke-width="2.0"/>
   <circle cx="31.0643" cy="82.2903" r="6.0" stroke="red" fill="none" stroke-width="2.0"/>
   <circle cx="127.3445" cy="82.2903" r="6.0" stroke="red" fill="none" stroke-width="2.0"/>
   <circle cx="31.4045" cy="83.0403" r="6.0" stroke="red" fill="none" stroke-width="2.0"/>
   <circle cx="127.0775" cy="83.0403" r="6.0" stroke="red" fill="none" stroke-width="2.0"/>
   <circle cx="31.7447" cy="83.7903" r="6.0" stroke="red" fill="none" stroke-width="2.0"/>
   <circle cx="126.8105" cy="83.7903" r="6.0" stroke="red" fill="none" stroke-width="2.0"/>
   <circle cx="32.0850" cy="84.5403" r="6.0" stroke="red" fill="none" stroke-width="2.0"/>
   <circle cx="126.5435" cy="84.5403" r="6.0" stroke="red" fill="none" stroke-width="2.0"/>
   <circle cx="32.4252" cy="85.2903" r="6.0" stroke="red" fill="none" stroke-width="2.0"/>
   <circle cx="126.2764" cy="85.2903" r="6.0" stroke="red" fill="none" stroke-width="2.0"/>
   <circle cx="32.7654" cy="86.0403" r="6.0" stroke="red" fill="none" stroke-width="2.0"/>
   <circle cx="126.0094" cy="86.0403" r="6.0" stroke="red" fill="none" stroke-width="2.0"/>
   <circle cx="33.1056" cy="86.7903" r="6.0" stroke="red" fill="none" stroke-width="2.0"/>
   <circle cx="125.7424" cy="86.7903" r="6.0" stroke="red" fill="none" stroke-width="2.0"/>
   <circle cx="33.4459" cy="87.5403" r="6.0" stroke="red" fill="none" stroke-width="2.0"/>
   <circle cx="125.4754" cy="87.5403" r="6.0" stroke="red" fill="none" stroke-width="2.0"/>
   <circle cx="33.7861" cy="88.2903" r="6.0" stroke="red" fill="none" stroke-width="2.0"/>
   <circle cx="125.2084" cy="88.2903" r="6.0" stroke="red" fill="none" stroke-width="2.0"/>
   <circle cx="34.1263" cy="89.0403" r="6.0" stroke="red" fill="none" stroke-width="2.0"/>
   <circle cx="124.9414" cy="89.0403" r="6.0" stroke="red" fill="none" stroke-width="2.0"/>
   <circle cx="34.4665" cy="89.7903" r="6.0" stroke="red" fill="none" stroke-width="2.0"/>
   <circle cx="124.6744" cy="89.7903" r="6.0" stroke="red" fill="none" stroke-width="2.0"/>
   <circle cx="34.8068" cy="90.5403" r="6.0" stroke="red" fill="none" stroke-width="2.0"/>
   <circle cx="124.1864" cy="90.5403" r="6.0" stroke="red" fill="none" stroke-width="2.0"/>
   <circle cx="35.1470" cy="91.2903" r="6.0" stroke="red" fill="none" stroke-width="2.0"/>
   <circle cx="123.3842" cy="91.2903" r="6.0" stroke="red" fill="none" stroke-width="2.0"/>
   <circle cx="35.4872" cy="92.0403" r="6.0" stroke="red" fill="none" stroke-width="2.0"/>
   <circle cx="122.5821" cy="92.0403" r="6.0" stroke="red" fill="none" stroke-width="2.0"/>
   <circle cx="35.8274" cy="92.7903" r="6.0" stroke="red" fill="none" stroke-width="2.0"/>
   <circle cx="121.7800" cy="92.7903" r="6.0" stroke="red" fill="none" stroke-width="2.0"/>
   <circle cx="36.1677" cy="93.5403" r="6.0" stroke="red" fill="none" stroke-width="2.0"/>
   <circle cx="120.9779" cy="93.5403" r="6.0" stroke="red" fill="none" stroke-width="2.0"/>
   <circle cx="36.5079" cy="94.2903" r="6.0" stroke="red" fill="none" stroke-width="2.0"/>
   <circle cx="120.1758" cy="94.2903" r="6.0" stroke="red" fill="none" stroke-width="2.0"/>
   <circle cx="36.8481" cy="95.0403" r="6.0" stroke="red" fill="none" stroke-width="2.0"/>
   <circle cx="119.3737" cy="95.0403" r="6.0" stroke="red" fill="none" stroke-width="2.0"/>
   <circle cx="37.1884" cy="95.7903" r="6.0" stroke="red" fill="none" stroke-width="2.0"/>
   <circle cx="118.5716" cy="95.7903" r="6.0" stroke="red" fill="none" stroke-width="2.0"/>
   <circle cx="37.5286" cy="96.5403" r="6.0" stroke="red" fill="none" stroke-width="2.0"/>
   <circle cx="117.7694" cy="96.5403" r="6.0" stroke="red" fill="none" stroke-width="2.0"/>
   <circle cx="37.8688" cy="97.2903" r="6.0" stroke="red" fill="none" stroke-width="2.0"/>
   <circle cx="116.9673" cy="97.2903" r="6.0" stroke="red" fill="none" stroke-width="2.0"/>
   <circle cx="38.2090" cy="98.0403" r="6.0" stroke="red" fill="none" stroke-width="2.0"/>
   <circle cx="116.1652" cy="98.0403" r="6.0" stroke="red" fill="none" stroke-width="2.0"/>
</g>
</svg>
