<?xml version="1.0" encoding="UTF-8"?>
<svg xmlns="http://www.w3.org/2000/svg" xmlns:xlink="http://www.w3.org/1999/xlink" width="257.3560" height="112.5000" viewBox="-3.8859 17.5323 257.3560 112.5000">
<g id="fig">
   <text x="238.470000" y="87.470000" id="10" text-anchor="middle" fill="#de87cd" stroke="#501644" font-family="sans-serif" font-size="9pt" font-weight="lighter">Oh, Tricolor</text>
   <text x="237.476078" y="97.878818" id="11" text-anchor="middle" fill="#de87cd" stroke="#501644" font-family="sans-serif" font-size="9pt" font-weight="lighter">Clube bem amado</text>
   <text x="234.530236" y="107.911435" id="12" text-anchor="middle" fill="#de87cd" stroke="#501644" font-family="sans-serif" font-size="9pt" font-weight="lighter">As tuas gloriasVem do passado</text>
   <text x="106.268944" y="89.735245" id="13" text-anchor="middle" fill="#916f6f" stroke="None" font-family="sans-serif" font-size="9pt" font-weight="lighter">Sao teus guias brasileiros</text>
   <text x="99.805372" y="97.954346" id="14" text-anchor="middle" fill="#916f6f" stroke="None" font-family="sans-serif" font-size="9pt" font-weight="lighter">Que te amam eternamente</text>
   <text x="91.903130" y="104.801677" id="15" text-anchor="middle" fill="#916f6f" stroke="None" font-family="sans-serif" font-size="9pt" font-weight="lighter">De Sao Paulo tens o nome</text>
   <text x="82.847826" y="110.029760" id="16" text-anchor="middle" fill="#916f6f" stroke="None" font-family="sans-serif" font-size="9pt" font-weight="lighter">Que ostentas dignamente</text>
   <text x="72.966741" y="113.449636" id="17" text-anchor="middle" fill="#916f6f" stroke="None" font-family="sans-serif" font-size="9pt" font-weight="lighter">De Sao Paulo tens o nome</text>
   <text x="62.617005" y="114.937704" id="18" text-anchor="middle" fill="#916f6f" stroke="None" font-family="sans-serif" font-size="9pt" font-weight="lighter">Que ostentas dignamente</text>
   <text x="52.172684" y="114.440179" id="19" text-anchor="middle" fill="#916f6f" stroke="None" font-family="sans-serif" font-size="9pt" font-weight="lighter">Salve o tricolor paulista</text>
   <text x="42.011262" y="111.975045" id="20" text-anchor="middle" fill="#916f6f" stroke="None" font-family="sans-serif" font-size="9pt" font-weight="lighter">Amado clube brasileiro</text>
   <text x="32.500000" y="107.631397" id="21" text-anchor="middle" fill="#916f6f" stroke="None" font-family="sans-serif" font-size="9pt" font-weight="lighter">Tu es forte, tu es grande</text>
   <text x="23.982660" y="101.566227" id="22" text-anchor="middle" fill="#916f6f" stroke="None" font-family="sans-serif" font-size="9pt" font-weight="lighter">Dentre os grandes es o primeiro</text>
   <text x="16.767080" y="93.998744" id="23" text-anchor="middle" fill="#916f6f" stroke="None" font-family="sans-serif" font-size="9pt" font-weight="lighter">Tu es forte, tu es grande</text>
   <text x="134.584050" y="112.672459" id="24" text-anchor="middle" fill="#de87cd" stroke="#501644" font-family="sans-serif" font-size="9pt" font-weight="lighter">Dentre os grandes es o primeiro</text>
   <text x="130.697886" y="102.965291" id="25" text-anchor="middle" fill="#de87cd" stroke="#501644" font-family="sans-serif" font-size="9pt" font-weight="lighter">Oh, Tricolor</text>
   <text x="128.719044" y="92.698082" id="26" text-anchor="middle" fill="#de87cd" stroke="#501644" font-family="sans-serif" font-size="9pt" font-weight="lighter">Clube bem amado</text>
   <text x="128.719044" y="82.241918" id="27" text-anchor="middle" fill="#de87cd" stroke="#501644" font-family="sans-serif" font-size="9pt" font-weight="lighter">As tuas gloriasVem do passado</text>
   <text x="130.697886" y="71.974709" id="28" text-anchor="middle" fill="#de87cd" stroke="#501644" font-family="sans-serif" font-size="9pt" font-weight="lighter">Sao teus guias brasileiros</text>
   <text x="134.584050" y="62.267541" id="29" text-anchor="middle" fill="#de87cd" stroke="#501644" font-family="sans-serif" font-size="9pt" font-weight="lighter">Que te amam eternamente</text>
   <text x="140.237080" y="53.471256" id="30" text-anchor="middle" fill="#de87cd" stroke="#501644" font-family="sans-serif" font-size="9pt" font-weight="lighter">De Sao Paulo tens o nome</text>
   <text x="147.452660" y="45.903773" id="31" text-anchor="middle" fill="#de87cd" stroke="#501644" font-family="sans-serif" font-size="9pt" font-weight="lighter">Que ostentas dignamente</text>
   <text x="155.970000" y="39.838603" id="32" text-anchor="middle" fill="#de87cd" stroke="#501644" font-family="sans-serif" font-size="9pt" font-weight="lighter">De Sao Paulo tens o nome</text>
   <text x="165.481262" y="35.494955" id="33" text-anchor="middle" fill="#de87cd" stroke="#501644" font-family="sans-serif" font-size="9pt" font-weight="lighter">Que ostentas dignamente</text>
   <text x="175.642684" y="33.029821" id="34" text-anchor="middle" fill="#de87cd" stroke="#501644" font-family="sans-serif" font-size="9pt" font-weight="lighter">Salve o tricolor paulista</text>
   <text x="186.087005" y="32.532296" id="35" text-anchor="middle" fill="#de87cd" stroke="#501644" font-family="sans-serif" font-size="9pt" font-weight="lighter">Amado clube brasileiro</text>
   <text x="196.436741" y="34.020364" id="36" text-anchor="middle" fill="#de87cd" stroke="#501644" font-family="sans-serif" font-size="9pt" font-weight="lighter">Tu es forte, tu es grande</text>
   <text x="206.317826" y="37.440240" id="37" text-anchor="middle" fill="#de87cd" stroke="#501644" font-family="sans-serif" font-size="9pt" font-weight="lighter">Dentre os grandes es o primeiro</text>
   <text x="215.373130" y="42.668323" id="38" text-anchor="middle" fill="#de87cd" stroke="#501644" font-family="sans-serif" font-size="9pt" font-weight="lighter">Tu es forte, tu es grande</text>
   <text x="223.275372" y="49.515654" id="39" text-anchor="middle" fill="#de87cd" stroke="#501644" font-family="sans-serif" font-size="9pt" font-weight="lighter">Dentre os grandes es o primeiro</text>
   <text x="229.738944" y="57.734755" id="40" text-anchor="middle" fill="#de87cd" stroke="#501644" font-family="sans-serif" font-size="9pt" font-weight="lighter">Oh, Tricolor</text>
   <text x="234.530236" y="67.028565" id="41" text-anchor="middle" fill="#de87cd" stroke="#501644" font-family="sans-serif" font-size="9pt" font-weight="lighter">Clube bem amado</text>
   <text x="237.476078" y="77.061182" id="42" text-anchor="middle" fill="#de87cd" stroke="#501644" font-family="sans-serif" font-size="9pt" font-weight="lighter">As tuas gloriasVem do passado</text>
   <line id="52" x1="238.470000" y1="87.470000" x2="237.476078" y2="97.878818" stroke="#501644" stroke-width="0.3" stroke-opacity="1.000000"/>
   <line id="53" x1="237.476078" y1="97.878818" x2="234.530236" y2="107.911435" stroke="#501644" stroke-width="0.3" stroke-opacity="1.000000"/>
   <line id="54" x1="111.060236" y1="80.441435" x2="106.268944" y2="89.735245" stroke="#5f5dd3" stroke-width="0.3" stroke-opacity="1.000000"/>
   <line id="55" x1="106.268944" y1="89.735245" x2="99.805372" y2="97.954346" stroke="#5f5dd3" stroke-width="0.3" stroke-opacity="1.000000"/>
   <line id="56" x1="99.805372" y1="97.954346" x2="91.903130" y2="104.801677" stroke="#5f5dd3" stroke-width="0.3" stroke-opacity="1.000000"/>
   <line id="57" x1="91.903130" y1="104.801677" x2="82.847826" y2="110.029760" stroke="#5f5dd3" stroke-width="0.3" stroke-opacity="1.000000"/>
   <line id="58" x1="82.847826" y1="110.029760" x2="72.966741" y2="113.449636" stroke="#5f5dd3" stroke-width="0.3" stroke-opacity="1.000000"/>
   <line id="59" x1="72.966741" y1="113.449636" x2="62.617005" y2="114.937704" stroke="#5f5dd3" stroke-width="0.3" stroke-opacity="1.000000"/>
   <line id="60" x1="62.617005" y1="114.937704" x2="52.172684" y2="114.440179" stroke="#5f5dd3" stroke-width="0.3" stroke-opacity="1.000000"/>
   <line id="61" x1="52.172684" y1="114.440179" x2="42.011262" y2="111.975045" stroke="#5f5dd3" stroke-width="0.3" stroke-opacity="1.000000"/>
   <line id="62" x1="42.011262" y1="111.975045" x2="32.500000" y2="107.631397" stroke="#5f5dd3" stroke-width="0.3" stroke-opacity="1.000000"/>
   <line id="63" x1="32.500000" y1="107.631397" x2="23.982660" y2="101.566227" stroke="#5f5dd3" stroke-width="0.3" stroke-opacity="1.000000"/>
   <line id="64" x1="23.982660" y1="101.566227" x2="16.767080" y2="93.998744" stroke="#5f5dd3" stroke-width="0.3" stroke-opacity="1.000000"/>
   <line id="65" x1="16.767080" y1="93.998744" x2="11.114050" y2="85.202459" stroke="#5f5dd3" stroke-width="0.3" stroke-opacity="1.000000"/>
   <line id="66" x1="134.584050" y1="112.672459" x2="130.697886" y2="102.965291" stroke="#501644" stroke-width="0.3" stroke-opacity="1.000000"/>
   <line id="67" x1="130.697886" y1="102.965291" x2="128.719044" y2="92.698082" stroke="#501644" stroke-width="0.3" stroke-opacity="1.000000"/>
   <line id="68" x1="128.719044" y1="92.698082" x2="128.719044" y2="82.241918" stroke="#501644" stroke-width="0.3" stroke-opacity="1.000000"/>
   <line id="69" x1="128.719044" y1="82.241918" x2="130.697886" y2="71.974709" stroke="#501644" stroke-width="0.3" stroke-opacity="1.000000"/>
   <line id="70" x1="130.697886" y1="71.974709" x2="134.584050" y2="62.267541" stroke="#501644" stroke-width="0.3" stroke-opacity="1.000000"/>
   <line id="71" x1="134.584050" y1="62.267541" x2="140.237080" y2="53.471256" stroke="#501644" stroke-width="0.3" stroke-opacity="1.000000"/>
   <line id="72" x1="140.237080" y1="53.471256" x2="147.452660" y2="45.903773" stroke="#501644" stroke-width="0.3" stroke-opacity="1.000000"/>
   <line id="73" x1="147.452660" y1="45.903773" x2="155.970000" y2="39.838603" stroke="#501644" stroke-width="0.3" stroke-opacity="1.000000"/>
   <line id="74" x1="155.970000" y1="39.838603" x2="165.481262" y2="35.494955" stroke="#501644" stroke-width="0.3" stroke-opacity="1.000000"/>
   <line id="75" x1="165.481262" y1="35.494955" x2="175.642684" y2="33.029821" stroke="#501644" stroke-width="0.3" stroke-opacity="1.000000"/>
   <line id="76" x1="175.642684" y1="33.029821" x2="186.087005" y2="32.532296" stroke="#501644" stroke-width="0.3" stroke-opacity="1.000000"/>
   <line id="77" x1="186.087005" y1="32.532296" x2="196.436741" y2="34.020364" stroke="#501644" stroke-width="0.3" stroke-opacity="1.000000"/>
   <line id="78" x1="196.436741" y1="34.020364" x2="206.317826" y2="37.440240" stroke="#501644" stroke-width="0.3" stroke-opacity="1.000000"/>
   <line id="79" x1="206.317826" y1="37.440240" x2="215.373130" y2="42.668323" stroke="#501644" stroke-width="0.3" stroke-opacity="1.000000"/>
   <line id="80" x1="215.373130" y1="42.668323" x2="223.275372" y2="49.515654" stroke="#501644" stroke-width="0.3" stroke-opacity="1.000000"/>
   <line id="81" x1="223.275372" y1="49.515654" x2="229.738944" y2="57.734755" stroke="#501644" stroke-width="0.3" stroke-opacity="1.000000"/>
   <line id="82" x1="229.738944" y1="57.734755" x2="234.530236" y2="67.028565" stroke="#501644" stroke-width="0.3" stroke-opacity="1.000000"/>
   <line id="83" x1="234.530236" y1="67.028565" x2="237.476078" y2="77.061182" stroke="#501644" stroke-width="0.3" stroke-opacity="1.000000"/>
   <line id="84" x1="237.476078" y1="77.061182" x2="238.470000" y2="87.470000" stroke="#501644" stroke-width="0.3" stroke-opacity="1.000000"/>
   <line id="85" x1="174.601968" y1="33.282296" x2="191.303367" y2="33.282296" stroke="#501644" stroke-width="0.3" stroke-opacity="1.000000"/>
   <line id="86" x1="171.510425" y1="34.032296" x2="196.471216" y2="34.032296" stroke="#501644" stroke-width="0.3" stroke-opacity="1.000000"/>
   <line id="87" x1="168.418883" y1="34.782296" x2="198.638199" y2="34.782296" stroke="#501644" stroke-width="0.3" stroke-opacity="1.000000"/>
   <line id="88" x1="165.399497" y1="35.532296" x2="200.805183" y2="35.532296" stroke="#501644" stroke-width="0.3" stroke-opacity="1.000000"/>
   <line id="89" x1="163.757226" y1="36.282296" x2="202.972166" y2="36.282296" stroke="#501644" stroke-width="0.3" stroke-opacity="1.000000"/>
   <line id="90" x1="162.114955" y1="37.032296" x2="205.139149" y2="37.032296" stroke="#501644" stroke-width="0.3" stroke-opacity="1.000000"/>
   <line id="91" x1="160.472684" y1="37.782296" x2="206.910284" y2="37.782296" stroke="#501644" stroke-width="0.3" stroke-opacity="1.000000"/>
   <line id="92" x1="158.830413" y1="38.532296" x2="208.209322" y2="38.532296" stroke="#501644" stroke-width="0.3" stroke-opacity="1.000000"/>
   <line id="93" x1="157.188142" y1="39.282296" x2="209.508360" y2="39.282296" stroke="#501644" stroke-width="0.3" stroke-opacity="1.000000"/>
   <line id="94" x1="155.697996" y1="40.032296" x2="210.807398" y2="40.032296" stroke="#501644" stroke-width="0.3" stroke-opacity="1.000000"/>
   <line id="95" x1="154.644769" y1="40.782296" x2="212.106436" y2="40.782296" stroke="#501644" stroke-width="0.3" stroke-opacity="1.000000"/>
   <line id="96" x1="153.591541" y1="41.532296" x2="213.405474" y2="41.532296" stroke="#501644" stroke-width="0.3" stroke-opacity="1.000000"/>
   <line id="97" x1="152.538313" y1="42.282296" x2="214.704512" y2="42.282296" stroke="#501644" stroke-width="0.3" stroke-opacity="1.000000"/>
   <line id="98" x1="151.485085" y1="43.032296" x2="215.793177" y2="43.032296" stroke="#501644" stroke-width="0.3" stroke-opacity="1.000000"/>
   <line id="99" x1="150.431858" y1="43.782296" x2="216.658724" y2="43.782296" stroke="#501644" stroke-width="0.3" stroke-opacity="1.000000"/>
   <line id="100" x1="149.378630" y1="44.532296" x2="217.524270" y2="44.532296" stroke="#501644" stroke-width="0.3" stroke-opacity="1.000000"/>
   <line id="101" x1="148.325402" y1="45.282296" x2="218.389816" y2="45.282296" stroke="#501644" stroke-width="0.3" stroke-opacity="1.000000"/>
   <line id="102" x1="147.330114" y1="46.032296" x2="219.255362" y2="46.032296" stroke="#501644" stroke-width="0.3" stroke-opacity="1.000000"/>
   <line id="103" x1="146.614990" y1="46.782296" x2="220.120908" y2="46.782296" stroke="#501644" stroke-width="0.3" stroke-opacity="1.000000"/>
   <line id="104" x1="145.899867" y1="47.532296" x2="220.986455" y2="47.532296" stroke="#501644" stroke-width="0.3" stroke-opacity="1.000000"/>
   <line id="105" x1="145.184743" y1="48.282296" x2="221.852001" y2="48.282296" stroke="#501644" stroke-width="0.3" stroke-opacity="1.000000"/>
   <line id="106" x1="144.469620" y1="49.032296" x2="222.717547" y2="49.032296" stroke="#501644" stroke-width="0.3" stroke-opacity="1.000000"/>
   <line id="107" x1="143.754496" y1="49.782296" x2="223.485062" y2="49.782296" stroke="#501644" stroke-width="0.3" stroke-opacity="1.000000"/>
   <line id="108" x1="143.039373" y1="50.532296" x2="224.074868" y2="50.532296" stroke="#501644" stroke-width="0.3" stroke-opacity="1.000000"/>
   <line id="109" x1="142.324249" y1="51.282296" x2="224.664675" y2="51.282296" stroke="#501644" stroke-width="0.3" stroke-opacity="1.000000"/>
   <line id="110" x1="141.609126" y1="52.032296" x2="225.254481" y2="52.032296" stroke="#501644" stroke-width="0.3" stroke-opacity="1.000000"/>
   <line id="111" x1="140.894002" y1="52.782296" x2="225.844287" y2="52.782296" stroke="#501644" stroke-width="0.3" stroke-opacity="1.000000"/>
   <line id="112" x1="140.197852" y1="53.532296" x2="226.434094" y2="53.532296" stroke="#501644" stroke-width="0.3" stroke-opacity="1.000000"/>
   <line id="113" x1="139.715856" y1="54.282296" x2="227.023900" y2="54.282296" stroke="#501644" stroke-width="0.3" stroke-opacity="1.000000"/>
   <line id="114" x1="139.233860" y1="55.032296" x2="227.613707" y2="55.032296" stroke="#501644" stroke-width="0.3" stroke-opacity="1.000000"/>
   <line id="115" x1="138.751865" y1="55.782296" x2="228.203513" y2="55.782296" stroke="#501644" stroke-width="0.3" stroke-opacity="1.000000"/>
   <line id="116" x1="138.269869" y1="56.532296" x2="228.793320" y2="56.532296" stroke="#501644" stroke-width="0.3" stroke-opacity="1.000000"/>
   <line id="117" x1="137.787873" y1="57.282296" x2="229.383126" y2="57.282296" stroke="#501644" stroke-width="0.3" stroke-opacity="1.000000"/>
   <line id="118" x1="137.305877" y1="58.032296" x2="229.892337" y2="58.032296" stroke="#501644" stroke-width="0.3" stroke-opacity="1.000000"/>
   <line id="119" x1="136.823881" y1="58.782296" x2="230.278989" y2="58.782296" stroke="#501644" stroke-width="0.3" stroke-opacity="1.000000"/>
   <line id="120" x1="136.341886" y1="59.532296" x2="230.665641" y2="59.532296" stroke="#501644" stroke-width="0.3" stroke-opacity="1.000000"/>
   <line id="121" x1="135.859890" y1="60.282296" x2="231.052293" y2="60.282296" stroke="#501644" stroke-width="0.3" stroke-opacity="1.000000"/>
   <line id="122" x1="135.377894" y1="61.032296" x2="231.438945" y2="61.032296" stroke="#501644" stroke-width="0.3" stroke-opacity="1.000000"/>
   <line id="123" x1="134.895898" y1="61.782296" x2="231.825596" y2="61.782296" stroke="#501644" stroke-width="0.3" stroke-opacity="1.000000"/>
   <line id="124" x1="134.478058" y1="62.532296" x2="232.212248" y2="62.532296" stroke="#501644" stroke-width="0.3" stroke-opacity="1.000000"/>
   <line id="125" x1="134.177803" y1="63.282296" x2="232.598900" y2="63.282296" stroke="#501644" stroke-width="0.3" stroke-opacity="1.000000"/>
   <line id="126" x1="133.877549" y1="64.032296" x2="232.985552" y2="64.032296" stroke="#501644" stroke-width="0.3" stroke-opacity="1.000000"/>
   <line id="127" x1="133.577294" y1="64.782296" x2="233.372204" y2="64.782296" stroke="#501644" stroke-width="0.3" stroke-opacity="1.000000"/>
   <line id="128" x1="133.277039" y1="65.532296" x2="233.758856" y2="65.532296" stroke="#501644" stroke-width="0.3" stroke-opacity="1.000000"/>
   <line id="129" x1="132.976784" y1="66.282296" x2="234.145508" y2="66.282296" stroke="#501644" stroke-width="0.3" stroke-opacity="1.000000"/>
   <line id="130" x1="132.676530" y1="67.032296" x2="234.531332" y2="67.032296" stroke="#501644" stroke-width="0.3" stroke-opacity="1.000000"/>
   <line id="131" x1="132.376275" y1="67.782296" x2="234.751551" y2="67.782296" stroke="#501644" stroke-width="0.3" stroke-opacity="1.000000"/>
   <line id="132" x1="132.076020" y1="68.532296" x2="234.971771" y2="68.532296" stroke="#501644" stroke-width="0.3" stroke-opacity="1.000000"/>
   <line id="133" x1="131.775766" y1="69.282296" x2="235.191991" y2="69.282296" stroke="#501644" stroke-width="0.3" stroke-opacity="1.000000"/>
   <line id="134" x1="131.475511" y1="70.032296" x2="235.412211" y2="70.032296" stroke="#501644" stroke-width="0.3" stroke-opacity="1.000000"/>
   <line id="135" x1="131.175256" y1="70.782296" x2="235.632431" y2="70.782296" stroke="#501644" stroke-width="0.3" stroke-opacity="1.000000"/>
   <line id="136" x1="130.875001" y1="71.532296" x2="235.852651" y2="71.532296" stroke="#501644" stroke-width="0.3" stroke-opacity="1.000000"/>
   <line id="137" x1="130.638603" y1="72.282296" x2="236.072871" y2="72.282296" stroke="#501644" stroke-width="0.3" stroke-opacity="1.000000"/>
   <line id="138" x1="130.494053" y1="73.032296" x2="236.293090" y2="73.032296" stroke="#501644" stroke-width="0.3" stroke-opacity="1.000000"/>
   <line id="139" x1="130.349502" y1="73.782296" x2="236.513310" y2="73.782296" stroke="#501644" stroke-width="0.3" stroke-opacity="1.000000"/>
   <line id="140" x1="130.204952" y1="74.532296" x2="236.733530" y2="74.532296" stroke="#501644" stroke-width="0.3" stroke-opacity="1.000000"/>
   <line id="141" x1="130.060401" y1="75.282296" x2="236.953750" y2="75.282296" stroke="#501644" stroke-width="0.3" stroke-opacity="1.000000"/>
   <line id="142" x1="129.915850" y1="76.032296" x2="237.173970" y2="76.032296" stroke="#501644" stroke-width="0.3" stroke-opacity="1.000000"/>
   <line id="143" x1="129.771300" y1="76.782296" x2="237.394190" y2="76.782296" stroke="#501644" stroke-width="0.3" stroke-opacity="1.000000"/>
   <line id="144" x1="129.626749" y1="77.532296" x2="237.521064" y2="77.532296" stroke="#501644" stroke-width="0.3" stroke-opacity="1.000000"/>
   <line id="145" x1="129.482198" y1="78.282296" x2="237.592680" y2="78.282296" stroke="#501644" stroke-width="0.3" stroke-opacity="1.000000"/>
   <line id="146" x1="129.337648" y1="79.032296" x2="237.664297" y2="79.032296" stroke="#501644" stroke-width="0.3" stroke-opacity="1.000000"/>
   <line id="147" x1="129.193097" y1="79.782296" x2="237.735913" y2="79.782296" stroke="#501644" stroke-width="0.3" stroke-opacity="1.000000"/>
   <line id="148" x1="129.048547" y1="80.532296" x2="237.807529" y2="80.532296" stroke="#501644" stroke-width="0.3" stroke-opacity="1.000000"/>
   <line id="149" x1="128.903996" y1="81.282296" x2="237.879146" y2="81.282296" stroke="#501644" stroke-width="0.3" stroke-opacity="1.000000"/>
   <line id="150" x1="128.759445" y1="82.032296" x2="237.950762" y2="82.032296" stroke="#501644" stroke-width="0.3" stroke-opacity="1.000000"/>
   <line id="151" x1="128.719044" y1="82.782296" x2="238.022378" y2="82.782296" stroke="#501644" stroke-width="0.3" stroke-opacity="1.000000"/>
   <line id="152" x1="128.719044" y1="83.532296" x2="238.093995" y2="83.532296" stroke="#501644" stroke-width="0.3" stroke-opacity="1.000000"/>
   <line id="153" x1="128.719044" y1="84.282296" x2="238.165611" y2="84.282296" stroke="#501644" stroke-width="0.3" stroke-opacity="1.000000"/>
   <line id="154" x1="128.719044" y1="85.032296" x2="238.237227" y2="85.032296" stroke="#501644" stroke-width="0.3" stroke-opacity="1.000000"/>
   <line id="155" x1="128.719044" y1="85.782296" x2="238.308844" y2="85.782296" stroke="#501644" stroke-width="0.3" stroke-opacity="1.000000"/>
   <line id="156" x1="128.719044" y1="86.532296" x2="238.380460" y2="86.532296" stroke="#501644" stroke-width="0.3" stroke-opacity="1.000000"/>
   <line id="157" x1="128.719044" y1="87.282296" x2="238.452076" y2="87.282296" stroke="#501644" stroke-width="0.3" stroke-opacity="1.000000"/>
   <line id="158" x1="128.719044" y1="88.032296" x2="238.416307" y2="88.032296" stroke="#501644" stroke-width="0.3" stroke-opacity="1.000000"/>
   <line id="159" x1="128.719044" y1="88.782296" x2="238.344691" y2="88.782296" stroke="#501644" stroke-width="0.3" stroke-opacity="1.000000"/>
   <line id="160" x1="128.719044" y1="89.532296" x2="238.273075" y2="89.532296" stroke="#501644" stroke-width="0.3" stroke-opacity="1.000000"/>
   <line id="161" x1="128.719044" y1="90.282296" x2="238.201458" y2="90.282296" stroke="#501644" stroke-width="0.3" stroke-opacity="1.000000"/>
   <line id="162" x1="128.719044" y1="91.032296" x2="238.129842" y2="91.032296" stroke="#501644" stroke-width="0.3" stroke-opacity="1.000000"/>
   <line id="163" x1="128.719044" y1="91.782296" x2="238.058225" y2="91.782296" stroke="#501644" stroke-width="0.3" stroke-opacity="1.000000"/>
   <line id="164" x1="128.719044" y1="92.532296" x2="237.986609" y2="92.532296" stroke="#501644" stroke-width="0.3" stroke-opacity="1.000000"/>
   <line id="165" x1="128.831642" y1="93.282296" x2="237.914993" y2="93.282296" stroke="#501644" stroke-width="0.3" stroke-opacity="1.000000"/>
   <line id="166" x1="128.976193" y1="94.032296" x2="237.843376" y2="94.032296" stroke="#501644" stroke-width="0.3" stroke-opacity="1.000000"/>
   <line id="167" x1="129.120743" y1="94.782296" x2="237.771760" y2="94.782296" stroke="#501644" stroke-width="0.3" stroke-opacity="1.000000"/>
   <line id="168" x1="129.265294" y1="95.532296" x2="237.700144" y2="95.532296" stroke="#501644" stroke-width="0.3" stroke-opacity="1.000000"/>
   <line id="169" x1="129.409845" y1="96.282296" x2="237.628527" y2="96.282296" stroke="#501644" stroke-width="0.3" stroke-opacity="1.000000"/>
   <line id="170" x1="129.554395" y1="97.032296" x2="237.556911" y2="97.032296" stroke="#501644" stroke-width="0.3" stroke-opacity="1.000000"/>
   <line id="171" x1="129.698946" y1="97.782296" x2="237.485295" y2="97.782296" stroke="#501644" stroke-width="0.3" stroke-opacity="1.000000"/>
   <line id="172" x1="129.843496" y1="98.532296" x2="237.284200" y2="98.532296" stroke="#501644" stroke-width="0.3" stroke-opacity="1.000000"/>
   <line id="173" x1="129.988047" y1="99.282296" x2="237.063980" y2="99.282296" stroke="#501644" stroke-width="0.3" stroke-opacity="1.000000"/>
   <line id="174" x1="130.132598" y1="100.032296" x2="236.843760" y2="100.032296" stroke="#501644" stroke-width="0.3" stroke-opacity="1.000000"/>
   <line id="175" x1="130.277148" y1="100.782296" x2="236.623540" y2="100.782296" stroke="#501644" stroke-width="0.3" stroke-opacity="1.000000"/>
   <line id="176" x1="130.421699" y1="101.532296" x2="236.403320" y2="101.532296" stroke="#501644" stroke-width="0.3" stroke-opacity="1.000000"/>
   <line id="177" x1="130.566250" y1="102.282296" x2="236.183100" y2="102.282296" stroke="#501644" stroke-width="0.3" stroke-opacity="1.000000"/>
   <line id="178" x1="130.724711" y1="103.032296" x2="235.962880" y2="103.032296" stroke="#501644" stroke-width="0.3" stroke-opacity="1.000000"/>
   <line id="179" x1="131.024965" y1="103.782296" x2="235.742661" y2="103.782296" stroke="#501644" stroke-width="0.3" stroke-opacity="1.000000"/>
   <line id="180" x1="131.325220" y1="104.532296" x2="235.522441" y2="104.532296" stroke="#501644" stroke-width="0.3" stroke-opacity="1.000000"/>
   <line id="181" x1="131.625475" y1="105.282296" x2="235.302221" y2="105.282296" stroke="#501644" stroke-width="0.3" stroke-opacity="1.000000"/>
   <line id="182" x1="131.925730" y1="106.032296" x2="235.082001" y2="106.032296" stroke="#501644" stroke-width="0.3" stroke-opacity="1.000000"/>
   <line id="183" x1="132.225984" y1="106.782296" x2="234.861781" y2="106.782296" stroke="#501644" stroke-width="0.3" stroke-opacity="1.000000"/>
   <line id="184" x1="132.526239" y1="107.532296" x2="234.641561" y2="107.532296" stroke="#501644" stroke-width="0.3" stroke-opacity="1.000000"/>
   <line id="185" x1="132.826494" y1="108.282296" x2="234.339044" y2="108.282296" stroke="#501644" stroke-width="0.3" stroke-opacity="1.000000"/>
   <line id="186" x1="133.126749" y1="109.032296" x2="233.952392" y2="109.032296" stroke="#501644" stroke-width="0.3" stroke-opacity="1.000000"/>
   <line id="187" x1="133.427003" y1="109.782296" x2="233.565740" y2="109.782296" stroke="#501644" stroke-width="0.3" stroke-opacity="1.000000"/>
   <line id="188" x1="133.727258" y1="110.532296" x2="233.179088" y2="110.532296" stroke="#501644" stroke-width="0.3" stroke-opacity="1.000000"/>
   <line id="189" x1="134.027513" y1="111.282296" x2="232.792436" y2="111.282296" stroke="#501644" stroke-width="0.3" stroke-opacity="1.000000"/>
   <line id="190" x1="134.327767" y1="112.032296" x2="232.405785" y2="112.032296" stroke="#501644" stroke-width="0.3" stroke-opacity="1.000000"/>
   <line id="191" x1="134.654638" y1="112.782296" x2="232.019133" y2="112.782296" stroke="#501644" stroke-width="0.3" stroke-opacity="1.000000"/>
   <line id="192" x1="135.136634" y1="113.532296" x2="231.632481" y2="113.532296" stroke="#501644" stroke-width="0.3" stroke-opacity="1.000000"/>
   <line id="193" x1="135.618630" y1="114.282296" x2="231.245829" y2="114.282296" stroke="#501644" stroke-width="0.3" stroke-opacity="1.000000"/>
   <line id="194" x1="136.100625" y1="115.032296" x2="230.859177" y2="115.032296" stroke="#501644" stroke-width="0.3" stroke-opacity="1.000000"/>
   <line id="195" x1="13.112621" y1="88.312296" x2="107.002525" y2="88.312296" stroke="#5fd3bc" stroke-width="0.3" stroke-opacity="1.000000"/>
   <line id="196" x1="13.594617" y1="89.062296" x2="106.615873" y2="89.062296" stroke="#5fd3bc" stroke-width="0.3" stroke-opacity="1.000000"/>
   <line id="197" x1="14.076613" y1="89.812296" x2="106.208350" y2="89.812296" stroke="#5fd3bc" stroke-width="0.3" stroke-opacity="1.000000"/>
   <line id="198" x1="14.558609" y1="90.562296" x2="105.618544" y2="90.562296" stroke="#5fd3bc" stroke-width="0.3" stroke-opacity="1.000000"/>
   <line id="199" x1="15.040604" y1="91.312296" x2="105.028737" y2="91.312296" stroke="#5fd3bc" stroke-width="0.3" stroke-opacity="1.000000"/>
   <line id="200" x1="15.522600" y1="92.062296" x2="104.438931" y2="92.062296" stroke="#5fd3bc" stroke-width="0.3" stroke-opacity="1.000000"/>
   <line id="201" x1="16.004596" y1="92.812296" x2="103.849125" y2="92.812296" stroke="#5fd3bc" stroke-width="0.3" stroke-opacity="1.000000"/>
   <line id="202" x1="16.486592" y1="93.562296" x2="103.259318" y2="93.562296" stroke="#5fd3bc" stroke-width="0.3" stroke-opacity="1.000000"/>
   <line id="203" x1="17.066051" y1="94.312296" x2="102.669512" y2="94.312296" stroke="#5fd3bc" stroke-width="0.3" stroke-opacity="1.000000"/>
   <line id="204" x1="17.781175" y1="95.062296" x2="102.079705" y2="95.062296" stroke="#5fd3bc" stroke-width="0.3" stroke-opacity="1.000000"/>
   <line id="205" x1="18.496298" y1="95.812296" x2="101.489899" y2="95.812296" stroke="#5fd3bc" stroke-width="0.3" stroke-opacity="1.000000"/>
   <line id="206" x1="19.211422" y1="96.562296" x2="100.900092" y2="96.562296" stroke="#5fd3bc" stroke-width="0.3" stroke-opacity="1.000000"/>
   <line id="207" x1="19.926545" y1="97.312296" x2="100.310286" y2="97.312296" stroke="#5fd3bc" stroke-width="0.3" stroke-opacity="1.000000"/>
   <line id="208" x1="20.641669" y1="98.062296" x2="99.680791" y2="98.062296" stroke="#5fd3bc" stroke-width="0.3" stroke-opacity="1.000000"/>
   <line id="209" x1="21.356792" y1="98.812296" x2="98.815245" y2="98.812296" stroke="#5fd3bc" stroke-width="0.3" stroke-opacity="1.000000"/>
   <line id="210" x1="22.071916" y1="99.562296" x2="97.949699" y2="99.562296" stroke="#5fd3bc" stroke-width="0.3" stroke-opacity="1.000000"/>
   <line id="211" x1="22.787039" y1="100.312296" x2="97.084152" y2="100.312296" stroke="#5fd3bc" stroke-width="0.3" stroke-opacity="1.000000"/>
   <line id="212" x1="23.502163" y1="101.062296" x2="96.218606" y2="101.062296" stroke="#5fd3bc" stroke-width="0.3" stroke-opacity="1.000000"/>
   <line id="213" x1="24.328216" y1="101.812296" x2="95.353060" y2="101.812296" stroke="#5fd3bc" stroke-width="0.3" stroke-opacity="1.000000"/>
   <line id="214" x1="25.381443" y1="102.562296" x2="94.487514" y2="102.562296" stroke="#5fd3bc" stroke-width="0.3" stroke-opacity="1.000000"/>
   <line id="215" x1="26.434671" y1="103.312296" x2="93.621967" y2="103.312296" stroke="#5fd3bc" stroke-width="0.3" stroke-opacity="1.000000"/>
   <line id="216" x1="27.487899" y1="104.062296" x2="92.756421" y2="104.062296" stroke="#5fd3bc" stroke-width="0.3" stroke-opacity="1.000000"/>
   <line id="217" x1="28.541126" y1="104.812296" x2="91.884737" y2="104.812296" stroke="#5fd3bc" stroke-width="0.3" stroke-opacity="1.000000"/>
   <line id="218" x1="29.594354" y1="105.562296" x2="90.585699" y2="105.562296" stroke="#5fd3bc" stroke-width="0.3" stroke-opacity="1.000000"/>
   <line id="219" x1="30.647582" y1="106.312296" x2="89.286662" y2="106.312296" stroke="#5fd3bc" stroke-width="0.3" stroke-opacity="1.000000"/>
   <line id="220" x1="31.700809" y1="107.062296" x2="87.987624" y2="107.062296" stroke="#5fd3bc" stroke-width="0.3" stroke-opacity="1.000000"/>
   <line id="221" x1="32.896114" y1="107.812296" x2="86.688586" y2="107.812296" stroke="#5fd3bc" stroke-width="0.3" stroke-opacity="1.000000"/>
   <line id="222" x1="34.538384" y1="108.562296" x2="85.389548" y2="108.562296" stroke="#5fd3bc" stroke-width="0.3" stroke-opacity="1.000000"/>
   <line id="223" x1="36.180655" y1="109.312296" x2="84.090510" y2="109.312296" stroke="#5fd3bc" stroke-width="0.3" stroke-opacity="1.000000"/>
   <line id="224" x1="37.822926" y1="110.062296" x2="82.753819" y2="110.062296" stroke="#5fd3bc" stroke-width="0.3" stroke-opacity="1.000000"/>
   <line id="225" x1="39.465197" y1="110.812296" x2="80.586836" y2="110.812296" stroke="#5fd3bc" stroke-width="0.3" stroke-opacity="1.000000"/>
   <line id="226" x1="41.107468" y1="111.562296" x2="78.419853" y2="111.562296" stroke="#5fd3bc" stroke-width="0.3" stroke-opacity="1.000000"/>
   <line id="227" x1="43.401430" y1="112.312296" x2="76.252870" y2="112.312296" stroke="#5fd3bc" stroke-width="0.3" stroke-opacity="1.000000"/>
   <line id="228" x1="46.492972" y1="113.062296" x2="74.085887" y2="113.062296" stroke="#5fd3bc" stroke-width="0.3" stroke-opacity="1.000000"/>
   <line id="229" x1="49.584515" y1="113.812296" x2="70.444386" y2="113.812296" stroke="#5fd3bc" stroke-width="0.3" stroke-opacity="1.000000"/>
   <line id="230" x1="54.736232" y1="114.562296" x2="65.228024" y2="114.562296" stroke="#5fd3bc" stroke-width="0.3" stroke-opacity="1.000000"/>
   <!-- sel -->
   <rect x="4.7500" y="4.5600" width="110.7500" height="83.1600" stroke="red" fill="transparent" stroke-dasharray="5,3" stroke-width="1.5"/>
   <circle cx="115.0000" cy="60.0000" r="6.0" stroke="red" fill="none" stroke-width="2.0"/>
   <circle cx="114.0061" cy="70.4088" r="6.0" stroke="red" fill="none" stroke-width="2.0"/>
   <circle cx="111.0602" cy="80.4414" r="6.0" stroke="red" fill="none" stroke-width="2.0"/>
   <circle cx="11.1141" cy="85.2025" r="6.0" stroke="red" fill="none" stroke-width="2.0"/>
   <circle cx="7.2279" cy="75.4953" r="6.0" stroke="red" fill="none" stroke-width="2.0"/>
   <circle cx="5.2490" cy="65.2281" r="6.0" stroke="red" fill="none" stroke-width="2.0"/>
   <circle cx="5.2490" cy="54.7719" r="6.0" stroke="red" fill="none" stroke-width="2.0"/>
   <circle cx="7.2279" cy="44.5047" r="6.0" stroke="red" fill="none" stroke-width="2.0"/>
   <circle cx="11.1141" cy="34.7975" r="6.0" stroke="red" fill="none" stroke-width="2.0"/>
   <circle cx="16.7671" cy="26.0013" r="6.0" stroke="red" fill="none" stroke-width="2.0"/>
   <circle cx="23.9827" cy="18.4338" r="6.0" stroke="red" fill="none" stroke-width="2.0"/>
   <circle cx="32.5000" cy="12.3686" r="6.0" stroke="red" fill="none" stroke-width="2.0"/>
   <circle cx="42.0113" cy="8.0250" r="6.0" stroke="red" fill="none" stroke-width="2.0"/>
   <circle cx="52.1727" cy="5.5598" r="6.0" stroke="red" fill="none" stroke-width="2.0"/>
   <circle cx="62.6170" cy="5.0623" r="6.0" stroke="red" fill="none" stroke-width="2.0"/>
   <circle cx="72.9667" cy="6.5504" r="6.0" stroke="red" fill="none" stroke-width="2.0"/>
   <circle cx="82.8478" cy="9.9702" r="6.0" stroke="red" fill="none" stroke-width="2.0"/>
   <circle cx="91.9031" cy="15.1983" r="6.0" stroke="red" fill="none" stroke-width="2.0"/>
   <circle cx="99.8054" cy="22.0457" r="6.0" stroke="red" fill="none" stroke-width="2.0"/>
   <circle cx="106.2689" cy="30.2648" r="6.0" stroke="red" fill="none" stroke-width="2.0"/>
   <circle cx="111.0602" cy="39.5586" r="6.0" stroke="red" fill="none" stroke-width="2.0"/>
   <circle cx="114.0061" cy="49.5912" r="6.0" stroke="red" fill="none" stroke-width="2.0"/>
   <circle cx="114.0061" cy="70.4088" r="6.0" stroke="red" fill="none" stroke-width="2.0"/>
   <circle cx="111.0602" cy="80.4414" r="6.0" stroke="red" fill="none" stroke-width="2.0"/>
   <circle cx="7.2279" cy="75.4953" r="6.0" stroke="red" fill="none" stroke-width="2.0"/>
   <circle cx="5.2490" cy="65.2281" r="6.0" stroke="red" fill="none" stroke-width="2.0"/>
   <circle cx="5.2490" cy="54.7719" r="6.0" stroke="red" fill="none" stroke-width="2.0"/>
   <circle cx="5.2490" cy="54.7719" r="6.0" stroke="red" fill="none" stroke-width="2.0"/>
   <circle cx="7.2279" cy="44.5047" r="6.0" stroke="red" fill="none" stroke-width="2.0"/>
   <circle cx="11.1141" cy="34.7975" r="6.0" stroke="red" fill="none" stroke-width="2.0"/>
   <circle cx="16.7671" cy="26.0013" r="6.0" stroke="red" fill="none" stroke-width="2.0"/>
   <circle cx="23.9827" cy="18.4338" r="6.0" stroke="red" fill="none" stroke-width="2.0"/>
   <circle cx="32.5000" cy="12.3686" r="6.0" stroke="red" fill="none" stroke-width="2.0"/>
   <circle cx="42.0113" cy="8.0250" r="6.0" stroke="red" fill="none" stroke-width="2.0"/>
   <circle cx="52.1727" cy="5.5598" r="6.0" stroke="red" fill="none" stroke-width="2.0"/>
   <circle cx="62.6170" cy="5.0623" r="6.0" stroke="red" fill="none" stroke-width="2.0"/>
   <circle cx="72.9667" cy="6.5504" r="6.0" stroke="red" fill="none" stroke-width="2.0"/>
   <circle cx="82.8478" cy="9.9702" r="6.0" stroke="red" fill="none" stroke-width="2.0"/>
   <circle cx="91.9031" cy="15.1983" r="6.0" stroke="red" fill="none" stroke-width="2.0"/>
   <circle cx="99.8054" cy="22.0457" r="6.0" stroke="red" fill="none" stroke-width="2.0"/>
   <circle cx="106.2689" cy="30.2648" r="6.0" stroke="red" fill="none" stroke-width="2.0"/>
   <circle cx="111.0602" cy="39.5586" r="6.0" stroke="red" fill="none" stroke-width="2.0"/>
   <circle cx="114.0061" cy="49.5912" r="6.0" stroke="red" fill="none" stroke-width="2.0"/>
   <circle cx="51.1320" cy="5.8123" r="6.0" stroke="red" fill="none" stroke-width="2.0"/>
   <circle cx="48.0404" cy="6.5623" r="6.0" stroke="red" fill="none" stroke-width="2.0"/>
   <circle cx="44.9489" cy="7.3123" r="6.0" stroke="red" fill="none" stroke-width="2.0"/>
   <circle cx="41.9295" cy="8.0623" r="6.0" stroke="red" fill="none" stroke-width="2.0"/>
   <circle cx="40.2872" cy="8.8123" r="6.0" stroke="red" fill="none" stroke-width="2.0"/>
   <circle cx="38.6450" cy="9.5623" r="6.0" stroke="red" fill="none" stroke-width="2.0"/>
   <circle cx="37.0027" cy="10.3123" r="6.0" stroke="red" fill="none" stroke-width="2.0"/>
   <circle cx="35.3604" cy="11.0623" r="6.0" stroke="red" fill="none" stroke-width="2.0"/>
   <circle cx="33.7181" cy="11.8123" r="6.0" stroke="red" fill="none" stroke-width="2.0"/>
   <circle cx="32.2280" cy="12.5623" r="6.0" stroke="red" fill="none" stroke-width="2.0"/>
   <circle cx="31.1748" cy="13.3123" r="6.0" stroke="red" fill="none" stroke-width="2.0"/>
   <circle cx="30.1215" cy="14.0623" r="6.0" stroke="red" fill="none" stroke-width="2.0"/>
   <circle cx="29.0683" cy="14.8123" r="6.0" stroke="red" fill="none" stroke-width="2.0"/>
   <circle cx="28.0151" cy="15.5623" r="6.0" stroke="red" fill="none" stroke-width="2.0"/>
   <circle cx="26.9619" cy="16.3123" r="6.0" stroke="red" fill="none" stroke-width="2.0"/>
   <circle cx="25.9086" cy="17.0623" r="6.0" stroke="red" fill="none" stroke-width="2.0"/>
   <circle cx="24.8554" cy="17.8123" r="6.0" stroke="red" fill="none" stroke-width="2.0"/>
   <circle cx="23.8601" cy="18.5623" r="6.0" stroke="red" fill="none" stroke-width="2.0"/>
   <circle cx="23.1450" cy="19.3123" r="6.0" stroke="red" fill="none" stroke-width="2.0"/>
   <circle cx="22.4299" cy="20.0623" r="6.0" stroke="red" fill="none" stroke-width="2.0"/>
   <circle cx="21.7147" cy="20.8123" r="6.0" stroke="red" fill="none" stroke-width="2.0"/>
   <circle cx="20.9996" cy="21.5623" r="6.0" stroke="red" fill="none" stroke-width="2.0"/>
   <circle cx="20.2845" cy="22.3123" r="6.0" stroke="red" fill="none" stroke-width="2.0"/>
   <circle cx="19.5694" cy="23.0623" r="6.0" stroke="red" fill="none" stroke-width="2.0"/>
   <circle cx="18.8542" cy="23.8123" r="6.0" stroke="red" fill="none" stroke-width="2.0"/>
   <circle cx="18.1391" cy="24.5623" r="6.0" stroke="red" fill="none" stroke-width="2.0"/>
   <circle cx="17.4240" cy="25.3123" r="6.0" stroke="red" fill="none" stroke-width="2.0"/>
   <circle cx="16.7279" cy="26.0623" r="6.0" stroke="red" fill="none" stroke-width="2.0"/>
   <circle cx="16.2459" cy="26.8123" r="6.0" stroke="red" fill="none" stroke-width="2.0"/>
   <circle cx="15.7639" cy="27.5623" r="6.0" stroke="red" fill="none" stroke-width="2.0"/>
   <circle cx="15.2819" cy="28.3123" r="6.0" stroke="red" fill="none" stroke-width="2.0"/>
   <circle cx="14.7999" cy="29.0623" r="6.0" stroke="red" fill="none" stroke-width="2.0"/>
   <circle cx="14.3179" cy="29.8123" r="6.0" stroke="red" fill="none" stroke-width="2.0"/>
   <circle cx="13.8359" cy="30.5623" r="6.0" stroke="red" fill="none" stroke-width="2.0"/>
   <circle cx="13.3539" cy="31.3123" r="6.0" stroke="red" fill="none" stroke-width="2.0"/>
   <circle cx="12.8719" cy="32.0623" r="6.0" stroke="red" fill="none" stroke-width="2.0"/>
   <circle cx="12.3899" cy="32.8123" r="6.0" stroke="red" fill="none" stroke-width="2.0"/>
   <circle cx="11.9079" cy="33.5623" r="6.0" stroke="red" fill="none" stroke-width="2.0"/>
   <circle cx="11.4259" cy="34.3123" r="6.0" stroke="red" fill="none" stroke-width="2.0"/>
   <circle cx="11.0081" cy="35.0623" r="6.0" stroke="red" fill="none" stroke-width="2.0"/>
   <circle cx="10.7078" cy="35.8123" r="6.0" stroke="red" fill="none" stroke-width="2.0"/>
   <circle cx="10.4075" cy="36.5623" r="6.0" stroke="red" fill="none" stroke-width="2.0"/>
   <circle cx="10.1073" cy="37.3123" r="6.0" stroke="red" fill="none" stroke-width="2.0"/>
   <circle cx="9.8070" cy="38.0623" r="6.0" stroke="red" fill="none" stroke-width="2.0"/>
   <circle cx="9.5068" cy="38.8123" r="6.0" stroke="red" fill="none" stroke-width="2.0"/>
   <circle cx="9.2065" cy="39.5623" r="6.0" stroke="red" fill="none" stroke-width="2.0"/>
   <circle cx="8.9063" cy="40.3123" r="6.0" stroke="red" fill="none" stroke-width="2.0"/>
   <circle cx="8.6060" cy="41.0623" r="6.0" stroke="red" fill="none" stroke-width="2.0"/>
   <circle cx="8.3058" cy="41.8123" r="6.0" stroke="red" fill="none" stroke-width="2.0"/>
   <circle cx="8.0055" cy="42.5623" r="6.0" stroke="red" fill="none" stroke-width="2.0"/>
   <circle cx="7.7053" cy="43.3123" r="6.0" stroke="red" fill="none" stroke-width="2.0"/>
   <circle cx="7.4050" cy="44.0623" r="6.0" stroke="red" fill="none" stroke-width="2.0"/>
   <circle cx="7.1686" cy="44.8123" r="6.0" stroke="red" fill="none" stroke-width="2.0"/>
   <circle cx="7.0241" cy="45.5623" r="6.0" stroke="red" fill="none" stroke-width="2.0"/>
   <circle cx="6.8795" cy="46.3123" r="6.0" stroke="red" fill="none" stroke-width="2.0"/>
   <circle cx="6.7350" cy="47.0623" r="6.0" stroke="red" fill="none" stroke-width="2.0"/>
   <circle cx="6.5904" cy="47.8123" r="6.0" stroke="red" fill="none" stroke-width="2.0"/>
   <circle cx="6.4459" cy="48.5623" r="6.0" stroke="red" fill="none" stroke-width="2.0"/>
   <circle cx="6.3013" cy="49.3123" r="6.0" stroke="red" fill="none" stroke-width="2.0"/>
   <circle cx="6.1567" cy="50.0623" r="6.0" stroke="red" fill="none" stroke-width="2.0"/>
   <circle cx="6.0122" cy="50.8123" r="6.0" stroke="red" fill="none" stroke-width="2.0"/>
   <circle cx="5.8676" cy="51.5623" r="6.0" stroke="red" fill="none" stroke-width="2.0"/>
   <circle cx="5.7231" cy="52.3123" r="6.0" stroke="red" fill="none" stroke-width="2.0"/>
   <circle cx="5.5785" cy="53.0623" r="6.0" stroke="red" fill="none" stroke-width="2.0"/>
   <circle cx="5.4340" cy="53.8123" r="6.0" stroke="red" fill="none" stroke-width="2.0"/>
   <circle cx="5.2894" cy="54.5623" r="6.0" stroke="red" fill="none" stroke-width="2.0"/>
   <circle cx="5.2490" cy="55.3123" r="6.0" stroke="red" fill="none" stroke-width="2.0"/>
   <circle cx="5.2490" cy="56.0623" r="6.0" stroke="red" fill="none" stroke-width="2.0"/>
   <circle cx="5.2490" cy="56.8123" r="6.0" stroke="red" fill="none" stroke-width="2.0"/>
   <circle cx="5.2490" cy="57.5623" r="6.0" stroke="red" fill="none" stroke-width="2.0"/>
   <circle cx="5.2490" cy="58.3123" r="6.0" stroke="red" fill="none" stroke-width="2.0"/>
   <circle cx="5.2490" cy="59.0623" r="6.0" stroke="red" fill="none" stroke-width="2.0"/>
   <circle cx="5.2490" cy="59.8123" r="6.0" stroke="red" fill="none" stroke-width="2.0"/>
   <circle cx="5.2490" cy="60.5623" r="6.0" stroke="red" fill="none" stroke-width="2.0"/>
   <circle cx="5.2490" cy="61.3123" r="6.0" stroke="red" fill="none" stroke-width="2.0"/>
   <circle cx="5.2490" cy="62.0623" r="6.0" stroke="red" fill="none" stroke-width="2.0"/>
   <circle cx="5.2490" cy="62.8123" r="6.0" stroke="red" fill="none" stroke-width="2.0"/>
   <circle cx="5.2490" cy="63.5623" r="6.0" stroke="red" fill="none" stroke-width="2.0"/>
   <circle cx="5.2490" cy="64.3123" r="6.0" stroke="red" fill="none" stroke-width="2.0"/>
   <circle cx="5.2490" cy="65.0623" r="6.0" stroke="red" fill="none" stroke-width="2.0"/>
   <circle cx="5.3616" cy="65.8123" r="6.0" stroke="red" fill="none" stroke-width="2.0"/>
   <circle cx="5.5062" cy="66.5623" r="6.0" stroke="red" fill="none" stroke-width="2.0"/>
   <circle cx="5.6507" cy="67.3123" r="6.0" stroke="red" fill="none" stroke-width="2.0"/>
   <circle cx="5.7953" cy="68.0623" r="6.0" stroke="red" fill="none" stroke-width="2.0"/>
   <circle cx="5.9398" cy="68.8123" r="6.0" stroke="red" fill="none" stroke-width="2.0"/>
   <circle cx="6.0844" cy="69.5623" r="6.0" stroke="red" fill="none" stroke-width="2.0"/>
   <circle cx="6.2289" cy="70.3123" r="6.0" stroke="red" fill="none" stroke-width="2.0"/>
   <circle cx="6.3735" cy="71.0623" r="6.0" stroke="red" fill="none" stroke-width="2.0"/>
   <circle cx="6.5180" cy="71.8123" r="6.0" stroke="red" fill="none" stroke-width="2.0"/>
   <circle cx="6.6626" cy="72.5623" r="6.0" stroke="red" fill="none" stroke-width="2.0"/>
   <circle cx="6.8071" cy="73.3123" r="6.0" stroke="red" fill="none" stroke-width="2.0"/>
   <circle cx="6.9517" cy="74.0623" r="6.0" stroke="red" fill="none" stroke-width="2.0"/>
   <circle cx="7.0962" cy="74.8123" r="6.0" stroke="red" fill="none" stroke-width="2.0"/>
   <circle cx="7.2547" cy="75.5623" r="6.0" stroke="red" fill="none" stroke-width="2.0"/>
   <circle cx="7.5550" cy="76.3123" r="6.0" stroke="red" fill="none" stroke-width="2.0"/>
   <circle cx="7.8552" cy="77.0623" r="6.0" stroke="red" fill="none" stroke-width="2.0"/>
   <circle cx="8.1555" cy="77.8123" r="6.0" stroke="red" fill="none" stroke-width="2.0"/>
   <circle cx="8.4557" cy="78.5623" r="6.0" stroke="red" fill="none" stroke-width="2.0"/>
   <circle cx="8.7560" cy="79.3123" r="6.0" stroke="red" fill="none" stroke-width="2.0"/>
   <circle cx="9.0562" cy="80.0623" r="6.0" stroke="red" fill="none" stroke-width="2.0"/>
   <circle cx="9.3565" cy="80.8123" r="6.0" stroke="red" fill="none" stroke-width="2.0"/>
   <circle cx="9.6567" cy="81.5623" r="6.0" stroke="red" fill="none" stroke-width="2.0"/>
   <circle cx="9.9570" cy="82.3123" r="6.0" stroke="red" fill="none" stroke-width="2.0"/>
   <circle cx="10.2573" cy="83.0623" r="6.0" stroke="red" fill="none" stroke-width="2.0"/>
   <circle cx="10.5575" cy="83.8123" r="6.0" stroke="red" fill="none" stroke-width="2.0"/>
   <circle cx="10.8578" cy="84.5623" r="6.0" stroke="red" fill="none" stroke-width="2.0"/>
   <circle cx="11.1846" cy="85.3123" r="6.0" stroke="red" fill="none" stroke-width="2.0"/>
   <circle cx="11.6666" cy="86.0623" r="6.0" stroke="red" fill="none" stroke-width="2.0"/>
   <circle cx="12.1486" cy="86.8123" r="6.0" stroke="red" fill="none" stroke-width="2.0"/>
   <circle cx="12.6306" cy="87.5623" r="6.0" stroke="red" fill="none" stroke-width="2.0"/>
</g>
</svg>
