<?xml version="1.0" encoding="UTF-8"?>
<svg xmlns="http://www.w3.org/2000/svg" xmlns:xlink="http://www.w3.org/1999/xlink" width="139.7510" height="139.8754" viewBox="-9.7510 -9.9377 139.7510 139.8754">
<g id="fig">
   <text x="115.000000" y="60.000000" id="10" text-anchor="middle" fill="#916f6f" stroke="None" font-family="sans-serif" font-size="9pt" font-weight="lighter">Oh, Tricolor</text>
   <text x="114.006078" y="70.408818" id="11" text-anchor="middle" fill="#916f6f" stroke="None" font-family="sans-serif" font-size="9pt" font-weight="lighter">Clube bem amado</text>
   <text x="111.060236" y="80.441435" id="12" text-anchor="middle" fill="#916f6f" stroke="None" font-family="sans-serif" font-size="9pt" font-weight="lighter">As tuas gloriasVem do passado</text>
   <text x="106.268944" y="89.735245" id="13" text-anchor="middle" fill="#916f6f" stroke="None" font-family="sans-serif" font-size="9pt" font-weight="lighter">Sao teus guias brasileiros</text>
   <text x="99.805372" y="97.954346" id="14" text-anchor="middle" fill="#916f6f" stroke="None" font-family="sans-serif" font-size="9pt" font-weight="lighter">Que te amam eternamente</text>
   <text x="91.903130" y="104.801677" id="15" text-anchor="middle" fill="#916f6f" stroke="None" font-family="sans-serif" font-size="9pt" font-weight="lighter">De Sao Paulo tens o nome</text>
   <text x="82.847826" y="110.029760" id="16" text-anchor="middle" fill="#916f6f" stroke="None" font-family="sans-serif" font-size="9pt" font-weight="lighter">Que ostentas dignamente</text>
   <text x="72.966741" y="113.449636" id="17" text-anchor="middle" fill="#916f6f" stroke="None" font-family="sans-serif" font-size="9pt" font-weight="lighter">De Sao Paulo tens o nome</text>
   <text x="62.617005" y="114.937704" id="18" text-anchor="middle" fill="#916f6f" stroke="None" font-family="sans-serif" font-size="9pt" font-weight="lighter">Que ostentas dignamente</text>
   <text x="52.172684" y="114.440179" id="19" text-anchor="middle" fill="#916f6f" stroke="None" font-family="sans-serif" font-size="9pt" font-weight="lighter">Salve o tricolor paulista</text>
   <text x="42.011262" y="111.975045" id="20" text-anchor="middle" fill="#916f6f" stroke="None" font-family="sans-serif" font-size="9pt" font-weight="lighter">Amado clube brasileiro</text>
   <text x="32.500000" y="107.631397" id="21" text-anchor="middle" fill="#916f6f" stroke="None" font-family="sans-serif" font-size="9pt" font-weight="lighter">Tu es forte, tu es grande</text>
   <text x="23.982660" y="101.566227" id="22" text-anchor="middle" fill="#916f6f" stroke="None" font-family="sans-serif" font-size="9pt" font-weight="lighter">Dentre os grandes es o primeiro</text>
   <text x="16.767080" y="93.998744" id="23" text-anchor="middle" fill="#916f6f" stroke="None" font-family="sans-serif" font-size="9pt" font-weight="lighter">Tu es forte, tu es grande</text>
   <text x="11.114050" y="85.202459" id="24" text-anchor="middle" fill="#916f6f" stroke="None" font-family="sans-serif" font-size="9pt" font-weight="lighter">Dentre os grandes es o primeiro</text>
   <text x="7.227886" y="75.495291" id="25" text-anchor="middle" fill="#916f6f" stroke="None" font-family="sans-serif" font-size="9pt" font-weight="lighter">Oh, Tricolor</text>
   <text x="5.249044" y="65.228082" id="26" text-anchor="middle" fill="#916f6f" stroke="None" font-family="sans-serif" font-size="9pt" font-weight="lighter">Clube bem amado</text>
   <text x="5.249044" y="54.771918" id="27" text-anchor="middle" fill="#916f6f" stroke="None" font-family="sans-serif" font-size="9pt" font-weight="lighter">As tuas gloriasVem do passado</text>
   <text x="7.227886" y="44.504709" id="28" text-anchor="middle" fill="#916f6f" stroke="None" font-family="sans-serif" font-size="9pt" font-weight="lighter">Sao teus guias brasileiros</text>
   <text x="11.114050" y="34.797541" id="29" text-anchor="middle" fill="#916f6f" stroke="None" font-family="sans-serif" font-size="9pt" font-weight="lighter">Que te amam eternamente</text>
   <text x="16.767080" y="26.001256" id="30" text-anchor="middle" fill="#916f6f" stroke="None" font-family="sans-serif" font-size="9pt" font-weight="lighter">De Sao Paulo tens o nome</text>
   <text x="23.982660" y="18.433773" id="31" text-anchor="middle" fill="#916f6f" stroke="None" font-family="sans-serif" font-size="9pt" font-weight="lighter">Que ostentas dignamente</text>
   <text x="32.500000" y="12.368603" id="32" text-anchor="middle" fill="#916f6f" stroke="None" font-family="sans-serif" font-size="9pt" font-weight="lighter">De Sao Paulo tens o nome</text>
   <text x="42.011262" y="8.024955" id="33" text-anchor="middle" fill="#916f6f" stroke="None" font-family="sans-serif" font-size="9pt" font-weight="lighter">Que ostentas dignamente</text>
   <text x="52.172684" y="5.559821" id="34" text-anchor="middle" fill="#916f6f" stroke="None" font-family="sans-serif" font-size="9pt" font-weight="lighter">Salve o tricolor paulista</text>
   <text x="62.617005" y="5.062296" id="35" text-anchor="middle" fill="#916f6f" stroke="None" font-family="sans-serif" font-size="9pt" font-weight="lighter">Amado clube brasileiro</text>
   <text x="72.966741" y="6.550364" id="36" text-anchor="middle" fill="#916f6f" stroke="None" font-family="sans-serif" font-size="9pt" font-weight="lighter">Tu es forte, tu es grande</text>
   <text x="82.847826" y="9.970240" id="37" text-anchor="middle" fill="#916f6f" stroke="None" font-family="sans-serif" font-size="9pt" font-weight="lighter">Dentre os grandes es o primeiro</text>
   <text x="91.903130" y="15.198323" id="38" text-anchor="middle" fill="#916f6f" stroke="None" font-family="sans-serif" font-size="9pt" font-weight="lighter">Tu es forte, tu es grande</text>
   <text x="99.805372" y="22.045654" id="39" text-anchor="middle" fill="#916f6f" stroke="None" font-family="sans-serif" font-size="9pt" font-weight="lighter">Dentre os grandes es o primeiro</text>
   <text x="106.268944" y="30.264755" id="40" text-anchor="middle" fill="#916f6f" stroke="None" font-family="sans-serif" font-size="9pt" font-weight="lighter">Oh, Tricolor</text>
   <text x="111.060236" y="39.558565" id="41" text-anchor="middle" fill="#916f6f" stroke="None" font-family="sans-serif" font-size="9pt" font-weight="lighter">Clube bem amado</text>
   <text x="114.006078" y="49.591182" id="42" text-anchor="middle" fill="#916f6f" stroke="None" font-family="sans-serif" font-size="9pt" font-weight="lighter">As tuas gloriasVem do passado</text>
   <line id="52" x1="115.000000" y1="60.000000" x2="114.006078" y2="70.408818" stroke="#5f5dd3" stroke-width="2" stroke-opacity="1.000000"/>
   <line id="53" x1="114.006078" y1="70.408818" x2="111.060236" y2="80.441435" stroke="#5f5dd3" stroke-width="2" stroke-opacity="1.000000"/>
   <line id="54" x1="111.060236" y1="80.441435" x2="106.268944" y2="89.735245" stroke="#5f5dd3" stroke-width="2" stroke-opacity="1.000000"/>
   <line id="55" x1="106.268944" y1="89.735245" x2="99.805372" y2="97.954346" stroke="#5f5dd3" stroke-width="2" stroke-opacity="1.000000"/>
   <line id="56" x1="99.805372" y1="97.954346" x2="91.903130" y2="104.801677" stroke="#5f5dd3" stroke-width="2" stroke-opacity="1.000000"/>
   <line id="57" x1="91.903130" y1="104.801677" x2="82.847826" y2="110.029760" stroke="#5f5dd3" stroke-width="2" stroke-opacity="1.000000"/>
   <line id="58" x1="82.847826" y1="110.029760" x2="72.966741" y2="113.449636" stroke="#5f5dd3" stroke-width="2" stroke-opacity="1.000000"/>
   <line id="59" x1="72.966741" y1="113.449636" x2="62.617005" y2="114.937704" stroke="#5f5dd3" stroke-width="2" stroke-opacity="1.000000"/>
   <line id="60" x1="62.617005" y1="114.937704" x2="52.172684" y2="114.440179" stroke="#5f5dd3" stroke-width="2" stroke-opacity="1.000000"/>
   <line id="61" x1="52.172684" y1="114.440179" x2="42.011262" y2="111.975045" stroke="#5f5dd3" stroke-width="2" stroke-opacity="1.000000"/>
   <line id="62" x1="42.011262" y1="111.975045" x2="32.500000" y2="107.631397" stroke="#5f5dd3" stroke-width="2" stroke-opacity="1.000000"/>
   <line id="63" x1="32.500000" y1="107.631397" x2="23.982660" y2="101.566227" stroke="#5f5dd3" stroke-width="2" stroke-opacity="1.000000"/>
   <line id="64" x1="23.982660" y1="101.566227" x2="16.767080" y2="93.998744" stroke="#5f5dd3" stroke-width="2" stroke-opacity="1.000000"/>
   <line id="65" x1="16.767080" y1="93.998744" x2="11.114050" y2="85.202459" stroke="#5f5dd3" stroke-width="2" stroke-opacity="1.000000"/>
   <line id="66" x1="11.114050" y1="85.202459" x2="7.227886" y2="75.495291" stroke="#5f5dd3" stroke-width="2" stroke-opacity="1.000000"/>
   <line id="67" x1="7.227886" y1="75.495291" x2="5.249044" y2="65.228082" stroke="#5f5dd3" stroke-width="2" stroke-opacity="1.000000"/>
   <line id="68" x1="5.249044" y1="65.228082" x2="5.249044" y2="54.771918" stroke="#5f5dd3" stroke-width="2" stroke-opacity="1.000000"/>
   <line id="69" x1="5.249044" y1="54.771918" x2="7.227886" y2="44.504709" stroke="#5f5dd3" stroke-width="2" stroke-opacity="1.000000"/>
   <line id="70" x1="7.227886" y1="44.504709" x2="11.114050" y2="34.797541" stroke="#5f5dd3" stroke-width="2" stroke-opacity="1.000000"/>
   <line id="71" x1="11.114050" y1="34.797541" x2="16.767080" y2="26.001256" stroke="#5f5dd3" stroke-width="2" stroke-opacity="1.000000"/>
   <line id="72" x1="16.767080" y1="26.001256" x2="23.982660" y2="18.433773" stroke="#5f5dd3" stroke-width="2" stroke-opacity="1.000000"/>
   <line id="73" x1="23.982660" y1="18.433773" x2="32.500000" y2="12.368603" stroke="#5f5dd3" stroke-width="2" stroke-opacity="1.000000"/>
   <line id="74" x1="32.500000" y1="12.368603" x2="42.011262" y2="8.024955" stroke="#5f5dd3" stroke-width="2" stroke-opacity="1.000000"/>
   <line id="75" x1="42.011262" y1="8.024955" x2="52.172684" y2="5.559821" stroke="#5f5dd3" stroke-width="2" stroke-opacity="1.000000"/>
   <line id="76" x1="52.172684" y1="5.559821" x2="62.617005" y2="5.062296" stroke="#5f5dd3" stroke-width="2" stroke-opacity="1.000000"/>
   <line id="77" x1="62.617005" y1="5.062296" x2="72.966741" y2="6.550364" stroke="#5f5dd3" stroke-width="2" stroke-opacity="1.000000"/>
   <line id="78" x1="72.966741" y1="6.550364" x2="82.847826" y2="9.970240" stroke="#5f5dd3" stroke-width="2" stroke-opacity="1.000000"/>
   <line id="79" x1="82.847826" y1="9.970240" x2="91.903130" y2="15.198323" stroke="#5f5dd3" stroke-width="2" stroke-opacity="1.000000"/>
   <line id="80" x1="91.903130" y1="15.198323" x2="99.805372" y2="22.045654" stroke="#5f5dd3" stroke-width="2" stroke-opacity="1.000000"/>
   <line id="81" x1="99.805372" y1="22.045654" x2="106.268944" y2="30.264755" stroke="#5f5dd3" stroke-width="2" stroke-opacity="1.000000"/>
   <line id="82" x1="106.268944" y1="30.264755" x2="111.060236" y2="39.558565" stroke="#5f5dd3" stroke-width="2" stroke-opacity="1.000000"/>
   <line id="83" x1="111.060236" y1="39.558565" x2="114.006078" y2="49.591182" stroke="#5f5dd3" stroke-width="2" stroke-opacity="1.000000"/>
   <line id="84" x1="114.006078" y1="49.591182" x2="115.000000" y2="60.000000" stroke="#5f5dd3" stroke-width="2" stroke-opacity="1.000000"/>
   <line id="85" x1="51.131968" y1="5.812296" x2="67.833367" y2="5.812296" stroke="#5fd3bc" stroke-width="2" stroke-opacity="1.000000"/>
   <line id="86" x1="48.040425" y1="6.562296" x2="73.001216" y2="6.562296" stroke="#5fd3bc" stroke-width="2" stroke-opacity="1.000000"/>
   <line id="87" x1="44.948883" y1="7.312296" x2="75.168199" y2="7.312296" stroke="#5fd3bc" stroke-width="2" stroke-opacity="1.000000"/>
   <line id="88" x1="41.929497" y1="8.062296" x2="77.335183" y2="8.062296" stroke="#5fd3bc" stroke-width="2" stroke-opacity="1.000000"/>
   <line id="89" x1="40.287226" y1="8.812296" x2="79.502166" y2="8.812296" stroke="#5fd3bc" stroke-width="2" stroke-opacity="1.000000"/>
   <line id="90" x1="38.644955" y1="9.562296" x2="81.669149" y2="9.562296" stroke="#5fd3bc" stroke-width="2" stroke-opacity="1.000000"/>
   <line id="91" x1="37.002684" y1="10.312296" x2="83.440284" y2="10.312296" stroke="#5fd3bc" stroke-width="2" stroke-opacity="1.000000"/>
   <line id="92" x1="35.360413" y1="11.062296" x2="84.739322" y2="11.062296" stroke="#5fd3bc" stroke-width="2" stroke-opacity="1.000000"/>
   <line id="93" x1="33.718142" y1="11.812296" x2="86.038360" y2="11.812296" stroke="#5fd3bc" stroke-width="2" stroke-opacity="1.000000"/>
   <line id="94" x1="32.227996" y1="12.562296" x2="87.337398" y2="12.562296" stroke="#5fd3bc" stroke-width="2" stroke-opacity="1.000000"/>
   <line id="95" x1="31.174769" y1="13.312296" x2="88.636436" y2="13.312296" stroke="#5fd3bc" stroke-width="2" stroke-opacity="1.000000"/>
   <line id="96" x1="30.121541" y1="14.062296" x2="89.935474" y2="14.062296" stroke="#5fd3bc" stroke-width="2" stroke-opacity="1.000000"/>
   <line id="97" x1="29.068313" y1="14.812296" x2="91.234512" y2="14.812296" stroke="#5fd3bc" stroke-width="2" stroke-opacity="1.000000"/>
   <line id="98" x1="28.015085" y1="15.562296" x2="92.323177" y2="15.562296" stroke="#5fd3bc" stroke-width="2" stroke-opacity="1.000000"/>
   <line id="99" x1="26.961858" y1="16.312296" x2="93.188724" y2="16.312296" stroke="#5fd3bc" stroke-width="2" stroke-opacity="1.000000"/>
   <line id="100" x1="25.908630" y1="17.062296" x2="94.054270" y2="17.062296" stroke="#5fd3bc" stroke-width="2" stroke-opacity="1.000000"/>
   <line id="101" x1="24.855402" y1="17.812296" x2="94.919816" y2="17.812296" stroke="#5fd3bc" stroke-width="2" stroke-opacity="1.000000"/>
   <line id="102" x1="23.860114" y1="18.562296" x2="95.785362" y2="18.562296" stroke="#5fd3bc" stroke-width="2" stroke-opacity="1.000000"/>
   <line id="103" x1="23.144990" y1="19.312296" x2="96.650908" y2="19.312296" stroke="#5fd3bc" stroke-width="2" stroke-opacity="1.000000"/>
   <line id="104" x1="22.429867" y1="20.062296" x2="97.516455" y2="20.062296" stroke="#5fd3bc" stroke-width="2" stroke-opacity="1.000000"/>
   <line id="105" x1="21.714743" y1="20.812296" x2="98.382001" y2="20.812296" stroke="#5fd3bc" stroke-width="2" stroke-opacity="1.000000"/>
   <line id="106" x1="20.999620" y1="21.562296" x2="99.247547" y2="21.562296" stroke="#5fd3bc" stroke-width="2" stroke-opacity="1.000000"/>
   <line id="107" x1="20.284496" y1="22.312296" x2="100.015062" y2="22.312296" stroke="#5fd3bc" stroke-width="2" stroke-opacity="1.000000"/>
   <line id="108" x1="19.569373" y1="23.062296" x2="100.604868" y2="23.062296" stroke="#5fd3bc" stroke-width="2" stroke-opacity="1.000000"/>
   <line id="109" x1="18.854249" y1="23.812296" x2="101.194675" y2="23.812296" stroke="#5fd3bc" stroke-width="2" stroke-opacity="1.000000"/>
   <line id="110" x1="18.139126" y1="24.562296" x2="101.784481" y2="24.562296" stroke="#5fd3bc" stroke-width="2" stroke-opacity="1.000000"/>
   <line id="111" x1="17.424002" y1="25.312296" x2="102.374287" y2="25.312296" stroke="#5fd3bc" stroke-width="2" stroke-opacity="1.000000"/>
   <line id="112" x1="16.727852" y1="26.062296" x2="102.964094" y2="26.062296" stroke="#5fd3bc" stroke-width="2" stroke-opacity="1.000000"/>
   <line id="113" x1="16.245856" y1="26.812296" x2="103.553900" y2="26.812296" stroke="#5fd3bc" stroke-width="2" stroke-opacity="1.000000"/>
   <line id="114" x1="15.763860" y1="27.562296" x2="104.143707" y2="27.562296" stroke="#5fd3bc" stroke-width="2" stroke-opacity="1.000000"/>
   <line id="115" x1="15.281865" y1="28.312296" x2="104.733513" y2="28.312296" stroke="#5fd3bc" stroke-width="2" stroke-opacity="1.000000"/>
   <line id="116" x1="14.799869" y1="29.062296" x2="105.323320" y2="29.062296" stroke="#5fd3bc" stroke-width="2" stroke-opacity="1.000000"/>
   <line id="117" x1="14.317873" y1="29.812296" x2="105.913126" y2="29.812296" stroke="#5fd3bc" stroke-width="2" stroke-opacity="1.000000"/>
   <line id="118" x1="13.835877" y1="30.562296" x2="106.422337" y2="30.562296" stroke="#5fd3bc" stroke-width="2" stroke-opacity="1.000000"/>
   <line id="119" x1="13.353881" y1="31.312296" x2="106.808989" y2="31.312296" stroke="#5fd3bc" stroke-width="2" stroke-opacity="1.000000"/>
   <line id="120" x1="12.871886" y1="32.062296" x2="107.195641" y2="32.062296" stroke="#5fd3bc" stroke-width="2" stroke-opacity="1.000000"/>
   <line id="121" x1="12.389890" y1="32.812296" x2="107.582293" y2="32.812296" stroke="#5fd3bc" stroke-width="2" stroke-opacity="1.000000"/>
   <line id="122" x1="11.907894" y1="33.562296" x2="107.968945" y2="33.562296" stroke="#5fd3bc" stroke-width="2" stroke-opacity="1.000000"/>
   <line id="123" x1="11.425898" y1="34.312296" x2="108.355596" y2="34.312296" stroke="#5fd3bc" stroke-width="2" stroke-opacity="1.000000"/>
   <line id="124" x1="11.008058" y1="35.062296" x2="108.742248" y2="35.062296" stroke="#5fd3bc" stroke-width="2" stroke-opacity="1.000000"/>
   <line id="125" x1="10.707803" y1="35.812296" x2="109.128900" y2="35.812296" stroke="#5fd3bc" stroke-width="2" stroke-opacity="1.000000"/>
   <line id="126" x1="10.407549" y1="36.562296" x2="109.515552" y2="36.562296" stroke="#5fd3bc" stroke-width="2" stroke-opacity="1.000000"/>
   <line id="127" x1="10.107294" y1="37.312296" x2="109.902204" y2="37.312296" stroke="#5fd3bc" stroke-width="2" stroke-opacity="1.000000"/>
   <line id="128" x1="9.807039" y1="38.062296" x2="110.288856" y2="38.062296" stroke="#5fd3bc" stroke-width="2" stroke-opacity="1.000000"/>
   <line id="129" x1="9.506784" y1="38.812296" x2="110.675508" y2="38.812296" stroke="#5fd3bc" stroke-width="2" stroke-opacity="1.000000"/>
   <line id="130" x1="9.206530" y1="39.562296" x2="111.061332" y2="39.562296" stroke="#5fd3bc" stroke-width="2" stroke-opacity="1.000000"/>
   <line id="131" x1="8.906275" y1="40.312296" x2="111.281551" y2="40.312296" stroke="#5fd3bc" stroke-width="2" stroke-opacity="1.000000"/>
   <line id="132" x1="8.606020" y1="41.062296" x2="111.501771" y2="41.062296" stroke="#5fd3bc" stroke-width="2" stroke-opacity="1.000000"/>
   <line id="133" x1="8.305766" y1="41.812296" x2="111.721991" y2="41.812296" stroke="#5fd3bc" stroke-width="2" stroke-opacity="1.000000"/>
   <line id="134" x1="8.005511" y1="42.562296" x2="111.942211" y2="42.562296" stroke="#5fd3bc" stroke-width="2" stroke-opacity="1.000000"/>
   <line id="135" x1="7.705256" y1="43.312296" x2="112.162431" y2="43.312296" stroke="#5fd3bc" stroke-width="2" stroke-opacity="1.000000"/>
   <line id="136" x1="7.405001" y1="44.062296" x2="112.382651" y2="44.062296" stroke="#5fd3bc" stroke-width="2" stroke-opacity="1.000000"/>
   <line id="137" x1="7.168603" y1="44.812296" x2="112.602871" y2="44.812296" stroke="#5fd3bc" stroke-width="2" stroke-opacity="1.000000"/>
   <line id="138" x1="7.024053" y1="45.562296" x2="112.823090" y2="45.562296" stroke="#5fd3bc" stroke-width="2" stroke-opacity="1.000000"/>
   <line id="139" x1="6.879502" y1="46.312296" x2="113.043310" y2="46.312296" stroke="#5fd3bc" stroke-width="2" stroke-opacity="1.000000"/>
   <line id="140" x1="6.734952" y1="47.062296" x2="113.263530" y2="47.062296" stroke="#5fd3bc" stroke-width="2" stroke-opacity="1.000000"/>
   <line id="141" x1="6.590401" y1="47.812296" x2="113.483750" y2="47.812296" stroke="#5fd3bc" stroke-width="2" stroke-opacity="1.000000"/>
   <line id="142" x1="6.445850" y1="48.562296" x2="113.703970" y2="48.562296" stroke="#5fd3bc" stroke-width="2" stroke-opacity="1.000000"/>
   <line id="143" x1="6.301300" y1="49.312296" x2="113.924190" y2="49.312296" stroke="#5fd3bc" stroke-width="2" stroke-opacity="1.000000"/>
   <line id="144" x1="6.156749" y1="50.062296" x2="114.051064" y2="50.062296" stroke="#5fd3bc" stroke-width="2" stroke-opacity="1.000000"/>
   <line id="145" x1="6.012198" y1="50.812296" x2="114.122680" y2="50.812296" stroke="#5fd3bc" stroke-width="2" stroke-opacity="1.000000"/>
   <line id="146" x1="5.867648" y1="51.562296" x2="114.194297" y2="51.562296" stroke="#5fd3bc" stroke-width="2" stroke-opacity="1.000000"/>
   <line id="147" x1="5.723097" y1="52.312296" x2="114.265913" y2="52.312296" stroke="#5fd3bc" stroke-width="2" stroke-opacity="1.000000"/>
   <line id="148" x1="5.578547" y1="53.062296" x2="114.337529" y2="53.062296" stroke="#5fd3bc" stroke-width="2" stroke-opacity="1.000000"/>
   <line id="149" x1="5.433996" y1="53.812296" x2="114.409146" y2="53.812296" stroke="#5fd3bc" stroke-width="2" stroke-opacity="1.000000"/>
   <line id="150" x1="5.289445" y1="54.562296" x2="114.480762" y2="54.562296" stroke="#5fd3bc" stroke-width="2" stroke-opacity="1.000000"/>
   <line id="151" x1="5.249044" y1="55.312296" x2="114.552378" y2="55.312296" stroke="#5fd3bc" stroke-width="2" stroke-opacity="1.000000"/>
   <line id="152" x1="5.249044" y1="56.062296" x2="114.623995" y2="56.062296" stroke="#5fd3bc" stroke-width="2" stroke-opacity="1.000000"/>
   <line id="153" x1="5.249044" y1="56.812296" x2="114.695611" y2="56.812296" stroke="#5fd3bc" stroke-width="2" stroke-opacity="1.000000"/>
   <line id="154" x1="5.249044" y1="57.562296" x2="114.767227" y2="57.562296" stroke="#5fd3bc" stroke-width="2" stroke-opacity="1.000000"/>
   <line id="155" x1="5.249044" y1="58.312296" x2="114.838844" y2="58.312296" stroke="#5fd3bc" stroke-width="2" stroke-opacity="1.000000"/>
   <line id="156" x1="5.249044" y1="59.062296" x2="114.910460" y2="59.062296" stroke="#5fd3bc" stroke-width="2" stroke-opacity="1.000000"/>
   <line id="157" x1="5.249044" y1="59.812296" x2="114.982076" y2="59.812296" stroke="#5fd3bc" stroke-width="2" stroke-opacity="1.000000"/>
   <line id="158" x1="5.249044" y1="60.562296" x2="114.946307" y2="60.562296" stroke="#5fd3bc" stroke-width="2" stroke-opacity="1.000000"/>
   <line id="159" x1="5.249044" y1="61.312296" x2="114.874691" y2="61.312296" stroke="#5fd3bc" stroke-width="2" stroke-opacity="1.000000"/>
   <line id="160" x1="5.249044" y1="62.062296" x2="114.803075" y2="62.062296" stroke="#5fd3bc" stroke-width="2" stroke-opacity="1.000000"/>
   <line id="161" x1="5.249044" y1="62.812296" x2="114.731458" y2="62.812296" stroke="#5fd3bc" stroke-width="2" stroke-opacity="1.000000"/>
   <line id="162" x1="5.249044" y1="63.562296" x2="114.659842" y2="63.562296" stroke="#5fd3bc" stroke-width="2" stroke-opacity="1.000000"/>
   <line id="163" x1="5.249044" y1="64.312296" x2="114.588225" y2="64.312296" stroke="#5fd3bc" stroke-width="2" stroke-opacity="1.000000"/>
   <line id="164" x1="5.249044" y1="65.062296" x2="114.516609" y2="65.062296" stroke="#5fd3bc" stroke-width="2" stroke-opacity="1.000000"/>
   <line id="165" x1="5.361642" y1="65.812296" x2="114.444993" y2="65.812296" stroke="#5fd3bc" stroke-width="2" stroke-opacity="1.000000"/>
   <line id="166" x1="5.506193" y1="66.562296" x2="114.373376" y2="66.562296" stroke="#5fd3bc" stroke-width="2" stroke-opacity="1.000000"/>
   <line id="167" x1="5.650743" y1="67.312296" x2="114.301760" y2="67.312296" stroke="#5fd3bc" stroke-width="2" stroke-opacity="1.000000"/>
   <line id="168" x1="5.795294" y1="68.062296" x2="114.230144" y2="68.062296" stroke="#5fd3bc" stroke-width="2" stroke-opacity="1.000000"/>
   <line id="169" x1="5.939845" y1="68.812296" x2="114.158527" y2="68.812296" stroke="#5fd3bc" stroke-width="2" stroke-opacity="1.000000"/>
   <line id="170" x1="6.084395" y1="69.562296" x2="114.086911" y2="69.562296" stroke="#5fd3bc" stroke-width="2" stroke-opacity="1.000000"/>
   <line id="171" x1="6.228946" y1="70.312296" x2="114.015295" y2="70.312296" stroke="#5fd3bc" stroke-width="2" stroke-opacity="1.000000"/>
   <line id="172" x1="6.373496" y1="71.062296" x2="113.814200" y2="71.062296" stroke="#5fd3bc" stroke-width="2" stroke-opacity="1.000000"/>
   <line id="173" x1="6.518047" y1="71.812296" x2="113.593980" y2="71.812296" stroke="#5fd3bc" stroke-width="2" stroke-opacity="1.000000"/>
   <line id="174" x1="6.662598" y1="72.562296" x2="113.373760" y2="72.562296" stroke="#5fd3bc" stroke-width="2" stroke-opacity="1.000000"/>
   <line id="175" x1="6.807148" y1="73.312296" x2="113.153540" y2="73.312296" stroke="#5fd3bc" stroke-width="2" stroke-opacity="1.000000"/>
   <line id="176" x1="6.951699" y1="74.062296" x2="112.933320" y2="74.062296" stroke="#5fd3bc" stroke-width="2" stroke-opacity="1.000000"/>
   <line id="177" x1="7.096250" y1="74.812296" x2="112.713100" y2="74.812296" stroke="#5fd3bc" stroke-width="2" stroke-opacity="1.000000"/>
   <line id="178" x1="7.254711" y1="75.562296" x2="112.492880" y2="75.562296" stroke="#5fd3bc" stroke-width="2" stroke-opacity="1.000000"/>
   <line id="179" x1="7.554965" y1="76.312296" x2="112.272661" y2="76.312296" stroke="#5fd3bc" stroke-width="2" stroke-opacity="1.000000"/>
   <line id="180" x1="7.855220" y1="77.062296" x2="112.052441" y2="77.062296" stroke="#5fd3bc" stroke-width="2" stroke-opacity="1.000000"/>
   <line id="181" x1="8.155475" y1="77.812296" x2="111.832221" y2="77.812296" stroke="#5fd3bc" stroke-width="2" stroke-opacity="1.000000"/>
   <line id="182" x1="8.455730" y1="78.562296" x2="111.612001" y2="78.562296" stroke="#5fd3bc" stroke-width="2" stroke-opacity="1.000000"/>
   <line id="183" x1="8.755984" y1="79.312296" x2="111.391781" y2="79.312296" stroke="#5fd3bc" stroke-width="2" stroke-opacity="1.000000"/>
   <line id="184" x1="9.056239" y1="80.062296" x2="111.171561" y2="80.062296" stroke="#5fd3bc" stroke-width="2" stroke-opacity="1.000000"/>
   <line id="185" x1="9.356494" y1="80.812296" x2="110.869044" y2="80.812296" stroke="#5fd3bc" stroke-width="2" stroke-opacity="1.000000"/>
   <line id="186" x1="9.656749" y1="81.562296" x2="110.482392" y2="81.562296" stroke="#5fd3bc" stroke-width="2" stroke-opacity="1.000000"/>
   <line id="187" x1="9.957003" y1="82.312296" x2="110.095740" y2="82.312296" stroke="#5fd3bc" stroke-width="2" stroke-opacity="1.000000"/>
   <line id="188" x1="10.257258" y1="83.062296" x2="109.709088" y2="83.062296" stroke="#5fd3bc" stroke-width="2" stroke-opacity="1.000000"/>
   <line id="189" x1="10.557513" y1="83.812296" x2="109.322436" y2="83.812296" stroke="#5fd3bc" stroke-width="2" stroke-opacity="1.000000"/>
   <line id="190" x1="10.857767" y1="84.562296" x2="108.935785" y2="84.562296" stroke="#5fd3bc" stroke-width="2" stroke-opacity="1.000000"/>
   <line id="191" x1="11.184638" y1="85.312296" x2="108.549133" y2="85.312296" stroke="#5fd3bc" stroke-width="2" stroke-opacity="1.000000"/>
   <line id="192" x1="11.666634" y1="86.062296" x2="108.162481" y2="86.062296" stroke="#5fd3bc" stroke-width="2" stroke-opacity="1.000000"/>
   <line id="193" x1="12.148630" y1="86.812296" x2="107.775829" y2="86.812296" stroke="#5fd3bc" stroke-width="2" stroke-opacity="1.000000"/>
   <line id="194" x1="12.630625" y1="87.562296" x2="107.389177" y2="87.562296" stroke="#5fd3bc" stroke-width="2" stroke-opacity="1.000000"/>
   <line id="195" x1="13.112621" y1="88.312296" x2="107.002525" y2="88.312296" stroke="#5fd3bc" stroke-width="2" stroke-opacity="1.000000"/>
   <line id="196" x1="13.594617" y1="89.062296" x2="106.615873" y2="89.062296" stroke="#5fd3bc" stroke-width="2" stroke-opacity="1.000000"/>
   <line id="197" x1="14.076613" y1="89.812296" x2="106.208350" y2="89.812296" stroke="#5fd3bc" stroke-width="2" stroke-opacity="1.000000"/>
   <line id="198" x1="14.558609" y1="90.562296" x2="105.618544" y2="90.562296" stroke="#5fd3bc" stroke-width="2" stroke-opacity="1.000000"/>
   <line id="199" x1="15.040604" y1="91.312296" x2="105.028737" y2="91.312296" stroke="#5fd3bc" stroke-width="2" stroke-opacity="1.000000"/>
   <line id="200" x1="15.522600" y1="92.062296" x2="104.438931" y2="92.062296" stroke="#5fd3bc" stroke-width="2" stroke-opacity="1.000000"/>
   <line id="201" x1="16.004596" y1="92.812296" x2="103.849125" y2="92.812296" stroke="#5fd3bc" stroke-width="2" stroke-opacity="1.000000"/>
   <line id="202" x1="16.486592" y1="93.562296" x2="103.259318" y2="93.562296" stroke="#5fd3bc" stroke-width="2" stroke-opacity="1.000000"/>
   <line id="203" x1="17.066051" y1="94.312296" x2="102.669512" y2="94.312296" stroke="#5fd3bc" stroke-width="2" stroke-opacity="1.000000"/>
   <line id="204" x1="17.781175" y1="95.062296" x2="102.079705" y2="95.062296" stroke="#5fd3bc" stroke-width="2" stroke-opacity="1.000000"/>
   <line id="205" x1="18.496298" y1="95.812296" x2="101.489899" y2="95.812296" stroke="#5fd3bc" stroke-width="2" stroke-opacity="1.000000"/>
   <line id="206" x1="19.211422" y1="96.562296" x2="100.900092" y2="96.562296" stroke="#5fd3bc" stroke-width="2" stroke-opacity="1.000000"/>
   <line id="207" x1="19.926545" y1="97.312296" x2="100.310286" y2="97.312296" stroke="#5fd3bc" stroke-width="2" stroke-opacity="1.000000"/>
   <line id="208" x1="20.641669" y1="98.062296" x2="99.680791" y2="98.062296" stroke="#5fd3bc" stroke-width="2" stroke-opacity="1.000000"/>
   <line id="209" x1="21.356792" y1="98.812296" x2="98.815245" y2="98.812296" stroke="#5fd3bc" stroke-width="2" stroke-opacity="1.000000"/>
   <line id="210" x1="22.071916" y1="99.562296" x2="97.949699" y2="99.562296" stroke="#5fd3bc" stroke-width="2" stroke-opacity="1.000000"/>
   <line id="211" x1="22.787039" y1="100.312296" x2="97.084152" y2="100.312296" stroke="#5fd3bc" stroke-width="2" stroke-opacity="1.000000"/>
   <line id="212" x1="23.502163" y1="101.062296" x2="96.218606" y2="101.062296" stroke="#5fd3bc" stroke-width="2" stroke-opacity="1.000000"/>
   <line id="213" x1="24.328216" y1="101.812296" x2="95.353060" y2="101.812296" stroke="#5fd3bc" stroke-width="2" stroke-opacity="1.000000"/>
   <line id="214" x1="25.381443" y1="102.562296" x2="94.487514" y2="102.562296" stroke="#5fd3bc" stroke-width="2" stroke-opacity="1.000000"/>
   <line id="215" x1="26.434671" y1="103.312296" x2="93.621967" y2="103.312296" stroke="#5fd3bc" stroke-width="2" stroke-opacity="1.000000"/>
   <line id="216" x1="27.487899" y1="104.062296" x2="92.756421" y2="104.062296" stroke="#5fd3bc" stroke-width="2" stroke-opacity="1.000000"/>
   <line id="217" x1="28.541126" y1="104.812296" x2="91.884737" y2="104.812296" stroke="#5fd3bc" stroke-width="2" stroke-opacity="1.000000"/>
   <line id="218" x1="29.594354" y1="105.562296" x2="90.585699" y2="105.562296" stroke="#5fd3bc" stroke-width="2" stroke-opacity="1.000000"/>
   <line id="219" x1="30.647582" y1="106.312296" x2="89.286662" y2="106.312296" stroke="#5fd3bc" stroke-width="2" stroke-opacity="1.000000"/>
   <line id="220" x1="31.700809" y1="107.062296" x2="87.987624" y2="107.062296" stroke="#5fd3bc" stroke-width="2" stroke-opacity="1.000000"/>
   <line id="221" x1="32.896114" y1="107.812296" x2="86.688586" y2="107.812296" stroke="#5fd3bc" stroke-width="2" stroke-opacity="1.000000"/>
   <line id="222" x1="34.538384" y1="108.562296" x2="85.389548" y2="108.562296" stroke="#5fd3bc" stroke-width="2" stroke-opacity="1.000000"/>
   <line id="223" x1="36.180655" y1="109.312296" x2="84.090510" y2="109.312296" stroke="#5fd3bc" stroke-width="2" stroke-opacity="1.000000"/>
   <line id="224" x1="37.822926" y1="110.062296" x2="82.753819" y2="110.062296" stroke="#5fd3bc" stroke-width="2" stroke-opacity="1.000000"/>
   <line id="225" x1="39.465197" y1="110.812296" x2="80.586836" y2="110.812296" stroke="#5fd3bc" stroke-width="2" stroke-opacity="1.000000"/>
   <line id="226" x1="41.107468" y1="111.562296" x2="78.419853" y2="111.562296" stroke="#5fd3bc" stroke-width="2" stroke-opacity="1.000000"/>
   <line id="227" x1="43.401430" y1="112.312296" x2="76.252870" y2="112.312296" stroke="#5fd3bc" stroke-width="2" stroke-opacity="1.000000"/>
   <line id="228" x1="46.492972" y1="113.062296" x2="74.085887" y2="113.062296" stroke="#5fd3bc" stroke-width="2" stroke-opacity="1.000000"/>
   <line id="229" x1="49.584515" y1="113.812296" x2="70.444386" y2="113.812296" stroke="#5fd3bc" stroke-width="2" stroke-opacity="1.000000"/>
   <line id="230" x1="54.736232" y1="114.562296" x2="65.228024" y2="114.562296" stroke="#5fd3bc" stroke-width="2" stroke-opacity="1.000000"/>
   <!-- sel -->
   <rect x="4.7500" y="4.5600" width="110.7500" height="83.1600" stroke="red" fill="transparent" stroke-dasharray="5,3" stroke-width="1.5"/>
   <circle cx="115.0000" cy="60.0000" r="6.0" stroke="red" fill="none" stroke-width="2.0"/>
   <circle cx="114.0061" cy="70.4088" r="6.0" stroke="red" fill="none" stroke-width="2.0"/>
   <circle cx="111.0602" cy="80.4414" r="6.0" stroke="red" fill="none" stroke-width="2.0"/>
   <circle cx="11.1141" cy="85.2025" r="6.0" stroke="red" fill="none" stroke-width="2.0"/>
   <circle cx="7.2279" cy="75.4953" r="6.0" stroke="red" fill="none" stroke-width="2.0"/>
   <circle cx="5.2490" cy="65.2281" r="6.0" stroke="red" fill="none" stroke-width="2.0"/>
   <circle cx="5.2490" cy="54.7719" r="6.0" stroke="red" fill="none" stroke-width="2.0"/>
   <circle cx="7.2279" cy="44.5047" r="6.0" stroke="red" fill="none" stroke-width="2.0"/>
   <circle cx="11.1141" cy="34.7975" r="6.0" stroke="red" fill="none" stroke-width="2.0"/>
   <circle cx="16.7671" cy="26.0013" r="6.0" stroke="red" fill="none" stroke-width="2.0"/>
   <circle cx="23.9827" cy="18.4338" r="6.0" stroke="red" fill="none" stroke-width="2.0"/>
   <circle cx="32.5000" cy="12.3686" r="6.0" stroke="red" fill="none" stroke-width="2.0"/>
   <circle cx="42.0113" cy="8.0250" r="6.0" stroke="red" fill="none" stroke-width="2.0"/>
   <circle cx="52.1727" cy="5.5598" r="6.0" stroke="red" fill="none" stroke-width="2.0"/>
   <circle cx="62.6170" cy="5.0623" r="6.0" stroke="red" fill="none" stroke-width="2.0"/>
   <circle cx="72.9667" cy="6.5504" r="6.0" stroke="red" fill="none" stroke-width="2.0"/>
   <circle cx="82.8478" cy="9.9702" r="6.0" stroke="red" fill="none" stroke-width="2.0"/>
   <circle cx="91.9031" cy="15.1983" r="6.0" stroke="red" fill="none" stroke-width="2.0"/>
   <circle cx="99.8054" cy="22.0457" r="6.0" stroke="red" fill="none" stroke-width="2.0"/>
   <circle cx="106.2689" cy="30.2648" r="6.0" stroke="red" fill="none" stroke-width="2.0"/>
   <circle cx="111.0602" cy="39.5586" r="6.0" stroke="red" fill="none" stroke-width="2.0"/>
   <circle cx="114.0061" cy="49.5912" r="6.0" stroke="red" fill="none" stroke-width="2.0"/>
   <circle cx="114.0061" cy="70.4088" r="6.0" stroke="red" fill="none" stroke-width="2.0"/>
   <circle cx="111.0602" cy="80.4414" r="6.0" stroke="red" fill="none" stroke-width="2.0"/>
   <circle cx="7.2279" cy="75.4953" r="6.0" stroke="red" fill="none" stroke-width="2.0"/>
   <circle cx="5.2490" cy="65.2281" r="6.0" stroke="red" fill="none" stroke-width="2.0"/>
   <circle cx="5.2490" cy="54.7719" r="6.0" stroke="red" fill="none" stroke-width="2.0"/>
   <circle cx="5.2490" cy="54.7719" r="6.0" stroke="red" fill="none" stroke-width="2.0"/>
   <circle cx="7.2279" cy="44.5047" r="6.0" stroke="red" fill="none" stroke-width="2.0"/>
   <circle cx="11.1141" cy="34.7975" r="6.0" stroke="red" fill="none" stroke-width="2.0"/>
   <circle cx="16.7671" cy="26.0013" r="6.0" stroke="red" fill="none" stroke-width="2.0"/>
   <circle cx="23.9827" cy="18.4338" r="6.0" stroke="red" fill="none" stroke-width="2.0"/>
   <circle cx="32.5000" cy="12.3686" r="6.0" stroke="red" fill="none" stroke-width="2.0"/>
   <circle cx="42.0113" cy="8.0250" r="6.0" stroke="red" fill="none" stroke-width="2.0"/>
   <circle cx="52.1727" cy="5.5598" r="6.0" stroke="red" fill="none" stroke-width="2.0"/>
   <circle cx="62.6170" cy="5.0623" r="6.0" stroke="red" fill="none" stroke-width="2.0"/>
   <circle cx="72.9667" cy="6.5504" r="6.0" stroke="red" fill="none" stroke-width="2.0"/>
   <circle cx="82.8478" cy="9.9702" r="6.0" stroke="red" fill="none" stroke-width="2.0"/>
   <circle cx="91.9031" cy="15.1983" r="6.0" stroke="red" fill="none" stroke-width="2.0"/>
   <circle cx="99.8054" cy="22.0457" r="6.0" stroke="red" fill="none" stroke-width="2.0"/>
   <circle cx="106.2689" cy="30.2648" r="6.0" stroke="red" fill="none" stroke-width="2.0"/>
   <circle cx="111.0602" cy="39.5586" r="6.0" stroke="red" fill="none" stroke-width="2.0"/>
   <circle cx="114.0061" cy="49.5912" r="6.0" stroke="red" fill="none" stroke-width="2.0"/>
   <circle cx="51.1320" cy="5.8123" r="6.0" stroke="red" fill="none" stroke-width="2.0"/>
   <circle cx="48.0404" cy="6.5623" r="6.0" stroke="red" fill="none" stroke-width="2.0"/>
   <circle cx="44.9489" cy="7.3123" r="6.0" stroke="red" fill="none" stroke-width="2.0"/>
   <circle cx="41.9295" cy="8.0623" r="6.0" stroke="red" fill="none" stroke-width="2.0"/>
   <circle cx="40.2872" cy="8.8123" r="6.0" stroke="red" fill="none" stroke-width="2.0"/>
   <circle cx="38.6450" cy="9.5623" r="6.0" stroke="red" fill="none" stroke-width="2.0"/>
   <circle cx="37.0027" cy="10.3123" r="6.0" stroke="red" fill="none" stroke-width="2.0"/>
   <circle cx="35.3604" cy="11.0623" r="6.0" stroke="red" fill="none" stroke-width="2.0"/>
   <circle cx="33.7181" cy="11.8123" r="6.0" stroke="red" fill="none" stroke-width="2.0"/>
   <circle cx="32.2280" cy="12.5623" r="6.0" stroke="red" fill="none" stroke-width="2.0"/>
   <circle cx="31.1748" cy="13.3123" r="6.0" stroke="red" fill="none" stroke-width="2.0"/>
   <circle cx="30.1215" cy="14.0623" r="6.0" stroke="red" fill="none" stroke-width="2.0"/>
   <circle cx="29.0683" cy="14.8123" r="6.0" stroke="red" fill="none" stroke-width="2.0"/>
   <circle cx="28.0151" cy="15.5623" r="6.0" stroke="red" fill="none" stroke-width="2.0"/>
   <circle cx="26.9619" cy="16.3123" r="6.0" stroke="red" fill="none" stroke-width="2.0"/>
   <circle cx="25.9086" cy="17.0623" r="6.0" stroke="red" fill="none" stroke-width="2.0"/>
   <circle cx="24.8554" cy="17.8123" r="6.0" stroke="red" fill="none" stroke-width="2.0"/>
   <circle cx="23.8601" cy="18.5623" r="6.0" stroke="red" fill="none" stroke-width="2.0"/>
   <circle cx="23.1450" cy="19.3123" r="6.0" stroke="red" fill="none" stroke-width="2.0"/>
   <circle cx="22.4299" cy="20.0623" r="6.0" stroke="red" fill="none" stroke-width="2.0"/>
   <circle cx="21.7147" cy="20.8123" r="6.0" stroke="red" fill="none" stroke-width="2.0"/>
   <circle cx="20.9996" cy="21.5623" r="6.0" stroke="red" fill="none" stroke-width="2.0"/>
   <circle cx="20.2845" cy="22.3123" r="6.0" stroke="red" fill="none" stroke-width="2.0"/>
   <circle cx="19.5694" cy="23.0623" r="6.0" stroke="red" fill="none" stroke-width="2.0"/>
   <circle cx="18.8542" cy="23.8123" r="6.0" stroke="red" fill="none" stroke-width="2.0"/>
   <circle cx="18.1391" cy="24.5623" r="6.0" stroke="red" fill="none" stroke-width="2.0"/>
   <circle cx="17.4240" cy="25.3123" r="6.0" stroke="red" fill="none" stroke-width="2.0"/>
   <circle cx="16.7279" cy="26.0623" r="6.0" stroke="red" fill="none" stroke-width="2.0"/>
   <circle cx="16.2459" cy="26.8123" r="6.0" stroke="red" fill="none" stroke-width="2.0"/>
   <circle cx="15.7639" cy="27.5623" r="6.0" stroke="red" fill="none" stroke-width="2.0"/>
   <circle cx="15.2819" cy="28.3123" r="6.0" stroke="red" fill="none" stroke-width="2.0"/>
   <circle cx="14.7999" cy="29.0623" r="6.0" stroke="red" fill="none" stroke-width="2.0"/>
   <circle cx="14.3179" cy="29.8123" r="6.0" stroke="red" fill="none" stroke-width="2.0"/>
   <circle cx="13.8359" cy="30.5623" r="6.0" stroke="red" fill="none" stroke-width="2.0"/>
   <circle cx="13.3539" cy="31.3123" r="6.0" stroke="red" fill="none" stroke-width="2.0"/>
   <circle cx="12.8719" cy="32.0623" r="6.0" stroke="red" fill="none" stroke-width="2.0"/>
   <circle cx="12.3899" cy="32.8123" r="6.0" stroke="red" fill="none" stroke-width="2.0"/>
   <circle cx="11.9079" cy="33.5623" r="6.0" stroke="red" fill="none" stroke-width="2.0"/>
   <circle cx="11.4259" cy="34.3123" r="6.0" stroke="red" fill="none" stroke-width="2.0"/>
   <circle cx="11.0081" cy="35.0623" r="6.0" stroke="red" fill="none" stroke-width="2.0"/>
   <circle cx="10.7078" cy="35.8123" r="6.0" stroke="red" fill="none" stroke-width="2.0"/>
   <circle cx="10.4075" cy="36.5623" r="6.0" stroke="red" fill="none" stroke-width="2.0"/>
   <circle cx="10.1073" cy="37.3123" r="6.0" stroke="red" fill="none" stroke-width="2.0"/>
   <circle cx="9.8070" cy="38.0623" r="6.0" stroke="red" fill="none" stroke-width="2.0"/>
   <circle cx="9.5068" cy="38.8123" r="6.0" stroke="red" fill="none" stroke-width="2.0"/>
   <circle cx="9.2065" cy="39.5623" r="6.0" stroke="red" fill="none" stroke-width="2.0"/>
   <circle cx="8.9063" cy="40.3123" r="6.0" stroke="red" fill="none" stroke-width="2.0"/>
   <circle cx="8.6060" cy="41.0623" r="6.0" stroke="red" fill="none" stroke-width="2.0"/>
   <circle cx="8.3058" cy="41.8123" r="6.0" stroke="red" fill="none" stroke-width="2.0"/>
   <circle cx="8.0055" cy="42.5623" r="6.0" stroke="red" fill="none" stroke-width="2.0"/>
   <circle cx="7.7053" cy="43.3123" r="6.0" stroke="red" fill="none" stroke-width="2.0"/>
   <circle cx="7.4050" cy="44.0623" r="6.0" stroke="red" fill="none" stroke-width="2.0"/>
   <circle cx="7.1686" cy="44.8123" r="6.0" stroke="red" fill="none" stroke-width="2.0"/>
   <circle cx="7.0241" cy="45.5623" r="6.0" stroke="red" fill="none" stroke-width="2.0"/>
   <circle cx="6.8795" cy="46.3123" r="6.0" stroke="red" fill="none" stroke-width="2.0"/>
   <circle cx="6.7350" cy="47.0623" r="6.0" stroke="red" fill="none" stroke-width="2.0"/>
   <circle cx="6.5904" cy="47.8123" r="6.0" stroke="red" fill="none" stroke-width="2.0"/>
   <circle cx="6.4459" cy="48.5623" r="6.0" stroke="red" fill="none" stroke-width="2.0"/>
   <circle cx="6.3013" cy="49.3123" r="6.0" stroke="red" fill="none" stroke-width="2.0"/>
   <circle cx="6.1567" cy="50.0623" r="6.0" stroke="red" fill="none" stroke-width="2.0"/>
   <circle cx="6.0122" cy="50.8123" r="6.0" stroke="red" fill="none" stroke-width="2.0"/>
   <circle cx="5.8676" cy="51.5623" r="6.0" stroke="red" fill="none" stroke-width="2.0"/>
   <circle cx="5.7231" cy="52.3123" r="6.0" stroke="red" fill="none" stroke-width="2.0"/>
   <circle cx="5.5785" cy="53.0623" r="6.0" stroke="red" fill="none" stroke-width="2.0"/>
   <circle cx="5.4340" cy="53.8123" r="6.0" stroke="red" fill="none" stroke-width="2.0"/>
   <circle cx="5.2894" cy="54.5623" r="6.0" stroke="red" fill="none" stroke-width="2.0"/>
   <circle cx="5.2490" cy="55.3123" r="6.0" stroke="red" fill="none" stroke-width="2.0"/>
   <circle cx="5.2490" cy="56.0623" r="6.0" stroke="red" fill="none" stroke-width="2.0"/>
   <circle cx="5.2490" cy="56.8123" r="6.0" stroke="red" fill="none" stroke-width="2.0"/>
   <circle cx="5.2490" cy="57.5623" r="6.0" stroke="red" fill="none" stroke-width="2.0"/>
   <circle cx="5.2490" cy="58.3123" r="6.0" stroke="red" fill="none" stroke-width="2.0"/>
   <circle cx="5.2490" cy="59.0623" r="6.0" stroke="red" fill="none" stroke-width="2.0"/>
   <circle cx="5.2490" cy="59.8123" r="6.0" stroke="red" fill="none" stroke-width="2.0"/>
   <circle cx="5.2490" cy="60.5623" r="6.0" stroke="red" fill="none" stroke-width="2.0"/>
   <circle cx="5.2490" cy="61.3123" r="6.0" stroke="red" fill="none" stroke-width="2.0"/>
   <circle cx="5.2490" cy="62.0623" r="6.0" stroke="red" fill="none" stroke-width="2.0"/>
   <circle cx="5.2490" cy="62.8123" r="6.0" stroke="red" fill="none" stroke-width="2.0"/>
   <circle cx="5.2490" cy="63.5623" r="6.0" stroke="red" fill="none" stroke-width="2.0"/>
   <circle cx="5.2490" cy="64.3123" r="6.0" stroke="red" fill="none" stroke-width="2.0"/>
   <circle cx="5.2490" cy="65.0623" r="6.0" stroke="red" fill="none" stroke-width="2.0"/>
   <circle cx="5.3616" cy="65.8123" r="6.0" stroke="red" fill="none" stroke-width="2.0"/>
   <circle cx="5.5062" cy="66.5623" r="6.0" stroke="red" fill="none" stroke-width="2.0"/>
   <circle cx="5.6507" cy="67.3123" r="6.0" stroke="red" fill="none" stroke-width="2.0"/>
   <circle cx="5.7953" cy="68.0623" r="6.0" stroke="red" fill="none" stroke-width="2.0"/>
   <circle cx="5.9398" cy="68.8123" r="6.0" stroke="red" fill="none" stroke-width="2.0"/>
   <circle cx="6.0844" cy="69.5623" r="6.0" stroke="red" fill="none" stroke-width="2.0"/>
   <circle cx="6.2289" cy="70.3123" r="6.0" stroke="red" fill="none" stroke-width="2.0"/>
   <circle cx="6.3735" cy="71.0623" r="6.0" stroke="red" fill="none" stroke-width="2.0"/>
   <circle cx="6.5180" cy="71.8123" r="6.0" stroke="red" fill="none" stroke-width="2.0"/>
   <circle cx="6.6626" cy="72.5623" r="6.0" stroke="red" fill="none" stroke-width="2.0"/>
   <circle cx="6.8071" cy="73.3123" r="6.0" stroke="red" fill="none" stroke-width="2.0"/>
   <circle cx="6.9517" cy="74.0623" r="6.0" stroke="red" fill="none" stroke-width="2.0"/>
   <circle cx="7.0962" cy="74.8123" r="6.0" stroke="red" fill="none" stroke-width="2.0"/>
   <circle cx="7.2547" cy="75.5623" r="6.0" stroke="red" fill="none" stroke-width="2.0"/>
   <circle cx="7.5550" cy="76.3123" r="6.0" stroke="red" fill="none" stroke-width="2.0"/>
   <circle cx="7.8552" cy="77.0623" r="6.0" stroke="red" fill="none" stroke-width="2.0"/>
   <circle cx="8.1555" cy="77.8123" r="6.0" stroke="red" fill="none" stroke-width="2.0"/>
   <circle cx="8.4557" cy="78.5623" r="6.0" stroke="red" fill="none" stroke-width="2.0"/>
   <circle cx="8.7560" cy="79.3123" r="6.0" stroke="red" fill="none" stroke-width="2.0"/>
   <circle cx="9.0562" cy="80.0623" r="6.0" stroke="red" fill="none" stroke-width="2.0"/>
   <circle cx="9.3565" cy="80.8123" r="6.0" stroke="red" fill="none" stroke-width="2.0"/>
   <circle cx="9.6567" cy="81.5623" r="6.0" stroke="red" fill="none" stroke-width="2.0"/>
   <circle cx="9.9570" cy="82.3123" r="6.0" stroke="red" fill="none" stroke-width="2.0"/>
   <circle cx="10.2573" cy="83.0623" r="6.0" stroke="red" fill="none" stroke-width="2.0"/>
   <circle cx="10.5575" cy="83.8123" r="6.0" stroke="red" fill="none" stroke-width="2.0"/>
   <circle cx="10.8578" cy="84.5623" r="6.0" stroke="red" fill="none" stroke-width="2.0"/>
   <circle cx="11.1846" cy="85.3123" r="6.0" stroke="red" fill="none" stroke-width="2.0"/>
   <circle cx="11.6666" cy="86.0623" r="6.0" stroke="red" fill="none" stroke-width="2.0"/>
   <circle cx="12.1486" cy="86.8123" r="6.0" stroke="red" fill="none" stroke-width="2.0"/>
   <circle cx="12.6306" cy="87.5623" r="6.0" stroke="red" fill="none" stroke-width="2.0"/>
</g>
</svg>
