<?xml version="1.0" encoding="UTF-8"?>
<svg xmlns="http://www.w3.org/2000/svg" xmlns:xlink="http://www.w3.org/1999/xlink" width="140.0000" height="140.0000" viewBox="-10.0000 -10.0000 140.0000 140.0000">
<g id="fig">
   <text x="115.000000" y="60.000000" id="10" text-anchor="middle" fill="#916f6f" stroke="None" font-family="sans-serif" font-size="9pt" font-weight="lighter">De Sao Paulo tens o nome</text>
   <text x="98.890873" y="98.890873" id="11" text-anchor="middle" fill="#916f6f" stroke="None" font-family="sans-serif" font-size="9pt" font-weight="lighter">Que ostentas dignamente</text>
   <text x="60.000000" y="115.000000" id="12" text-anchor="middle" fill="#916f6f" stroke="None" font-family="sans-serif" font-size="9pt" font-weight="lighter">Salve o tricolor paulista</text>
   <text x="21.109127" y="98.890873" id="13" text-anchor="middle" fill="#916f6f" stroke="None" font-family="sans-serif" font-size="9pt" font-weight="lighter">Amado clube brasileiro</text>
   <text x="5.000000" y="60.000000" id="14" text-anchor="middle" fill="#916f6f" stroke="None" font-family="sans-serif" font-size="9pt" font-weight="lighter">Tu es forte, tu es grande</text>
   <text x="21.109127" y="21.109127" id="15" text-anchor="middle" fill="#916f6f" stroke="None" font-family="sans-serif" font-size="9pt" font-weight="lighter">Dentre os grandes es o primeiro</text>
   <text x="60.000000" y="5.000000" id="16" text-anchor="middle" fill="#916f6f" stroke="None" font-family="sans-serif" font-size="9pt" font-weight="lighter">Tu es forte, tu es grande</text>
   <text x="98.890873" y="21.109127" id="17" text-anchor="middle" fill="#916f6f" stroke="None" font-family="sans-serif" font-size="9pt" font-weight="lighter">Dentre os grandes es o primeiro</text>
   <line id="27" x1="98.890873" y1="98.890873" x2="60.000000" y2="115.000000" stroke="#5f5dd3" stroke-width="2" stroke-opacity="1.000000"/>
   <line id="28" x1="60.000000" y1="115.000000" x2="21.109127" y2="98.890873" stroke="#5f5dd3" stroke-width="2" stroke-opacity="1.000000"/>
   <line id="29" x1="21.109127" y1="98.890873" x2="5.000000" y2="60.000000" stroke="#5f5dd3" stroke-width="2" stroke-opacity="1.000000"/>
   <line id="30" x1="5.000000" y1="60.000000" x2="21.109127" y2="21.109127" stroke="#5f5dd3" stroke-width="2" stroke-opacity="1.000000"/>
   <line id="31" x1="21.109127" y1="21.109127" x2="60.000000" y2="5.000000" stroke="#5f5dd3" stroke-width="2" stroke-opacity="1.000000"/>
   <line id="32" x1="60.000000" y1="5.000000" x2="98.890873" y2="21.109127" stroke="#5f5dd3" stroke-width="2" stroke-opacity="1.000000"/>
   <line id="33" x1="98.890873" y1="21.109127" x2="115.000000" y2="60.000000" stroke="#5f5dd3" stroke-width="2" stroke-opacity="1.000000"/>
   <line id="34" x1="115.000000" y1="60.000000" x2="98.890873" y2="98.890873" stroke="#5f5dd3" stroke-width="2" stroke-opacity="1.000000"/>
   <line id="35" x1="58.189340" y1="5.750000" x2="61.810660" y2="5.750000" stroke="#5fd3bc" stroke-width="2" stroke-opacity="1.000000"/>
   <line id="36" x1="56.378680" y1="6.500000" x2="63.621320" y2="6.500000" stroke="#5fd3bc" stroke-width="2" stroke-opacity="1.000000"/>
   <line id="37" x1="54.568019" y1="7.250000" x2="65.431981" y2="7.250000" stroke="#5fd3bc" stroke-width="2" stroke-opacity="1.000000"/>
   <line id="38" x1="52.757359" y1="8.000000" x2="67.242641" y2="8.000000" stroke="#5fd3bc" stroke-width="2" stroke-opacity="1.000000"/>
   <line id="39" x1="50.946699" y1="8.750000" x2="69.053301" y2="8.750000" stroke="#5fd3bc" stroke-width="2" stroke-opacity="1.000000"/>
   <line id="40" x1="49.136039" y1="9.500000" x2="70.863961" y2="9.500000" stroke="#5fd3bc" stroke-width="2" stroke-opacity="1.000000"/>
   <line id="41" x1="47.325379" y1="10.250000" x2="72.674621" y2="10.250000" stroke="#5fd3bc" stroke-width="2" stroke-opacity="1.000000"/>
   <line id="42" x1="45.514719" y1="11.000000" x2="74.485281" y2="11.000000" stroke="#5fd3bc" stroke-width="2" stroke-opacity="1.000000"/>
   <line id="43" x1="43.704058" y1="11.750000" x2="76.295942" y2="11.750000" stroke="#5fd3bc" stroke-width="2" stroke-opacity="1.000000"/>
   <line id="44" x1="41.893398" y1="12.500000" x2="78.106602" y2="12.500000" stroke="#5fd3bc" stroke-width="2" stroke-opacity="1.000000"/>
   <line id="45" x1="40.082738" y1="13.250000" x2="79.917262" y2="13.250000" stroke="#5fd3bc" stroke-width="2" stroke-opacity="1.000000"/>
   <line id="46" x1="38.272078" y1="14.000000" x2="81.727922" y2="14.000000" stroke="#5fd3bc" stroke-width="2" stroke-opacity="1.000000"/>
   <line id="47" x1="36.461418" y1="14.750000" x2="83.538582" y2="14.750000" stroke="#5fd3bc" stroke-width="2" stroke-opacity="1.000000"/>
   <line id="48" x1="34.650758" y1="15.500000" x2="85.349242" y2="15.500000" stroke="#5fd3bc" stroke-width="2" stroke-opacity="1.000000"/>
   <line id="49" x1="32.840097" y1="16.250000" x2="87.159903" y2="16.250000" stroke="#5fd3bc" stroke-width="2" stroke-opacity="1.000000"/>
   <line id="50" x1="31.029437" y1="17.000000" x2="88.970563" y2="17.000000" stroke="#5fd3bc" stroke-width="2" stroke-opacity="1.000000"/>
   <line id="51" x1="29.218777" y1="17.750000" x2="90.781223" y2="17.750000" stroke="#5fd3bc" stroke-width="2" stroke-opacity="1.000000"/>
   <line id="52" x1="27.408117" y1="18.500000" x2="92.591883" y2="18.500000" stroke="#5fd3bc" stroke-width="2" stroke-opacity="1.000000"/>
   <line id="53" x1="25.597457" y1="19.250000" x2="94.402543" y2="19.250000" stroke="#5fd3bc" stroke-width="2" stroke-opacity="1.000000"/>
   <line id="54" x1="23.786796" y1="20.000000" x2="96.213204" y2="20.000000" stroke="#5fd3bc" stroke-width="2" stroke-opacity="1.000000"/>
   <line id="55" x1="21.976136" y1="20.750000" x2="98.023864" y2="20.750000" stroke="#5fd3bc" stroke-width="2" stroke-opacity="1.000000"/>
   <line id="56" x1="20.947222" y1="21.500000" x2="99.052778" y2="21.500000" stroke="#5fd3bc" stroke-width="2" stroke-opacity="1.000000"/>
   <line id="57" x1="20.636562" y1="22.250000" x2="99.363438" y2="22.250000" stroke="#5fd3bc" stroke-width="2" stroke-opacity="1.000000"/>
   <line id="58" x1="20.325902" y1="23.000000" x2="99.674098" y2="23.000000" stroke="#5fd3bc" stroke-width="2" stroke-opacity="1.000000"/>
   <line id="59" x1="20.015242" y1="23.750000" x2="99.984758" y2="23.750000" stroke="#5fd3bc" stroke-width="2" stroke-opacity="1.000000"/>
   <line id="60" x1="19.704581" y1="24.500000" x2="100.295419" y2="24.500000" stroke="#5fd3bc" stroke-width="2" stroke-opacity="1.000000"/>
   <line id="61" x1="19.393921" y1="25.250000" x2="100.606079" y2="25.250000" stroke="#5fd3bc" stroke-width="2" stroke-opacity="1.000000"/>
   <line id="62" x1="19.083261" y1="26.000000" x2="100.916739" y2="26.000000" stroke="#5fd3bc" stroke-width="2" stroke-opacity="1.000000"/>
   <line id="63" x1="18.772601" y1="26.750000" x2="101.227399" y2="26.750000" stroke="#5fd3bc" stroke-width="2" stroke-opacity="1.000000"/>
   <line id="64" x1="18.461941" y1="27.500000" x2="101.538059" y2="27.500000" stroke="#5fd3bc" stroke-width="2" stroke-opacity="1.000000"/>
   <line id="65" x1="18.151281" y1="28.250000" x2="101.848719" y2="28.250000" stroke="#5fd3bc" stroke-width="2" stroke-opacity="1.000000"/>
   <line id="66" x1="17.840620" y1="29.000000" x2="102.159380" y2="29.000000" stroke="#5fd3bc" stroke-width="2" stroke-opacity="1.000000"/>
   <line id="67" x1="17.529960" y1="29.750000" x2="102.470040" y2="29.750000" stroke="#5fd3bc" stroke-width="2" stroke-opacity="1.000000"/>
   <line id="68" x1="17.219300" y1="30.500000" x2="102.780700" y2="30.500000" stroke="#5fd3bc" stroke-width="2" stroke-opacity="1.000000"/>
   <line id="69" x1="16.908640" y1="31.250000" x2="103.091360" y2="31.250000" stroke="#5fd3bc" stroke-width="2" stroke-opacity="1.000000"/>
   <line id="70" x1="16.597980" y1="32.000000" x2="103.402020" y2="32.000000" stroke="#5fd3bc" stroke-width="2" stroke-opacity="1.000000"/>
   <line id="71" x1="16.287320" y1="32.750000" x2="103.712680" y2="32.750000" stroke="#5fd3bc" stroke-width="2" stroke-opacity="1.000000"/>
   <line id="72" x1="15.976659" y1="33.500000" x2="104.023341" y2="33.500000" stroke="#5fd3bc" stroke-width="2" stroke-opacity="1.000000"/>
   <line id="73" x1="15.665999" y1="34.250000" x2="104.334001" y2="34.250000" stroke="#5fd3bc" stroke-width="2" stroke-opacity="1.000000"/>
   <line id="74" x1="15.355339" y1="35.000000" x2="104.644661" y2="35.000000" stroke="#5fd3bc" stroke-width="2" stroke-opacity="1.000000"/>
   <line id="75" x1="15.044679" y1="35.750000" x2="104.955321" y2="35.750000" stroke="#5fd3bc" stroke-width="2" stroke-opacity="1.000000"/>
   <line id="76" x1="14.734019" y1="36.500000" x2="105.265981" y2="36.500000" stroke="#5fd3bc" stroke-width="2" stroke-opacity="1.000000"/>
   <line id="77" x1="14.423359" y1="37.250000" x2="105.576641" y2="37.250000" stroke="#5fd3bc" stroke-width="2" stroke-opacity="1.000000"/>
   <line id="78" x1="14.112698" y1="38.000000" x2="105.887302" y2="38.000000" stroke="#5fd3bc" stroke-width="2" stroke-opacity="1.000000"/>
   <line id="79" x1="13.802038" y1="38.750000" x2="106.197962" y2="38.750000" stroke="#5fd3bc" stroke-width="2" stroke-opacity="1.000000"/>
   <line id="80" x1="13.491378" y1="39.500000" x2="106.508622" y2="39.500000" stroke="#5fd3bc" stroke-width="2" stroke-opacity="1.000000"/>
   <line id="81" x1="13.180718" y1="40.250000" x2="106.819282" y2="40.250000" stroke="#5fd3bc" stroke-width="2" stroke-opacity="1.000000"/>
   <line id="82" x1="12.870058" y1="41.000000" x2="107.129942" y2="41.000000" stroke="#5fd3bc" stroke-width="2" stroke-opacity="1.000000"/>
   <line id="83" x1="12.559397" y1="41.750000" x2="107.440603" y2="41.750000" stroke="#5fd3bc" stroke-width="2" stroke-opacity="1.000000"/>
   <line id="84" x1="12.248737" y1="42.500000" x2="107.751263" y2="42.500000" stroke="#5fd3bc" stroke-width="2" stroke-opacity="1.000000"/>
   <line id="85" x1="11.938077" y1="43.250000" x2="108.061923" y2="43.250000" stroke="#5fd3bc" stroke-width="2" stroke-opacity="1.000000"/>
   <line id="86" x1="11.627417" y1="44.000000" x2="108.372583" y2="44.000000" stroke="#5fd3bc" stroke-width="2" stroke-opacity="1.000000"/>
   <line id="87" x1="11.316757" y1="44.750000" x2="108.683243" y2="44.750000" stroke="#5fd3bc" stroke-width="2" stroke-opacity="1.000000"/>
   <line id="88" x1="11.006097" y1="45.500000" x2="108.993903" y2="45.500000" stroke="#5fd3bc" stroke-width="2" stroke-opacity="1.000000"/>
   <line id="89" x1="10.695436" y1="46.250000" x2="109.304564" y2="46.250000" stroke="#5fd3bc" stroke-width="2" stroke-opacity="1.000000"/>
   <line id="90" x1="10.384776" y1="47.000000" x2="109.615224" y2="47.000000" stroke="#5fd3bc" stroke-width="2" stroke-opacity="1.000000"/>
   <line id="91" x1="10.074116" y1="47.750000" x2="109.925884" y2="47.750000" stroke="#5fd3bc" stroke-width="2" stroke-opacity="1.000000"/>
   <line id="92" x1="9.763456" y1="48.500000" x2="110.236544" y2="48.500000" stroke="#5fd3bc" stroke-width="2" stroke-opacity="1.000000"/>
   <line id="93" x1="9.452796" y1="49.250000" x2="110.547204" y2="49.250000" stroke="#5fd3bc" stroke-width="2" stroke-opacity="1.000000"/>
   <line id="94" x1="9.142136" y1="50.000000" x2="110.857864" y2="50.000000" stroke="#5fd3bc" stroke-width="2" stroke-opacity="1.000000"/>
   <line id="95" x1="8.831475" y1="50.750000" x2="111.168525" y2="50.750000" stroke="#5fd3bc" stroke-width="2" stroke-opacity="1.000000"/>
   <line id="96" x1="8.520815" y1="51.500000" x2="111.479185" y2="51.500000" stroke="#5fd3bc" stroke-width="2" stroke-opacity="1.000000"/>
   <line id="97" x1="8.210155" y1="52.250000" x2="111.789845" y2="52.250000" stroke="#5fd3bc" stroke-width="2" stroke-opacity="1.000000"/>
   <line id="98" x1="7.899495" y1="53.000000" x2="112.100505" y2="53.000000" stroke="#5fd3bc" stroke-width="2" stroke-opacity="1.000000"/>
   <line id="99" x1="7.588835" y1="53.750000" x2="112.411165" y2="53.750000" stroke="#5fd3bc" stroke-width="2" stroke-opacity="1.000000"/>
   <line id="100" x1="7.278175" y1="54.500000" x2="112.721825" y2="54.500000" stroke="#5fd3bc" stroke-width="2" stroke-opacity="1.000000"/>
   <line id="101" x1="6.967514" y1="55.250000" x2="113.032486" y2="55.250000" stroke="#5fd3bc" stroke-width="2" stroke-opacity="1.000000"/>
   <line id="102" x1="6.656854" y1="56.000000" x2="113.343146" y2="56.000000" stroke="#5fd3bc" stroke-width="2" stroke-opacity="1.000000"/>
   <line id="103" x1="6.346194" y1="56.750000" x2="113.653806" y2="56.750000" stroke="#5fd3bc" stroke-width="2" stroke-opacity="1.000000"/>
   <line id="104" x1="6.035534" y1="57.500000" x2="113.964466" y2="57.500000" stroke="#5fd3bc" stroke-width="2" stroke-opacity="1.000000"/>
   <line id="105" x1="5.724874" y1="58.250000" x2="114.275126" y2="58.250000" stroke="#5fd3bc" stroke-width="2" stroke-opacity="1.000000"/>
   <line id="106" x1="5.414214" y1="59.000000" x2="114.585786" y2="59.000000" stroke="#5fd3bc" stroke-width="2" stroke-opacity="1.000000"/>
   <line id="107" x1="5.103553" y1="59.750000" x2="114.896447" y2="59.750000" stroke="#5fd3bc" stroke-width="2" stroke-opacity="1.000000"/>
   <line id="108" x1="5.207107" y1="60.500000" x2="114.792893" y2="60.500000" stroke="#5fd3bc" stroke-width="2" stroke-opacity="1.000000"/>
   <line id="109" x1="5.517767" y1="61.250000" x2="114.482233" y2="61.250000" stroke="#5fd3bc" stroke-width="2" stroke-opacity="1.000000"/>
   <line id="110" x1="5.828427" y1="62.000000" x2="114.171573" y2="62.000000" stroke="#5fd3bc" stroke-width="2" stroke-opacity="1.000000"/>
   <line id="111" x1="6.139087" y1="62.750000" x2="113.860913" y2="62.750000" stroke="#5fd3bc" stroke-width="2" stroke-opacity="1.000000"/>
   <line id="112" x1="6.449747" y1="63.500000" x2="113.550253" y2="63.500000" stroke="#5fd3bc" stroke-width="2" stroke-opacity="1.000000"/>
   <line id="113" x1="6.760408" y1="64.250000" x2="113.239592" y2="64.250000" stroke="#5fd3bc" stroke-width="2" stroke-opacity="1.000000"/>
   <line id="114" x1="7.071068" y1="65.000000" x2="112.928932" y2="65.000000" stroke="#5fd3bc" stroke-width="2" stroke-opacity="1.000000"/>
   <line id="115" x1="7.381728" y1="65.750000" x2="112.618272" y2="65.750000" stroke="#5fd3bc" stroke-width="2" stroke-opacity="1.000000"/>
   <line id="116" x1="7.692388" y1="66.500000" x2="112.307612" y2="66.500000" stroke="#5fd3bc" stroke-width="2" stroke-opacity="1.000000"/>
   <line id="117" x1="8.003048" y1="67.250000" x2="111.996952" y2="67.250000" stroke="#5fd3bc" stroke-width="2" stroke-opacity="1.000000"/>
   <line id="118" x1="8.313708" y1="68.000000" x2="111.686292" y2="68.000000" stroke="#5fd3bc" stroke-width="2" stroke-opacity="1.000000"/>
   <line id="119" x1="8.624369" y1="68.750000" x2="111.375631" y2="68.750000" stroke="#5fd3bc" stroke-width="2" stroke-opacity="1.000000"/>
   <line id="120" x1="8.935029" y1="69.500000" x2="111.064971" y2="69.500000" stroke="#5fd3bc" stroke-width="2" stroke-opacity="1.000000"/>
   <line id="121" x1="9.245689" y1="70.250000" x2="110.754311" y2="70.250000" stroke="#5fd3bc" stroke-width="2" stroke-opacity="1.000000"/>
   <line id="122" x1="9.556349" y1="71.000000" x2="110.443651" y2="71.000000" stroke="#5fd3bc" stroke-width="2" stroke-opacity="1.000000"/>
   <line id="123" x1="9.867009" y1="71.750000" x2="110.132991" y2="71.750000" stroke="#5fd3bc" stroke-width="2" stroke-opacity="1.000000"/>
   <line id="124" x1="10.177670" y1="72.500000" x2="109.822330" y2="72.500000" stroke="#5fd3bc" stroke-width="2" stroke-opacity="1.000000"/>
   <line id="125" x1="10.488330" y1="73.250000" x2="109.511670" y2="73.250000" stroke="#5fd3bc" stroke-width="2" stroke-opacity="1.000000"/>
   <line id="126" x1="10.798990" y1="74.000000" x2="109.201010" y2="74.000000" stroke="#5fd3bc" stroke-width="2" stroke-opacity="1.000000"/>
   <line id="127" x1="11.109650" y1="74.750000" x2="108.890350" y2="74.750000" stroke="#5fd3bc" stroke-width="2" stroke-opacity="1.000000"/>
   <line id="128" x1="11.420310" y1="75.500000" x2="108.579690" y2="75.500000" stroke="#5fd3bc" stroke-width="2" stroke-opacity="1.000000"/>
   <line id="129" x1="11.730970" y1="76.250000" x2="108.269030" y2="76.250000" stroke="#5fd3bc" stroke-width="2" stroke-opacity="1.000000"/>
   <line id="130" x1="12.041631" y1="77.000000" x2="107.958369" y2="77.000000" stroke="#5fd3bc" stroke-width="2" stroke-opacity="1.000000"/>
   <line id="131" x1="12.352291" y1="77.750000" x2="107.647709" y2="77.750000" stroke="#5fd3bc" stroke-width="2" stroke-opacity="1.000000"/>
   <line id="132" x1="12.662951" y1="78.500000" x2="107.337049" y2="78.500000" stroke="#5fd3bc" stroke-width="2" stroke-opacity="1.000000"/>
   <line id="133" x1="12.973611" y1="79.250000" x2="107.026389" y2="79.250000" stroke="#5fd3bc" stroke-width="2" stroke-opacity="1.000000"/>
   <line id="134" x1="13.284271" y1="80.000000" x2="106.715729" y2="80.000000" stroke="#5fd3bc" stroke-width="2" stroke-opacity="1.000000"/>
   <line id="135" x1="13.594931" y1="80.750000" x2="106.405069" y2="80.750000" stroke="#5fd3bc" stroke-width="2" stroke-opacity="1.000000"/>
   <line id="136" x1="13.905592" y1="81.500000" x2="106.094408" y2="81.500000" stroke="#5fd3bc" stroke-width="2" stroke-opacity="1.000000"/>
   <line id="137" x1="14.216252" y1="82.250000" x2="105.783748" y2="82.250000" stroke="#5fd3bc" stroke-width="2" stroke-opacity="1.000000"/>
   <line id="138" x1="14.526912" y1="83.000000" x2="105.473088" y2="83.000000" stroke="#5fd3bc" stroke-width="2" stroke-opacity="1.000000"/>
   <line id="139" x1="14.837572" y1="83.750000" x2="105.162428" y2="83.750000" stroke="#5fd3bc" stroke-width="2" stroke-opacity="1.000000"/>
   <line id="140" x1="15.148232" y1="84.500000" x2="104.851768" y2="84.500000" stroke="#5fd3bc" stroke-width="2" stroke-opacity="1.000000"/>
   <line id="141" x1="15.458892" y1="85.250000" x2="104.541108" y2="85.250000" stroke="#5fd3bc" stroke-width="2" stroke-opacity="1.000000"/>
   <line id="142" x1="15.769553" y1="86.000000" x2="104.230447" y2="86.000000" stroke="#5fd3bc" stroke-width="2" stroke-opacity="1.000000"/>
   <line id="143" x1="16.080213" y1="86.750000" x2="103.919787" y2="86.750000" stroke="#5fd3bc" stroke-width="2" stroke-opacity="1.000000"/>
   <line id="144" x1="16.390873" y1="87.500000" x2="103.609127" y2="87.500000" stroke="#5fd3bc" stroke-width="2" stroke-opacity="1.000000"/>
   <line id="145" x1="16.701533" y1="88.250000" x2="103.298467" y2="88.250000" stroke="#5fd3bc" stroke-width="2" stroke-opacity="1.000000"/>
   <line id="146" x1="17.012193" y1="89.000000" x2="102.987807" y2="89.000000" stroke="#5fd3bc" stroke-width="2" stroke-opacity="1.000000"/>
   <line id="147" x1="17.322853" y1="89.750000" x2="102.677147" y2="89.750000" stroke="#5fd3bc" stroke-width="2" stroke-opacity="1.000000"/>
   <line id="148" x1="17.633514" y1="90.500000" x2="102.366486" y2="90.500000" stroke="#5fd3bc" stroke-width="2" stroke-opacity="1.000000"/>
   <line id="149" x1="17.944174" y1="91.250000" x2="102.055826" y2="91.250000" stroke="#5fd3bc" stroke-width="2" stroke-opacity="1.000000"/>
   <line id="150" x1="18.254834" y1="92.000000" x2="101.745166" y2="92.000000" stroke="#5fd3bc" stroke-width="2" stroke-opacity="1.000000"/>
   <line id="151" x1="18.565494" y1="92.750000" x2="101.434506" y2="92.750000" stroke="#5fd3bc" stroke-width="2" stroke-opacity="1.000000"/>
   <line id="152" x1="18.876154" y1="93.500000" x2="101.123846" y2="93.500000" stroke="#5fd3bc" stroke-width="2" stroke-opacity="1.000000"/>
   <line id="153" x1="19.186814" y1="94.250000" x2="100.813186" y2="94.250000" stroke="#5fd3bc" stroke-width="2" stroke-opacity="1.000000"/>
   <line id="154" x1="19.497475" y1="95.000000" x2="100.502525" y2="95.000000" stroke="#5fd3bc" stroke-width="2" stroke-opacity="1.000000"/>
   <line id="155" x1="19.808135" y1="95.750000" x2="100.191865" y2="95.750000" stroke="#5fd3bc" stroke-width="2" stroke-opacity="1.000000"/>
   <line id="156" x1="20.118795" y1="96.500000" x2="99.881205" y2="96.500000" stroke="#5fd3bc" stroke-width="2" stroke-opacity="1.000000"/>
   <line id="157" x1="20.429455" y1="97.250000" x2="99.570545" y2="97.250000" stroke="#5fd3bc" stroke-width="2" stroke-opacity="1.000000"/>
   <line id="158" x1="20.740115" y1="98.000000" x2="99.259885" y2="98.000000" stroke="#5fd3bc" stroke-width="2" stroke-opacity="1.000000"/>
   <line id="159" x1="21.050775" y1="98.750000" x2="98.949225" y2="98.750000" stroke="#5fd3bc" stroke-width="2" stroke-opacity="1.000000"/>
   <line id="160" x1="22.579690" y1="99.500000" x2="97.420310" y2="99.500000" stroke="#5fd3bc" stroke-width="2" stroke-opacity="1.000000"/>
   <line id="161" x1="24.390350" y1="100.250000" x2="95.609650" y2="100.250000" stroke="#5fd3bc" stroke-width="2" stroke-opacity="1.000000"/>
   <line id="162" x1="26.201010" y1="101.000000" x2="93.798990" y2="101.000000" stroke="#5fd3bc" stroke-width="2" stroke-opacity="1.000000"/>
   <line id="163" x1="28.011670" y1="101.750000" x2="91.988330" y2="101.750000" stroke="#5fd3bc" stroke-width="2" stroke-opacity="1.000000"/>
   <line id="164" x1="29.822330" y1="102.500000" x2="90.177670" y2="102.500000" stroke="#5fd3bc" stroke-width="2" stroke-opacity="1.000000"/>
   <line id="165" x1="31.632991" y1="103.250000" x2="88.367009" y2="103.250000" stroke="#5fd3bc" stroke-width="2" stroke-opacity="1.000000"/>
   <line id="166" x1="33.443651" y1="104.000000" x2="86.556349" y2="104.000000" stroke="#5fd3bc" stroke-width="2" stroke-opacity="1.000000"/>
   <line id="167" x1="35.254311" y1="104.750000" x2="84.745689" y2="104.750000" stroke="#5fd3bc" stroke-width="2" stroke-opacity="1.000000"/>
   <line id="168" x1="37.064971" y1="105.500000" x2="82.935029" y2="105.500000" stroke="#5fd3bc" stroke-width="2" stroke-opacity="1.000000"/>
   <line id="169" x1="38.875631" y1="106.250000" x2="81.124369" y2="106.250000" stroke="#5fd3bc" stroke-width="2" stroke-opacity="1.000000"/>
   <line id="170" x1="40.686291" y1="107.000000" x2="79.313709" y2="107.000000" stroke="#5fd3bc" stroke-width="2" stroke-opacity="1.000000"/>
   <line id="171" x1="42.496952" y1="107.750000" x2="77.503048" y2="107.750000" stroke="#5fd3bc" stroke-width="2" stroke-opacity="1.000000"/>
   <line id="172" x1="44.307612" y1="108.500000" x2="75.692388" y2="108.500000" stroke="#5fd3bc" stroke-width="2" stroke-opacity="1.000000"/>
   <line id="173" x1="46.118272" y1="109.250000" x2="73.881728" y2="109.250000" stroke="#5fd3bc" stroke-width="2" stroke-opacity="1.000000"/>
   <line id="174" x1="47.928932" y1="110.000000" x2="72.071068" y2="110.000000" stroke="#5fd3bc" stroke-width="2" stroke-opacity="1.000000"/>
   <line id="175" x1="49.739592" y1="110.750000" x2="70.260408" y2="110.750000" stroke="#5fd3bc" stroke-width="2" stroke-opacity="1.000000"/>
   <line id="176" x1="51.550253" y1="111.500000" x2="68.449747" y2="111.500000" stroke="#5fd3bc" stroke-width="2" stroke-opacity="1.000000"/>
   <line id="177" x1="53.360913" y1="112.250000" x2="66.639087" y2="112.250000" stroke="#5fd3bc" stroke-width="2" stroke-opacity="1.000000"/>
   <line id="178" x1="55.171573" y1="113.000000" x2="64.828427" y2="113.000000" stroke="#5fd3bc" stroke-width="2" stroke-opacity="1.000000"/>
   <line id="179" x1="56.982233" y1="113.750000" x2="63.017767" y2="113.750000" stroke="#5fd3bc" stroke-width="2" stroke-opacity="1.000000"/>
   <line id="180" x1="58.792893" y1="114.500000" x2="61.207107" y2="114.500000" stroke="#5fd3bc" stroke-width="2" stroke-opacity="1.000000"/>
   <line id="27" x1="98.890873" y1="98.890873" x2="60.000000" y2="115.000000" stroke="#5f5dd3" stroke-width="2" stroke-opacity="1.000000"/>
   <line id="28" x1="60.000000" y1="115.000000" x2="21.109127" y2="98.890873" stroke="#5f5dd3" stroke-width="2" stroke-opacity="1.000000"/>
   <line id="29" x1="21.109127" y1="98.890873" x2="5.000000" y2="60.000000" stroke="#5f5dd3" stroke-width="2" stroke-opacity="1.000000"/>
   <line id="30" x1="5.000000" y1="60.000000" x2="21.109127" y2="21.109127" stroke="#5f5dd3" stroke-width="2" stroke-opacity="1.000000"/>
   <line id="31" x1="21.109127" y1="21.109127" x2="60.000000" y2="5.000000" stroke="#5f5dd3" stroke-width="2" stroke-opacity="1.000000"/>
   <line id="32" x1="60.000000" y1="5.000000" x2="98.890873" y2="21.109127" stroke="#5f5dd3" stroke-width="2" stroke-opacity="1.000000"/>
   <line id="33" x1="98.890873" y1="21.109127" x2="115.000000" y2="60.000000" stroke="#5f5dd3" stroke-width="2" stroke-opacity="1.000000"/>
   <line id="34" x1="115.000000" y1="60.000000" x2="98.890873" y2="98.890873" stroke="#5f5dd3" stroke-width="2" stroke-opacity="1.000000"/>
   <line id="35" x1="58.189340" y1="5.750000" x2="61.810660" y2="5.750000" stroke="#5fd3bc" stroke-width="2" stroke-opacity="1.000000"/>
   <line id="36" x1="56.378680" y1="6.500000" x2="63.621320" y2="6.500000" stroke="#5fd3bc" stroke-width="2" stroke-opacity="1.000000"/>
   <line id="37" x1="54.568019" y1="7.250000" x2="65.431981" y2="7.250000" stroke="#5fd3bc" stroke-width="2" stroke-opacity="1.000000"/>
   <line id="38" x1="52.757359" y1="8.000000" x2="67.242641" y2="8.000000" stroke="#5fd3bc" stroke-width="2" stroke-opacity="1.000000"/>
   <line id="39" x1="50.946699" y1="8.750000" x2="69.053301" y2="8.750000" stroke="#5fd3bc" stroke-width="2" stroke-opacity="1.000000"/>
   <line id="40" x1="49.136039" y1="9.500000" x2="70.863961" y2="9.500000" stroke="#5fd3bc" stroke-width="2" stroke-opacity="1.000000"/>
   <line id="41" x1="47.325379" y1="10.250000" x2="72.674621" y2="10.250000" stroke="#5fd3bc" stroke-width="2" stroke-opacity="1.000000"/>
   <line id="42" x1="45.514719" y1="11.000000" x2="74.485281" y2="11.000000" stroke="#5fd3bc" stroke-width="2" stroke-opacity="1.000000"/>
   <line id="43" x1="43.704058" y1="11.750000" x2="76.295942" y2="11.750000" stroke="#5fd3bc" stroke-width="2" stroke-opacity="1.000000"/>
   <line id="44" x1="41.893398" y1="12.500000" x2="78.106602" y2="12.500000" stroke="#5fd3bc" stroke-width="2" stroke-opacity="1.000000"/>
   <line id="45" x1="40.082738" y1="13.250000" x2="79.917262" y2="13.250000" stroke="#5fd3bc" stroke-width="2" stroke-opacity="1.000000"/>
   <line id="46" x1="38.272078" y1="14.000000" x2="81.727922" y2="14.000000" stroke="#5fd3bc" stroke-width="2" stroke-opacity="1.000000"/>
   <line id="47" x1="36.461418" y1="14.750000" x2="83.538582" y2="14.750000" stroke="#5fd3bc" stroke-width="2" stroke-opacity="1.000000"/>
   <line id="48" x1="34.650758" y1="15.500000" x2="85.349242" y2="15.500000" stroke="#5fd3bc" stroke-width="2" stroke-opacity="1.000000"/>
   <line id="49" x1="32.840097" y1="16.250000" x2="87.159903" y2="16.250000" stroke="#5fd3bc" stroke-width="2" stroke-opacity="1.000000"/>
   <line id="50" x1="31.029437" y1="17.000000" x2="88.970563" y2="17.000000" stroke="#5fd3bc" stroke-width="2" stroke-opacity="1.000000"/>
   <line id="51" x1="29.218777" y1="17.750000" x2="90.781223" y2="17.750000" stroke="#5fd3bc" stroke-width="2" stroke-opacity="1.000000"/>
   <line id="52" x1="27.408117" y1="18.500000" x2="92.591883" y2="18.500000" stroke="#5fd3bc" stroke-width="2" stroke-opacity="1.000000"/>
   <line id="53" x1="25.597457" y1="19.250000" x2="94.402543" y2="19.250000" stroke="#5fd3bc" stroke-width="2" stroke-opacity="1.000000"/>
   <line id="54" x1="23.786796" y1="20.000000" x2="96.213204" y2="20.000000" stroke="#5fd3bc" stroke-width="2" stroke-opacity="1.000000"/>
   <line id="55" x1="21.976136" y1="20.750000" x2="98.023864" y2="20.750000" stroke="#5fd3bc" stroke-width="2" stroke-opacity="1.000000"/>
   <line id="56" x1="20.947222" y1="21.500000" x2="99.052778" y2="21.500000" stroke="#5fd3bc" stroke-width="2" stroke-opacity="1.000000"/>
   <line id="57" x1="20.636562" y1="22.250000" x2="99.363438" y2="22.250000" stroke="#5fd3bc" stroke-width="2" stroke-opacity="1.000000"/>
   <line id="58" x1="20.325902" y1="23.000000" x2="99.674098" y2="23.000000" stroke="#5fd3bc" stroke-width="2" stroke-opacity="1.000000"/>
   <line id="59" x1="20.015242" y1="23.750000" x2="99.984758" y2="23.750000" stroke="#5fd3bc" stroke-width="2" stroke-opacity="1.000000"/>
   <line id="60" x1="19.704581" y1="24.500000" x2="100.295419" y2="24.500000" stroke="#5fd3bc" stroke-width="2" stroke-opacity="1.000000"/>
   <line id="61" x1="19.393921" y1="25.250000" x2="100.606079" y2="25.250000" stroke="#5fd3bc" stroke-width="2" stroke-opacity="1.000000"/>
   <line id="62" x1="19.083261" y1="26.000000" x2="100.916739" y2="26.000000" stroke="#5fd3bc" stroke-width="2" stroke-opacity="1.000000"/>
   <line id="63" x1="18.772601" y1="26.750000" x2="101.227399" y2="26.750000" stroke="#5fd3bc" stroke-width="2" stroke-opacity="1.000000"/>
   <line id="64" x1="18.461941" y1="27.500000" x2="101.538059" y2="27.500000" stroke="#5fd3bc" stroke-width="2" stroke-opacity="1.000000"/>
   <line id="65" x1="18.151281" y1="28.250000" x2="101.848719" y2="28.250000" stroke="#5fd3bc" stroke-width="2" stroke-opacity="1.000000"/>
   <line id="66" x1="17.840620" y1="29.000000" x2="102.159380" y2="29.000000" stroke="#5fd3bc" stroke-width="2" stroke-opacity="1.000000"/>
   <line id="67" x1="17.529960" y1="29.750000" x2="102.470040" y2="29.750000" stroke="#5fd3bc" stroke-width="2" stroke-opacity="1.000000"/>
   <line id="68" x1="17.219300" y1="30.500000" x2="102.780700" y2="30.500000" stroke="#5fd3bc" stroke-width="2" stroke-opacity="1.000000"/>
   <line id="69" x1="16.908640" y1="31.250000" x2="103.091360" y2="31.250000" stroke="#5fd3bc" stroke-width="2" stroke-opacity="1.000000"/>
   <line id="70" x1="16.597980" y1="32.000000" x2="103.402020" y2="32.000000" stroke="#5fd3bc" stroke-width="2" stroke-opacity="1.000000"/>
   <line id="71" x1="16.287320" y1="32.750000" x2="103.712680" y2="32.750000" stroke="#5fd3bc" stroke-width="2" stroke-opacity="1.000000"/>
   <line id="72" x1="15.976659" y1="33.500000" x2="104.023341" y2="33.500000" stroke="#5fd3bc" stroke-width="2" stroke-opacity="1.000000"/>
   <line id="73" x1="15.665999" y1="34.250000" x2="104.334001" y2="34.250000" stroke="#5fd3bc" stroke-width="2" stroke-opacity="1.000000"/>
   <line id="74" x1="15.355339" y1="35.000000" x2="104.644661" y2="35.000000" stroke="#5fd3bc" stroke-width="2" stroke-opacity="1.000000"/>
   <line id="75" x1="15.044679" y1="35.750000" x2="104.955321" y2="35.750000" stroke="#5fd3bc" stroke-width="2" stroke-opacity="1.000000"/>
   <line id="76" x1="14.734019" y1="36.500000" x2="105.265981" y2="36.500000" stroke="#5fd3bc" stroke-width="2" stroke-opacity="1.000000"/>
   <line id="77" x1="14.423359" y1="37.250000" x2="105.576641" y2="37.250000" stroke="#5fd3bc" stroke-width="2" stroke-opacity="1.000000"/>
   <line id="78" x1="14.112698" y1="38.000000" x2="105.887302" y2="38.000000" stroke="#5fd3bc" stroke-width="2" stroke-opacity="1.000000"/>
   <line id="79" x1="13.802038" y1="38.750000" x2="106.197962" y2="38.750000" stroke="#5fd3bc" stroke-width="2" stroke-opacity="1.000000"/>
   <line id="80" x1="13.491378" y1="39.500000" x2="106.508622" y2="39.500000" stroke="#5fd3bc" stroke-width="2" stroke-opacity="1.000000"/>
   <line id="81" x1="13.180718" y1="40.250000" x2="106.819282" y2="40.250000" stroke="#5fd3bc" stroke-width="2" stroke-opacity="1.000000"/>
   <line id="82" x1="12.870058" y1="41.000000" x2="107.129942" y2="41.000000" stroke="#5fd3bc" stroke-width="2" stroke-opacity="1.000000"/>
   <line id="83" x1="12.559397" y1="41.750000" x2="107.440603" y2="41.750000" stroke="#5fd3bc" stroke-width="2" stroke-opacity="1.000000"/>
   <line id="84" x1="12.248737" y1="42.500000" x2="107.751263" y2="42.500000" stroke="#5fd3bc" stroke-width="2" stroke-opacity="1.000000"/>
   <line id="85" x1="11.938077" y1="43.250000" x2="108.061923" y2="43.250000" stroke="#5fd3bc" stroke-width="2" stroke-opacity="1.000000"/>
   <line id="86" x1="11.627417" y1="44.000000" x2="108.372583" y2="44.000000" stroke="#5fd3bc" stroke-width="2" stroke-opacity="1.000000"/>
   <line id="87" x1="11.316757" y1="44.750000" x2="108.683243" y2="44.750000" stroke="#5fd3bc" stroke-width="2" stroke-opacity="1.000000"/>
   <line id="88" x1="11.006097" y1="45.500000" x2="108.993903" y2="45.500000" stroke="#5fd3bc" stroke-width="2" stroke-opacity="1.000000"/>
   <line id="89" x1="10.695436" y1="46.250000" x2="109.304564" y2="46.250000" stroke="#5fd3bc" stroke-width="2" stroke-opacity="1.000000"/>
   <line id="90" x1="10.384776" y1="47.000000" x2="109.615224" y2="47.000000" stroke="#5fd3bc" stroke-width="2" stroke-opacity="1.000000"/>
   <line id="91" x1="10.074116" y1="47.750000" x2="109.925884" y2="47.750000" stroke="#5fd3bc" stroke-width="2" stroke-opacity="1.000000"/>
   <line id="92" x1="9.763456" y1="48.500000" x2="110.236544" y2="48.500000" stroke="#5fd3bc" stroke-width="2" stroke-opacity="1.000000"/>
   <line id="93" x1="9.452796" y1="49.250000" x2="110.547204" y2="49.250000" stroke="#5fd3bc" stroke-width="2" stroke-opacity="1.000000"/>
   <line id="94" x1="9.142136" y1="50.000000" x2="110.857864" y2="50.000000" stroke="#5fd3bc" stroke-width="2" stroke-opacity="1.000000"/>
   <line id="95" x1="8.831475" y1="50.750000" x2="111.168525" y2="50.750000" stroke="#5fd3bc" stroke-width="2" stroke-opacity="1.000000"/>
   <line id="96" x1="8.520815" y1="51.500000" x2="111.479185" y2="51.500000" stroke="#5fd3bc" stroke-width="2" stroke-opacity="1.000000"/>
   <line id="97" x1="8.210155" y1="52.250000" x2="111.789845" y2="52.250000" stroke="#5fd3bc" stroke-width="2" stroke-opacity="1.000000"/>
   <line id="98" x1="7.899495" y1="53.000000" x2="112.100505" y2="53.000000" stroke="#5fd3bc" stroke-width="2" stroke-opacity="1.000000"/>
   <line id="99" x1="7.588835" y1="53.750000" x2="112.411165" y2="53.750000" stroke="#5fd3bc" stroke-width="2" stroke-opacity="1.000000"/>
   <line id="100" x1="7.278175" y1="54.500000" x2="112.721825" y2="54.500000" stroke="#5fd3bc" stroke-width="2" stroke-opacity="1.000000"/>
   <line id="101" x1="6.967514" y1="55.250000" x2="113.032486" y2="55.250000" stroke="#5fd3bc" stroke-width="2" stroke-opacity="1.000000"/>
   <line id="102" x1="6.656854" y1="56.000000" x2="113.343146" y2="56.000000" stroke="#5fd3bc" stroke-width="2" stroke-opacity="1.000000"/>
   <line id="103" x1="6.346194" y1="56.750000" x2="113.653806" y2="56.750000" stroke="#5fd3bc" stroke-width="2" stroke-opacity="1.000000"/>
   <line id="104" x1="6.035534" y1="57.500000" x2="113.964466" y2="57.500000" stroke="#5fd3bc" stroke-width="2" stroke-opacity="1.000000"/>
   <line id="105" x1="5.724874" y1="58.250000" x2="114.275126" y2="58.250000" stroke="#5fd3bc" stroke-width="2" stroke-opacity="1.000000"/>
   <line id="106" x1="5.414214" y1="59.000000" x2="114.585786" y2="59.000000" stroke="#5fd3bc" stroke-width="2" stroke-opacity="1.000000"/>
   <line id="107" x1="5.103553" y1="59.750000" x2="114.896447" y2="59.750000" stroke="#5fd3bc" stroke-width="2" stroke-opacity="1.000000"/>
   <line id="108" x1="5.207107" y1="60.500000" x2="114.792893" y2="60.500000" stroke="#5fd3bc" stroke-width="2" stroke-opacity="1.000000"/>
   <line id="109" x1="5.517767" y1="61.250000" x2="114.482233" y2="61.250000" stroke="#5fd3bc" stroke-width="2" stroke-opacity="1.000000"/>
   <line id="110" x1="5.828427" y1="62.000000" x2="114.171573" y2="62.000000" stroke="#5fd3bc" stroke-width="2" stroke-opacity="1.000000"/>
   <line id="111" x1="6.139087" y1="62.750000" x2="113.860913" y2="62.750000" stroke="#5fd3bc" stroke-width="2" stroke-opacity="1.000000"/>
   <line id="112" x1="6.449747" y1="63.500000" x2="113.550253" y2="63.500000" stroke="#5fd3bc" stroke-width="2" stroke-opacity="1.000000"/>
   <line id="113" x1="6.760408" y1="64.250000" x2="113.239592" y2="64.250000" stroke="#5fd3bc" stroke-width="2" stroke-opacity="1.000000"/>
   <line id="114" x1="7.071068" y1="65.000000" x2="112.928932" y2="65.000000" stroke="#5fd3bc" stroke-width="2" stroke-opacity="1.000000"/>
   <line id="115" x1="7.381728" y1="65.750000" x2="112.618272" y2="65.750000" stroke="#5fd3bc" stroke-width="2" stroke-opacity="1.000000"/>
   <line id="116" x1="7.692388" y1="66.500000" x2="112.307612" y2="66.500000" stroke="#5fd3bc" stroke-width="2" stroke-opacity="1.000000"/>
   <line id="117" x1="8.003048" y1="67.250000" x2="111.996952" y2="67.250000" stroke="#5fd3bc" stroke-width="2" stroke-opacity="1.000000"/>
   <line id="118" x1="8.313708" y1="68.000000" x2="111.686292" y2="68.000000" stroke="#5fd3bc" stroke-width="2" stroke-opacity="1.000000"/>
   <line id="119" x1="8.624369" y1="68.750000" x2="111.375631" y2="68.750000" stroke="#5fd3bc" stroke-width="2" stroke-opacity="1.000000"/>
   <line id="120" x1="8.935029" y1="69.500000" x2="111.064971" y2="69.500000" stroke="#5fd3bc" stroke-width="2" stroke-opacity="1.000000"/>
   <line id="121" x1="9.245689" y1="70.250000" x2="110.754311" y2="70.250000" stroke="#5fd3bc" stroke-width="2" stroke-opacity="1.000000"/>
   <line id="122" x1="9.556349" y1="71.000000" x2="110.443651" y2="71.000000" stroke="#5fd3bc" stroke-width="2" stroke-opacity="1.000000"/>
   <line id="123" x1="9.867009" y1="71.750000" x2="110.132991" y2="71.750000" stroke="#5fd3bc" stroke-width="2" stroke-opacity="1.000000"/>
   <line id="124" x1="10.177670" y1="72.500000" x2="109.822330" y2="72.500000" stroke="#5fd3bc" stroke-width="2" stroke-opacity="1.000000"/>
   <line id="125" x1="10.488330" y1="73.250000" x2="109.511670" y2="73.250000" stroke="#5fd3bc" stroke-width="2" stroke-opacity="1.000000"/>
   <line id="126" x1="10.798990" y1="74.000000" x2="109.201010" y2="74.000000" stroke="#5fd3bc" stroke-width="2" stroke-opacity="1.000000"/>
   <line id="127" x1="11.109650" y1="74.750000" x2="108.890350" y2="74.750000" stroke="#5fd3bc" stroke-width="2" stroke-opacity="1.000000"/>
   <line id="128" x1="11.420310" y1="75.500000" x2="108.579690" y2="75.500000" stroke="#5fd3bc" stroke-width="2" stroke-opacity="1.000000"/>
   <line id="129" x1="11.730970" y1="76.250000" x2="108.269030" y2="76.250000" stroke="#5fd3bc" stroke-width="2" stroke-opacity="1.000000"/>
   <line id="130" x1="12.041631" y1="77.000000" x2="107.958369" y2="77.000000" stroke="#5fd3bc" stroke-width="2" stroke-opacity="1.000000"/>
   <line id="131" x1="12.352291" y1="77.750000" x2="107.647709" y2="77.750000" stroke="#5fd3bc" stroke-width="2" stroke-opacity="1.000000"/>
   <line id="132" x1="12.662951" y1="78.500000" x2="107.337049" y2="78.500000" stroke="#5fd3bc" stroke-width="2" stroke-opacity="1.000000"/>
   <line id="133" x1="12.973611" y1="79.250000" x2="107.026389" y2="79.250000" stroke="#5fd3bc" stroke-width="2" stroke-opacity="1.000000"/>
   <line id="134" x1="13.284271" y1="80.000000" x2="106.715729" y2="80.000000" stroke="#5fd3bc" stroke-width="2" stroke-opacity="1.000000"/>
   <line id="135" x1="13.594931" y1="80.750000" x2="106.405069" y2="80.750000" stroke="#5fd3bc" stroke-width="2" stroke-opacity="1.000000"/>
   <line id="136" x1="13.905592" y1="81.500000" x2="106.094408" y2="81.500000" stroke="#5fd3bc" stroke-width="2" stroke-opacity="1.000000"/>
   <line id="137" x1="14.216252" y1="82.250000" x2="105.783748" y2="82.250000" stroke="#5fd3bc" stroke-width="2" stroke-opacity="1.000000"/>
   <line id="138" x1="14.526912" y1="83.000000" x2="105.473088" y2="83.000000" stroke="#5fd3bc" stroke-width="2" stroke-opacity="1.000000"/>
   <line id="139" x1="14.837572" y1="83.750000" x2="105.162428" y2="83.750000" stroke="#5fd3bc" stroke-width="2" stroke-opacity="1.000000"/>
   <line id="140" x1="15.148232" y1="84.500000" x2="104.851768" y2="84.500000" stroke="#5fd3bc" stroke-width="2" stroke-opacity="1.000000"/>
   <line id="141" x1="15.458892" y1="85.250000" x2="104.541108" y2="85.250000" stroke="#5fd3bc" stroke-width="2" stroke-opacity="1.000000"/>
   <line id="142" x1="15.769553" y1="86.000000" x2="104.230447" y2="86.000000" stroke="#5fd3bc" stroke-width="2" stroke-opacity="1.000000"/>
   <line id="143" x1="16.080213" y1="86.750000" x2="103.919787" y2="86.750000" stroke="#5fd3bc" stroke-width="2" stroke-opacity="1.000000"/>
   <line id="144" x1="16.390873" y1="87.500000" x2="103.609127" y2="87.500000" stroke="#5fd3bc" stroke-width="2" stroke-opacity="1.000000"/>
   <line id="145" x1="16.701533" y1="88.250000" x2="103.298467" y2="88.250000" stroke="#5fd3bc" stroke-width="2" stroke-opacity="1.000000"/>
   <line id="146" x1="17.012193" y1="89.000000" x2="102.987807" y2="89.000000" stroke="#5fd3bc" stroke-width="2" stroke-opacity="1.000000"/>
   <line id="147" x1="17.322853" y1="89.750000" x2="102.677147" y2="89.750000" stroke="#5fd3bc" stroke-width="2" stroke-opacity="1.000000"/>
   <line id="148" x1="17.633514" y1="90.500000" x2="102.366486" y2="90.500000" stroke="#5fd3bc" stroke-width="2" stroke-opacity="1.000000"/>
   <line id="149" x1="17.944174" y1="91.250000" x2="102.055826" y2="91.250000" stroke="#5fd3bc" stroke-width="2" stroke-opacity="1.000000"/>
   <line id="150" x1="18.254834" y1="92.000000" x2="101.745166" y2="92.000000" stroke="#5fd3bc" stroke-width="2" stroke-opacity="1.000000"/>
   <line id="151" x1="18.565494" y1="92.750000" x2="101.434506" y2="92.750000" stroke="#5fd3bc" stroke-width="2" stroke-opacity="1.000000"/>
   <line id="152" x1="18.876154" y1="93.500000" x2="101.123846" y2="93.500000" stroke="#5fd3bc" stroke-width="2" stroke-opacity="1.000000"/>
   <line id="153" x1="19.186814" y1="94.250000" x2="100.813186" y2="94.250000" stroke="#5fd3bc" stroke-width="2" stroke-opacity="1.000000"/>
   <line id="154" x1="19.497475" y1="95.000000" x2="100.502525" y2="95.000000" stroke="#5fd3bc" stroke-width="2" stroke-opacity="1.000000"/>
   <line id="155" x1="19.808135" y1="95.750000" x2="100.191865" y2="95.750000" stroke="#5fd3bc" stroke-width="2" stroke-opacity="1.000000"/>
   <line id="156" x1="20.118795" y1="96.500000" x2="99.881205" y2="96.500000" stroke="#5fd3bc" stroke-width="2" stroke-opacity="1.000000"/>
   <line id="157" x1="20.429455" y1="97.250000" x2="99.570545" y2="97.250000" stroke="#5fd3bc" stroke-width="2" stroke-opacity="1.000000"/>
   <line id="158" x1="20.740115" y1="98.000000" x2="99.259885" y2="98.000000" stroke="#5fd3bc" stroke-width="2" stroke-opacity="1.000000"/>
   <line id="159" x1="21.050775" y1="98.750000" x2="98.949225" y2="98.750000" stroke="#5fd3bc" stroke-width="2" stroke-opacity="1.000000"/>
   <line id="160" x1="22.579690" y1="99.500000" x2="97.420310" y2="99.500000" stroke="#5fd3bc" stroke-width="2" stroke-opacity="1.000000"/>
   <line id="161" x1="24.390350" y1="100.250000" x2="95.609650" y2="100.250000" stroke="#5fd3bc" stroke-width="2" stroke-opacity="1.000000"/>
   <line id="162" x1="26.201010" y1="101.000000" x2="93.798990" y2="101.000000" stroke="#5fd3bc" stroke-width="2" stroke-opacity="1.000000"/>
   <line id="163" x1="28.011670" y1="101.750000" x2="91.988330" y2="101.750000" stroke="#5fd3bc" stroke-width="2" stroke-opacity="1.000000"/>
   <line id="164" x1="29.822330" y1="102.500000" x2="90.177670" y2="102.500000" stroke="#5fd3bc" stroke-width="2" stroke-opacity="1.000000"/>
   <line id="165" x1="31.632991" y1="103.250000" x2="88.367009" y2="103.250000" stroke="#5fd3bc" stroke-width="2" stroke-opacity="1.000000"/>
   <line id="166" x1="33.443651" y1="104.000000" x2="86.556349" y2="104.000000" stroke="#5fd3bc" stroke-width="2" stroke-opacity="1.000000"/>
   <line id="167" x1="35.254311" y1="104.750000" x2="84.745689" y2="104.750000" stroke="#5fd3bc" stroke-width="2" stroke-opacity="1.000000"/>
   <line id="168" x1="37.064971" y1="105.500000" x2="82.935029" y2="105.500000" stroke="#5fd3bc" stroke-width="2" stroke-opacity="1.000000"/>
   <line id="169" x1="38.875631" y1="106.250000" x2="81.124369" y2="106.250000" stroke="#5fd3bc" stroke-width="2" stroke-opacity="1.000000"/>
   <line id="170" x1="40.686291" y1="107.000000" x2="79.313709" y2="107.000000" stroke="#5fd3bc" stroke-width="2" stroke-opacity="1.000000"/>
   <line id="171" x1="42.496952" y1="107.750000" x2="77.503048" y2="107.750000" stroke="#5fd3bc" stroke-width="2" stroke-opacity="1.000000"/>
   <line id="172" x1="44.307612" y1="108.500000" x2="75.692388" y2="108.500000" stroke="#5fd3bc" stroke-width="2" stroke-opacity="1.000000"/>
   <line id="173" x1="46.118272" y1="109.250000" x2="73.881728" y2="109.250000" stroke="#5fd3bc" stroke-width="2" stroke-opacity="1.000000"/>
   <line id="174" x1="47.928932" y1="110.000000" x2="72.071068" y2="110.000000" stroke="#5fd3bc" stroke-width="2" stroke-opacity="1.000000"/>
   <line id="175" x1="49.739592" y1="110.750000" x2="70.260408" y2="110.750000" stroke="#5fd3bc" stroke-width="2" stroke-opacity="1.000000"/>
   <line id="176" x1="51.550253" y1="111.500000" x2="68.449747" y2="111.500000" stroke="#5fd3bc" stroke-width="2" stroke-opacity="1.000000"/>
   <line id="177" x1="53.360913" y1="112.250000" x2="66.639087" y2="112.250000" stroke="#5fd3bc" stroke-width="2" stroke-opacity="1.000000"/>
   <line id="178" x1="55.171573" y1="113.000000" x2="64.828427" y2="113.000000" stroke="#5fd3bc" stroke-width="2" stroke-opacity="1.000000"/>
   <line id="179" x1="56.982233" y1="113.750000" x2="63.017767" y2="113.750000" stroke="#5fd3bc" stroke-width="2" stroke-opacity="1.000000"/>
   <line id="180" x1="58.792893" y1="114.500000" x2="61.207107" y2="114.500000" stroke="#5fd3bc" stroke-width="2" stroke-opacity="1.000000"/>
</g>
</svg>
