<?xml version="1.0" encoding="UTF-8"?>
<svg xmlns="http://www.w3.org/2000/svg" xmlns:xlink="http://www.w3.org/1999/xlink" width="263.7500" height="112.5000" viewBox="-10.0000 17.5000 263.7500 112.5000">
<g id="fig">
   <text x="238.750000" y="87.500000" id="10" text-anchor="middle" fill="#de87cd" stroke="#501644" font-family="sans-serif" font-size="9pt" font-weight="lighter">De Sao Paulo tens o nome</text>
   <text x="98.890873" y="98.890873" id="11" text-anchor="middle" fill="#916f6f" stroke="None" font-family="sans-serif" font-size="9pt" font-weight="lighter">Que ostentas dignamente</text>
   <text x="60.000000" y="115.000000" id="12" text-anchor="middle" fill="#916f6f" stroke="None" font-family="sans-serif" font-size="9pt" font-weight="lighter">Salve o tricolor paulista</text>
   <text x="21.109127" y="98.890873" id="13" text-anchor="middle" fill="#916f6f" stroke="None" font-family="sans-serif" font-size="9pt" font-weight="lighter">Amado clube brasileiro</text>
   <text x="128.750000" y="87.500000" id="14" text-anchor="middle" fill="#de87cd" stroke="#501644" font-family="sans-serif" font-size="9pt" font-weight="lighter">Tu es forte, tu es grande</text>
   <text x="144.859127" y="48.609127" id="15" text-anchor="middle" fill="#de87cd" stroke="#501644" font-family="sans-serif" font-size="9pt" font-weight="lighter">Dentre os grandes es o primeiro</text>
   <text x="183.750000" y="32.500000" id="16" text-anchor="middle" fill="#de87cd" stroke="#501644" font-family="sans-serif" font-size="9pt" font-weight="lighter">Tu es forte, tu es grande</text>
   <text x="222.640873" y="48.609127" id="17" text-anchor="middle" fill="#de87cd" stroke="#501644" font-family="sans-serif" font-size="9pt" font-weight="lighter">Dentre os grandes es o primeiro</text>
   <line id="27" x1="115.000000" y1="60.000000" x2="98.890873" y2="98.890873" stroke="#5f5dd3" stroke-width="2" stroke-opacity="1.000000"/>
   <line id="28" x1="98.890873" y1="98.890873" x2="60.000000" y2="115.000000" stroke="#5f5dd3" stroke-width="2" stroke-opacity="1.000000"/>
   <line id="29" x1="60.000000" y1="115.000000" x2="21.109127" y2="98.890873" stroke="#5f5dd3" stroke-width="2" stroke-opacity="1.000000"/>
   <line id="30" x1="21.109127" y1="98.890873" x2="5.000000" y2="60.000000" stroke="#5f5dd3" stroke-width="2" stroke-opacity="1.000000"/>
   <line id="31" x1="128.750000" y1="87.500000" x2="144.859127" y2="48.609127" stroke="#501644" stroke-width="2" stroke-opacity="1.000000"/>
   <line id="32" x1="144.859127" y1="48.609127" x2="183.750000" y2="32.500000" stroke="#501644" stroke-width="2" stroke-opacity="1.000000"/>
   <line id="33" x1="183.750000" y1="32.500000" x2="222.640873" y2="48.609127" stroke="#501644" stroke-width="2" stroke-opacity="1.000000"/>
   <line id="34" x1="222.640873" y1="48.609127" x2="238.750000" y2="87.500000" stroke="#501644" stroke-width="2" stroke-opacity="1.000000"/>
   <line id="35" x1="181.939340" y1="33.250000" x2="185.560660" y2="33.250000" stroke="#501644" stroke-width="2" stroke-opacity="1.000000"/>
   <line id="36" x1="180.128680" y1="34.000000" x2="187.371320" y2="34.000000" stroke="#501644" stroke-width="2" stroke-opacity="1.000000"/>
   <line id="37" x1="178.318019" y1="34.750000" x2="189.181981" y2="34.750000" stroke="#501644" stroke-width="2" stroke-opacity="1.000000"/>
   <line id="38" x1="176.507359" y1="35.500000" x2="190.992641" y2="35.500000" stroke="#501644" stroke-width="2" stroke-opacity="1.000000"/>
   <line id="39" x1="174.696699" y1="36.250000" x2="192.803301" y2="36.250000" stroke="#501644" stroke-width="2" stroke-opacity="1.000000"/>
   <line id="40" x1="172.886039" y1="37.000000" x2="194.613961" y2="37.000000" stroke="#501644" stroke-width="2" stroke-opacity="1.000000"/>
   <line id="41" x1="171.075379" y1="37.750000" x2="196.424621" y2="37.750000" stroke="#501644" stroke-width="2" stroke-opacity="1.000000"/>
   <line id="42" x1="169.264719" y1="38.500000" x2="198.235281" y2="38.500000" stroke="#501644" stroke-width="2" stroke-opacity="1.000000"/>
   <line id="43" x1="167.454058" y1="39.250000" x2="200.045942" y2="39.250000" stroke="#501644" stroke-width="2" stroke-opacity="1.000000"/>
   <line id="44" x1="165.643398" y1="40.000000" x2="201.856602" y2="40.000000" stroke="#501644" stroke-width="2" stroke-opacity="1.000000"/>
   <line id="45" x1="163.832738" y1="40.750000" x2="203.667262" y2="40.750000" stroke="#501644" stroke-width="2" stroke-opacity="1.000000"/>
   <line id="46" x1="162.022078" y1="41.500000" x2="205.477922" y2="41.500000" stroke="#501644" stroke-width="2" stroke-opacity="1.000000"/>
   <line id="47" x1="160.211418" y1="42.250000" x2="207.288582" y2="42.250000" stroke="#501644" stroke-width="2" stroke-opacity="1.000000"/>
   <line id="48" x1="158.400758" y1="43.000000" x2="209.099242" y2="43.000000" stroke="#501644" stroke-width="2" stroke-opacity="1.000000"/>
   <line id="49" x1="156.590097" y1="43.750000" x2="210.909903" y2="43.750000" stroke="#501644" stroke-width="2" stroke-opacity="1.000000"/>
   <line id="50" x1="154.779437" y1="44.500000" x2="212.720563" y2="44.500000" stroke="#501644" stroke-width="2" stroke-opacity="1.000000"/>
   <line id="51" x1="152.968777" y1="45.250000" x2="214.531223" y2="45.250000" stroke="#501644" stroke-width="2" stroke-opacity="1.000000"/>
   <line id="52" x1="151.158117" y1="46.000000" x2="216.341883" y2="46.000000" stroke="#501644" stroke-width="2" stroke-opacity="1.000000"/>
   <line id="53" x1="149.347457" y1="46.750000" x2="218.152543" y2="46.750000" stroke="#501644" stroke-width="2" stroke-opacity="1.000000"/>
   <line id="54" x1="147.536796" y1="47.500000" x2="219.963204" y2="47.500000" stroke="#501644" stroke-width="2" stroke-opacity="1.000000"/>
   <line id="55" x1="145.726136" y1="48.250000" x2="221.773864" y2="48.250000" stroke="#501644" stroke-width="2" stroke-opacity="1.000000"/>
   <line id="56" x1="144.697222" y1="49.000000" x2="222.802778" y2="49.000000" stroke="#501644" stroke-width="2" stroke-opacity="1.000000"/>
   <line id="57" x1="144.386562" y1="49.750000" x2="223.113438" y2="49.750000" stroke="#501644" stroke-width="2" stroke-opacity="1.000000"/>
   <line id="58" x1="144.075902" y1="50.500000" x2="223.424098" y2="50.500000" stroke="#501644" stroke-width="2" stroke-opacity="1.000000"/>
   <line id="59" x1="143.765242" y1="51.250000" x2="223.734758" y2="51.250000" stroke="#501644" stroke-width="2" stroke-opacity="1.000000"/>
   <line id="60" x1="143.454581" y1="52.000000" x2="224.045419" y2="52.000000" stroke="#501644" stroke-width="2" stroke-opacity="1.000000"/>
   <line id="61" x1="143.143921" y1="52.750000" x2="224.356079" y2="52.750000" stroke="#501644" stroke-width="2" stroke-opacity="1.000000"/>
   <line id="62" x1="142.833261" y1="53.500000" x2="224.666739" y2="53.500000" stroke="#501644" stroke-width="2" stroke-opacity="1.000000"/>
   <line id="63" x1="142.522601" y1="54.250000" x2="224.977399" y2="54.250000" stroke="#501644" stroke-width="2" stroke-opacity="1.000000"/>
   <line id="64" x1="142.211941" y1="55.000000" x2="225.288059" y2="55.000000" stroke="#501644" stroke-width="2" stroke-opacity="1.000000"/>
   <line id="65" x1="141.901281" y1="55.750000" x2="225.598719" y2="55.750000" stroke="#501644" stroke-width="2" stroke-opacity="1.000000"/>
   <line id="66" x1="141.590620" y1="56.500000" x2="225.909380" y2="56.500000" stroke="#501644" stroke-width="2" stroke-opacity="1.000000"/>
   <line id="67" x1="141.279960" y1="57.250000" x2="226.220040" y2="57.250000" stroke="#501644" stroke-width="2" stroke-opacity="1.000000"/>
   <line id="68" x1="140.969300" y1="58.000000" x2="226.530700" y2="58.000000" stroke="#501644" stroke-width="2" stroke-opacity="1.000000"/>
   <line id="69" x1="140.658640" y1="58.750000" x2="226.841360" y2="58.750000" stroke="#501644" stroke-width="2" stroke-opacity="1.000000"/>
   <line id="70" x1="140.347980" y1="59.500000" x2="227.152020" y2="59.500000" stroke="#501644" stroke-width="2" stroke-opacity="1.000000"/>
   <line id="71" x1="140.037320" y1="60.250000" x2="227.462680" y2="60.250000" stroke="#501644" stroke-width="2" stroke-opacity="1.000000"/>
   <line id="72" x1="139.726659" y1="61.000000" x2="227.773341" y2="61.000000" stroke="#501644" stroke-width="2" stroke-opacity="1.000000"/>
   <line id="73" x1="139.415999" y1="61.750000" x2="228.084001" y2="61.750000" stroke="#501644" stroke-width="2" stroke-opacity="1.000000"/>
   <line id="74" x1="139.105339" y1="62.500000" x2="228.394661" y2="62.500000" stroke="#501644" stroke-width="2" stroke-opacity="1.000000"/>
   <line id="75" x1="138.794679" y1="63.250000" x2="228.705321" y2="63.250000" stroke="#501644" stroke-width="2" stroke-opacity="1.000000"/>
   <line id="76" x1="138.484019" y1="64.000000" x2="229.015981" y2="64.000000" stroke="#501644" stroke-width="2" stroke-opacity="1.000000"/>
   <line id="77" x1="138.173359" y1="64.750000" x2="229.326641" y2="64.750000" stroke="#501644" stroke-width="2" stroke-opacity="1.000000"/>
   <line id="78" x1="137.862698" y1="65.500000" x2="229.637302" y2="65.500000" stroke="#501644" stroke-width="2" stroke-opacity="1.000000"/>
   <line id="79" x1="137.552038" y1="66.250000" x2="229.947962" y2="66.250000" stroke="#501644" stroke-width="2" stroke-opacity="1.000000"/>
   <line id="80" x1="137.241378" y1="67.000000" x2="230.258622" y2="67.000000" stroke="#501644" stroke-width="2" stroke-opacity="1.000000"/>
   <line id="81" x1="136.930718" y1="67.750000" x2="230.569282" y2="67.750000" stroke="#501644" stroke-width="2" stroke-opacity="1.000000"/>
   <line id="82" x1="136.620058" y1="68.500000" x2="230.879942" y2="68.500000" stroke="#501644" stroke-width="2" stroke-opacity="1.000000"/>
   <line id="83" x1="136.309397" y1="69.250000" x2="231.190603" y2="69.250000" stroke="#501644" stroke-width="2" stroke-opacity="1.000000"/>
   <line id="84" x1="135.998737" y1="70.000000" x2="231.501263" y2="70.000000" stroke="#501644" stroke-width="2" stroke-opacity="1.000000"/>
   <line id="85" x1="135.688077" y1="70.750000" x2="231.811923" y2="70.750000" stroke="#501644" stroke-width="2" stroke-opacity="1.000000"/>
   <line id="86" x1="135.377417" y1="71.500000" x2="232.122583" y2="71.500000" stroke="#501644" stroke-width="2" stroke-opacity="1.000000"/>
   <line id="87" x1="135.066757" y1="72.250000" x2="232.433243" y2="72.250000" stroke="#501644" stroke-width="2" stroke-opacity="1.000000"/>
   <line id="88" x1="134.756097" y1="73.000000" x2="232.743903" y2="73.000000" stroke="#501644" stroke-width="2" stroke-opacity="1.000000"/>
   <line id="89" x1="134.445436" y1="73.750000" x2="233.054564" y2="73.750000" stroke="#501644" stroke-width="2" stroke-opacity="1.000000"/>
   <line id="90" x1="134.134776" y1="74.500000" x2="233.365224" y2="74.500000" stroke="#501644" stroke-width="2" stroke-opacity="1.000000"/>
   <line id="91" x1="133.824116" y1="75.250000" x2="233.675884" y2="75.250000" stroke="#501644" stroke-width="2" stroke-opacity="1.000000"/>
   <line id="92" x1="133.513456" y1="76.000000" x2="233.986544" y2="76.000000" stroke="#501644" stroke-width="2" stroke-opacity="1.000000"/>
   <line id="93" x1="133.202796" y1="76.750000" x2="234.297204" y2="76.750000" stroke="#501644" stroke-width="2" stroke-opacity="1.000000"/>
   <line id="94" x1="132.892136" y1="77.500000" x2="234.607864" y2="77.500000" stroke="#501644" stroke-width="2" stroke-opacity="1.000000"/>
   <line id="95" x1="132.581475" y1="78.250000" x2="234.918525" y2="78.250000" stroke="#501644" stroke-width="2" stroke-opacity="1.000000"/>
   <line id="96" x1="132.270815" y1="79.000000" x2="235.229185" y2="79.000000" stroke="#501644" stroke-width="2" stroke-opacity="1.000000"/>
   <line id="97" x1="131.960155" y1="79.750000" x2="235.539845" y2="79.750000" stroke="#501644" stroke-width="2" stroke-opacity="1.000000"/>
   <line id="98" x1="131.649495" y1="80.500000" x2="235.850505" y2="80.500000" stroke="#501644" stroke-width="2" stroke-opacity="1.000000"/>
   <line id="99" x1="131.338835" y1="81.250000" x2="236.161165" y2="81.250000" stroke="#501644" stroke-width="2" stroke-opacity="1.000000"/>
   <line id="100" x1="131.028175" y1="82.000000" x2="236.471825" y2="82.000000" stroke="#501644" stroke-width="2" stroke-opacity="1.000000"/>
   <line id="101" x1="130.717514" y1="82.750000" x2="236.782486" y2="82.750000" stroke="#501644" stroke-width="2" stroke-opacity="1.000000"/>
   <line id="102" x1="130.406854" y1="83.500000" x2="237.093146" y2="83.500000" stroke="#501644" stroke-width="2" stroke-opacity="1.000000"/>
   <line id="103" x1="130.096194" y1="84.250000" x2="237.403806" y2="84.250000" stroke="#501644" stroke-width="2" stroke-opacity="1.000000"/>
   <line id="104" x1="129.785534" y1="85.000000" x2="237.714466" y2="85.000000" stroke="#501644" stroke-width="2" stroke-opacity="1.000000"/>
   <line id="105" x1="129.474874" y1="85.750000" x2="238.025126" y2="85.750000" stroke="#501644" stroke-width="2" stroke-opacity="1.000000"/>
   <line id="106" x1="129.164214" y1="86.500000" x2="238.335786" y2="86.500000" stroke="#501644" stroke-width="2" stroke-opacity="1.000000"/>
   <line id="107" x1="128.853553" y1="87.250000" x2="238.646447" y2="87.250000" stroke="#501644" stroke-width="2" stroke-opacity="1.000000"/>
   <line id="108" x1="128.957107" y1="88.000000" x2="238.542893" y2="88.000000" stroke="#501644" stroke-width="2" stroke-opacity="1.000000"/>
   <line id="109" x1="129.267767" y1="88.750000" x2="238.232233" y2="88.750000" stroke="#501644" stroke-width="2" stroke-opacity="1.000000"/>
   <line id="110" x1="129.578427" y1="89.500000" x2="237.921573" y2="89.500000" stroke="#501644" stroke-width="2" stroke-opacity="1.000000"/>
   <line id="111" x1="129.889087" y1="90.250000" x2="237.610913" y2="90.250000" stroke="#501644" stroke-width="2" stroke-opacity="1.000000"/>
   <line id="112" x1="130.199747" y1="91.000000" x2="237.300253" y2="91.000000" stroke="#501644" stroke-width="2" stroke-opacity="1.000000"/>
   <line id="113" x1="130.510408" y1="91.750000" x2="236.989592" y2="91.750000" stroke="#501644" stroke-width="2" stroke-opacity="1.000000"/>
   <line id="114" x1="130.821068" y1="92.500000" x2="236.678932" y2="92.500000" stroke="#501644" stroke-width="2" stroke-opacity="1.000000"/>
   <line id="115" x1="131.131728" y1="93.250000" x2="236.368272" y2="93.250000" stroke="#501644" stroke-width="2" stroke-opacity="1.000000"/>
   <line id="116" x1="131.442388" y1="94.000000" x2="236.057612" y2="94.000000" stroke="#501644" stroke-width="2" stroke-opacity="1.000000"/>
   <line id="117" x1="131.753048" y1="94.750000" x2="235.746952" y2="94.750000" stroke="#501644" stroke-width="2" stroke-opacity="1.000000"/>
   <line id="118" x1="132.063708" y1="95.500000" x2="235.436292" y2="95.500000" stroke="#501644" stroke-width="2" stroke-opacity="1.000000"/>
   <line id="119" x1="132.374369" y1="96.250000" x2="235.125631" y2="96.250000" stroke="#501644" stroke-width="2" stroke-opacity="1.000000"/>
   <line id="120" x1="132.685029" y1="97.000000" x2="234.814971" y2="97.000000" stroke="#501644" stroke-width="2" stroke-opacity="1.000000"/>
   <line id="121" x1="132.995689" y1="97.750000" x2="234.504311" y2="97.750000" stroke="#501644" stroke-width="2" stroke-opacity="1.000000"/>
   <line id="122" x1="133.306349" y1="98.500000" x2="234.193651" y2="98.500000" stroke="#501644" stroke-width="2" stroke-opacity="1.000000"/>
   <line id="123" x1="133.617009" y1="99.250000" x2="233.882991" y2="99.250000" stroke="#501644" stroke-width="2" stroke-opacity="1.000000"/>
   <line id="124" x1="133.927670" y1="100.000000" x2="233.572330" y2="100.000000" stroke="#501644" stroke-width="2" stroke-opacity="1.000000"/>
   <line id="125" x1="134.238330" y1="100.750000" x2="233.261670" y2="100.750000" stroke="#501644" stroke-width="2" stroke-opacity="1.000000"/>
   <line id="126" x1="134.548990" y1="101.500000" x2="232.951010" y2="101.500000" stroke="#501644" stroke-width="2" stroke-opacity="1.000000"/>
   <line id="127" x1="134.859650" y1="102.250000" x2="232.640350" y2="102.250000" stroke="#501644" stroke-width="2" stroke-opacity="1.000000"/>
   <line id="128" x1="135.170310" y1="103.000000" x2="232.329690" y2="103.000000" stroke="#501644" stroke-width="2" stroke-opacity="1.000000"/>
   <line id="129" x1="135.480970" y1="103.750000" x2="232.019030" y2="103.750000" stroke="#501644" stroke-width="2" stroke-opacity="1.000000"/>
   <line id="130" x1="135.791631" y1="104.500000" x2="231.708369" y2="104.500000" stroke="#501644" stroke-width="2" stroke-opacity="1.000000"/>
   <line id="131" x1="136.102291" y1="105.250000" x2="231.397709" y2="105.250000" stroke="#501644" stroke-width="2" stroke-opacity="1.000000"/>
   <line id="132" x1="136.412951" y1="106.000000" x2="231.087049" y2="106.000000" stroke="#501644" stroke-width="2" stroke-opacity="1.000000"/>
   <line id="133" x1="136.723611" y1="106.750000" x2="230.776389" y2="106.750000" stroke="#501644" stroke-width="2" stroke-opacity="1.000000"/>
   <line id="134" x1="137.034271" y1="107.500000" x2="230.465729" y2="107.500000" stroke="#501644" stroke-width="2" stroke-opacity="1.000000"/>
   <line id="135" x1="137.344931" y1="108.250000" x2="230.155069" y2="108.250000" stroke="#501644" stroke-width="2" stroke-opacity="1.000000"/>
   <line id="136" x1="137.655592" y1="109.000000" x2="229.844408" y2="109.000000" stroke="#501644" stroke-width="2" stroke-opacity="1.000000"/>
   <line id="137" x1="137.966252" y1="109.750000" x2="229.533748" y2="109.750000" stroke="#501644" stroke-width="2" stroke-opacity="1.000000"/>
   <line id="138" x1="138.276912" y1="110.500000" x2="229.223088" y2="110.500000" stroke="#501644" stroke-width="2" stroke-opacity="1.000000"/>
   <line id="139" x1="138.587572" y1="111.250000" x2="228.912428" y2="111.250000" stroke="#501644" stroke-width="2" stroke-opacity="1.000000"/>
   <line id="140" x1="138.898232" y1="112.000000" x2="228.601768" y2="112.000000" stroke="#501644" stroke-width="2" stroke-opacity="1.000000"/>
   <line id="141" x1="139.208892" y1="112.750000" x2="228.291108" y2="112.750000" stroke="#501644" stroke-width="2" stroke-opacity="1.000000"/>
   <line id="142" x1="139.519553" y1="113.500000" x2="227.980447" y2="113.500000" stroke="#501644" stroke-width="2" stroke-opacity="1.000000"/>
   <line id="143" x1="139.830213" y1="114.250000" x2="227.669787" y2="114.250000" stroke="#501644" stroke-width="2" stroke-opacity="1.000000"/>
   <line id="144" x1="140.140873" y1="115.000000" x2="227.359127" y2="115.000000" stroke="#501644" stroke-width="2" stroke-opacity="1.000000"/>
   <line id="145" x1="16.701533" y1="88.250000" x2="103.298467" y2="88.250000" stroke="#5fd3bc" stroke-width="2" stroke-opacity="1.000000"/>
   <line id="146" x1="17.012193" y1="89.000000" x2="102.987807" y2="89.000000" stroke="#5fd3bc" stroke-width="2" stroke-opacity="1.000000"/>
   <line id="147" x1="17.322853" y1="89.750000" x2="102.677147" y2="89.750000" stroke="#5fd3bc" stroke-width="2" stroke-opacity="1.000000"/>
   <line id="148" x1="17.633514" y1="90.500000" x2="102.366486" y2="90.500000" stroke="#5fd3bc" stroke-width="2" stroke-opacity="1.000000"/>
   <line id="149" x1="17.944174" y1="91.250000" x2="102.055826" y2="91.250000" stroke="#5fd3bc" stroke-width="2" stroke-opacity="1.000000"/>
   <line id="150" x1="18.254834" y1="92.000000" x2="101.745166" y2="92.000000" stroke="#5fd3bc" stroke-width="2" stroke-opacity="1.000000"/>
   <line id="151" x1="18.565494" y1="92.750000" x2="101.434506" y2="92.750000" stroke="#5fd3bc" stroke-width="2" stroke-opacity="1.000000"/>
   <line id="152" x1="18.876154" y1="93.500000" x2="101.123846" y2="93.500000" stroke="#5fd3bc" stroke-width="2" stroke-opacity="1.000000"/>
   <line id="153" x1="19.186814" y1="94.250000" x2="100.813186" y2="94.250000" stroke="#5fd3bc" stroke-width="2" stroke-opacity="1.000000"/>
   <line id="154" x1="19.497475" y1="95.000000" x2="100.502525" y2="95.000000" stroke="#5fd3bc" stroke-width="2" stroke-opacity="1.000000"/>
   <line id="155" x1="19.808135" y1="95.750000" x2="100.191865" y2="95.750000" stroke="#5fd3bc" stroke-width="2" stroke-opacity="1.000000"/>
   <line id="156" x1="20.118795" y1="96.500000" x2="99.881205" y2="96.500000" stroke="#5fd3bc" stroke-width="2" stroke-opacity="1.000000"/>
   <line id="157" x1="20.429455" y1="97.250000" x2="99.570545" y2="97.250000" stroke="#5fd3bc" stroke-width="2" stroke-opacity="1.000000"/>
   <line id="158" x1="20.740115" y1="98.000000" x2="99.259885" y2="98.000000" stroke="#5fd3bc" stroke-width="2" stroke-opacity="1.000000"/>
   <line id="159" x1="21.050775" y1="98.750000" x2="98.949225" y2="98.750000" stroke="#5fd3bc" stroke-width="2" stroke-opacity="1.000000"/>
   <line id="160" x1="22.579690" y1="99.500000" x2="97.420310" y2="99.500000" stroke="#5fd3bc" stroke-width="2" stroke-opacity="1.000000"/>
   <line id="161" x1="24.390350" y1="100.250000" x2="95.609650" y2="100.250000" stroke="#5fd3bc" stroke-width="2" stroke-opacity="1.000000"/>
   <line id="162" x1="26.201010" y1="101.000000" x2="93.798990" y2="101.000000" stroke="#5fd3bc" stroke-width="2" stroke-opacity="1.000000"/>
   <line id="163" x1="28.011670" y1="101.750000" x2="91.988330" y2="101.750000" stroke="#5fd3bc" stroke-width="2" stroke-opacity="1.000000"/>
   <line id="164" x1="29.822330" y1="102.500000" x2="90.177670" y2="102.500000" stroke="#5fd3bc" stroke-width="2" stroke-opacity="1.000000"/>
   <line id="165" x1="31.632991" y1="103.250000" x2="88.367009" y2="103.250000" stroke="#5fd3bc" stroke-width="2" stroke-opacity="1.000000"/>
   <line id="166" x1="33.443651" y1="104.000000" x2="86.556349" y2="104.000000" stroke="#5fd3bc" stroke-width="2" stroke-opacity="1.000000"/>
   <line id="167" x1="35.254311" y1="104.750000" x2="84.745689" y2="104.750000" stroke="#5fd3bc" stroke-width="2" stroke-opacity="1.000000"/>
   <line id="168" x1="37.064971" y1="105.500000" x2="82.935029" y2="105.500000" stroke="#5fd3bc" stroke-width="2" stroke-opacity="1.000000"/>
   <line id="169" x1="38.875631" y1="106.250000" x2="81.124369" y2="106.250000" stroke="#5fd3bc" stroke-width="2" stroke-opacity="1.000000"/>
   <line id="170" x1="40.686291" y1="107.000000" x2="79.313709" y2="107.000000" stroke="#5fd3bc" stroke-width="2" stroke-opacity="1.000000"/>
   <line id="171" x1="42.496952" y1="107.750000" x2="77.503048" y2="107.750000" stroke="#5fd3bc" stroke-width="2" stroke-opacity="1.000000"/>
   <line id="172" x1="44.307612" y1="108.500000" x2="75.692388" y2="108.500000" stroke="#5fd3bc" stroke-width="2" stroke-opacity="1.000000"/>
   <line id="173" x1="46.118272" y1="109.250000" x2="73.881728" y2="109.250000" stroke="#5fd3bc" stroke-width="2" stroke-opacity="1.000000"/>
   <line id="174" x1="47.928932" y1="110.000000" x2="72.071068" y2="110.000000" stroke="#5fd3bc" stroke-width="2" stroke-opacity="1.000000"/>
   <line id="175" x1="49.739592" y1="110.750000" x2="70.260408" y2="110.750000" stroke="#5fd3bc" stroke-width="2" stroke-opacity="1.000000"/>
   <line id="176" x1="51.550253" y1="111.500000" x2="68.449747" y2="111.500000" stroke="#5fd3bc" stroke-width="2" stroke-opacity="1.000000"/>
   <line id="177" x1="53.360913" y1="112.250000" x2="66.639087" y2="112.250000" stroke="#5fd3bc" stroke-width="2" stroke-opacity="1.000000"/>
   <line id="178" x1="55.171573" y1="113.000000" x2="64.828427" y2="113.000000" stroke="#5fd3bc" stroke-width="2" stroke-opacity="1.000000"/>
   <line id="179" x1="56.982233" y1="113.750000" x2="63.017767" y2="113.750000" stroke="#5fd3bc" stroke-width="2" stroke-opacity="1.000000"/>
   <line id="180" x1="58.792893" y1="114.500000" x2="61.207107" y2="114.500000" stroke="#5fd3bc" stroke-width="2" stroke-opacity="1.000000"/>
   <!-- sel -->
   <rect x="4.5000" y="4.5000" width="111.0000" height="83.2500" stroke="red" fill="transparent" stroke-dasharray="5,3" stroke-width="1.5"/>
   <circle cx="115.0000" cy="60.0000" r="6.0" stroke="red" fill="none" stroke-width="2.0"/>
   <circle cx="5.0000" cy="60.0000" r="6.0" stroke="red" fill="none" stroke-width="2.0"/>
   <circle cx="21.1091" cy="21.1091" r="6.0" stroke="red" fill="none" stroke-width="2.0"/>
   <circle cx="60.0000" cy="5.0000" r="6.0" stroke="red" fill="none" stroke-width="2.0"/>
   <circle cx="98.8909" cy="21.1091" r="6.0" stroke="red" fill="none" stroke-width="2.0"/>
   <circle cx="5.0000" cy="60.0000" r="6.0" stroke="red" fill="none" stroke-width="2.0"/>
   <circle cx="21.1091" cy="21.1091" r="6.0" stroke="red" fill="none" stroke-width="2.0"/>
   <circle cx="60.0000" cy="5.0000" r="6.0" stroke="red" fill="none" stroke-width="2.0"/>
   <circle cx="98.8909" cy="21.1091" r="6.0" stroke="red" fill="none" stroke-width="2.0"/>
   <circle cx="58.1893" cy="5.7500" r="6.0" stroke="red" fill="none" stroke-width="2.0"/>
   <circle cx="56.3787" cy="6.5000" r="6.0" stroke="red" fill="none" stroke-width="2.0"/>
   <circle cx="54.5680" cy="7.2500" r="6.0" stroke="red" fill="none" stroke-width="2.0"/>
   <circle cx="52.7574" cy="8.0000" r="6.0" stroke="red" fill="none" stroke-width="2.0"/>
   <circle cx="50.9467" cy="8.7500" r="6.0" stroke="red" fill="none" stroke-width="2.0"/>
   <circle cx="49.1360" cy="9.5000" r="6.0" stroke="red" fill="none" stroke-width="2.0"/>
   <circle cx="47.3254" cy="10.2500" r="6.0" stroke="red" fill="none" stroke-width="2.0"/>
   <circle cx="45.5147" cy="11.0000" r="6.0" stroke="red" fill="none" stroke-width="2.0"/>
   <circle cx="43.7041" cy="11.7500" r="6.0" stroke="red" fill="none" stroke-width="2.0"/>
   <circle cx="41.8934" cy="12.5000" r="6.0" stroke="red" fill="none" stroke-width="2.0"/>
   <circle cx="40.0827" cy="13.2500" r="6.0" stroke="red" fill="none" stroke-width="2.0"/>
   <circle cx="38.2721" cy="14.0000" r="6.0" stroke="red" fill="none" stroke-width="2.0"/>
   <circle cx="36.4614" cy="14.7500" r="6.0" stroke="red" fill="none" stroke-width="2.0"/>
   <circle cx="34.6508" cy="15.5000" r="6.0" stroke="red" fill="none" stroke-width="2.0"/>
   <circle cx="32.8401" cy="16.2500" r="6.0" stroke="red" fill="none" stroke-width="2.0"/>
   <circle cx="31.0294" cy="17.0000" r="6.0" stroke="red" fill="none" stroke-width="2.0"/>
   <circle cx="29.2188" cy="17.7500" r="6.0" stroke="red" fill="none" stroke-width="2.0"/>
   <circle cx="27.4081" cy="18.5000" r="6.0" stroke="red" fill="none" stroke-width="2.0"/>
   <circle cx="25.5975" cy="19.2500" r="6.0" stroke="red" fill="none" stroke-width="2.0"/>
   <circle cx="23.7868" cy="20.0000" r="6.0" stroke="red" fill="none" stroke-width="2.0"/>
   <circle cx="21.9761" cy="20.7500" r="6.0" stroke="red" fill="none" stroke-width="2.0"/>
   <circle cx="20.9472" cy="21.5000" r="6.0" stroke="red" fill="none" stroke-width="2.0"/>
   <circle cx="20.6366" cy="22.2500" r="6.0" stroke="red" fill="none" stroke-width="2.0"/>
   <circle cx="20.3259" cy="23.0000" r="6.0" stroke="red" fill="none" stroke-width="2.0"/>
   <circle cx="20.0152" cy="23.7500" r="6.0" stroke="red" fill="none" stroke-width="2.0"/>
   <circle cx="19.7046" cy="24.5000" r="6.0" stroke="red" fill="none" stroke-width="2.0"/>
   <circle cx="19.3939" cy="25.2500" r="6.0" stroke="red" fill="none" stroke-width="2.0"/>
   <circle cx="19.0833" cy="26.0000" r="6.0" stroke="red" fill="none" stroke-width="2.0"/>
   <circle cx="18.7726" cy="26.7500" r="6.0" stroke="red" fill="none" stroke-width="2.0"/>
   <circle cx="18.4619" cy="27.5000" r="6.0" stroke="red" fill="none" stroke-width="2.0"/>
   <circle cx="18.1513" cy="28.2500" r="6.0" stroke="red" fill="none" stroke-width="2.0"/>
   <circle cx="17.8406" cy="29.0000" r="6.0" stroke="red" fill="none" stroke-width="2.0"/>
   <circle cx="17.5300" cy="29.7500" r="6.0" stroke="red" fill="none" stroke-width="2.0"/>
   <circle cx="17.2193" cy="30.5000" r="6.0" stroke="red" fill="none" stroke-width="2.0"/>
   <circle cx="16.9086" cy="31.2500" r="6.0" stroke="red" fill="none" stroke-width="2.0"/>
   <circle cx="16.5980" cy="32.0000" r="6.0" stroke="red" fill="none" stroke-width="2.0"/>
   <circle cx="16.2873" cy="32.7500" r="6.0" stroke="red" fill="none" stroke-width="2.0"/>
   <circle cx="15.9767" cy="33.5000" r="6.0" stroke="red" fill="none" stroke-width="2.0"/>
   <circle cx="15.6660" cy="34.2500" r="6.0" stroke="red" fill="none" stroke-width="2.0"/>
   <circle cx="15.3553" cy="35.0000" r="6.0" stroke="red" fill="none" stroke-width="2.0"/>
   <circle cx="15.0447" cy="35.7500" r="6.0" stroke="red" fill="none" stroke-width="2.0"/>
   <circle cx="14.7340" cy="36.5000" r="6.0" stroke="red" fill="none" stroke-width="2.0"/>
   <circle cx="14.4234" cy="37.2500" r="6.0" stroke="red" fill="none" stroke-width="2.0"/>
   <circle cx="14.1127" cy="38.0000" r="6.0" stroke="red" fill="none" stroke-width="2.0"/>
   <circle cx="13.8020" cy="38.7500" r="6.0" stroke="red" fill="none" stroke-width="2.0"/>
   <circle cx="13.4914" cy="39.5000" r="6.0" stroke="red" fill="none" stroke-width="2.0"/>
   <circle cx="13.1807" cy="40.2500" r="6.0" stroke="red" fill="none" stroke-width="2.0"/>
   <circle cx="12.8701" cy="41.0000" r="6.0" stroke="red" fill="none" stroke-width="2.0"/>
   <circle cx="12.5594" cy="41.7500" r="6.0" stroke="red" fill="none" stroke-width="2.0"/>
   <circle cx="12.2487" cy="42.5000" r="6.0" stroke="red" fill="none" stroke-width="2.0"/>
   <circle cx="11.9381" cy="43.2500" r="6.0" stroke="red" fill="none" stroke-width="2.0"/>
   <circle cx="11.6274" cy="44.0000" r="6.0" stroke="red" fill="none" stroke-width="2.0"/>
   <circle cx="11.3168" cy="44.7500" r="6.0" stroke="red" fill="none" stroke-width="2.0"/>
   <circle cx="11.0061" cy="45.5000" r="6.0" stroke="red" fill="none" stroke-width="2.0"/>
   <circle cx="10.6954" cy="46.2500" r="6.0" stroke="red" fill="none" stroke-width="2.0"/>
   <circle cx="10.3848" cy="47.0000" r="6.0" stroke="red" fill="none" stroke-width="2.0"/>
   <circle cx="10.0741" cy="47.7500" r="6.0" stroke="red" fill="none" stroke-width="2.0"/>
   <circle cx="9.7635" cy="48.5000" r="6.0" stroke="red" fill="none" stroke-width="2.0"/>
   <circle cx="9.4528" cy="49.2500" r="6.0" stroke="red" fill="none" stroke-width="2.0"/>
   <circle cx="9.1421" cy="50.0000" r="6.0" stroke="red" fill="none" stroke-width="2.0"/>
   <circle cx="8.8315" cy="50.7500" r="6.0" stroke="red" fill="none" stroke-width="2.0"/>
   <circle cx="8.5208" cy="51.5000" r="6.0" stroke="red" fill="none" stroke-width="2.0"/>
   <circle cx="8.2102" cy="52.2500" r="6.0" stroke="red" fill="none" stroke-width="2.0"/>
   <circle cx="7.8995" cy="53.0000" r="6.0" stroke="red" fill="none" stroke-width="2.0"/>
   <circle cx="7.5888" cy="53.7500" r="6.0" stroke="red" fill="none" stroke-width="2.0"/>
   <circle cx="7.2782" cy="54.5000" r="6.0" stroke="red" fill="none" stroke-width="2.0"/>
   <circle cx="6.9675" cy="55.2500" r="6.0" stroke="red" fill="none" stroke-width="2.0"/>
   <circle cx="6.6569" cy="56.0000" r="6.0" stroke="red" fill="none" stroke-width="2.0"/>
   <circle cx="6.3462" cy="56.7500" r="6.0" stroke="red" fill="none" stroke-width="2.0"/>
   <circle cx="6.0355" cy="57.5000" r="6.0" stroke="red" fill="none" stroke-width="2.0"/>
   <circle cx="5.7249" cy="58.2500" r="6.0" stroke="red" fill="none" stroke-width="2.0"/>
   <circle cx="5.4142" cy="59.0000" r="6.0" stroke="red" fill="none" stroke-width="2.0"/>
   <circle cx="5.1036" cy="59.7500" r="6.0" stroke="red" fill="none" stroke-width="2.0"/>
   <circle cx="5.2071" cy="60.5000" r="6.0" stroke="red" fill="none" stroke-width="2.0"/>
   <circle cx="5.5178" cy="61.2500" r="6.0" stroke="red" fill="none" stroke-width="2.0"/>
   <circle cx="5.8284" cy="62.0000" r="6.0" stroke="red" fill="none" stroke-width="2.0"/>
   <circle cx="6.1391" cy="62.7500" r="6.0" stroke="red" fill="none" stroke-width="2.0"/>
   <circle cx="6.4497" cy="63.5000" r="6.0" stroke="red" fill="none" stroke-width="2.0"/>
   <circle cx="6.7604" cy="64.2500" r="6.0" stroke="red" fill="none" stroke-width="2.0"/>
   <circle cx="7.0711" cy="65.0000" r="6.0" stroke="red" fill="none" stroke-width="2.0"/>
   <circle cx="7.3817" cy="65.7500" r="6.0" stroke="red" fill="none" stroke-width="2.0"/>
   <circle cx="7.6924" cy="66.5000" r="6.0" stroke="red" fill="none" stroke-width="2.0"/>
   <circle cx="8.0030" cy="67.2500" r="6.0" stroke="red" fill="none" stroke-width="2.0"/>
   <circle cx="8.3137" cy="68.0000" r="6.0" stroke="red" fill="none" stroke-width="2.0"/>
   <circle cx="8.6244" cy="68.7500" r="6.0" stroke="red" fill="none" stroke-width="2.0"/>
   <circle cx="8.9350" cy="69.5000" r="6.0" stroke="red" fill="none" stroke-width="2.0"/>
   <circle cx="9.2457" cy="70.2500" r="6.0" stroke="red" fill="none" stroke-width="2.0"/>
   <circle cx="9.5563" cy="71.0000" r="6.0" stroke="red" fill="none" stroke-width="2.0"/>
   <circle cx="9.8670" cy="71.7500" r="6.0" stroke="red" fill="none" stroke-width="2.0"/>
   <circle cx="10.1777" cy="72.5000" r="6.0" stroke="red" fill="none" stroke-width="2.0"/>
   <circle cx="10.4883" cy="73.2500" r="6.0" stroke="red" fill="none" stroke-width="2.0"/>
   <circle cx="10.7990" cy="74.0000" r="6.0" stroke="red" fill="none" stroke-width="2.0"/>
   <circle cx="11.1097" cy="74.7500" r="6.0" stroke="red" fill="none" stroke-width="2.0"/>
   <circle cx="11.4203" cy="75.5000" r="6.0" stroke="red" fill="none" stroke-width="2.0"/>
   <circle cx="11.7310" cy="76.2500" r="6.0" stroke="red" fill="none" stroke-width="2.0"/>
   <circle cx="12.0416" cy="77.0000" r="6.0" stroke="red" fill="none" stroke-width="2.0"/>
   <circle cx="12.3523" cy="77.7500" r="6.0" stroke="red" fill="none" stroke-width="2.0"/>
   <circle cx="12.6630" cy="78.5000" r="6.0" stroke="red" fill="none" stroke-width="2.0"/>
   <circle cx="12.9736" cy="79.2500" r="6.0" stroke="red" fill="none" stroke-width="2.0"/>
   <circle cx="13.2843" cy="80.0000" r="6.0" stroke="red" fill="none" stroke-width="2.0"/>
   <circle cx="13.5949" cy="80.7500" r="6.0" stroke="red" fill="none" stroke-width="2.0"/>
   <circle cx="13.9056" cy="81.5000" r="6.0" stroke="red" fill="none" stroke-width="2.0"/>
   <circle cx="14.2163" cy="82.2500" r="6.0" stroke="red" fill="none" stroke-width="2.0"/>
   <circle cx="14.5269" cy="83.0000" r="6.0" stroke="red" fill="none" stroke-width="2.0"/>
   <circle cx="14.8376" cy="83.7500" r="6.0" stroke="red" fill="none" stroke-width="2.0"/>
   <circle cx="15.1482" cy="84.5000" r="6.0" stroke="red" fill="none" stroke-width="2.0"/>
   <circle cx="15.4589" cy="85.2500" r="6.0" stroke="red" fill="none" stroke-width="2.0"/>
   <circle cx="15.7696" cy="86.0000" r="6.0" stroke="red" fill="none" stroke-width="2.0"/>
   <circle cx="16.0802" cy="86.7500" r="6.0" stroke="red" fill="none" stroke-width="2.0"/>
   <circle cx="16.3909" cy="87.5000" r="6.0" stroke="red" fill="none" stroke-width="2.0"/>
</g>
</svg>
