<?xml version="1.0" encoding="UTF-8"?>
<svg xmlns="http://www.w3.org/2000/svg" xmlns:xlink="http://www.w3.org/1999/xlink" width="138.7981" height="137.0068" viewBox="-8.7981 -7.3081 138.7981 137.0068">
<g id="fig">
   <text x="115.000000" y="60.000000" id="10" text-anchor="middle" fill="#916f6f" stroke="None" font-family="sans-serif" font-size="9pt" font-weight="lighter">Sao teus guias brasileiros</text>
   <text x="101.109546" y="78.303149" id="11" text-anchor="middle" fill="#916f6f" stroke="None" font-family="sans-serif" font-size="9pt" font-weight="lighter">Que te amam eternamente</text>
   <text x="96.802183" y="100.872965" id="12" text-anchor="middle" fill="#916f6f" stroke="None" font-family="sans-serif" font-size="9pt" font-weight="lighter">De Sao Paulo tens o nome</text>
   <text x="73.905765" y="102.797543" id="13" text-anchor="middle" fill="#916f6f" stroke="None" font-family="sans-serif" font-size="9pt" font-weight="lighter">Que ostentas dignamente</text>
   <text x="54.250935" y="114.698704" id="14" text-anchor="middle" fill="#916f6f" stroke="None" font-family="sans-serif" font-size="9pt" font-weight="lighter">De Sao Paulo tens o nome</text>
   <text x="37.500000" y="98.971143" id="15" text-anchor="middle" fill="#916f6f" stroke="None" font-family="sans-serif" font-size="9pt" font-weight="lighter">Que ostentas dignamente</text>
   <text x="15.504065" y="92.328189" id="16" text-anchor="middle" fill="#916f6f" stroke="None" font-family="sans-serif" font-size="9pt" font-weight="lighter">Salve o tricolor paulista</text>
   <text x="15.983358" y="69.356026" id="17" text-anchor="middle" fill="#916f6f" stroke="None" font-family="sans-serif" font-size="9pt" font-weight="lighter">Amado clube brasileiro</text>
   <text x="6.201882" y="48.564857" id="18" text-anchor="middle" fill="#916f6f" stroke="None" font-family="sans-serif" font-size="9pt" font-weight="lighter">Tu es forte, tu es grande</text>
   <text x="23.594235" y="33.549664" id="19" text-anchor="middle" fill="#916f6f" stroke="None" font-family="sans-serif" font-size="9pt" font-weight="lighter">Dentre os grandes es o primeiro</text>
   <text x="32.500000" y="12.368603" id="20" text-anchor="middle" fill="#916f6f" stroke="None" font-family="sans-serif" font-size="9pt" font-weight="lighter">Tu es forte, tu es grande</text>
   <text x="55.296219" y="15.246515" id="21" text-anchor="middle" fill="#916f6f" stroke="None" font-family="sans-serif" font-size="9pt" font-weight="lighter">Dentre os grandes es o primeiro</text>
   <text x="76.995935" y="7.691892" id="22" text-anchor="middle" fill="#916f6f" stroke="None" font-family="sans-serif" font-size="9pt" font-weight="lighter">Oh, Tricolor</text>
   <text x="90.110877" y="26.558483" id="23" text-anchor="middle" fill="#916f6f" stroke="None" font-family="sans-serif" font-size="9pt" font-weight="lighter">Clube bem amado</text>
   <text x="110.245000" y="37.629485" id="24" text-anchor="middle" fill="#916f6f" stroke="None" font-family="sans-serif" font-size="9pt" font-weight="lighter">As tuas gloriasVem do passado</text>
   <line id="34" x1="73.905765" y1="102.797543" x2="54.250935" y2="114.698704" stroke="#5f5dd3" stroke-width="2" stroke-opacity="1.000000"/>
   <line id="35" x1="54.250935" y1="114.698704" x2="37.500000" y2="98.971143" stroke="#5f5dd3" stroke-width="2" stroke-opacity="1.000000"/>
   <line id="36" x1="37.500000" y1="98.971143" x2="15.504065" y2="92.328189" stroke="#5f5dd3" stroke-width="2" stroke-opacity="1.000000"/>
   <line id="37" x1="15.504065" y1="92.328189" x2="15.983358" y2="69.356026" stroke="#5f5dd3" stroke-width="2" stroke-opacity="1.000000"/>
   <line id="38" x1="15.983358" y1="69.356026" x2="6.201882" y2="48.564857" stroke="#5f5dd3" stroke-width="2" stroke-opacity="1.000000"/>
   <line id="39" x1="6.201882" y1="48.564857" x2="23.594235" y2="33.549664" stroke="#5f5dd3" stroke-width="2" stroke-opacity="1.000000"/>
   <line id="40" x1="23.594235" y1="33.549664" x2="32.500000" y2="12.368603" stroke="#5f5dd3" stroke-width="2" stroke-opacity="1.000000"/>
   <line id="41" x1="32.500000" y1="12.368603" x2="55.296219" y2="15.246515" stroke="#5f5dd3" stroke-width="2" stroke-opacity="1.000000"/>
   <line id="42" x1="55.296219" y1="15.246515" x2="76.995935" y2="7.691892" stroke="#5f5dd3" stroke-width="2" stroke-opacity="1.000000"/>
   <line id="43" x1="76.995935" y1="7.691892" x2="90.110877" y2="26.558483" stroke="#5f5dd3" stroke-width="2" stroke-opacity="1.000000"/>
   <line id="44" x1="90.110877" y1="26.558483" x2="110.245000" y2="37.629485" stroke="#5f5dd3" stroke-width="2" stroke-opacity="1.000000"/>
   <line id="45" x1="110.245000" y1="37.629485" x2="115.000000" y2="60.000000" stroke="#5f5dd3" stroke-width="2" stroke-opacity="1.000000"/>
   <line id="46" x1="115.000000" y1="60.000000" x2="101.109546" y2="78.303149" stroke="#5f5dd3" stroke-width="2" stroke-opacity="1.000000"/>
   <line id="47" x1="101.109546" y1="78.303149" x2="96.802183" y2="100.872965" stroke="#5f5dd3" stroke-width="2" stroke-opacity="1.000000"/>
   <line id="48" x1="96.802183" y1="100.872965" x2="73.905765" y2="102.797543" stroke="#5f5dd3" stroke-width="2" stroke-opacity="1.000000"/>
   <line id="49" x1="74.841653" y1="8.441892" x2="77.517291" y2="8.441892" stroke="#5fd3bc" stroke-width="2" stroke-opacity="1.000000"/>
   <line id="50" x1="72.687371" y1="9.191892" x2="78.038647" y2="9.191892" stroke="#5fd3bc" stroke-width="2" stroke-opacity="1.000000"/>
   <line id="51" x1="70.533090" y1="9.941892" x2="78.560002" y2="9.941892" stroke="#5fd3bc" stroke-width="2" stroke-opacity="1.000000"/>
   <line id="52" x1="68.378808" y1="10.691892" x2="79.081358" y2="10.691892" stroke="#5fd3bc" stroke-width="2" stroke-opacity="1.000000"/>
   <line id="53" x1="66.224526" y1="11.441892" x2="79.602714" y2="11.441892" stroke="#5fd3bc" stroke-width="2" stroke-opacity="1.000000"/>
   <line id="54" x1="64.070244" y1="12.191892" x2="80.124070" y2="12.191892" stroke="#5fd3bc" stroke-width="2" stroke-opacity="1.000000"/>
   <line id="55" x1="32.258956" y1="12.941892" x2="37.041078" y2="12.941892" stroke="#5fd3bc" stroke-width="2" stroke-opacity="1.000000"/>
   <line id="56" x1="61.915962" y1="12.941892" x2="80.645426" y2="12.941892" stroke="#5fd3bc" stroke-width="2" stroke-opacity="1.000000"/>
   <line id="57" x1="31.943611" y1="13.691892" x2="42.981900" y2="13.691892" stroke="#5fd3bc" stroke-width="2" stroke-opacity="1.000000"/>
   <line id="58" x1="59.761680" y1="13.691892" x2="81.166781" y2="13.691892" stroke="#5fd3bc" stroke-width="2" stroke-opacity="1.000000"/>
   <line id="59" x1="31.628267" y1="14.441892" x2="48.922722" y2="14.441892" stroke="#5fd3bc" stroke-width="2" stroke-opacity="1.000000"/>
   <line id="60" x1="57.607399" y1="14.441892" x2="81.688137" y2="14.441892" stroke="#5fd3bc" stroke-width="2" stroke-opacity="1.000000"/>
   <line id="61" x1="31.312923" y1="15.191892" x2="54.863545" y2="15.191892" stroke="#5fd3bc" stroke-width="2" stroke-opacity="1.000000"/>
   <line id="62" x1="55.453117" y1="15.191892" x2="82.209493" y2="15.191892" stroke="#5fd3bc" stroke-width="2" stroke-opacity="1.000000"/>
   <line id="63" x1="30.997579" y1="15.941892" x2="82.730849" y2="15.941892" stroke="#5fd3bc" stroke-width="2" stroke-opacity="1.000000"/>
   <line id="64" x1="30.682235" y1="16.691892" x2="83.252205" y2="16.691892" stroke="#5fd3bc" stroke-width="2" stroke-opacity="1.000000"/>
   <line id="65" x1="30.366891" y1="17.441892" x2="83.773560" y2="17.441892" stroke="#5fd3bc" stroke-width="2" stroke-opacity="1.000000"/>
   <line id="66" x1="30.051546" y1="18.191892" x2="84.294916" y2="18.191892" stroke="#5fd3bc" stroke-width="2" stroke-opacity="1.000000"/>
   <line id="67" x1="29.736202" y1="18.941892" x2="84.816272" y2="18.941892" stroke="#5fd3bc" stroke-width="2" stroke-opacity="1.000000"/>
   <line id="68" x1="29.420858" y1="19.691892" x2="85.337628" y2="19.691892" stroke="#5fd3bc" stroke-width="2" stroke-opacity="1.000000"/>
   <line id="69" x1="29.105514" y1="20.441892" x2="85.858983" y2="20.441892" stroke="#5fd3bc" stroke-width="2" stroke-opacity="1.000000"/>
   <line id="70" x1="28.790170" y1="21.191892" x2="86.380339" y2="21.191892" stroke="#5fd3bc" stroke-width="2" stroke-opacity="1.000000"/>
   <line id="71" x1="28.474826" y1="21.941892" x2="86.901695" y2="21.941892" stroke="#5fd3bc" stroke-width="2" stroke-opacity="1.000000"/>
   <line id="72" x1="28.159482" y1="22.691892" x2="87.423051" y2="22.691892" stroke="#5fd3bc" stroke-width="2" stroke-opacity="1.000000"/>
   <line id="73" x1="27.844137" y1="23.441892" x2="87.944407" y2="23.441892" stroke="#5fd3bc" stroke-width="2" stroke-opacity="1.000000"/>
   <line id="74" x1="27.528793" y1="24.191892" x2="88.465762" y2="24.191892" stroke="#5fd3bc" stroke-width="2" stroke-opacity="1.000000"/>
   <line id="75" x1="27.213449" y1="24.941892" x2="88.987118" y2="24.941892" stroke="#5fd3bc" stroke-width="2" stroke-opacity="1.000000"/>
   <line id="76" x1="26.898105" y1="25.691892" x2="89.508474" y2="25.691892" stroke="#5fd3bc" stroke-width="2" stroke-opacity="1.000000"/>
   <line id="77" x1="26.582761" y1="26.441892" x2="90.029830" y2="26.441892" stroke="#5fd3bc" stroke-width="2" stroke-opacity="1.000000"/>
   <line id="78" x1="26.267417" y1="27.191892" x2="91.262817" y2="27.191892" stroke="#5fd3bc" stroke-width="2" stroke-opacity="1.000000"/>
   <line id="79" x1="25.952072" y1="27.941892" x2="92.626794" y2="27.941892" stroke="#5fd3bc" stroke-width="2" stroke-opacity="1.000000"/>
   <line id="80" x1="25.636728" y1="28.691892" x2="93.990771" y2="28.691892" stroke="#5fd3bc" stroke-width="2" stroke-opacity="1.000000"/>
   <line id="81" x1="25.321384" y1="29.441892" x2="95.354748" y2="29.441892" stroke="#5fd3bc" stroke-width="2" stroke-opacity="1.000000"/>
   <line id="82" x1="25.006040" y1="30.191892" x2="96.718725" y2="30.191892" stroke="#5fd3bc" stroke-width="2" stroke-opacity="1.000000"/>
   <line id="83" x1="24.690696" y1="30.941892" x2="98.082702" y2="30.941892" stroke="#5fd3bc" stroke-width="2" stroke-opacity="1.000000"/>
   <line id="84" x1="24.375352" y1="31.691892" x2="99.446680" y2="31.691892" stroke="#5fd3bc" stroke-width="2" stroke-opacity="1.000000"/>
   <line id="85" x1="24.060008" y1="32.441892" x2="100.810657" y2="32.441892" stroke="#5fd3bc" stroke-width="2" stroke-opacity="1.000000"/>
   <line id="86" x1="23.744663" y1="33.191892" x2="102.174634" y2="33.191892" stroke="#5fd3bc" stroke-width="2" stroke-opacity="1.000000"/>
   <line id="87" x1="23.139911" y1="33.941892" x2="103.538611" y2="33.941892" stroke="#5fd3bc" stroke-width="2" stroke-opacity="1.000000"/>
   <line id="88" x1="22.271173" y1="34.691892" x2="104.902588" y2="34.691892" stroke="#5fd3bc" stroke-width="2" stroke-opacity="1.000000"/>
   <line id="89" x1="21.402435" y1="35.441892" x2="106.266565" y2="35.441892" stroke="#5fd3bc" stroke-width="2" stroke-opacity="1.000000"/>
   <line id="90" x1="20.533697" y1="36.191892" x2="107.630542" y2="36.191892" stroke="#5fd3bc" stroke-width="2" stroke-opacity="1.000000"/>
   <line id="91" x1="19.664960" y1="36.941892" x2="108.994519" y2="36.941892" stroke="#5fd3bc" stroke-width="2" stroke-opacity="1.000000"/>
   <line id="92" x1="18.796222" y1="37.691892" x2="110.258265" y2="37.691892" stroke="#5fd3bc" stroke-width="2" stroke-opacity="1.000000"/>
   <line id="93" x1="17.927484" y1="38.441892" x2="110.417682" y2="38.441892" stroke="#5fd3bc" stroke-width="2" stroke-opacity="1.000000"/>
   <line id="94" x1="17.058747" y1="39.191892" x2="110.577100" y2="39.191892" stroke="#5fd3bc" stroke-width="2" stroke-opacity="1.000000"/>
   <line id="95" x1="16.190009" y1="39.941892" x2="110.736517" y2="39.941892" stroke="#5fd3bc" stroke-width="2" stroke-opacity="1.000000"/>
   <line id="96" x1="15.321271" y1="40.691892" x2="110.895935" y2="40.691892" stroke="#5fd3bc" stroke-width="2" stroke-opacity="1.000000"/>
   <line id="97" x1="14.452533" y1="41.441892" x2="111.055352" y2="41.441892" stroke="#5fd3bc" stroke-width="2" stroke-opacity="1.000000"/>
   <line id="98" x1="13.583796" y1="42.191892" x2="111.214770" y2="42.191892" stroke="#5fd3bc" stroke-width="2" stroke-opacity="1.000000"/>
   <line id="99" x1="12.715058" y1="42.941892" x2="111.374187" y2="42.941892" stroke="#5fd3bc" stroke-width="2" stroke-opacity="1.000000"/>
   <line id="100" x1="11.846320" y1="43.691892" x2="111.533604" y2="43.691892" stroke="#5fd3bc" stroke-width="2" stroke-opacity="1.000000"/>
   <line id="101" x1="10.977582" y1="44.441892" x2="111.693022" y2="44.441892" stroke="#5fd3bc" stroke-width="2" stroke-opacity="1.000000"/>
   <line id="102" x1="10.108845" y1="45.191892" x2="111.852439" y2="45.191892" stroke="#5fd3bc" stroke-width="2" stroke-opacity="1.000000"/>
   <line id="103" x1="9.240107" y1="45.941892" x2="112.011857" y2="45.941892" stroke="#5fd3bc" stroke-width="2" stroke-opacity="1.000000"/>
   <line id="104" x1="8.371369" y1="46.691892" x2="112.171274" y2="46.691892" stroke="#5fd3bc" stroke-width="2" stroke-opacity="1.000000"/>
   <line id="105" x1="7.502631" y1="47.441892" x2="112.330692" y2="47.441892" stroke="#5fd3bc" stroke-width="2" stroke-opacity="1.000000"/>
   <line id="106" x1="6.633894" y1="48.191892" x2="112.490109" y2="48.191892" stroke="#5fd3bc" stroke-width="2" stroke-opacity="1.000000"/>
   <line id="107" x1="6.379263" y1="48.941892" x2="112.649526" y2="48.941892" stroke="#5fd3bc" stroke-width="2" stroke-opacity="1.000000"/>
   <line id="108" x1="6.732110" y1="49.691892" x2="112.808944" y2="49.691892" stroke="#5fd3bc" stroke-width="2" stroke-opacity="1.000000"/>
   <line id="109" x1="7.084958" y1="50.441892" x2="112.968361" y2="50.441892" stroke="#5fd3bc" stroke-width="2" stroke-opacity="1.000000"/>
   <line id="110" x1="7.437805" y1="51.191892" x2="113.127779" y2="51.191892" stroke="#5fd3bc" stroke-width="2" stroke-opacity="1.000000"/>
   <line id="111" x1="7.790652" y1="51.941892" x2="113.287196" y2="51.941892" stroke="#5fd3bc" stroke-width="2" stroke-opacity="1.000000"/>
   <line id="112" x1="8.143499" y1="52.691892" x2="113.446614" y2="52.691892" stroke="#5fd3bc" stroke-width="2" stroke-opacity="1.000000"/>
   <line id="113" x1="8.496347" y1="53.441892" x2="113.606031" y2="53.441892" stroke="#5fd3bc" stroke-width="2" stroke-opacity="1.000000"/>
   <line id="114" x1="8.849194" y1="54.191892" x2="113.765448" y2="54.191892" stroke="#5fd3bc" stroke-width="2" stroke-opacity="1.000000"/>
   <line id="115" x1="9.202041" y1="54.941892" x2="113.924866" y2="54.941892" stroke="#5fd3bc" stroke-width="2" stroke-opacity="1.000000"/>
   <line id="116" x1="9.554888" y1="55.691892" x2="114.084283" y2="55.691892" stroke="#5fd3bc" stroke-width="2" stroke-opacity="1.000000"/>
   <line id="117" x1="9.907736" y1="56.441892" x2="114.243701" y2="56.441892" stroke="#5fd3bc" stroke-width="2" stroke-opacity="1.000000"/>
   <line id="118" x1="10.260583" y1="57.191892" x2="114.403118" y2="57.191892" stroke="#5fd3bc" stroke-width="2" stroke-opacity="1.000000"/>
   <line id="119" x1="10.613430" y1="57.941892" x2="114.562536" y2="57.941892" stroke="#5fd3bc" stroke-width="2" stroke-opacity="1.000000"/>
   <line id="120" x1="10.966277" y1="58.691892" x2="114.721953" y2="58.691892" stroke="#5fd3bc" stroke-width="2" stroke-opacity="1.000000"/>
   <line id="121" x1="11.319125" y1="59.441892" x2="114.881370" y2="59.441892" stroke="#5fd3bc" stroke-width="2" stroke-opacity="1.000000"/>
   <line id="122" x1="11.671972" y1="60.191892" x2="114.854371" y2="60.191892" stroke="#5fd3bc" stroke-width="2" stroke-opacity="1.000000"/>
   <line id="123" x1="12.024819" y1="60.941892" x2="114.285188" y2="60.941892" stroke="#5fd3bc" stroke-width="2" stroke-opacity="1.000000"/>
   <line id="124" x1="12.377666" y1="61.691892" x2="113.716005" y2="61.691892" stroke="#5fd3bc" stroke-width="2" stroke-opacity="1.000000"/>
   <line id="125" x1="12.730514" y1="62.441892" x2="113.146822" y2="62.441892" stroke="#5fd3bc" stroke-width="2" stroke-opacity="1.000000"/>
   <line id="126" x1="13.083361" y1="63.191892" x2="112.577639" y2="63.191892" stroke="#5fd3bc" stroke-width="2" stroke-opacity="1.000000"/>
   <line id="127" x1="13.436208" y1="63.941892" x2="112.008456" y2="63.941892" stroke="#5fd3bc" stroke-width="2" stroke-opacity="1.000000"/>
   <line id="128" x1="13.789055" y1="64.691892" x2="111.439273" y2="64.691892" stroke="#5fd3bc" stroke-width="2" stroke-opacity="1.000000"/>
   <line id="129" x1="14.141903" y1="65.441892" x2="110.870090" y2="65.441892" stroke="#5fd3bc" stroke-width="2" stroke-opacity="1.000000"/>
   <line id="130" x1="14.494750" y1="66.191892" x2="110.300907" y2="66.191892" stroke="#5fd3bc" stroke-width="2" stroke-opacity="1.000000"/>
   <line id="131" x1="14.847597" y1="66.941892" x2="109.731724" y2="66.941892" stroke="#5fd3bc" stroke-width="2" stroke-opacity="1.000000"/>
   <line id="132" x1="15.200445" y1="67.691892" x2="109.162542" y2="67.691892" stroke="#5fd3bc" stroke-width="2" stroke-opacity="1.000000"/>
   <line id="133" x1="15.553292" y1="68.441892" x2="108.593359" y2="68.441892" stroke="#5fd3bc" stroke-width="2" stroke-opacity="1.000000"/>
   <line id="134" x1="15.906139" y1="69.191892" x2="108.024176" y2="69.191892" stroke="#5fd3bc" stroke-width="2" stroke-opacity="1.000000"/>
   <line id="135" x1="15.971134" y1="69.941892" x2="107.454993" y2="69.941892" stroke="#5fd3bc" stroke-width="2" stroke-opacity="1.000000"/>
   <line id="136" x1="15.955486" y1="70.691892" x2="106.885810" y2="70.691892" stroke="#5fd3bc" stroke-width="2" stroke-opacity="1.000000"/>
   <line id="137" x1="15.939838" y1="71.441892" x2="106.316627" y2="71.441892" stroke="#5fd3bc" stroke-width="2" stroke-opacity="1.000000"/>
   <line id="138" x1="15.924190" y1="72.191892" x2="105.747444" y2="72.191892" stroke="#5fd3bc" stroke-width="2" stroke-opacity="1.000000"/>
   <line id="139" x1="15.908542" y1="72.941892" x2="105.178261" y2="72.941892" stroke="#5fd3bc" stroke-width="2" stroke-opacity="1.000000"/>
   <line id="140" x1="15.892894" y1="73.691892" x2="104.609078" y2="73.691892" stroke="#5fd3bc" stroke-width="2" stroke-opacity="1.000000"/>
   <line id="141" x1="15.877246" y1="74.441892" x2="104.039895" y2="74.441892" stroke="#5fd3bc" stroke-width="2" stroke-opacity="1.000000"/>
   <line id="142" x1="15.861598" y1="75.191892" x2="103.470712" y2="75.191892" stroke="#5fd3bc" stroke-width="2" stroke-opacity="1.000000"/>
   <line id="143" x1="15.845950" y1="75.941892" x2="102.901529" y2="75.941892" stroke="#5fd3bc" stroke-width="2" stroke-opacity="1.000000"/>
   <line id="144" x1="15.830302" y1="76.691892" x2="102.332346" y2="76.691892" stroke="#5fd3bc" stroke-width="2" stroke-opacity="1.000000"/>
   <line id="145" x1="15.814654" y1="77.441892" x2="101.763163" y2="77.441892" stroke="#5fd3bc" stroke-width="2" stroke-opacity="1.000000"/>
   <line id="146" x1="15.799006" y1="78.191892" x2="101.193980" y2="78.191892" stroke="#5fd3bc" stroke-width="2" stroke-opacity="1.000000"/>
   <line id="147" x1="15.783358" y1="78.941892" x2="100.987644" y2="78.941892" stroke="#5fd3bc" stroke-width="2" stroke-opacity="1.000000"/>
   <line id="148" x1="15.767710" y1="79.691892" x2="100.844510" y2="79.691892" stroke="#5fd3bc" stroke-width="2" stroke-opacity="1.000000"/>
   <line id="149" x1="15.752062" y1="80.441892" x2="100.701375" y2="80.441892" stroke="#5fd3bc" stroke-width="2" stroke-opacity="1.000000"/>
   <line id="150" x1="15.736414" y1="81.191892" x2="100.558240" y2="81.191892" stroke="#5fd3bc" stroke-width="2" stroke-opacity="1.000000"/>
   <line id="151" x1="15.720766" y1="81.941892" x2="100.415106" y2="81.941892" stroke="#5fd3bc" stroke-width="2" stroke-opacity="1.000000"/>
   <line id="152" x1="15.705117" y1="82.691892" x2="100.271971" y2="82.691892" stroke="#5fd3bc" stroke-width="2" stroke-opacity="1.000000"/>
   <line id="153" x1="15.689469" y1="83.441892" x2="100.128837" y2="83.441892" stroke="#5fd3bc" stroke-width="2" stroke-opacity="1.000000"/>
   <line id="154" x1="15.673821" y1="84.191892" x2="99.985702" y2="84.191892" stroke="#5fd3bc" stroke-width="2" stroke-opacity="1.000000"/>
   <line id="155" x1="15.658173" y1="84.941892" x2="99.842567" y2="84.941892" stroke="#5fd3bc" stroke-width="2" stroke-opacity="1.000000"/>
   <line id="156" x1="15.642525" y1="85.691892" x2="99.699433" y2="85.691892" stroke="#5fd3bc" stroke-width="2" stroke-opacity="1.000000"/>
   <line id="157" x1="15.626877" y1="86.441892" x2="99.556298" y2="86.441892" stroke="#5fd3bc" stroke-width="2" stroke-opacity="1.000000"/>
   <line id="158" x1="15.611229" y1="87.191892" x2="99.413163" y2="87.191892" stroke="#5fd3bc" stroke-width="2" stroke-opacity="1.000000"/>
   <line id="159" x1="15.595581" y1="87.941892" x2="99.270029" y2="87.941892" stroke="#5fd3bc" stroke-width="2" stroke-opacity="1.000000"/>
   <line id="160" x1="15.579933" y1="88.691892" x2="99.126894" y2="88.691892" stroke="#5fd3bc" stroke-width="2" stroke-opacity="1.000000"/>
   <line id="161" x1="15.564285" y1="89.441892" x2="98.983760" y2="89.441892" stroke="#5fd3bc" stroke-width="2" stroke-opacity="1.000000"/>
   <line id="162" x1="15.548637" y1="90.191892" x2="98.840625" y2="90.191892" stroke="#5fd3bc" stroke-width="2" stroke-opacity="1.000000"/>
   <line id="163" x1="15.532989" y1="90.941892" x2="98.697490" y2="90.941892" stroke="#5fd3bc" stroke-width="2" stroke-opacity="1.000000"/>
   <line id="164" x1="15.517341" y1="91.691892" x2="98.554356" y2="91.691892" stroke="#5fd3bc" stroke-width="2" stroke-opacity="1.000000"/>
   <line id="165" x1="15.880555" y1="92.441892" x2="98.411221" y2="92.441892" stroke="#5fd3bc" stroke-width="2" stroke-opacity="1.000000"/>
   <line id="166" x1="18.363931" y1="93.191892" x2="98.268086" y2="93.191892" stroke="#5fd3bc" stroke-width="2" stroke-opacity="1.000000"/>
   <line id="167" x1="20.847306" y1="93.941892" x2="98.124952" y2="93.941892" stroke="#5fd3bc" stroke-width="2" stroke-opacity="1.000000"/>
   <line id="168" x1="23.330682" y1="94.691892" x2="97.981817" y2="94.691892" stroke="#5fd3bc" stroke-width="2" stroke-opacity="1.000000"/>
   <line id="169" x1="25.814058" y1="95.441892" x2="97.838682" y2="95.441892" stroke="#5fd3bc" stroke-width="2" stroke-opacity="1.000000"/>
   <line id="170" x1="28.297434" y1="96.191892" x2="97.695548" y2="96.191892" stroke="#5fd3bc" stroke-width="2" stroke-opacity="1.000000"/>
   <line id="171" x1="30.780810" y1="96.941892" x2="97.552413" y2="96.941892" stroke="#5fd3bc" stroke-width="2" stroke-opacity="1.000000"/>
   <line id="172" x1="33.264185" y1="97.691892" x2="97.409279" y2="97.691892" stroke="#5fd3bc" stroke-width="2" stroke-opacity="1.000000"/>
   <line id="173" x1="35.747561" y1="98.441892" x2="97.266144" y2="98.441892" stroke="#5fd3bc" stroke-width="2" stroke-opacity="1.000000"/>
   <line id="174" x1="37.735113" y1="99.191892" x2="97.123009" y2="99.191892" stroke="#5fd3bc" stroke-width="2" stroke-opacity="1.000000"/>
   <line id="175" x1="38.533915" y1="99.941892" x2="96.979875" y2="99.941892" stroke="#5fd3bc" stroke-width="2" stroke-opacity="1.000000"/>
   <line id="176" x1="39.332716" y1="100.691892" x2="96.836740" y2="100.691892" stroke="#5fd3bc" stroke-width="2" stroke-opacity="1.000000"/>
   <line id="177" x1="40.131518" y1="101.441892" x2="90.033743" y2="101.441892" stroke="#5fd3bc" stroke-width="2" stroke-opacity="1.000000"/>
   <line id="178" x1="40.930319" y1="102.191892" x2="81.111105" y2="102.191892" stroke="#5fd3bc" stroke-width="2" stroke-opacity="1.000000"/>
   <line id="179" x1="41.729121" y1="102.941892" x2="73.667372" y2="102.941892" stroke="#5fd3bc" stroke-width="2" stroke-opacity="1.000000"/>
   <line id="180" x1="42.527923" y1="103.691892" x2="72.428743" y2="103.691892" stroke="#5fd3bc" stroke-width="2" stroke-opacity="1.000000"/>
   <line id="181" x1="43.326724" y1="104.441892" x2="71.190114" y2="104.441892" stroke="#5fd3bc" stroke-width="2" stroke-opacity="1.000000"/>
   <line id="182" x1="44.125526" y1="105.191892" x2="69.951485" y2="105.191892" stroke="#5fd3bc" stroke-width="2" stroke-opacity="1.000000"/>
   <line id="183" x1="44.924327" y1="105.941892" x2="68.712856" y2="105.941892" stroke="#5fd3bc" stroke-width="2" stroke-opacity="1.000000"/>
   <line id="184" x1="45.723129" y1="106.691892" x2="67.474227" y2="106.691892" stroke="#5fd3bc" stroke-width="2" stroke-opacity="1.000000"/>
   <line id="185" x1="46.521931" y1="107.441892" x2="66.235598" y2="107.441892" stroke="#5fd3bc" stroke-width="2" stroke-opacity="1.000000"/>
   <line id="186" x1="47.320732" y1="108.191892" x2="64.996969" y2="108.191892" stroke="#5fd3bc" stroke-width="2" stroke-opacity="1.000000"/>
   <line id="187" x1="48.119534" y1="108.941892" x2="63.758340" y2="108.941892" stroke="#5fd3bc" stroke-width="2" stroke-opacity="1.000000"/>
   <line id="188" x1="48.918336" y1="109.691892" x2="62.519711" y2="109.691892" stroke="#5fd3bc" stroke-width="2" stroke-opacity="1.000000"/>
   <line id="189" x1="49.717137" y1="110.441892" x2="61.281082" y2="110.441892" stroke="#5fd3bc" stroke-width="2" stroke-opacity="1.000000"/>
   <line id="190" x1="50.515939" y1="111.191892" x2="60.042453" y2="111.191892" stroke="#5fd3bc" stroke-width="2" stroke-opacity="1.000000"/>
   <line id="191" x1="51.314740" y1="111.941892" x2="58.803825" y2="111.941892" stroke="#5fd3bc" stroke-width="2" stroke-opacity="1.000000"/>
   <line id="192" x1="52.113542" y1="112.691892" x2="57.565196" y2="112.691892" stroke="#5fd3bc" stroke-width="2" stroke-opacity="1.000000"/>
   <line id="193" x1="52.912344" y1="113.441892" x2="56.326567" y2="113.441892" stroke="#5fd3bc" stroke-width="2" stroke-opacity="1.000000"/>
   <line id="194" x1="53.711145" y1="114.191892" x2="55.087938" y2="114.191892" stroke="#5fd3bc" stroke-width="2" stroke-opacity="1.000000"/>
</g>
</svg>
