<?xml version="1.0" encoding="UTF-8"?>
<svg xmlns="http://www.w3.org/2000/svg" width="305.0000" height="285.0000" viewBox="-25.0000 0 305.0000 285.0000">
  <circle cx="0.0000" cy="260.0000" r="5.0000" stroke="black" fill="gray"/>
  <circle cx="100.0000" cy="260.0000" r="5.0000" stroke="black" fill="gray"/>
  <circle cx="150.0000" cy="180.0000" r="5.0000" stroke="black" fill="gray"/>
  <circle cx="80.0000" cy="110.0000" r="5.0000" stroke="black" fill="gray"/>
  <circle cx="20.0000" cy="140.0000" r="5.0000" stroke="black" fill="gray"/>
  <rect x="200.0000" y="20.0000" width="60.0000" height="40.0000" stroke="black" fill="cyan"/>
  <line x1="10.0000" y1="250.0000" x2="50.0000" y2="210.0000" stroke="blue"/>
  <!-- sel -->
  <rect x="0.0000" y="-40.0000" width="300.0000" height="300.0000" stroke="red" fill="transparent" stroke-dasharray="5,3" stroke-width="1.5"/>
  <circle cx="150.0000" cy="180.0000" r="6.0" stroke="red" fill="none" stroke-width="2.0"/>
  <circle cx="80.0000" cy="110.0000" r="6.0" stroke="red" fill="none" stroke-width="2.0"/>
  <circle cx="20.0000" cy="140.0000" r="6.0" stroke="red" fill="none" stroke-width="2.0"/>
  <circle cx="200.0000" cy="60.0000" r="6.0" stroke="red" fill="none" stroke-width="2.0"/>
  <circle cx="10.0000" cy="250.0000" r="6.0" stroke="red" fill="none" stroke-width="2.0"/>
  <circle cx="0.0000" cy="260.0000" r="6.0" stroke="red" fill="none" stroke-width="2.0"/>
  <circle cx="100.0000" cy="260.0000" r="6.0" stroke="red" fill="none" stroke-width="2.0"/>
  <circle cx="80.0000" cy="110.0000" r="6.0" stroke="red" fill="none" stroke-width="2.0"/>
  <circle cx="20.0000" cy="140.0000" r="6.0" stroke="red" fill="none" stroke-width="2.0"/>
  <circle cx="0.0000" cy="260.0000" r="6.0" stroke="red" fill="none" stroke-width="2.0"/>
  <circle cx="3.3333" cy="240.0000" r="6.0" stroke="red" fill="none" stroke-width="2.0"/>
  <circle cx="6.6667" cy="220.0000" r="6.0" stroke="red" fill="none" stroke-width="2.0"/>
  <circle cx="10.0000" cy="200.0000" r="6.0" stroke="red" fill="none" stroke-width="2.0"/>
  <circle cx="13.3333" cy="180.0000" r="6.0" stroke="red" fill="none" stroke-width="2.0"/>
  <circle cx="16.6667" cy="160.0000" r="6.0" stroke="red" fill="none" stroke-width="2.0"/>
  <circle cx="20.0000" cy="140.0000" r="6.0" stroke="red" fill="none" stroke-width="2.0"/>
  <circle cx="60.0000" cy="120.0000" r="6.0" stroke="red" fill="none" stroke-width="2.0"/>
</svg>
