<?xml version="1.0" encoding="UTF-8"?>
<svg xmlns="http://www.w3.org/2000/svg" xmlns:xlink="http://www.w3.org/1999/xlink" width="112.5000" height="125.2628" viewBox="17.5000 -2.6314 112.5000 125.2628">
<g id="fig">
   <text x="115.000000" y="60.000000" id="10" text-anchor="middle" fill="#916f6f" stroke="None" font-family="sans-serif" font-size="9pt" font-weight="lighter">Que te amam eternamente</text>
   <text x="32.500000" y="107.631397" id="11" text-anchor="middle" fill="#916f6f" stroke="None" font-family="sans-serif" font-size="9pt" font-weight="lighter">De Sao Paulo tens o nome</text>
   <text x="32.500000" y="12.368603" id="12" text-anchor="middle" fill="#916f6f" stroke="None" font-family="sans-serif" font-size="9pt" font-weight="lighter">Que ostentas dignamente</text>
   <line id="22" x1="115.000000" y1="60.000000" x2="32.500000" y2="107.631397" stroke="#5f5dd3" stroke-width="2" stroke-opacity="1.000000"/>
   <line id="23" x1="32.500000" y1="107.631397" x2="32.500000" y2="12.368603" stroke="#5f5dd3" stroke-width="2" stroke-opacity="1.000000"/>
   <line id="24" x1="32.500000" y1="12.368603" x2="115.000000" y2="60.000000" stroke="#5f5dd3" stroke-width="2" stroke-opacity="1.000000"/>
   <line id="25" x1="32.500000" y1="13.118603" x2="33.799038" y2="13.118603" stroke="#5fd3bc" stroke-width="2" stroke-opacity="1.000000"/>
   <line id="26" x1="32.500000" y1="13.868603" x2="35.098076" y2="13.868603" stroke="#5fd3bc" stroke-width="2" stroke-opacity="1.000000"/>
   <line id="27" x1="32.500000" y1="14.618603" x2="36.397114" y2="14.618603" stroke="#5fd3bc" stroke-width="2" stroke-opacity="1.000000"/>
   <line id="28" x1="32.500000" y1="15.368603" x2="37.696152" y2="15.368603" stroke="#5fd3bc" stroke-width="2" stroke-opacity="1.000000"/>
   <line id="29" x1="32.500000" y1="16.118603" x2="38.995191" y2="16.118603" stroke="#5fd3bc" stroke-width="2" stroke-opacity="1.000000"/>
   <line id="30" x1="32.500000" y1="16.868603" x2="40.294229" y2="16.868603" stroke="#5fd3bc" stroke-width="2" stroke-opacity="1.000000"/>
   <line id="31" x1="32.500000" y1="17.618603" x2="41.593267" y2="17.618603" stroke="#5fd3bc" stroke-width="2" stroke-opacity="1.000000"/>
   <line id="32" x1="32.500000" y1="18.368603" x2="42.892305" y2="18.368603" stroke="#5fd3bc" stroke-width="2" stroke-opacity="1.000000"/>
   <line id="33" x1="32.500000" y1="19.118603" x2="44.191343" y2="19.118603" stroke="#5fd3bc" stroke-width="2" stroke-opacity="1.000000"/>
   <line id="34" x1="32.500000" y1="19.868603" x2="45.490381" y2="19.868603" stroke="#5fd3bc" stroke-width="2" stroke-opacity="1.000000"/>
   <line id="35" x1="32.500000" y1="20.618603" x2="46.789419" y2="20.618603" stroke="#5fd3bc" stroke-width="2" stroke-opacity="1.000000"/>
   <line id="36" x1="32.500000" y1="21.368603" x2="48.088457" y2="21.368603" stroke="#5fd3bc" stroke-width="2" stroke-opacity="1.000000"/>
   <line id="37" x1="32.500000" y1="22.118603" x2="49.387495" y2="22.118603" stroke="#5fd3bc" stroke-width="2" stroke-opacity="1.000000"/>
   <line id="38" x1="32.500000" y1="22.868603" x2="50.686534" y2="22.868603" stroke="#5fd3bc" stroke-width="2" stroke-opacity="1.000000"/>
   <line id="39" x1="32.500000" y1="23.618603" x2="51.985572" y2="23.618603" stroke="#5fd3bc" stroke-width="2" stroke-opacity="1.000000"/>
   <line id="40" x1="32.500000" y1="24.368603" x2="53.284610" y2="24.368603" stroke="#5fd3bc" stroke-width="2" stroke-opacity="1.000000"/>
   <line id="41" x1="32.500000" y1="25.118603" x2="54.583648" y2="25.118603" stroke="#5fd3bc" stroke-width="2" stroke-opacity="1.000000"/>
   <line id="42" x1="32.500000" y1="25.868603" x2="55.882686" y2="25.868603" stroke="#5fd3bc" stroke-width="2" stroke-opacity="1.000000"/>
   <line id="43" x1="32.500000" y1="26.618603" x2="57.181724" y2="26.618603" stroke="#5fd3bc" stroke-width="2" stroke-opacity="1.000000"/>
   <line id="44" x1="32.500000" y1="27.368603" x2="58.480762" y2="27.368603" stroke="#5fd3bc" stroke-width="2" stroke-opacity="1.000000"/>
   <line id="45" x1="32.500000" y1="28.118603" x2="59.779800" y2="28.118603" stroke="#5fd3bc" stroke-width="2" stroke-opacity="1.000000"/>
   <line id="46" x1="32.500000" y1="28.868603" x2="61.078838" y2="28.868603" stroke="#5fd3bc" stroke-width="2" stroke-opacity="1.000000"/>
   <line id="47" x1="32.500000" y1="29.618603" x2="62.377877" y2="29.618603" stroke="#5fd3bc" stroke-width="2" stroke-opacity="1.000000"/>
   <line id="48" x1="32.500000" y1="30.368603" x2="63.676915" y2="30.368603" stroke="#5fd3bc" stroke-width="2" stroke-opacity="1.000000"/>
   <line id="49" x1="32.500000" y1="31.118603" x2="64.975953" y2="31.118603" stroke="#5fd3bc" stroke-width="2" stroke-opacity="1.000000"/>
   <line id="50" x1="32.500000" y1="31.868603" x2="66.274991" y2="31.868603" stroke="#5fd3bc" stroke-width="2" stroke-opacity="1.000000"/>
   <line id="51" x1="32.500000" y1="32.618603" x2="67.574029" y2="32.618603" stroke="#5fd3bc" stroke-width="2" stroke-opacity="1.000000"/>
   <line id="52" x1="32.500000" y1="33.368603" x2="68.873067" y2="33.368603" stroke="#5fd3bc" stroke-width="2" stroke-opacity="1.000000"/>
   <line id="53" x1="32.500000" y1="34.118603" x2="70.172105" y2="34.118603" stroke="#5fd3bc" stroke-width="2" stroke-opacity="1.000000"/>
   <line id="54" x1="32.500000" y1="34.868603" x2="71.471143" y2="34.868603" stroke="#5fd3bc" stroke-width="2" stroke-opacity="1.000000"/>
   <line id="55" x1="32.500000" y1="35.618603" x2="72.770181" y2="35.618603" stroke="#5fd3bc" stroke-width="2" stroke-opacity="1.000000"/>
   <line id="56" x1="32.500000" y1="36.368603" x2="74.069220" y2="36.368603" stroke="#5fd3bc" stroke-width="2" stroke-opacity="1.000000"/>
   <line id="57" x1="32.500000" y1="37.118603" x2="75.368258" y2="37.118603" stroke="#5fd3bc" stroke-width="2" stroke-opacity="1.000000"/>
   <line id="58" x1="32.500000" y1="37.868603" x2="76.667296" y2="37.868603" stroke="#5fd3bc" stroke-width="2" stroke-opacity="1.000000"/>
   <line id="59" x1="32.500000" y1="38.618603" x2="77.966334" y2="38.618603" stroke="#5fd3bc" stroke-width="2" stroke-opacity="1.000000"/>
   <line id="60" x1="32.500000" y1="39.368603" x2="79.265372" y2="39.368603" stroke="#5fd3bc" stroke-width="2" stroke-opacity="1.000000"/>
   <line id="61" x1="32.500000" y1="40.118603" x2="80.564410" y2="40.118603" stroke="#5fd3bc" stroke-width="2" stroke-opacity="1.000000"/>
   <line id="62" x1="32.500000" y1="40.868603" x2="81.863448" y2="40.868603" stroke="#5fd3bc" stroke-width="2" stroke-opacity="1.000000"/>
   <line id="63" x1="32.500000" y1="41.618603" x2="83.162486" y2="41.618603" stroke="#5fd3bc" stroke-width="2" stroke-opacity="1.000000"/>
   <line id="64" x1="32.500000" y1="42.368603" x2="84.461524" y2="42.368603" stroke="#5fd3bc" stroke-width="2" stroke-opacity="1.000000"/>
   <line id="65" x1="32.500000" y1="43.118603" x2="85.760563" y2="43.118603" stroke="#5fd3bc" stroke-width="2" stroke-opacity="1.000000"/>
   <line id="66" x1="32.500000" y1="43.868603" x2="87.059601" y2="43.868603" stroke="#5fd3bc" stroke-width="2" stroke-opacity="1.000000"/>
   <line id="67" x1="32.500000" y1="44.618603" x2="88.358639" y2="44.618603" stroke="#5fd3bc" stroke-width="2" stroke-opacity="1.000000"/>
   <line id="68" x1="32.500000" y1="45.368603" x2="89.657677" y2="45.368603" stroke="#5fd3bc" stroke-width="2" stroke-opacity="1.000000"/>
   <line id="69" x1="32.500000" y1="46.118603" x2="90.956715" y2="46.118603" stroke="#5fd3bc" stroke-width="2" stroke-opacity="1.000000"/>
   <line id="70" x1="32.500000" y1="46.868603" x2="92.255753" y2="46.868603" stroke="#5fd3bc" stroke-width="2" stroke-opacity="1.000000"/>
   <line id="71" x1="32.500000" y1="47.618603" x2="93.554791" y2="47.618603" stroke="#5fd3bc" stroke-width="2" stroke-opacity="1.000000"/>
   <line id="72" x1="32.500000" y1="48.368603" x2="94.853829" y2="48.368603" stroke="#5fd3bc" stroke-width="2" stroke-opacity="1.000000"/>
   <line id="73" x1="32.500000" y1="49.118603" x2="96.152867" y2="49.118603" stroke="#5fd3bc" stroke-width="2" stroke-opacity="1.000000"/>
   <line id="74" x1="32.500000" y1="49.868603" x2="97.451906" y2="49.868603" stroke="#5fd3bc" stroke-width="2" stroke-opacity="1.000000"/>
   <line id="75" x1="32.500000" y1="50.618603" x2="98.750944" y2="50.618603" stroke="#5fd3bc" stroke-width="2" stroke-opacity="1.000000"/>
   <line id="76" x1="32.500000" y1="51.368603" x2="100.049982" y2="51.368603" stroke="#5fd3bc" stroke-width="2" stroke-opacity="1.000000"/>
   <line id="77" x1="32.500000" y1="52.118603" x2="101.349020" y2="52.118603" stroke="#5fd3bc" stroke-width="2" stroke-opacity="1.000000"/>
   <line id="78" x1="32.500000" y1="52.868603" x2="102.648058" y2="52.868603" stroke="#5fd3bc" stroke-width="2" stroke-opacity="1.000000"/>
   <line id="79" x1="32.500000" y1="53.618603" x2="103.947096" y2="53.618603" stroke="#5fd3bc" stroke-width="2" stroke-opacity="1.000000"/>
   <line id="80" x1="32.500000" y1="54.368603" x2="105.246134" y2="54.368603" stroke="#5fd3bc" stroke-width="2" stroke-opacity="1.000000"/>
   <line id="81" x1="32.500000" y1="55.118603" x2="106.545172" y2="55.118603" stroke="#5fd3bc" stroke-width="2" stroke-opacity="1.000000"/>
   <line id="82" x1="32.500000" y1="55.868603" x2="107.844210" y2="55.868603" stroke="#5fd3bc" stroke-width="2" stroke-opacity="1.000000"/>
   <line id="83" x1="32.500000" y1="56.618603" x2="109.143249" y2="56.618603" stroke="#5fd3bc" stroke-width="2" stroke-opacity="1.000000"/>
   <line id="84" x1="32.500000" y1="57.368603" x2="110.442287" y2="57.368603" stroke="#5fd3bc" stroke-width="2" stroke-opacity="1.000000"/>
   <line id="85" x1="32.500000" y1="58.118603" x2="111.741325" y2="58.118603" stroke="#5fd3bc" stroke-width="2" stroke-opacity="1.000000"/>
   <line id="86" x1="32.500000" y1="58.868603" x2="113.040363" y2="58.868603" stroke="#5fd3bc" stroke-width="2" stroke-opacity="1.000000"/>
   <line id="87" x1="32.500000" y1="59.618603" x2="114.339401" y2="59.618603" stroke="#5fd3bc" stroke-width="2" stroke-opacity="1.000000"/>
   <line id="88" x1="32.500000" y1="60.368603" x2="114.361561" y2="60.368603" stroke="#5fd3bc" stroke-width="2" stroke-opacity="1.000000"/>
   <line id="89" x1="32.500000" y1="61.118603" x2="113.062523" y2="61.118603" stroke="#5fd3bc" stroke-width="2" stroke-opacity="1.000000"/>
   <line id="90" x1="32.500000" y1="61.868603" x2="111.763485" y2="61.868603" stroke="#5fd3bc" stroke-width="2" stroke-opacity="1.000000"/>
   <line id="91" x1="32.500000" y1="62.618603" x2="110.464447" y2="62.618603" stroke="#5fd3bc" stroke-width="2" stroke-opacity="1.000000"/>
   <line id="92" x1="32.500000" y1="63.368603" x2="109.165408" y2="63.368603" stroke="#5fd3bc" stroke-width="2" stroke-opacity="1.000000"/>
   <line id="93" x1="32.500000" y1="64.118603" x2="107.866370" y2="64.118603" stroke="#5fd3bc" stroke-width="2" stroke-opacity="1.000000"/>
   <line id="94" x1="32.500000" y1="64.868603" x2="106.567332" y2="64.868603" stroke="#5fd3bc" stroke-width="2" stroke-opacity="1.000000"/>
   <line id="95" x1="32.500000" y1="65.618603" x2="105.268294" y2="65.618603" stroke="#5fd3bc" stroke-width="2" stroke-opacity="1.000000"/>
   <line id="96" x1="32.500000" y1="66.368603" x2="103.969256" y2="66.368603" stroke="#5fd3bc" stroke-width="2" stroke-opacity="1.000000"/>
   <line id="97" x1="32.500000" y1="67.118603" x2="102.670218" y2="67.118603" stroke="#5fd3bc" stroke-width="2" stroke-opacity="1.000000"/>
   <line id="98" x1="32.500000" y1="67.868603" x2="101.371180" y2="67.868603" stroke="#5fd3bc" stroke-width="2" stroke-opacity="1.000000"/>
   <line id="99" x1="32.500000" y1="68.618603" x2="100.072142" y2="68.618603" stroke="#5fd3bc" stroke-width="2" stroke-opacity="1.000000"/>
   <line id="100" x1="32.500000" y1="69.368603" x2="98.773104" y2="69.368603" stroke="#5fd3bc" stroke-width="2" stroke-opacity="1.000000"/>
   <line id="101" x1="32.500000" y1="70.118603" x2="97.474065" y2="70.118603" stroke="#5fd3bc" stroke-width="2" stroke-opacity="1.000000"/>
   <line id="102" x1="32.500000" y1="70.868603" x2="96.175027" y2="70.868603" stroke="#5fd3bc" stroke-width="2" stroke-opacity="1.000000"/>
   <line id="103" x1="32.500000" y1="71.618603" x2="94.875989" y2="71.618603" stroke="#5fd3bc" stroke-width="2" stroke-opacity="1.000000"/>
   <line id="104" x1="32.500000" y1="72.368603" x2="93.576951" y2="72.368603" stroke="#5fd3bc" stroke-width="2" stroke-opacity="1.000000"/>
   <line id="105" x1="32.500000" y1="73.118603" x2="92.277913" y2="73.118603" stroke="#5fd3bc" stroke-width="2" stroke-opacity="1.000000"/>
   <line id="106" x1="32.500000" y1="73.868603" x2="90.978875" y2="73.868603" stroke="#5fd3bc" stroke-width="2" stroke-opacity="1.000000"/>
   <line id="107" x1="32.500000" y1="74.618603" x2="89.679837" y2="74.618603" stroke="#5fd3bc" stroke-width="2" stroke-opacity="1.000000"/>
   <line id="108" x1="32.500000" y1="75.368603" x2="88.380799" y2="75.368603" stroke="#5fd3bc" stroke-width="2" stroke-opacity="1.000000"/>
   <line id="109" x1="32.500000" y1="76.118603" x2="87.081761" y2="76.118603" stroke="#5fd3bc" stroke-width="2" stroke-opacity="1.000000"/>
   <line id="110" x1="32.500000" y1="76.868603" x2="85.782722" y2="76.868603" stroke="#5fd3bc" stroke-width="2" stroke-opacity="1.000000"/>
   <line id="111" x1="32.500000" y1="77.618603" x2="84.483684" y2="77.618603" stroke="#5fd3bc" stroke-width="2" stroke-opacity="1.000000"/>
   <line id="112" x1="32.500000" y1="78.368603" x2="83.184646" y2="78.368603" stroke="#5fd3bc" stroke-width="2" stroke-opacity="1.000000"/>
   <line id="113" x1="32.500000" y1="79.118603" x2="81.885608" y2="79.118603" stroke="#5fd3bc" stroke-width="2" stroke-opacity="1.000000"/>
   <line id="114" x1="32.500000" y1="79.868603" x2="80.586570" y2="79.868603" stroke="#5fd3bc" stroke-width="2" stroke-opacity="1.000000"/>
   <line id="115" x1="32.500000" y1="80.618603" x2="79.287532" y2="80.618603" stroke="#5fd3bc" stroke-width="2" stroke-opacity="1.000000"/>
   <line id="116" x1="32.500000" y1="81.368603" x2="77.988494" y2="81.368603" stroke="#5fd3bc" stroke-width="2" stroke-opacity="1.000000"/>
   <line id="117" x1="32.500000" y1="82.118603" x2="76.689456" y2="82.118603" stroke="#5fd3bc" stroke-width="2" stroke-opacity="1.000000"/>
   <line id="118" x1="32.500000" y1="82.868603" x2="75.390418" y2="82.868603" stroke="#5fd3bc" stroke-width="2" stroke-opacity="1.000000"/>
   <line id="119" x1="32.500000" y1="83.618603" x2="74.091379" y2="83.618603" stroke="#5fd3bc" stroke-width="2" stroke-opacity="1.000000"/>
   <line id="120" x1="32.500000" y1="84.368603" x2="72.792341" y2="84.368603" stroke="#5fd3bc" stroke-width="2" stroke-opacity="1.000000"/>
   <line id="121" x1="32.500000" y1="85.118603" x2="71.493303" y2="85.118603" stroke="#5fd3bc" stroke-width="2" stroke-opacity="1.000000"/>
   <line id="122" x1="32.500000" y1="85.868603" x2="70.194265" y2="85.868603" stroke="#5fd3bc" stroke-width="2" stroke-opacity="1.000000"/>
   <line id="123" x1="32.500000" y1="86.618603" x2="68.895227" y2="86.618603" stroke="#5fd3bc" stroke-width="2" stroke-opacity="1.000000"/>
   <line id="124" x1="32.500000" y1="87.368603" x2="67.596189" y2="87.368603" stroke="#5fd3bc" stroke-width="2" stroke-opacity="1.000000"/>
   <line id="125" x1="32.500000" y1="88.118603" x2="66.297151" y2="88.118603" stroke="#5fd3bc" stroke-width="2" stroke-opacity="1.000000"/>
   <line id="126" x1="32.500000" y1="88.868603" x2="64.998113" y2="88.868603" stroke="#5fd3bc" stroke-width="2" stroke-opacity="1.000000"/>
   <line id="127" x1="32.500000" y1="89.618603" x2="63.699075" y2="89.618603" stroke="#5fd3bc" stroke-width="2" stroke-opacity="1.000000"/>
   <line id="128" x1="32.500000" y1="90.368603" x2="62.400036" y2="90.368603" stroke="#5fd3bc" stroke-width="2" stroke-opacity="1.000000"/>
   <line id="129" x1="32.500000" y1="91.118603" x2="61.100998" y2="91.118603" stroke="#5fd3bc" stroke-width="2" stroke-opacity="1.000000"/>
   <line id="130" x1="32.500000" y1="91.868603" x2="59.801960" y2="91.868603" stroke="#5fd3bc" stroke-width="2" stroke-opacity="1.000000"/>
   <line id="131" x1="32.500000" y1="92.618603" x2="58.502922" y2="92.618603" stroke="#5fd3bc" stroke-width="2" stroke-opacity="1.000000"/>
   <line id="132" x1="32.500000" y1="93.368603" x2="57.203884" y2="93.368603" stroke="#5fd3bc" stroke-width="2" stroke-opacity="1.000000"/>
   <line id="133" x1="32.500000" y1="94.118603" x2="55.904846" y2="94.118603" stroke="#5fd3bc" stroke-width="2" stroke-opacity="1.000000"/>
   <line id="134" x1="32.500000" y1="94.868603" x2="54.605808" y2="94.868603" stroke="#5fd3bc" stroke-width="2" stroke-opacity="1.000000"/>
   <line id="135" x1="32.500000" y1="95.618603" x2="53.306770" y2="95.618603" stroke="#5fd3bc" stroke-width="2" stroke-opacity="1.000000"/>
   <line id="136" x1="32.500000" y1="96.368603" x2="52.007732" y2="96.368603" stroke="#5fd3bc" stroke-width="2" stroke-opacity="1.000000"/>
   <line id="137" x1="32.500000" y1="97.118603" x2="50.708693" y2="97.118603" stroke="#5fd3bc" stroke-width="2" stroke-opacity="1.000000"/>
   <line id="138" x1="32.500000" y1="97.868603" x2="49.409655" y2="97.868603" stroke="#5fd3bc" stroke-width="2" stroke-opacity="1.000000"/>
   <line id="139" x1="32.500000" y1="98.618603" x2="48.110617" y2="98.618603" stroke="#5fd3bc" stroke-width="2" stroke-opacity="1.000000"/>
   <line id="140" x1="32.500000" y1="99.368603" x2="46.811579" y2="99.368603" stroke="#5fd3bc" stroke-width="2" stroke-opacity="1.000000"/>
   <line id="141" x1="32.500000" y1="100.118603" x2="45.512541" y2="100.118603" stroke="#5fd3bc" stroke-width="2" stroke-opacity="1.000000"/>
   <line id="142" x1="32.500000" y1="100.868603" x2="44.213503" y2="100.868603" stroke="#5fd3bc" stroke-width="2" stroke-opacity="1.000000"/>
   <line id="143" x1="32.500000" y1="101.618603" x2="42.914465" y2="101.618603" stroke="#5fd3bc" stroke-width="2" stroke-opacity="1.000000"/>
   <line id="144" x1="32.500000" y1="102.368603" x2="41.615427" y2="102.368603" stroke="#5fd3bc" stroke-width="2" stroke-opacity="1.000000"/>
   <line id="145" x1="32.500000" y1="103.118603" x2="40.316389" y2="103.118603" stroke="#5fd3bc" stroke-width="2" stroke-opacity="1.000000"/>
   <line id="146" x1="32.500000" y1="103.868603" x2="39.017350" y2="103.868603" stroke="#5fd3bc" stroke-width="2" stroke-opacity="1.000000"/>
   <line id="147" x1="32.500000" y1="104.618603" x2="37.718312" y2="104.618603" stroke="#5fd3bc" stroke-width="2" stroke-opacity="1.000000"/>
   <line id="148" x1="32.500000" y1="105.368603" x2="36.419274" y2="105.368603" stroke="#5fd3bc" stroke-width="2" stroke-opacity="1.000000"/>
   <line id="149" x1="32.500000" y1="106.118603" x2="35.120236" y2="106.118603" stroke="#5fd3bc" stroke-width="2" stroke-opacity="1.000000"/>
   <line id="150" x1="32.500000" y1="106.868603" x2="33.821198" y2="106.868603" stroke="#5fd3bc" stroke-width="2" stroke-opacity="1.000000"/>
   <line id="151" x1="32.500000" y1="107.618603" x2="32.522160" y2="107.618603" stroke="#5fd3bc" stroke-width="2" stroke-opacity="1.000000"/>
   <line id="22" x1="115.000000" y1="60.000000" x2="32.500000" y2="107.631397" stroke="#5f5dd3" stroke-width="2" stroke-opacity="1.000000"/>
   <line id="23" x1="32.500000" y1="107.631397" x2="32.500000" y2="12.368603" stroke="#5f5dd3" stroke-width="2" stroke-opacity="1.000000"/>
   <line id="24" x1="32.500000" y1="12.368603" x2="115.000000" y2="60.000000" stroke="#5f5dd3" stroke-width="2" stroke-opacity="1.000000"/>
   <line id="25" x1="32.500000" y1="13.118603" x2="33.799038" y2="13.118603" stroke="#5fd3bc" stroke-width="2" stroke-opacity="1.000000"/>
   <line id="26" x1="32.500000" y1="13.868603" x2="35.098076" y2="13.868603" stroke="#5fd3bc" stroke-width="2" stroke-opacity="1.000000"/>
   <line id="27" x1="32.500000" y1="14.618603" x2="36.397114" y2="14.618603" stroke="#5fd3bc" stroke-width="2" stroke-opacity="1.000000"/>
   <line id="28" x1="32.500000" y1="15.368603" x2="37.696152" y2="15.368603" stroke="#5fd3bc" stroke-width="2" stroke-opacity="1.000000"/>
   <line id="29" x1="32.500000" y1="16.118603" x2="38.995191" y2="16.118603" stroke="#5fd3bc" stroke-width="2" stroke-opacity="1.000000"/>
   <line id="30" x1="32.500000" y1="16.868603" x2="40.294229" y2="16.868603" stroke="#5fd3bc" stroke-width="2" stroke-opacity="1.000000"/>
   <line id="31" x1="32.500000" y1="17.618603" x2="41.593267" y2="17.618603" stroke="#5fd3bc" stroke-width="2" stroke-opacity="1.000000"/>
   <line id="32" x1="32.500000" y1="18.368603" x2="42.892305" y2="18.368603" stroke="#5fd3bc" stroke-width="2" stroke-opacity="1.000000"/>
   <line id="33" x1="32.500000" y1="19.118603" x2="44.191343" y2="19.118603" stroke="#5fd3bc" stroke-width="2" stroke-opacity="1.000000"/>
   <line id="34" x1="32.500000" y1="19.868603" x2="45.490381" y2="19.868603" stroke="#5fd3bc" stroke-width="2" stroke-opacity="1.000000"/>
   <line id="35" x1="32.500000" y1="20.618603" x2="46.789419" y2="20.618603" stroke="#5fd3bc" stroke-width="2" stroke-opacity="1.000000"/>
   <line id="36" x1="32.500000" y1="21.368603" x2="48.088457" y2="21.368603" stroke="#5fd3bc" stroke-width="2" stroke-opacity="1.000000"/>
   <line id="37" x1="32.500000" y1="22.118603" x2="49.387495" y2="22.118603" stroke="#5fd3bc" stroke-width="2" stroke-opacity="1.000000"/>
   <line id="38" x1="32.500000" y1="22.868603" x2="50.686534" y2="22.868603" stroke="#5fd3bc" stroke-width="2" stroke-opacity="1.000000"/>
   <line id="39" x1="32.500000" y1="23.618603" x2="51.985572" y2="23.618603" stroke="#5fd3bc" stroke-width="2" stroke-opacity="1.000000"/>
   <line id="40" x1="32.500000" y1="24.368603" x2="53.284610" y2="24.368603" stroke="#5fd3bc" stroke-width="2" stroke-opacity="1.000000"/>
   <line id="41" x1="32.500000" y1="25.118603" x2="54.583648" y2="25.118603" stroke="#5fd3bc" stroke-width="2" stroke-opacity="1.000000"/>
   <line id="42" x1="32.500000" y1="25.868603" x2="55.882686" y2="25.868603" stroke="#5fd3bc" stroke-width="2" stroke-opacity="1.000000"/>
   <line id="43" x1="32.500000" y1="26.618603" x2="57.181724" y2="26.618603" stroke="#5fd3bc" stroke-width="2" stroke-opacity="1.000000"/>
   <line id="44" x1="32.500000" y1="27.368603" x2="58.480762" y2="27.368603" stroke="#5fd3bc" stroke-width="2" stroke-opacity="1.000000"/>
   <line id="45" x1="32.500000" y1="28.118603" x2="59.779800" y2="28.118603" stroke="#5fd3bc" stroke-width="2" stroke-opacity="1.000000"/>
   <line id="46" x1="32.500000" y1="28.868603" x2="61.078838" y2="28.868603" stroke="#5fd3bc" stroke-width="2" stroke-opacity="1.000000"/>
   <line id="47" x1="32.500000" y1="29.618603" x2="62.377877" y2="29.618603" stroke="#5fd3bc" stroke-width="2" stroke-opacity="1.000000"/>
   <line id="48" x1="32.500000" y1="30.368603" x2="63.676915" y2="30.368603" stroke="#5fd3bc" stroke-width="2" stroke-opacity="1.000000"/>
   <line id="49" x1="32.500000" y1="31.118603" x2="64.975953" y2="31.118603" stroke="#5fd3bc" stroke-width="2" stroke-opacity="1.000000"/>
   <line id="50" x1="32.500000" y1="31.868603" x2="66.274991" y2="31.868603" stroke="#5fd3bc" stroke-width="2" stroke-opacity="1.000000"/>
   <line id="51" x1="32.500000" y1="32.618603" x2="67.574029" y2="32.618603" stroke="#5fd3bc" stroke-width="2" stroke-opacity="1.000000"/>
   <line id="52" x1="32.500000" y1="33.368603" x2="68.873067" y2="33.368603" stroke="#5fd3bc" stroke-width="2" stroke-opacity="1.000000"/>
   <line id="53" x1="32.500000" y1="34.118603" x2="70.172105" y2="34.118603" stroke="#5fd3bc" stroke-width="2" stroke-opacity="1.000000"/>
   <line id="54" x1="32.500000" y1="34.868603" x2="71.471143" y2="34.868603" stroke="#5fd3bc" stroke-width="2" stroke-opacity="1.000000"/>
   <line id="55" x1="32.500000" y1="35.618603" x2="72.770181" y2="35.618603" stroke="#5fd3bc" stroke-width="2" stroke-opacity="1.000000"/>
   <line id="56" x1="32.500000" y1="36.368603" x2="74.069220" y2="36.368603" stroke="#5fd3bc" stroke-width="2" stroke-opacity="1.000000"/>
   <line id="57" x1="32.500000" y1="37.118603" x2="75.368258" y2="37.118603" stroke="#5fd3bc" stroke-width="2" stroke-opacity="1.000000"/>
   <line id="58" x1="32.500000" y1="37.868603" x2="76.667296" y2="37.868603" stroke="#5fd3bc" stroke-width="2" stroke-opacity="1.000000"/>
   <line id="59" x1="32.500000" y1="38.618603" x2="77.966334" y2="38.618603" stroke="#5fd3bc" stroke-width="2" stroke-opacity="1.000000"/>
   <line id="60" x1="32.500000" y1="39.368603" x2="79.265372" y2="39.368603" stroke="#5fd3bc" stroke-width="2" stroke-opacity="1.000000"/>
   <line id="61" x1="32.500000" y1="40.118603" x2="80.564410" y2="40.118603" stroke="#5fd3bc" stroke-width="2" stroke-opacity="1.000000"/>
   <line id="62" x1="32.500000" y1="40.868603" x2="81.863448" y2="40.868603" stroke="#5fd3bc" stroke-width="2" stroke-opacity="1.000000"/>
   <line id="63" x1="32.500000" y1="41.618603" x2="83.162486" y2="41.618603" stroke="#5fd3bc" stroke-width="2" stroke-opacity="1.000000"/>
   <line id="64" x1="32.500000" y1="42.368603" x2="84.461524" y2="42.368603" stroke="#5fd3bc" stroke-width="2" stroke-opacity="1.000000"/>
   <line id="65" x1="32.500000" y1="43.118603" x2="85.760563" y2="43.118603" stroke="#5fd3bc" stroke-width="2" stroke-opacity="1.000000"/>
   <line id="66" x1="32.500000" y1="43.868603" x2="87.059601" y2="43.868603" stroke="#5fd3bc" stroke-width="2" stroke-opacity="1.000000"/>
   <line id="67" x1="32.500000" y1="44.618603" x2="88.358639" y2="44.618603" stroke="#5fd3bc" stroke-width="2" stroke-opacity="1.000000"/>
   <line id="68" x1="32.500000" y1="45.368603" x2="89.657677" y2="45.368603" stroke="#5fd3bc" stroke-width="2" stroke-opacity="1.000000"/>
   <line id="69" x1="32.500000" y1="46.118603" x2="90.956715" y2="46.118603" stroke="#5fd3bc" stroke-width="2" stroke-opacity="1.000000"/>
   <line id="70" x1="32.500000" y1="46.868603" x2="92.255753" y2="46.868603" stroke="#5fd3bc" stroke-width="2" stroke-opacity="1.000000"/>
   <line id="71" x1="32.500000" y1="47.618603" x2="93.554791" y2="47.618603" stroke="#5fd3bc" stroke-width="2" stroke-opacity="1.000000"/>
   <line id="72" x1="32.500000" y1="48.368603" x2="94.853829" y2="48.368603" stroke="#5fd3bc" stroke-width="2" stroke-opacity="1.000000"/>
   <line id="73" x1="32.500000" y1="49.118603" x2="96.152867" y2="49.118603" stroke="#5fd3bc" stroke-width="2" stroke-opacity="1.000000"/>
   <line id="74" x1="32.500000" y1="49.868603" x2="97.451906" y2="49.868603" stroke="#5fd3bc" stroke-width="2" stroke-opacity="1.000000"/>
   <line id="75" x1="32.500000" y1="50.618603" x2="98.750944" y2="50.618603" stroke="#5fd3bc" stroke-width="2" stroke-opacity="1.000000"/>
   <line id="76" x1="32.500000" y1="51.368603" x2="100.049982" y2="51.368603" stroke="#5fd3bc" stroke-width="2" stroke-opacity="1.000000"/>
   <line id="77" x1="32.500000" y1="52.118603" x2="101.349020" y2="52.118603" stroke="#5fd3bc" stroke-width="2" stroke-opacity="1.000000"/>
   <line id="78" x1="32.500000" y1="52.868603" x2="102.648058" y2="52.868603" stroke="#5fd3bc" stroke-width="2" stroke-opacity="1.000000"/>
   <line id="79" x1="32.500000" y1="53.618603" x2="103.947096" y2="53.618603" stroke="#5fd3bc" stroke-width="2" stroke-opacity="1.000000"/>
   <line id="80" x1="32.500000" y1="54.368603" x2="105.246134" y2="54.368603" stroke="#5fd3bc" stroke-width="2" stroke-opacity="1.000000"/>
   <line id="81" x1="32.500000" y1="55.118603" x2="106.545172" y2="55.118603" stroke="#5fd3bc" stroke-width="2" stroke-opacity="1.000000"/>
   <line id="82" x1="32.500000" y1="55.868603" x2="107.844210" y2="55.868603" stroke="#5fd3bc" stroke-width="2" stroke-opacity="1.000000"/>
   <line id="83" x1="32.500000" y1="56.618603" x2="109.143249" y2="56.618603" stroke="#5fd3bc" stroke-width="2" stroke-opacity="1.000000"/>
   <line id="84" x1="32.500000" y1="57.368603" x2="110.442287" y2="57.368603" stroke="#5fd3bc" stroke-width="2" stroke-opacity="1.000000"/>
   <line id="85" x1="32.500000" y1="58.118603" x2="111.741325" y2="58.118603" stroke="#5fd3bc" stroke-width="2" stroke-opacity="1.000000"/>
   <line id="86" x1="32.500000" y1="58.868603" x2="113.040363" y2="58.868603" stroke="#5fd3bc" stroke-width="2" stroke-opacity="1.000000"/>
   <line id="87" x1="32.500000" y1="59.618603" x2="114.339401" y2="59.618603" stroke="#5fd3bc" stroke-width="2" stroke-opacity="1.000000"/>
   <line id="88" x1="32.500000" y1="60.368603" x2="114.361561" y2="60.368603" stroke="#5fd3bc" stroke-width="2" stroke-opacity="1.000000"/>
   <line id="89" x1="32.500000" y1="61.118603" x2="113.062523" y2="61.118603" stroke="#5fd3bc" stroke-width="2" stroke-opacity="1.000000"/>
   <line id="90" x1="32.500000" y1="61.868603" x2="111.763485" y2="61.868603" stroke="#5fd3bc" stroke-width="2" stroke-opacity="1.000000"/>
   <line id="91" x1="32.500000" y1="62.618603" x2="110.464447" y2="62.618603" stroke="#5fd3bc" stroke-width="2" stroke-opacity="1.000000"/>
   <line id="92" x1="32.500000" y1="63.368603" x2="109.165408" y2="63.368603" stroke="#5fd3bc" stroke-width="2" stroke-opacity="1.000000"/>
   <line id="93" x1="32.500000" y1="64.118603" x2="107.866370" y2="64.118603" stroke="#5fd3bc" stroke-width="2" stroke-opacity="1.000000"/>
   <line id="94" x1="32.500000" y1="64.868603" x2="106.567332" y2="64.868603" stroke="#5fd3bc" stroke-width="2" stroke-opacity="1.000000"/>
   <line id="95" x1="32.500000" y1="65.618603" x2="105.268294" y2="65.618603" stroke="#5fd3bc" stroke-width="2" stroke-opacity="1.000000"/>
   <line id="96" x1="32.500000" y1="66.368603" x2="103.969256" y2="66.368603" stroke="#5fd3bc" stroke-width="2" stroke-opacity="1.000000"/>
   <line id="97" x1="32.500000" y1="67.118603" x2="102.670218" y2="67.118603" stroke="#5fd3bc" stroke-width="2" stroke-opacity="1.000000"/>
   <line id="98" x1="32.500000" y1="67.868603" x2="101.371180" y2="67.868603" stroke="#5fd3bc" stroke-width="2" stroke-opacity="1.000000"/>
   <line id="99" x1="32.500000" y1="68.618603" x2="100.072142" y2="68.618603" stroke="#5fd3bc" stroke-width="2" stroke-opacity="1.000000"/>
   <line id="100" x1="32.500000" y1="69.368603" x2="98.773104" y2="69.368603" stroke="#5fd3bc" stroke-width="2" stroke-opacity="1.000000"/>
   <line id="101" x1="32.500000" y1="70.118603" x2="97.474065" y2="70.118603" stroke="#5fd3bc" stroke-width="2" stroke-opacity="1.000000"/>
   <line id="102" x1="32.500000" y1="70.868603" x2="96.175027" y2="70.868603" stroke="#5fd3bc" stroke-width="2" stroke-opacity="1.000000"/>
   <line id="103" x1="32.500000" y1="71.618603" x2="94.875989" y2="71.618603" stroke="#5fd3bc" stroke-width="2" stroke-opacity="1.000000"/>
   <line id="104" x1="32.500000" y1="72.368603" x2="93.576951" y2="72.368603" stroke="#5fd3bc" stroke-width="2" stroke-opacity="1.000000"/>
   <line id="105" x1="32.500000" y1="73.118603" x2="92.277913" y2="73.118603" stroke="#5fd3bc" stroke-width="2" stroke-opacity="1.000000"/>
   <line id="106" x1="32.500000" y1="73.868603" x2="90.978875" y2="73.868603" stroke="#5fd3bc" stroke-width="2" stroke-opacity="1.000000"/>
   <line id="107" x1="32.500000" y1="74.618603" x2="89.679837" y2="74.618603" stroke="#5fd3bc" stroke-width="2" stroke-opacity="1.000000"/>
   <line id="108" x1="32.500000" y1="75.368603" x2="88.380799" y2="75.368603" stroke="#5fd3bc" stroke-width="2" stroke-opacity="1.000000"/>
   <line id="109" x1="32.500000" y1="76.118603" x2="87.081761" y2="76.118603" stroke="#5fd3bc" stroke-width="2" stroke-opacity="1.000000"/>
   <line id="110" x1="32.500000" y1="76.868603" x2="85.782722" y2="76.868603" stroke="#5fd3bc" stroke-width="2" stroke-opacity="1.000000"/>
   <line id="111" x1="32.500000" y1="77.618603" x2="84.483684" y2="77.618603" stroke="#5fd3bc" stroke-width="2" stroke-opacity="1.000000"/>
   <line id="112" x1="32.500000" y1="78.368603" x2="83.184646" y2="78.368603" stroke="#5fd3bc" stroke-width="2" stroke-opacity="1.000000"/>
   <line id="113" x1="32.500000" y1="79.118603" x2="81.885608" y2="79.118603" stroke="#5fd3bc" stroke-width="2" stroke-opacity="1.000000"/>
   <line id="114" x1="32.500000" y1="79.868603" x2="80.586570" y2="79.868603" stroke="#5fd3bc" stroke-width="2" stroke-opacity="1.000000"/>
   <line id="115" x1="32.500000" y1="80.618603" x2="79.287532" y2="80.618603" stroke="#5fd3bc" stroke-width="2" stroke-opacity="1.000000"/>
   <line id="116" x1="32.500000" y1="81.368603" x2="77.988494" y2="81.368603" stroke="#5fd3bc" stroke-width="2" stroke-opacity="1.000000"/>
   <line id="117" x1="32.500000" y1="82.118603" x2="76.689456" y2="82.118603" stroke="#5fd3bc" stroke-width="2" stroke-opacity="1.000000"/>
   <line id="118" x1="32.500000" y1="82.868603" x2="75.390418" y2="82.868603" stroke="#5fd3bc" stroke-width="2" stroke-opacity="1.000000"/>
   <line id="119" x1="32.500000" y1="83.618603" x2="74.091379" y2="83.618603" stroke="#5fd3bc" stroke-width="2" stroke-opacity="1.000000"/>
   <line id="120" x1="32.500000" y1="84.368603" x2="72.792341" y2="84.368603" stroke="#5fd3bc" stroke-width="2" stroke-opacity="1.000000"/>
   <line id="121" x1="32.500000" y1="85.118603" x2="71.493303" y2="85.118603" stroke="#5fd3bc" stroke-width="2" stroke-opacity="1.000000"/>
   <line id="122" x1="32.500000" y1="85.868603" x2="70.194265" y2="85.868603" stroke="#5fd3bc" stroke-width="2" stroke-opacity="1.000000"/>
   <line id="123" x1="32.500000" y1="86.618603" x2="68.895227" y2="86.618603" stroke="#5fd3bc" stroke-width="2" stroke-opacity="1.000000"/>
   <line id="124" x1="32.500000" y1="87.368603" x2="67.596189" y2="87.368603" stroke="#5fd3bc" stroke-width="2" stroke-opacity="1.000000"/>
   <line id="125" x1="32.500000" y1="88.118603" x2="66.297151" y2="88.118603" stroke="#5fd3bc" stroke-width="2" stroke-opacity="1.000000"/>
   <line id="126" x1="32.500000" y1="88.868603" x2="64.998113" y2="88.868603" stroke="#5fd3bc" stroke-width="2" stroke-opacity="1.000000"/>
   <line id="127" x1="32.500000" y1="89.618603" x2="63.699075" y2="89.618603" stroke="#5fd3bc" stroke-width="2" stroke-opacity="1.000000"/>
   <line id="128" x1="32.500000" y1="90.368603" x2="62.400036" y2="90.368603" stroke="#5fd3bc" stroke-width="2" stroke-opacity="1.000000"/>
   <line id="129" x1="32.500000" y1="91.118603" x2="61.100998" y2="91.118603" stroke="#5fd3bc" stroke-width="2" stroke-opacity="1.000000"/>
   <line id="130" x1="32.500000" y1="91.868603" x2="59.801960" y2="91.868603" stroke="#5fd3bc" stroke-width="2" stroke-opacity="1.000000"/>
   <line id="131" x1="32.500000" y1="92.618603" x2="58.502922" y2="92.618603" stroke="#5fd3bc" stroke-width="2" stroke-opacity="1.000000"/>
   <line id="132" x1="32.500000" y1="93.368603" x2="57.203884" y2="93.368603" stroke="#5fd3bc" stroke-width="2" stroke-opacity="1.000000"/>
   <line id="133" x1="32.500000" y1="94.118603" x2="55.904846" y2="94.118603" stroke="#5fd3bc" stroke-width="2" stroke-opacity="1.000000"/>
   <line id="134" x1="32.500000" y1="94.868603" x2="54.605808" y2="94.868603" stroke="#5fd3bc" stroke-width="2" stroke-opacity="1.000000"/>
   <line id="135" x1="32.500000" y1="95.618603" x2="53.306770" y2="95.618603" stroke="#5fd3bc" stroke-width="2" stroke-opacity="1.000000"/>
   <line id="136" x1="32.500000" y1="96.368603" x2="52.007732" y2="96.368603" stroke="#5fd3bc" stroke-width="2" stroke-opacity="1.000000"/>
   <line id="137" x1="32.500000" y1="97.118603" x2="50.708693" y2="97.118603" stroke="#5fd3bc" stroke-width="2" stroke-opacity="1.000000"/>
   <line id="138" x1="32.500000" y1="97.868603" x2="49.409655" y2="97.868603" stroke="#5fd3bc" stroke-width="2" stroke-opacity="1.000000"/>
   <line id="139" x1="32.500000" y1="98.618603" x2="48.110617" y2="98.618603" stroke="#5fd3bc" stroke-width="2" stroke-opacity="1.000000"/>
   <line id="140" x1="32.500000" y1="99.368603" x2="46.811579" y2="99.368603" stroke="#5fd3bc" stroke-width="2" stroke-opacity="1.000000"/>
   <line id="141" x1="32.500000" y1="100.118603" x2="45.512541" y2="100.118603" stroke="#5fd3bc" stroke-width="2" stroke-opacity="1.000000"/>
   <line id="142" x1="32.500000" y1="100.868603" x2="44.213503" y2="100.868603" stroke="#5fd3bc" stroke-width="2" stroke-opacity="1.000000"/>
   <line id="143" x1="32.500000" y1="101.618603" x2="42.914465" y2="101.618603" stroke="#5fd3bc" stroke-width="2" stroke-opacity="1.000000"/>
   <line id="144" x1="32.500000" y1="102.368603" x2="41.615427" y2="102.368603" stroke="#5fd3bc" stroke-width="2" stroke-opacity="1.000000"/>
   <line id="145" x1="32.500000" y1="103.118603" x2="40.316389" y2="103.118603" stroke="#5fd3bc" stroke-width="2" stroke-opacity="1.000000"/>
   <line id="146" x1="32.500000" y1="103.868603" x2="39.017350" y2="103.868603" stroke="#5fd3bc" stroke-width="2" stroke-opacity="1.000000"/>
   <line id="147" x1="32.500000" y1="104.618603" x2="37.718312" y2="104.618603" stroke="#5fd3bc" stroke-width="2" stroke-opacity="1.000000"/>
   <line id="148" x1="32.500000" y1="105.368603" x2="36.419274" y2="105.368603" stroke="#5fd3bc" stroke-width="2" stroke-opacity="1.000000"/>
   <line id="149" x1="32.500000" y1="106.118603" x2="35.120236" y2="106.118603" stroke="#5fd3bc" stroke-width="2" stroke-opacity="1.000000"/>
   <line id="150" x1="32.500000" y1="106.868603" x2="33.821198" y2="106.868603" stroke="#5fd3bc" stroke-width="2" stroke-opacity="1.000000"/>
   <line id="151" x1="32.500000" y1="107.618603" x2="32.522160" y2="107.618603" stroke="#5fd3bc" stroke-width="2" stroke-opacity="1.000000"/>
</g>
</svg>
