<?xml version="1.0" encoding="UTF-8"?>
<svg xmlns="http://www.w3.org/2000/svg" xmlns:xlink="http://www.w3.org/1999/xlink" width="205.3100" height="125.2628" viewBox="17.5000 -2.6314 205.3100 125.2628">
<g id="fig">
   <text x="207.810000" y="83.820000" id="10" text-anchor="middle" fill="#de87cd" stroke="#501644" font-family="sans-serif" font-size="9pt" font-weight="lighter">Que te amam eternamente</text>
   <text x="32.500000" y="107.631397" id="11" text-anchor="middle" fill="#916f6f" stroke="None" font-family="sans-serif" font-size="9pt" font-weight="lighter">De Sao Paulo tens o nome</text>
   <text x="125.310000" y="36.188603" id="12" text-anchor="middle" fill="#de87cd" stroke="#501644" font-family="sans-serif" font-size="9pt" font-weight="lighter">Que ostentas dignamente</text>
   <line id="22" x1="115.000000" y1="60.000000" x2="32.500000" y2="107.631397" stroke="#5f5dd3" stroke-width="0.3750" stroke-opacity="1.000000"/>
   <line id="23" x1="32.500000" y1="107.631397" x2="32.500000" y2="12.368603" stroke="#5f5dd3" stroke-width="0.3750" stroke-opacity="1.000000"/>
   <line id="24" x1="125.310000" y1="36.188603" x2="207.810000" y2="83.820000" stroke="#501644" stroke-width="0.3750" stroke-opacity="1.000000"/>
   <line id="25" x1="125.310000" y1="36.938603" x2="126.609038" y2="36.938603" stroke="#501644" stroke-width="0.1875" stroke-opacity="1.000000"/>
   <line id="26" x1="125.310000" y1="37.688603" x2="127.908076" y2="37.688603" stroke="#501644" stroke-width="0.1875" stroke-opacity="1.000000"/>
   <line id="27" x1="125.310000" y1="38.438603" x2="129.207114" y2="38.438603" stroke="#501644" stroke-width="0.1875" stroke-opacity="1.000000"/>
   <line id="28" x1="125.310000" y1="39.188603" x2="130.506152" y2="39.188603" stroke="#501644" stroke-width="0.1875" stroke-opacity="1.000000"/>
   <line id="29" x1="125.310000" y1="39.938603" x2="131.805191" y2="39.938603" stroke="#501644" stroke-width="0.1875" stroke-opacity="1.000000"/>
   <line id="30" x1="125.310000" y1="40.688603" x2="133.104229" y2="40.688603" stroke="#501644" stroke-width="0.1875" stroke-opacity="1.000000"/>
   <line id="31" x1="125.310000" y1="41.438603" x2="134.403267" y2="41.438603" stroke="#501644" stroke-width="0.1875" stroke-opacity="1.000000"/>
   <line id="32" x1="125.310000" y1="42.188603" x2="135.702305" y2="42.188603" stroke="#501644" stroke-width="0.1875" stroke-opacity="1.000000"/>
   <line id="33" x1="125.310000" y1="42.938603" x2="137.001343" y2="42.938603" stroke="#501644" stroke-width="0.1875" stroke-opacity="1.000000"/>
   <line id="34" x1="125.310000" y1="43.688603" x2="138.300381" y2="43.688603" stroke="#501644" stroke-width="0.1875" stroke-opacity="1.000000"/>
   <line id="35" x1="125.310000" y1="44.438603" x2="139.599419" y2="44.438603" stroke="#501644" stroke-width="0.1875" stroke-opacity="1.000000"/>
   <line id="36" x1="125.310000" y1="45.188603" x2="140.898457" y2="45.188603" stroke="#501644" stroke-width="0.1875" stroke-opacity="1.000000"/>
   <line id="37" x1="125.310000" y1="45.938603" x2="142.197495" y2="45.938603" stroke="#501644" stroke-width="0.1875" stroke-opacity="1.000000"/>
   <line id="38" x1="125.310000" y1="46.688603" x2="143.496534" y2="46.688603" stroke="#501644" stroke-width="0.1875" stroke-opacity="1.000000"/>
   <line id="39" x1="125.310000" y1="47.438603" x2="144.795572" y2="47.438603" stroke="#501644" stroke-width="0.1875" stroke-opacity="1.000000"/>
   <line id="40" x1="125.310000" y1="48.188603" x2="146.094610" y2="48.188603" stroke="#501644" stroke-width="0.1875" stroke-opacity="1.000000"/>
   <line id="41" x1="125.310000" y1="48.938603" x2="147.393648" y2="48.938603" stroke="#501644" stroke-width="0.1875" stroke-opacity="1.000000"/>
   <line id="42" x1="125.310000" y1="49.688603" x2="148.692686" y2="49.688603" stroke="#501644" stroke-width="0.1875" stroke-opacity="1.000000"/>
   <line id="43" x1="125.310000" y1="50.438603" x2="149.991724" y2="50.438603" stroke="#501644" stroke-width="0.1875" stroke-opacity="1.000000"/>
   <line id="44" x1="125.310000" y1="51.188603" x2="151.290762" y2="51.188603" stroke="#501644" stroke-width="0.1875" stroke-opacity="1.000000"/>
   <line id="45" x1="125.310000" y1="51.938603" x2="152.589800" y2="51.938603" stroke="#501644" stroke-width="0.1875" stroke-opacity="1.000000"/>
   <line id="46" x1="125.310000" y1="52.688603" x2="153.888838" y2="52.688603" stroke="#501644" stroke-width="0.1875" stroke-opacity="1.000000"/>
   <line id="47" x1="125.310000" y1="53.438603" x2="155.187877" y2="53.438603" stroke="#501644" stroke-width="0.1875" stroke-opacity="1.000000"/>
   <line id="48" x1="125.310000" y1="54.188603" x2="156.486915" y2="54.188603" stroke="#501644" stroke-width="0.1875" stroke-opacity="1.000000"/>
   <line id="49" x1="125.310000" y1="54.938603" x2="157.785953" y2="54.938603" stroke="#501644" stroke-width="0.1875" stroke-opacity="1.000000"/>
   <line id="50" x1="125.310000" y1="55.688603" x2="159.084991" y2="55.688603" stroke="#501644" stroke-width="0.1875" stroke-opacity="1.000000"/>
   <line id="51" x1="125.310000" y1="56.438603" x2="160.384029" y2="56.438603" stroke="#501644" stroke-width="0.1875" stroke-opacity="1.000000"/>
   <line id="52" x1="125.310000" y1="57.188603" x2="161.683067" y2="57.188603" stroke="#501644" stroke-width="0.1875" stroke-opacity="1.000000"/>
   <line id="53" x1="125.310000" y1="57.938603" x2="162.982105" y2="57.938603" stroke="#501644" stroke-width="0.1875" stroke-opacity="1.000000"/>
   <line id="54" x1="125.310000" y1="58.688603" x2="164.281143" y2="58.688603" stroke="#501644" stroke-width="0.1875" stroke-opacity="1.000000"/>
   <line id="55" x1="125.310000" y1="59.438603" x2="165.580181" y2="59.438603" stroke="#501644" stroke-width="0.1875" stroke-opacity="1.000000"/>
   <line id="56" x1="125.310000" y1="60.188603" x2="166.879220" y2="60.188603" stroke="#501644" stroke-width="0.1875" stroke-opacity="1.000000"/>
   <line id="57" x1="125.310000" y1="60.938603" x2="168.178258" y2="60.938603" stroke="#501644" stroke-width="0.1875" stroke-opacity="1.000000"/>
   <line id="58" x1="125.310000" y1="61.688603" x2="169.477296" y2="61.688603" stroke="#501644" stroke-width="0.1875" stroke-opacity="1.000000"/>
   <line id="59" x1="125.310000" y1="62.438603" x2="170.776334" y2="62.438603" stroke="#501644" stroke-width="0.1875" stroke-opacity="1.000000"/>
   <line id="60" x1="125.310000" y1="63.188603" x2="172.075372" y2="63.188603" stroke="#501644" stroke-width="0.1875" stroke-opacity="1.000000"/>
   <line id="61" x1="125.310000" y1="63.938603" x2="173.374410" y2="63.938603" stroke="#501644" stroke-width="0.1875" stroke-opacity="1.000000"/>
   <line id="62" x1="125.310000" y1="64.688603" x2="174.673448" y2="64.688603" stroke="#501644" stroke-width="0.1875" stroke-opacity="1.000000"/>
   <line id="63" x1="125.310000" y1="65.438603" x2="175.972486" y2="65.438603" stroke="#501644" stroke-width="0.1875" stroke-opacity="1.000000"/>
   <line id="64" x1="125.310000" y1="66.188603" x2="177.271524" y2="66.188603" stroke="#501644" stroke-width="0.1875" stroke-opacity="1.000000"/>
   <line id="65" x1="125.310000" y1="66.938603" x2="178.570563" y2="66.938603" stroke="#501644" stroke-width="0.1875" stroke-opacity="1.000000"/>
   <line id="66" x1="125.310000" y1="67.688603" x2="179.869601" y2="67.688603" stroke="#501644" stroke-width="0.1875" stroke-opacity="1.000000"/>
   <line id="67" x1="125.310000" y1="68.438603" x2="181.168639" y2="68.438603" stroke="#501644" stroke-width="0.1875" stroke-opacity="1.000000"/>
   <line id="68" x1="125.310000" y1="69.188603" x2="182.467677" y2="69.188603" stroke="#501644" stroke-width="0.1875" stroke-opacity="1.000000"/>
   <line id="69" x1="125.310000" y1="69.938603" x2="183.766715" y2="69.938603" stroke="#501644" stroke-width="0.1875" stroke-opacity="1.000000"/>
   <line id="70" x1="125.310000" y1="70.688603" x2="185.065753" y2="70.688603" stroke="#501644" stroke-width="0.1875" stroke-opacity="1.000000"/>
   <line id="71" x1="125.310000" y1="71.438603" x2="186.364791" y2="71.438603" stroke="#501644" stroke-width="0.1875" stroke-opacity="1.000000"/>
   <line id="72" x1="125.310000" y1="72.188603" x2="187.663829" y2="72.188603" stroke="#501644" stroke-width="0.1875" stroke-opacity="1.000000"/>
   <line id="73" x1="125.310000" y1="72.938603" x2="188.962867" y2="72.938603" stroke="#501644" stroke-width="0.1875" stroke-opacity="1.000000"/>
   <line id="74" x1="125.310000" y1="73.688603" x2="190.261906" y2="73.688603" stroke="#501644" stroke-width="0.1875" stroke-opacity="1.000000"/>
   <line id="75" x1="125.310000" y1="74.438603" x2="191.560944" y2="74.438603" stroke="#501644" stroke-width="0.1875" stroke-opacity="1.000000"/>
   <line id="76" x1="125.310000" y1="75.188603" x2="192.859982" y2="75.188603" stroke="#501644" stroke-width="0.1875" stroke-opacity="1.000000"/>
   <line id="77" x1="125.310000" y1="75.938603" x2="194.159020" y2="75.938603" stroke="#501644" stroke-width="0.1875" stroke-opacity="1.000000"/>
   <line id="78" x1="125.310000" y1="76.688603" x2="195.458058" y2="76.688603" stroke="#501644" stroke-width="0.1875" stroke-opacity="1.000000"/>
   <line id="79" x1="125.310000" y1="77.438603" x2="196.757096" y2="77.438603" stroke="#501644" stroke-width="0.1875" stroke-opacity="1.000000"/>
   <line id="80" x1="125.310000" y1="78.188603" x2="198.056134" y2="78.188603" stroke="#501644" stroke-width="0.1875" stroke-opacity="1.000000"/>
   <line id="81" x1="125.310000" y1="78.938603" x2="199.355172" y2="78.938603" stroke="#501644" stroke-width="0.1875" stroke-opacity="1.000000"/>
   <line id="82" x1="125.310000" y1="79.688603" x2="200.654210" y2="79.688603" stroke="#501644" stroke-width="0.1875" stroke-opacity="1.000000"/>
   <line id="83" x1="125.310000" y1="80.438603" x2="201.953249" y2="80.438603" stroke="#501644" stroke-width="0.1875" stroke-opacity="1.000000"/>
   <line id="84" x1="125.310000" y1="81.188603" x2="203.252287" y2="81.188603" stroke="#501644" stroke-width="0.1875" stroke-opacity="1.000000"/>
   <line id="85" x1="125.310000" y1="81.938603" x2="204.551325" y2="81.938603" stroke="#501644" stroke-width="0.1875" stroke-opacity="1.000000"/>
   <line id="86" x1="125.310000" y1="82.688603" x2="205.850363" y2="82.688603" stroke="#501644" stroke-width="0.1875" stroke-opacity="1.000000"/>
   <line id="87" x1="125.310000" y1="83.438603" x2="207.149401" y2="83.438603" stroke="#501644" stroke-width="0.1875" stroke-opacity="1.000000"/>
   <line id="88" x1="125.310000" y1="84.188603" x2="207.171561" y2="84.188603" stroke="#501644" stroke-width="0.1875" stroke-opacity="1.000000"/>
   <line id="89" x1="125.310000" y1="84.938603" x2="205.872523" y2="84.938603" stroke="#501644" stroke-width="0.1875" stroke-opacity="1.000000"/>
   <line id="90" x1="125.310000" y1="85.688603" x2="204.573485" y2="85.688603" stroke="#501644" stroke-width="0.1875" stroke-opacity="1.000000"/>
   <line id="91" x1="125.310000" y1="86.438603" x2="203.274447" y2="86.438603" stroke="#501644" stroke-width="0.1875" stroke-opacity="1.000000"/>
   <line id="92" x1="125.310000" y1="87.188603" x2="201.975408" y2="87.188603" stroke="#501644" stroke-width="0.1875" stroke-opacity="1.000000"/>
   <line id="93" x1="125.310000" y1="87.938603" x2="200.676370" y2="87.938603" stroke="#501644" stroke-width="0.1875" stroke-opacity="1.000000"/>
   <line id="94" x1="125.310000" y1="88.688603" x2="199.377332" y2="88.688603" stroke="#501644" stroke-width="0.1875" stroke-opacity="1.000000"/>
   <line id="95" x1="125.310000" y1="89.438603" x2="198.078294" y2="89.438603" stroke="#501644" stroke-width="0.1875" stroke-opacity="1.000000"/>
   <line id="96" x1="125.310000" y1="90.188603" x2="196.779256" y2="90.188603" stroke="#501644" stroke-width="0.1875" stroke-opacity="1.000000"/>
   <line id="97" x1="125.310000" y1="90.938603" x2="195.480218" y2="90.938603" stroke="#501644" stroke-width="0.1875" stroke-opacity="1.000000"/>
   <line id="98" x1="125.310000" y1="91.688603" x2="194.181180" y2="91.688603" stroke="#501644" stroke-width="0.1875" stroke-opacity="1.000000"/>
   <line id="99" x1="125.310000" y1="92.438603" x2="192.882142" y2="92.438603" stroke="#501644" stroke-width="0.1875" stroke-opacity="1.000000"/>
   <line id="100" x1="125.310000" y1="93.188603" x2="191.583104" y2="93.188603" stroke="#501644" stroke-width="0.1875" stroke-opacity="1.000000"/>
   <line id="101" x1="125.310000" y1="93.938603" x2="190.284065" y2="93.938603" stroke="#501644" stroke-width="0.1875" stroke-opacity="1.000000"/>
   <line id="102" x1="125.310000" y1="94.688603" x2="188.985027" y2="94.688603" stroke="#501644" stroke-width="0.1875" stroke-opacity="1.000000"/>
   <line id="103" x1="125.310000" y1="95.438603" x2="187.685989" y2="95.438603" stroke="#501644" stroke-width="0.1875" stroke-opacity="1.000000"/>
   <line id="104" x1="125.310000" y1="96.188603" x2="186.386951" y2="96.188603" stroke="#501644" stroke-width="0.1875" stroke-opacity="1.000000"/>
   <line id="105" x1="125.310000" y1="96.938603" x2="185.087913" y2="96.938603" stroke="#501644" stroke-width="0.1875" stroke-opacity="1.000000"/>
   <line id="106" x1="125.310000" y1="97.688603" x2="183.788875" y2="97.688603" stroke="#501644" stroke-width="0.1875" stroke-opacity="1.000000"/>
   <line id="107" x1="125.310000" y1="98.438603" x2="182.489837" y2="98.438603" stroke="#501644" stroke-width="0.1875" stroke-opacity="1.000000"/>
   <line id="108" x1="125.310000" y1="99.188603" x2="181.190799" y2="99.188603" stroke="#501644" stroke-width="0.1875" stroke-opacity="1.000000"/>
   <line id="109" x1="125.310000" y1="99.938603" x2="179.891761" y2="99.938603" stroke="#501644" stroke-width="0.1875" stroke-opacity="1.000000"/>
   <line id="110" x1="125.310000" y1="100.688603" x2="178.592722" y2="100.688603" stroke="#501644" stroke-width="0.1875" stroke-opacity="1.000000"/>
   <line id="111" x1="125.310000" y1="101.438603" x2="177.293684" y2="101.438603" stroke="#501644" stroke-width="0.1875" stroke-opacity="1.000000"/>
   <line id="112" x1="125.310000" y1="102.188603" x2="175.994646" y2="102.188603" stroke="#501644" stroke-width="0.1875" stroke-opacity="1.000000"/>
   <line id="113" x1="125.310000" y1="102.938603" x2="174.695608" y2="102.938603" stroke="#501644" stroke-width="0.1875" stroke-opacity="1.000000"/>
   <line id="114" x1="125.310000" y1="103.688603" x2="173.396570" y2="103.688603" stroke="#501644" stroke-width="0.1875" stroke-opacity="1.000000"/>
   <line id="115" x1="125.310000" y1="104.438603" x2="172.097532" y2="104.438603" stroke="#501644" stroke-width="0.1875" stroke-opacity="1.000000"/>
   <line id="116" x1="125.310000" y1="105.188603" x2="170.798494" y2="105.188603" stroke="#501644" stroke-width="0.1875" stroke-opacity="1.000000"/>
   <line id="117" x1="125.310000" y1="105.938603" x2="169.499456" y2="105.938603" stroke="#501644" stroke-width="0.1875" stroke-opacity="1.000000"/>
   <line id="118" x1="125.310000" y1="106.688603" x2="168.200418" y2="106.688603" stroke="#501644" stroke-width="0.1875" stroke-opacity="1.000000"/>
   <line id="119" x1="125.310000" y1="107.438603" x2="166.901379" y2="107.438603" stroke="#501644" stroke-width="0.1875" stroke-opacity="1.000000"/>
   <line id="120" x1="32.500000" y1="84.368603" x2="72.792341" y2="84.368603" stroke="#5fd3bc" stroke-width="0.1875" stroke-opacity="1.000000"/>
   <line id="121" x1="32.500000" y1="85.118603" x2="71.493303" y2="85.118603" stroke="#5fd3bc" stroke-width="0.1875" stroke-opacity="1.000000"/>
   <line id="122" x1="32.500000" y1="85.868603" x2="70.194265" y2="85.868603" stroke="#5fd3bc" stroke-width="0.1875" stroke-opacity="1.000000"/>
   <line id="123" x1="32.500000" y1="86.618603" x2="68.895227" y2="86.618603" stroke="#5fd3bc" stroke-width="0.1875" stroke-opacity="1.000000"/>
   <line id="124" x1="32.500000" y1="87.368603" x2="67.596189" y2="87.368603" stroke="#5fd3bc" stroke-width="0.1875" stroke-opacity="1.000000"/>
   <line id="125" x1="32.500000" y1="88.118603" x2="66.297151" y2="88.118603" stroke="#5fd3bc" stroke-width="0.1875" stroke-opacity="1.000000"/>
   <line id="126" x1="32.500000" y1="88.868603" x2="64.998113" y2="88.868603" stroke="#5fd3bc" stroke-width="0.1875" stroke-opacity="1.000000"/>
   <line id="127" x1="32.500000" y1="89.618603" x2="63.699075" y2="89.618603" stroke="#5fd3bc" stroke-width="0.1875" stroke-opacity="1.000000"/>
   <line id="128" x1="32.500000" y1="90.368603" x2="62.400036" y2="90.368603" stroke="#5fd3bc" stroke-width="0.1875" stroke-opacity="1.000000"/>
   <line id="129" x1="32.500000" y1="91.118603" x2="61.100998" y2="91.118603" stroke="#5fd3bc" stroke-width="0.1875" stroke-opacity="1.000000"/>
   <line id="130" x1="32.500000" y1="91.868603" x2="59.801960" y2="91.868603" stroke="#5fd3bc" stroke-width="0.1875" stroke-opacity="1.000000"/>
   <line id="131" x1="32.500000" y1="92.618603" x2="58.502922" y2="92.618603" stroke="#5fd3bc" stroke-width="0.1875" stroke-opacity="1.000000"/>
   <line id="132" x1="32.500000" y1="93.368603" x2="57.203884" y2="93.368603" stroke="#5fd3bc" stroke-width="0.1875" stroke-opacity="1.000000"/>
   <line id="133" x1="32.500000" y1="94.118603" x2="55.904846" y2="94.118603" stroke="#5fd3bc" stroke-width="0.1875" stroke-opacity="1.000000"/>
   <line id="134" x1="32.500000" y1="94.868603" x2="54.605808" y2="94.868603" stroke="#5fd3bc" stroke-width="0.1875" stroke-opacity="1.000000"/>
   <line id="135" x1="32.500000" y1="95.618603" x2="53.306770" y2="95.618603" stroke="#5fd3bc" stroke-width="0.1875" stroke-opacity="1.000000"/>
   <line id="136" x1="32.500000" y1="96.368603" x2="52.007732" y2="96.368603" stroke="#5fd3bc" stroke-width="0.1875" stroke-opacity="1.000000"/>
   <line id="137" x1="32.500000" y1="97.118603" x2="50.708693" y2="97.118603" stroke="#5fd3bc" stroke-width="0.1875" stroke-opacity="1.000000"/>
   <line id="138" x1="32.500000" y1="97.868603" x2="49.409655" y2="97.868603" stroke="#5fd3bc" stroke-width="0.1875" stroke-opacity="1.000000"/>
   <line id="139" x1="32.500000" y1="98.618603" x2="48.110617" y2="98.618603" stroke="#5fd3bc" stroke-width="0.1875" stroke-opacity="1.000000"/>
   <line id="140" x1="32.500000" y1="99.368603" x2="46.811579" y2="99.368603" stroke="#5fd3bc" stroke-width="0.1875" stroke-opacity="1.000000"/>
   <line id="141" x1="32.500000" y1="100.118603" x2="45.512541" y2="100.118603" stroke="#5fd3bc" stroke-width="0.1875" stroke-opacity="1.000000"/>
   <line id="142" x1="32.500000" y1="100.868603" x2="44.213503" y2="100.868603" stroke="#5fd3bc" stroke-width="0.1875" stroke-opacity="1.000000"/>
   <line id="143" x1="32.500000" y1="101.618603" x2="42.914465" y2="101.618603" stroke="#5fd3bc" stroke-width="0.1875" stroke-opacity="1.000000"/>
   <line id="144" x1="32.500000" y1="102.368603" x2="41.615427" y2="102.368603" stroke="#5fd3bc" stroke-width="0.1875" stroke-opacity="1.000000"/>
   <line id="145" x1="32.500000" y1="103.118603" x2="40.316389" y2="103.118603" stroke="#5fd3bc" stroke-width="0.1875" stroke-opacity="1.000000"/>
   <line id="146" x1="32.500000" y1="103.868603" x2="39.017350" y2="103.868603" stroke="#5fd3bc" stroke-width="0.1875" stroke-opacity="1.000000"/>
   <line id="147" x1="32.500000" y1="104.618603" x2="37.718312" y2="104.618603" stroke="#5fd3bc" stroke-width="0.1875" stroke-opacity="1.000000"/>
   <line id="148" x1="32.500000" y1="105.368603" x2="36.419274" y2="105.368603" stroke="#5fd3bc" stroke-width="0.1875" stroke-opacity="1.000000"/>
   <line id="149" x1="32.500000" y1="106.118603" x2="35.120236" y2="106.118603" stroke="#5fd3bc" stroke-width="0.1875" stroke-opacity="1.000000"/>
   <line id="150" x1="32.500000" y1="106.868603" x2="33.821198" y2="106.868603" stroke="#5fd3bc" stroke-width="0.1875" stroke-opacity="1.000000"/>
   <line id="151" x1="32.500000" y1="107.618603" x2="32.522160" y2="107.618603" stroke="#5fd3bc" stroke-width="0.1875" stroke-opacity="1.000000"/>
   <!-- sel -->
   <rect x="32.0000" y="11.8700" width="83.5000" height="72.2000" stroke="red" fill="transparent" stroke-dasharray="5,3" stroke-width="1.5"/>
   <circle cx="115.0000" cy="60.0000" r="6.0" stroke="red" fill="none" stroke-width="2.0"/>
   <circle cx="32.5000" cy="12.3686" r="6.0" stroke="red" fill="none" stroke-width="2.0"/>
   <circle cx="32.5000" cy="12.3686" r="6.0" stroke="red" fill="none" stroke-width="2.0"/>
   <circle cx="32.5000" cy="13.1186" r="6.0" stroke="red" fill="none" stroke-width="2.0"/>
   <circle cx="32.5000" cy="13.8686" r="6.0" stroke="red" fill="none" stroke-width="2.0"/>
   <circle cx="32.5000" cy="14.6186" r="6.0" stroke="red" fill="none" stroke-width="2.0"/>
   <circle cx="32.5000" cy="15.3686" r="6.0" stroke="red" fill="none" stroke-width="2.0"/>
   <circle cx="32.5000" cy="16.1186" r="6.0" stroke="red" fill="none" stroke-width="2.0"/>
   <circle cx="32.5000" cy="16.8686" r="6.0" stroke="red" fill="none" stroke-width="2.0"/>
   <circle cx="32.5000" cy="17.6186" r="6.0" stroke="red" fill="none" stroke-width="2.0"/>
   <circle cx="32.5000" cy="18.3686" r="6.0" stroke="red" fill="none" stroke-width="2.0"/>
   <circle cx="32.5000" cy="19.1186" r="6.0" stroke="red" fill="none" stroke-width="2.0"/>
   <circle cx="32.5000" cy="19.8686" r="6.0" stroke="red" fill="none" stroke-width="2.0"/>
   <circle cx="32.5000" cy="20.6186" r="6.0" stroke="red" fill="none" stroke-width="2.0"/>
   <circle cx="32.5000" cy="21.3686" r="6.0" stroke="red" fill="none" stroke-width="2.0"/>
   <circle cx="32.5000" cy="22.1186" r="6.0" stroke="red" fill="none" stroke-width="2.0"/>
   <circle cx="32.5000" cy="22.8686" r="6.0" stroke="red" fill="none" stroke-width="2.0"/>
   <circle cx="32.5000" cy="23.6186" r="6.0" stroke="red" fill="none" stroke-width="2.0"/>
   <circle cx="32.5000" cy="24.3686" r="6.0" stroke="red" fill="none" stroke-width="2.0"/>
   <circle cx="32.5000" cy="25.1186" r="6.0" stroke="red" fill="none" stroke-width="2.0"/>
   <circle cx="32.5000" cy="25.8686" r="6.0" stroke="red" fill="none" stroke-width="2.0"/>
   <circle cx="32.5000" cy="26.6186" r="6.0" stroke="red" fill="none" stroke-width="2.0"/>
   <circle cx="32.5000" cy="27.3686" r="6.0" stroke="red" fill="none" stroke-width="2.0"/>
   <circle cx="32.5000" cy="28.1186" r="6.0" stroke="red" fill="none" stroke-width="2.0"/>
   <circle cx="32.5000" cy="28.8686" r="6.0" stroke="red" fill="none" stroke-width="2.0"/>
   <circle cx="32.5000" cy="29.6186" r="6.0" stroke="red" fill="none" stroke-width="2.0"/>
   <circle cx="32.5000" cy="30.3686" r="6.0" stroke="red" fill="none" stroke-width="2.0"/>
   <circle cx="32.5000" cy="31.1186" r="6.0" stroke="red" fill="none" stroke-width="2.0"/>
   <circle cx="32.5000" cy="31.8686" r="6.0" stroke="red" fill="none" stroke-width="2.0"/>
   <circle cx="32.5000" cy="32.6186" r="6.0" stroke="red" fill="none" stroke-width="2.0"/>
   <circle cx="32.5000" cy="33.3686" r="6.0" stroke="red" fill="none" stroke-width="2.0"/>
   <circle cx="32.5000" cy="34.1186" r="6.0" stroke="red" fill="none" stroke-width="2.0"/>
   <circle cx="32.5000" cy="34.8686" r="6.0" stroke="red" fill="none" stroke-width="2.0"/>
   <circle cx="32.5000" cy="35.6186" r="6.0" stroke="red" fill="none" stroke-width="2.0"/>
   <circle cx="32.5000" cy="36.3686" r="6.0" stroke="red" fill="none" stroke-width="2.0"/>
   <circle cx="32.5000" cy="37.1186" r="6.0" stroke="red" fill="none" stroke-width="2.0"/>
   <circle cx="32.5000" cy="37.8686" r="6.0" stroke="red" fill="none" stroke-width="2.0"/>
   <circle cx="32.5000" cy="38.6186" r="6.0" stroke="red" fill="none" stroke-width="2.0"/>
   <circle cx="32.5000" cy="39.3686" r="6.0" stroke="red" fill="none" stroke-width="2.0"/>
   <circle cx="32.5000" cy="40.1186" r="6.0" stroke="red" fill="none" stroke-width="2.0"/>
   <circle cx="32.5000" cy="40.8686" r="6.0" stroke="red" fill="none" stroke-width="2.0"/>
   <circle cx="32.5000" cy="41.6186" r="6.0" stroke="red" fill="none" stroke-width="2.0"/>
   <circle cx="32.5000" cy="42.3686" r="6.0" stroke="red" fill="none" stroke-width="2.0"/>
   <circle cx="32.5000" cy="43.1186" r="6.0" stroke="red" fill="none" stroke-width="2.0"/>
   <circle cx="32.5000" cy="43.8686" r="6.0" stroke="red" fill="none" stroke-width="2.0"/>
   <circle cx="32.5000" cy="44.6186" r="6.0" stroke="red" fill="none" stroke-width="2.0"/>
   <circle cx="32.5000" cy="45.3686" r="6.0" stroke="red" fill="none" stroke-width="2.0"/>
   <circle cx="32.5000" cy="46.1186" r="6.0" stroke="red" fill="none" stroke-width="2.0"/>
   <circle cx="32.5000" cy="46.8686" r="6.0" stroke="red" fill="none" stroke-width="2.0"/>
   <circle cx="32.5000" cy="47.6186" r="6.0" stroke="red" fill="none" stroke-width="2.0"/>
   <circle cx="32.5000" cy="48.3686" r="6.0" stroke="red" fill="none" stroke-width="2.0"/>
   <circle cx="32.5000" cy="49.1186" r="6.0" stroke="red" fill="none" stroke-width="2.0"/>
   <circle cx="32.5000" cy="49.8686" r="6.0" stroke="red" fill="none" stroke-width="2.0"/>
   <circle cx="32.5000" cy="50.6186" r="6.0" stroke="red" fill="none" stroke-width="2.0"/>
   <circle cx="32.5000" cy="51.3686" r="6.0" stroke="red" fill="none" stroke-width="2.0"/>
   <circle cx="32.5000" cy="52.1186" r="6.0" stroke="red" fill="none" stroke-width="2.0"/>
   <circle cx="32.5000" cy="52.8686" r="6.0" stroke="red" fill="none" stroke-width="2.0"/>
   <circle cx="32.5000" cy="53.6186" r="6.0" stroke="red" fill="none" stroke-width="2.0"/>
   <circle cx="32.5000" cy="54.3686" r="6.0" stroke="red" fill="none" stroke-width="2.0"/>
   <circle cx="32.5000" cy="55.1186" r="6.0" stroke="red" fill="none" stroke-width="2.0"/>
   <circle cx="32.5000" cy="55.8686" r="6.0" stroke="red" fill="none" stroke-width="2.0"/>
   <circle cx="32.5000" cy="56.6186" r="6.0" stroke="red" fill="none" stroke-width="2.0"/>
   <circle cx="32.5000" cy="57.3686" r="6.0" stroke="red" fill="none" stroke-width="2.0"/>
   <circle cx="32.5000" cy="58.1186" r="6.0" stroke="red" fill="none" stroke-width="2.0"/>
   <circle cx="32.5000" cy="58.8686" r="6.0" stroke="red" fill="none" stroke-width="2.0"/>
   <circle cx="32.5000" cy="59.6186" r="6.0" stroke="red" fill="none" stroke-width="2.0"/>
   <circle cx="32.5000" cy="60.3686" r="6.0" stroke="red" fill="none" stroke-width="2.0"/>
   <circle cx="32.5000" cy="61.1186" r="6.0" stroke="red" fill="none" stroke-width="2.0"/>
   <circle cx="32.5000" cy="61.8686" r="6.0" stroke="red" fill="none" stroke-width="2.0"/>
   <circle cx="32.5000" cy="62.6186" r="6.0" stroke="red" fill="none" stroke-width="2.0"/>
   <circle cx="32.5000" cy="63.3686" r="6.0" stroke="red" fill="none" stroke-width="2.0"/>
   <circle cx="32.5000" cy="64.1186" r="6.0" stroke="red" fill="none" stroke-width="2.0"/>
   <circle cx="32.5000" cy="64.8686" r="6.0" stroke="red" fill="none" stroke-width="2.0"/>
   <circle cx="32.5000" cy="65.6186" r="6.0" stroke="red" fill="none" stroke-width="2.0"/>
   <circle cx="32.5000" cy="66.3686" r="6.0" stroke="red" fill="none" stroke-width="2.0"/>
   <circle cx="32.5000" cy="67.1186" r="6.0" stroke="red" fill="none" stroke-width="2.0"/>
   <circle cx="32.5000" cy="67.8686" r="6.0" stroke="red" fill="none" stroke-width="2.0"/>
   <circle cx="32.5000" cy="68.6186" r="6.0" stroke="red" fill="none" stroke-width="2.0"/>
   <circle cx="32.5000" cy="69.3686" r="6.0" stroke="red" fill="none" stroke-width="2.0"/>
   <circle cx="32.5000" cy="70.1186" r="6.0" stroke="red" fill="none" stroke-width="2.0"/>
   <circle cx="32.5000" cy="70.8686" r="6.0" stroke="red" fill="none" stroke-width="2.0"/>
   <circle cx="32.5000" cy="71.6186" r="6.0" stroke="red" fill="none" stroke-width="2.0"/>
   <circle cx="32.5000" cy="72.3686" r="6.0" stroke="red" fill="none" stroke-width="2.0"/>
   <circle cx="32.5000" cy="73.1186" r="6.0" stroke="red" fill="none" stroke-width="2.0"/>
   <circle cx="32.5000" cy="73.8686" r="6.0" stroke="red" fill="none" stroke-width="2.0"/>
   <circle cx="32.5000" cy="74.6186" r="6.0" stroke="red" fill="none" stroke-width="2.0"/>
   <circle cx="32.5000" cy="75.3686" r="6.0" stroke="red" fill="none" stroke-width="2.0"/>
   <circle cx="32.5000" cy="76.1186" r="6.0" stroke="red" fill="none" stroke-width="2.0"/>
   <circle cx="32.5000" cy="76.8686" r="6.0" stroke="red" fill="none" stroke-width="2.0"/>
   <circle cx="32.5000" cy="77.6186" r="6.0" stroke="red" fill="none" stroke-width="2.0"/>
   <circle cx="32.5000" cy="78.3686" r="6.0" stroke="red" fill="none" stroke-width="2.0"/>
   <circle cx="32.5000" cy="79.1186" r="6.0" stroke="red" fill="none" stroke-width="2.0"/>
   <circle cx="32.5000" cy="79.8686" r="6.0" stroke="red" fill="none" stroke-width="2.0"/>
   <circle cx="32.5000" cy="80.6186" r="6.0" stroke="red" fill="none" stroke-width="2.0"/>
   <circle cx="32.5000" cy="81.3686" r="6.0" stroke="red" fill="none" stroke-width="2.0"/>
   <circle cx="32.5000" cy="82.1186" r="6.0" stroke="red" fill="none" stroke-width="2.0"/>
   <circle cx="32.5000" cy="82.8686" r="6.0" stroke="red" fill="none" stroke-width="2.0"/>
   <circle cx="32.5000" cy="83.6186" r="6.0" stroke="red" fill="none" stroke-width="2.0"/>
</g>
</svg>
